<svg width="24" height="24" fill="none" xmlns="http://www.w3.org/2000/svg"><path fill="currentColor" d="M12.25 17V6.86h4.93q.98 0 1.77.17.8.16 1.42.48a4.3 4.3 0 0 1 2.3 2.95 6.2 6.2 0 0 1-.47 3.98 4.4 4.4 0 0 1-1.9 1.85q-.63.34-1.45.53a8 8 0 0 1-1.81.18zm4.47-1.65q.71 0 1.28-.11.56-.12.98-.33t.71-.51.48-.68q.18-.39.26-.84a5 5 0 0 0 0-1.9q-.08-.45-.26-.83a2.5 2.5 0 0 0-1.2-1.2q-.41-.21-.97-.32t-1.28-.11h-2.23v6.83zM1.9 14.92a12 12 0 0 0 3.58.61q.65 0 1.15-.11t.85-.31.52-.46.18-.58-.17-.57a1.5 1.5 0 0 0-.5-.5 3 3 0 0 0-.88-.35 5 5 0 0 0-1.23-.13H4.12V10.9H5.4q.6 0 1.03-.1.44-.09.72-.27.29-.17.42-.4.14-.24.14-.52a1 1 0 0 0-.08-.34 1 1 0 0 0-.22-.3q-.15-.15-.35-.25a4 4 0 0 0-1.62-.34 7 7 0 0 0-1.72.2 9 9 0 0 0-1.57.5V7.4a5 5 0 0 1 .94-.4 7 7 0 0 1 1.82-.34 8 8 0 0 1 2.53.17q.82.2 1.4.56.57.36.88.87a2.1 2.1 0 0 1-.16 2.44q-.23.3-.59.53t-.83.41q.62.18 1.07.44.45.24.75.57a2 2 0 0 1 .59 1.47 2.5 2.5 0 0 1-.55 1.55q-.27.35-.68.63t-.96.49a7 7 0 0 1-1.24.31 13 13 0 0 1-3.7-.08 9 9 0 0 1-1.52-.44z"/></svg>