<svg width="48" height="48" fill="none" xmlns="http://www.w3.org/2000/svg"><path fill="currentColor" d="M24.98 34V14.66h5.61q2.98 0 4.86 1.22a7 7 0 0 1 2.72 3.36q.86 2.15.86 5.06 0 2.94-.88 5.1a7 7 0 0 1-2.8 3.38A9.3 9.3 0 0 1 30.31 34zm5.42-1.44a7 7 0 0 0 3.94-.97 5.6 5.6 0 0 0 2.22-2.79q.7-1.81.7-4.44 0-2.65-.68-4.48a5.5 5.5 0 0 0-2.22-2.8 7.4 7.4 0 0 0-4.04-.97h-3.65v16.45zm-20.76-.78q1.14.5 2.32.77 1.2.28 2.7.28 1.75 0 2.89-.54 1.13-.53 1.65-1.47.54-.93.53-2.16 0-1.27-.51-2.15a3.3 3.3 0 0 0-1.66-1.33 8 8 0 0 0-2.98-.47H13v-1.42h1.5q1.36 0 2.32-.44a3.3 3.3 0 0 0 1.5-1.28q.5-.83.5-2 0-1.05-.48-1.91-.49-.84-1.44-1.33a5 5 0 0 0-2.3-.49q-1.1 0-2.3.3t-2.13.8v-1.48q.93-.5 2.1-.78 1.18-.28 2.39-.28 1.81 0 3.16.61a4.6 4.6 0 0 1 2.77 4.52q0 1.5-.71 2.61a4.2 4.2 0 0 1-2.04 1.63q1.89.5 2.77 1.78t.88 3.08q0 1.7-.75 2.96-.75 1.27-2.3 1.97-1.53.7-3.8.7-1.54 0-2.8-.25a9 9 0 0 1-2.2-.73z"/></svg>