<svg width="24" height="24" fill="none" xmlns="http://www.w3.org/2000/svg"><path fill="currentColor" d="M12.5 17V6.86h4.02q.9 0 1.65.16.75.17 1.37.47a4.5 4.5 0 0 1 2.36 3 6 6 0 0 1 0 2.85 4.7 4.7 0 0 1-1.3 2.25q-.48.45-1.1.76-.6.31-1.36.48a7 7 0 0 1-1.62.17zm4.12-1.18q.66 0 1.22-.13.55-.12 1-.37a3 3 0 0 0 1.31-1.37q.22-.43.34-.94a5 5 0 0 0-.34-3.1 3.2 3.2 0 0 0-1.32-1.36 4 4 0 0 0-1-.38 5 5 0 0 0-1.2-.13h-2.7v7.78zM2.6 15.39a16 16 0 0 0 1.57.38 13 13 0 0 0 1.97.17q.61 0 1.16-.1.54-.12.95-.33t.63-.53q.24-.31.24-.75 0-.42-.2-.77a2 2 0 0 0-.6-.6 3 3 0 0 0-.97-.39 6 6 0 0 0-1.34-.13H4.79v-1.16h1.22q.6 0 1.09-.1.49-.12.82-.32.34-.21.52-.53a1.5 1.5 0 0 0 .1-1.26 1 1 0 0 0-.27-.39 2 2 0 0 0-.4-.3 4 4 0 0 0-1.76-.38 10 10 0 0 0-3.3.58v-1.2a6 6 0 0 1 1.52-.43 9 9 0 0 1 3.43.03q.74.17 1.26.52.51.35.8.85.27.5.28 1.15a2.4 2.4 0 0 1-.96 1.9q-.3.25-.7.4.51.18.9.43.4.26.68.59a2.4 2.4 0 0 1 .02 3.07q-.27.31-.65.58-.4.25-.89.43-.5.17-1.1.27t-1.3.1a12 12 0 0 1-2.8-.34l-.7-.22z"/></svg>