<svg width="16" height="16" fill="none" xmlns="http://www.w3.org/2000/svg"><path fill="currentColor" d="M8 11V5.04h2.9q.57 0 1.04.1.46.09.84.28a2.5 2.5 0 0 1 1.34 1.73 3.7 3.7 0 0 1-.27 2.34 2.6 2.6 0 0 1-1.11 1.1q-.38.2-.86.3t-1.06.11zm2.63-.97q.42 0 .75-.07.33-.06.58-.19.24-.12.42-.3.16-.18.28-.4.1-.22.15-.5a3 3 0 0 0-.15-1.6 1.5 1.5 0 0 0-.7-.7 2 2 0 0 0-.58-.2 4 4 0 0 0-.75-.06H9.32v4.02zM2 9.77a7 7 0 0 0 2.1.37q.39 0 .69-.07.3-.06.5-.18a1 1 0 0 0 .3-.27.6.6 0 0 0 .1-.34 1 1 0 0 0-.1-.34 1 1 0 0 0-.3-.29q-.2-.13-.5-.2-.3-.09-.73-.09H3.3v-.95h.75q.35 0 .6-.06.27-.05.43-.15.17-.1.25-.24a1 1 0 0 0 .08-.3l-.05-.21-.13-.18-.2-.14-.27-.11a2 2 0 0 0-.69-.1 4 4 0 0 0-1 .12 5 5 0 0 0-.93.3v-.99a3 3 0 0 1 .55-.22 4 4 0 0 1 1.07-.2 5 5 0 0 1 1.5.1q.47.1.81.32t.52.52A1.3 1.3 0 0 1 6.5 7.3q-.14.17-.35.31-.2.15-.49.24.36.1.63.26.27.15.44.33a1.2 1.2 0 0 1 .35.87 1.5 1.5 0 0 1-.32.91q-.16.2-.4.37t-.57.3q-.32.1-.73.18a6 6 0 0 1-1.58.03A6 6 0 0 1 2 10.76z"/></svg>