<svg width="16" height="16" fill="none" xmlns="http://www.w3.org/2000/svg"><path fill="currentColor" d="M12.65 2.3a1.8 1.8 0 0 0-2.44-.52l-7 4.53.94 1.26L2.3 8.8l2.13 2.98L6 10.84a1.7 1.7 0 0 0 2.33.39l7.1-4.64zm-1.88.31c.31-.21.82-.11 1.05.23l2.22 3.45-1.08.71h-.3c-.4.03-.83.04-1.19-.13a1 1 0 0 1-.33-.28q-.14-.16-.15-.6l-1 .01c0 .3-.07.47-.15.6-.2.3-.64.44-1 .38-.2-.03-.53-.14-.7-.4Q8 6.43 8 6H7c0 .3-.07.47-.15.6-.17.26-.53.39-.84.4H4.98l-.33-.43zM5.3 8.01 6.1 8c.16-.02.5-.06.87-.24q.27-.13.53-.39.25.26.53.39.38.17.65.21.32.06.64 0 .27-.04.65-.21.27-.13.53-.39.25.26.53.39.24.12.5.18l-3.75 2.45a.7.7 0 0 1-1-.17v-.02l-.54-.67-1.54.93-1-1.4zM2.2 10.8A7 7 0 0 0 0 16h1c0-2.34 1.2-3.94 1.8-4.39z"/></svg>