<svg width="48" height="48" fill="none" xmlns="http://www.w3.org/2000/svg"><path fill="currentColor" d="M37.58 4.38a1.47 1.47 0 0 0-2.01-.46L14.19 17.16l1.98 3.17c.32-.2.8-.49 1.26-.84a7 7 0 0 0 1.11-1.05q.45-.57.46-.95l.01-.49h.49a.5.5 0 0 1 .29.1c.2.13.29.42.4.63.15.27.35.63.6.98q.38.56.84.93.46.36.87.36 1.13-.02 1.79-.62c.42-.4.7-1.01.71-1.88V17h.5a.5.5 0 0 1 .28.09c.17.12.22.28.4.65.14.27.33.63.58.98q.36.54.83.92.45.35.91.36 1.2-.02 1.82-.62c.4-.39.67-1 .68-1.88h1q-.02 1.66-.99 2.6a3.5 3.5 0 0 1-2.51.9c-.6 0-1.11-.25-1.53-.57a5 5 0 0 1-1.24-1.45 3 3 0 0 1-.76 1.13c-.65.6-1.53.89-2.47.89-.58 0-1.08-.25-1.49-.58s-.76-.74-1.04-1.13q-.21-.3-.38-.59-.12.2-.27.37c-.37.45-.84.87-1.29 1.21-.68.52-1.34.91-1.64 1.08l-4.2 2.33 3.99 6.64 4.5-2.5 1.25 2.11a1.5 1.5 0 0 0 2.1.53l2.2-1.4.54.85-2.21 1.4a2.5 2.5 0 0 1-3.49-.86l-.75-1.29-4.5 2.5-5.01-8.36 4.49-2.5-2.49-3.97L35.03 3.08a2.45 2.45 0 0 1 3.39.74l8.78 13.33-7.43 4.77-.54-.84 6.57-4.23zm-2.08 14.1L46.35 38h-21.7zM26.35 37h18.3L35.5 20.53zM35 31v-6h1v6zm0 4v-2h1v2zM9.82 28.85c.88-.58 1.83-.95 2.82-1.35h.04l-.75 1.25c-2.2 3.67-3.19 8.1-3.62 11.62-.27 2.2-.39 4.42-.28 6.63H2c0-5.4 1.06-11 4.62-15.26a15 15 0 0 1 3.2-2.89m-2.5 11.4a33 33 0 0 1 2.92-10.47 14 14 0 0 0-2.85 2.6C5.26 34.92 3.1 39.16 3 46h3.99c-.01-.95 0-3.09.33-5.75"/></svg>