<svg width="24" height="24" fill="none" xmlns="http://www.w3.org/2000/svg"><path fill="currentColor" d="M19.72 2.02a2.57 2.57 0 0 0-3.5-.74L5.29 8.38l1.5 2-2.99 2 3.07 4.29 2.52-1.52.12.15a2.43 2.43 0 0 0 3.38.62l11.1-7.27zm-2.94.1c.65-.44 1.64-.23 2.1.45l3.73 5.78L20.1 10c-.81-.03-1.33-.26-1.64-.59-.48-.52-.48-1.23-.47-1.9l-1-.03c-.03.52-.1 1.02-.4 1.47-.44.66-1.22.92-1.71 1-.77.14-1.76.02-2.33-.56-.5-.5-.56-1.23-.55-1.9l-1-.02c-.02.52-.1 1.02-.4 1.46-.45.67-1.23.93-1.73 1.02q-.55.09-1.12.05L6.72 8.63zM7.65 11h.2q.41.01.82-.01a3.7 3.7 0 0 0 2.74-1.47q.17.31.44.58c.85.86 2.32 1 3.2.84.6-.1 1.64-.41 2.32-1.35.33.61.89 1 1.52 1.2l-6.57 4.3c-.68.45-1.57.29-2-.37l-.7-.87-2.48 1.48-1.93-2.7zm-3.42 4.08-.2.14q-.18.12-.48.39c-.4.35-.93.87-1.45 1.6A11.3 11.3 0 0 0 0 24h1c0-2.88.96-4.9 1.9-6.2a9 9 0 0 1 1.87-1.88z"/></svg>