<svg width="16" height="16" fill="none" xmlns="http://www.w3.org/2000/svg"><path fill="currentColor" d="M0 0h14.83q.5 0 .84.33.33.34.33.84v13.66q0 .5-.33.84-.34.33-.84.33H0zm1 1v14h11V1zm12 0v14h1.83q.12-.01.13-.04.03 0 .04-.13V1.17q-.01-.13-.04-.13 0-.03-.13-.04zM6.33 4.17A.84.84 0 0 0 5.5 5v.67c0 .45.38.83.83.83H7c.46 0 .83-.38.83-.83V5A.84.84 0 0 0 7 4.17zM4.5 5c0-1 .82-1.83 1.83-1.83H7c1 0 1.83.82 1.83 1.83v.67c0 1-.82 1.83-1.83 1.83h-.67c-1 0-1.83-.82-1.83-1.83zm-.27 3.9q-.07.09-.06.1v2.17h5V9a.2.2 0 0 0-.05-.12.2.2 0 0 0-.12-.05H4.33l-.03.01zm-.7-.71c.19-.2.47-.36.8-.36H9c.58 0 1.17.46 1.17 1.17v3.17h-7V9c0-.33.16-.62.35-.81"/></svg>