<svg width="24" height="24" fill="none" xmlns="http://www.w3.org/2000/svg"><path fill="currentColor" d="M1 0h19.5c.41 0 .8.14 1.08.42S22 1.1 22 1.5v5q0 .58-.35 1 .35.42.35 1v6q0 .58-.35 1 .35.42.35 1v6c0 .41-.14.8-.42 1.08a1.5 1.5 0 0 1-1.08.42H1zm19.5 15q.28-.01.37-.13.12-.1.13-.37v-6q-.01-.28-.13-.37-.1-.12-.37-.13H19v7zM18 1H2v22h16zm1 22h1.5q.28-.01.37-.13.12-.1.13-.37v-6q-.01-.28-.13-.37-.1-.12-.37-.13H19zm0-22v6h1.5q.28-.01.37-.13.12-.1.13-.37v-5q-.01-.27-.13-.37-.1-.12-.37-.13zM9.5 6C8.68 6 8 6.68 8 7.5v1c0 .82.68 1.5 1.5 1.5h1c.82 0 1.5-.68 1.5-1.5v-1c0-.82-.68-1.5-1.5-1.5zM7 7.5A2.5 2.5 0 0 1 9.5 5h1A2.5 2.5 0 0 1 13 7.5v1a2.5 2.5 0 0 1-2.5 2.5h-1A2.5 2.5 0 0 1 7 8.5zm-.83 5.67a.5.5 0 0 0-.17.33V17h8v-3.5a.5.5 0 0 0-.5-.5h-7a.5.5 0 0 0-.33.17m-.71-.71A1.5 1.5 0 0 1 6.5 12h7c.74 0 1.5.6 1.5 1.5V18H5v-4.5c0-.41.2-.78.46-1.04"/></svg>