<svg width="48" height="48" fill="none" xmlns="http://www.w3.org/2000/svg"><path fill="currentColor" d="M14 9.5A4.5 4.5 0 0 1 18.5 5H35v11h-1V6H18.5A3.5 3.5 0 0 0 15 9.5v30a3.5 3.5 0 0 0 3.5 3.5H34v-4h1v5H18.5a4.5 4.5 0 0 1-4.5-4.5zm14.56 8.4a11 11 0 0 0-8.47-1.97l-.18-.98c3.17-.56 6.52.16 9.24 2.15a11.1 11.1 0 0 0 13.13 0q1.66-1.2 3.57-1.8l.3.96q-1.75.53-3.28 1.64a12.1 12.1 0 0 1-14.3 0M2 17h1v1H2zm2 1h1v1H4zm8 0h1v1h-1zm-6 1h1v1H6zm2 0h1v1H8zm2 0h1v1h-1zm18.56 6.9a11 11 0 0 0-8.47-1.97l-.18-.98c3.17-.56 6.52.16 9.24 2.15a11.1 11.1 0 0 0 13.13 0q1.66-1.2 3.57-1.8l.3.96q-1.75.53-3.28 1.64a12.1 12.1 0 0 1-14.3 0M2 25h1v1H2zm2 1h1v1H4zm8 0h1v1h-1zm-6 1h1v1H6zm2 0h1v1H8zm2 0h1v1h-1zm18.56 6.9a11 11 0 0 0-8.47-1.97l-.18-.98c3.17-.56 6.52.16 9.24 2.15a11.1 11.1 0 0 0 13.13 0q1.66-1.2 3.57-1.8l.3.96q-1.75.53-3.28 1.64a12.1 12.1 0 0 1-14.3 0M2 33h1v1H2zm2 1h1v1H4zm8 0h1v1h-1zm-6 1h1v1H6zm2 0h1v1H8zm2 0h1v1h-1z"/></svg>