<svg width="16" height="16" fill="none" xmlns="http://www.w3.org/2000/svg"><path fill="currentColor" d="M4 2.08C4 .93 4.93 0 6.08 0H12v4h-1V1H6.08C5.48 1 5 1.48 5 2.08v11.84c0 .6.48 1.08 1.08 1.08H11v-1h1v2H6.08A2.1 2.1 0 0 1 4 13.92zM7.05 6H7V5h.05a4 4 0 0 1 2.83 1.17 3 3 0 0 0 4.24 0l1.03-1.02.7.7-1.02 1.03a4 4 0 0 1-5.66 0A3 3 0 0 0 7.05 6M0 6h1v1H0zm2 1h1v1H2zm5.05 3H7V9h.05a4 4 0 0 1 2.83 1.17 3 3 0 0 0 4.24 0l1.03-1.02.7.7-1.02 1.03a4 4 0 0 1-5.66 0A3 3 0 0 0 7.05 10M0 10h1v1H0zm2 1h1v1H2z"/></svg>