<svg width="24" height="24" fill="none" xmlns="http://www.w3.org/2000/svg"><path fill="currentColor" d="M7 4.5A2.5 2.5 0 0 1 9.5 2H18v5h-1V3H9.5C8.67 3 8 3.67 8 4.5v15c0 .83.67 1.5 1.5 1.5H17v-1h1v2H9.5A2.5 2.5 0 0 1 7 19.5zm7.13 4.4a5.3 5.3 0 0 0-4.04-.94l-.18-.98c1.65-.3 3.4.08 4.81 1.12a5.3 5.3 0 0 0 6.27 0q.87-.64 1.86-.94l.3.96q-.83.25-1.57.78a6.3 6.3 0 0 1-7.45 0M1 8h1v1H1zm2 1h1v1H3zm2 0h1v1H5zm9.13 3.9a5.3 5.3 0 0 0-4.04-.94l-.18-.98c1.65-.3 3.4.08 4.81 1.12a5.3 5.3 0 0 0 6.27 0q.87-.64 1.86-.94l.3.96a5 5 0 0 0-1.57.78 6.3 6.3 0 0 1-7.45 0M1 12h1v1H1zm2 1h1v1H3zm2 0h1v1H5zm9.13 3.9a5.3 5.3 0 0 0-4.04-.94l-.18-.98c1.65-.3 3.4.08 4.81 1.12a5.3 5.3 0 0 0 6.27 0q.87-.64 1.86-.94l.3.96a5 5 0 0 0-1.57.78 6.3 6.3 0 0 1-7.45 0M1 16h1v1H1zm2 1h1v1H3zm2 0h1v1H5z"/></svg>