<svg width="24" height="24" fill="none" xmlns="http://www.w3.org/2000/svg"><path fill="currentColor" d="M7 4.5A2.5 2.5 0 0 1 9.5 2H18v6.87c1-.03 2-.36 2.84-.98q.91-.65 1.94-.97l.44 1.44q-.79.23-1.5.75c-1.1.8-2.4 1.22-3.7 1.26l-.03-1.25a5.3 5.3 0 0 1-3.27-1.02 6.3 6.3 0 0 0-4.8-1.12l.17.98a5.3 5.3 0 0 1 4.04.94A6.3 6.3 0 0 0 18 10.12v2.75c1-.03 2-.36 2.84-.98q.91-.65 1.94-.97l.44 1.44q-.79.23-1.5.75c-1.1.8-2.4 1.22-3.7 1.26l-.03-1.25a5.3 5.3 0 0 1-3.27-1.02 6.3 6.3 0 0 0-4.8-1.12l.17.98a5.3 5.3 0 0 1 4.04.94A6.3 6.3 0 0 0 18 14.12v2.75c1-.03 2-.36 2.84-.98q.91-.65 1.94-.97l.44 1.44q-.79.23-1.5.75c-1.1.8-2.4 1.22-3.7 1.26l-.03-1.25a5.3 5.3 0 0 1-3.27-1.02 6.3 6.3 0 0 0-4.8-1.12l.17.98a5.3 5.3 0 0 1 4.04.94A6.3 6.3 0 0 0 18 18.12V22H9.5A2.5 2.5 0 0 1 7 19.5zM2.5 7.75H1v1.5h1.5zm3 1H4v1.5h1.5zm-3 3H1v1.5h1.5zm3 1H4v1.5h1.5zm-3 3H1v1.5h1.5zm3 1H4v1.5h1.5z"/></svg>