<svg width="48" height="48" fill="none" xmlns="http://www.w3.org/2000/svg"><path fill="currentColor" d="M9.03 16.3c1.03 0 1.8.57 2.19 1.56h.08q.92-1.57 2.31-1.56c1.57 0 2.52 1.3 2.52 3.42v5.15q-.02.26-.28.27H14.2a.26.26 0 0 1-.27-.27V19.9c0-1.01-.4-1.57-1.14-1.57-.81 0-1.24.65-1.24 1.86v4.7q-.01.24-.27.26H9.6a.26.26 0 0 1-.27-.27V19.9c0-1.01-.4-1.57-1.13-1.57-.81 0-1.24.65-1.24 1.86v4.7c0 .15-.12.26-.27.26H5.02a.26.26 0 0 1-.27-.27v-8.12c0-.15.11-.27.27-.27H6.4q.23 0 .29.27l.2 1.02h.09c.37-.94 1.1-1.47 2.05-1.47m15.19.44v8.12c0 .16-.12.27-.27.27h-1.38q-.24 0-.3-.27l-.2-1.02h-.08q-.59 1.47-2.09 1.48c-1.56 0-2.52-1.28-2.52-3.37v-5.2c0-.16.12-.28.27-.28h1.67c.16 0 .27.12.27.28v5.03q.01 1.51 1.15 1.53Q22 23.31 22 21.5v-4.74q.02-.26.27-.28h1.67c.15 0 .27.12.27.28m5.44 2.18c-.1-.58-.54-.9-1.13-.9-.6 0-1 .3-1 .76q0 .63.97.87l1.22.3c1.5.37 2.15 1.24 2.15 2.53 0 1.63-1.4 2.83-3.26 2.83-1.7 0-3.11-.88-3.36-2.77q-.03-.25.23-.31l1.43-.27q.29-.07.34.27c.14.91.64 1.35 1.36 1.35.66 0 1.12-.34 1.12-.9s-.33-.84-1-1l-.91-.22c-1.83-.44-2.43-1.33-2.43-2.54 0-1.7 1.4-2.64 3.14-2.64s2.84.92 3.15 2.26q.07.28-.2.34l-1.5.25q-.27.03-.32-.21m4.33-5.72c.71 0 1.3.48 1.3 1.29s-.59 1.3-1.3 1.3c-.7 0-1.29-.5-1.29-1.3s.59-1.3 1.3-1.3m-1.1 11.65v-8.12c0-.15.11-.27.27-.27h1.67c.15 0 .27.12.27.27v8.12c0 .16-.12.27-.27.27h-1.67a.26.26 0 0 1-.27-.27m10.35-2.43c-.37 1.87-1.75 2.9-3.35 2.9-2.15 0-3.75-1.95-3.75-4.52s1.6-4.51 3.75-4.51c1.6 0 2.98 1.03 3.35 2.9q.04.28-.21.33l-1.51.27q-.26.04-.32-.22c-.23-1.05-.68-1.52-1.3-1.52-.97 0-1.47.98-1.47 2.75 0 1.78.5 2.76 1.46 2.76.63 0 1.08-.47 1.31-1.52q.06-.27.32-.22l1.5.27q.26.06.22.33M32.93 29.5c-.15-.34.29-.63.77-.89q1.17-.61 2.5-.62c.85-.01 1.94.26 2.22.66.3.43.16 1.54-.12 2.34a5 5 0 0 1-1.45 2.12c-.3.28-.62.53-.87.53q-.14 0-.21-.1c-.21-.2-.1-.45.14-.87.68-1.08 1.25-2.56 1-2.94-.28-.38-1.86-.36-3.11-.09-.47.1-.77.1-.87-.14"/><path fill="currentColor" d="M9.82 29.06c-.1-.29-.01-.45.08-.52.26-.2.65.07 1 .35 3.71 2.99 8.6 4.12 13.18 4.12 4.05 0 7.86-.89 10.34-2.2.41-.2.76-.39.98-.15a.4.4 0 0 1 .12.27q0 .38-.7.98c-2.66 2.31-6.86 3.62-11.2 3.62-4.97 0-10.11-1.73-13.31-5.67a3 3 0 0 1-.5-.8"/></svg>