<svg width="48" height="48" fill="none" xmlns="http://www.w3.org/2000/svg"><path fill="currentColor" d="M9.03 16.3c1.03 0 1.8.57 2.19 1.56h.08c.62-1.05 1.37-1.56 2.31-1.56 1.57 0 2.52 1.3 2.52 3.42v5.15c0 .16-.12.27-.28.27H14.2a.26.26 0 0 1-.27-.27V19.9c0-1.01-.4-1.57-1.14-1.57-.81 0-1.24.65-1.24 1.86v4.7c0 .15-.11.26-.27.26H9.6a.26.26 0 0 1-.27-.27V19.9c0-1.01-.4-1.57-1.13-1.57-.81 0-1.24.65-1.24 1.86v4.7c0 .15-.12.26-.27.26H5.02a.26.26 0 0 1-.27-.27v-8.12c0-.15.11-.27.27-.27H6.4c.15 0 .25.1.29.27l.2 1.02h.09c.37-.94 1.1-1.47 2.05-1.47Zm15.19.45v8.12c0 .16-.12.27-.27.27h-1.38c-.17 0-.25-.1-.3-.27l-.2-1.02h-.08c-.38.97-1.1 1.48-2.09 1.48-1.56 0-2.52-1.28-2.52-3.37v-5.2c0-.16.12-.28.27-.28h1.67c.16 0 .27.12.27.28v5.03c0 1 .4 1.53 1.15 1.53.83 0 1.27-.62 1.27-1.82v-4.74c0-.16.11-.28.27-.28h1.67c.15 0 .27.12.27.28Zm5.43 2.19c-.1-.58-.54-.9-1.13-.9-.6 0-1 .3-1 .76 0 .43.32.7.97.87l1.22.3c1.5.37 2.15 1.24 2.15 2.53 0 1.63-1.4 2.83-3.26 2.83-1.7 0-3.11-.88-3.36-2.77-.02-.16.06-.28.23-.31l1.43-.27c.2-.04.3.04.34.27.14.91.64 1.35 1.36 1.35.66 0 1.12-.34 1.12-.9s-.33-.84-1-1l-.91-.22c-1.83-.44-2.43-1.33-2.43-2.54 0-1.7 1.4-2.64 3.14-2.64 1.74 0 2.84.92 3.15 2.26.05.19-.02.3-.2.34l-1.5.25c-.17.02-.3-.05-.32-.21Zm4.33-5.72c.71 0 1.3.48 1.3 1.29s-.59 1.3-1.3 1.3c-.7 0-1.29-.5-1.29-1.3s.59-1.3 1.3-1.3Zm-1.1 11.65v-8.12c0-.15.11-.27.27-.27h1.67c.15 0 .27.12.27.27v8.12c0 .16-.12.27-.27.27h-1.67a.26.26 0 0 1-.27-.27Zm10.36-2.44c-.37 1.87-1.75 2.9-3.35 2.9-2.15 0-3.75-1.95-3.75-4.52 0-2.57 1.6-4.51 3.75-4.51 1.6 0 2.98 1.03 3.35 2.9.03.18-.05.3-.21.33l-1.51.27c-.17.03-.28-.05-.32-.22-.23-1.05-.68-1.52-1.3-1.52-.97 0-1.47.98-1.47 2.75 0 1.78.5 2.76 1.46 2.76.63 0 1.08-.47 1.31-1.52.04-.18.15-.25.32-.22l1.5.27c.17.04.25.15.22.33ZM32.93 29.5c-.15-.34.29-.63.77-.89.77-.4 1.62-.62 2.5-.62.85-.01 1.94.26 2.22.66.3.43.16 1.54-.12 2.34a5 5 0 0 1-1.45 2.12c-.3.28-.62.53-.87.53-.09-.01-.16-.03-.21-.1-.21-.2-.1-.45.14-.87.68-1.08 1.25-2.56 1-2.94-.28-.38-1.86-.36-3.11-.09-.47.1-.77.1-.87-.14Z"/><path fill="currentColor" d="M9.82 29.06c-.1-.29-.01-.45.08-.52.26-.2.65.07 1 .35 3.71 2.99 8.6 4.12 13.18 4.12 4.05 0 7.86-.89 10.34-2.2.41-.2.76-.39.98-.15a.4.4 0 0 1 .12.27c0 .25-.24.58-.7.98-2.66 2.31-6.86 3.62-11.2 3.62-4.97 0-10.11-1.73-13.31-5.67a2.81 2.81 0 0 1-.5-.8Z"/></svg>