<svg width="24" height="24" fill="none" xmlns="http://www.w3.org/2000/svg"><path fill="currentColor" d="M3.45 8c.59 0 1.02.34 1.25.9h.04Q5.26 8 6.07 8c.89 0 1.43.76 1.43 1.97v2.94q-.01.14-.15.15h-.96a.15.15 0 0 1-.15-.15v-2.85q-.01-.88-.65-.9-.7.02-.7 1.07v2.68q-.01.14-.16.15h-.96a.15.15 0 0 1-.15-.15v-2.85q-.01-.88-.65-.9-.7.02-.7 1.07v2.68q-.01.14-.16.15h-.96a.15.15 0 0 1-.15-.15V8.27q.02-.14.15-.15h.79q.14 0 .17.15l.12.58h.04q.34-.82 1.18-.84m8.67.26v4.64q0 .14-.15.15h-.79q-.14 0-.16-.15l-.12-.58h-.05q-.33.83-1.19.84c-.9 0-1.44-.73-1.44-1.93V8.27q0-.14.15-.15h.96q.14 0 .15.15v2.88q0 .86.66.87.71 0 .72-1.04v-2.7q.01-.15.16-.16h.95q.14 0 .15.15m3.11 1.25q-.1-.5-.65-.52c-.34 0-.56.18-.56.44q0 .36.54.5l.7.17c.86.21 1.23.7 1.23 1.44 0 .94-.8 1.62-1.86 1.62-.97 0-1.78-.5-1.92-1.58q-.02-.15.13-.18l.82-.15q.15-.04.19.15c.08.52.37.77.78.77.37 0 .64-.2.64-.51 0-.32-.19-.48-.58-.57l-.51-.13c-1.05-.25-1.39-.76-1.39-1.45 0-.97.8-1.51 1.8-1.51.99 0 1.62.53 1.8 1.3q.03.16-.12.18l-.86.15q-.16.01-.18-.12m2.47-3.27c.41 0 .74.27.74.74s-.33.74-.73.74a.7.7 0 0 1-.74-.74c0-.45.33-.74.74-.74m-.63 6.66V8.27q.01-.14.16-.15h.95q.16 0 .16.15v4.64q-.01.14-.16.15h-.95a.15.15 0 0 1-.16-.15m5.92-1.4c-.22 1.07-1 1.66-1.92 1.66-1.23 0-2.14-1.11-2.14-2.58S19.85 8 21.08 8c.92 0 1.7.59 1.92 1.66q.02.16-.13.18l-.86.16q-.15.03-.18-.13-.21-.88-.75-.87c-.55 0-.83.56-.83 1.58 0 1.01.28 1.58.83 1.58q.55.01.75-.87.03-.16.18-.13l.86.16q.15.03.13.18m-5.9 4.05c-.08-.19.17-.35.44-.5q.67-.36 1.44-.36c.48 0 1.1.15 1.26.38.17.24.1.88-.07 1.33q-.25.71-.83 1.22c-.17.16-.35.3-.5.3q-.07 0-.12-.06c-.11-.1-.05-.26.09-.5.38-.61.71-1.46.56-1.68s-1.06-.2-1.77-.04c-.27.05-.44.05-.5-.09"/><path fill="currentColor" d="M3.9 15.3c-.06-.16 0-.25.04-.3.15-.11.37.05.58.2 2.11 1.71 4.91 2.36 7.52 2.36 2.32 0 4.5-.5 5.91-1.25.24-.13.44-.23.57-.1q.06.08.06.16 0 .22-.4.56c-1.52 1.32-3.92 2.07-6.4 2.07-2.84 0-5.78-.99-7.6-3.24a2 2 0 0 1-.28-.46"/></svg>