<svg width="16" height="16" fill="none" xmlns="http://www.w3.org/2000/svg"><path fill="currentColor" d="M1.78 5.02q.65.02.9.65h.04q.38-.66.96-.65c.65 0 1.05.54 1.05 1.42v2.14a.1.1 0 0 1-.12.11h-.69a.1.1 0 0 1-.11-.1V6.5q-.01-.64-.47-.65-.52.01-.52.77v1.95a.1.1 0 0 1-.11.11h-.7a.1.1 0 0 1-.1-.1V6.5q0-.64-.48-.65-.5.01-.51.77v1.95a.1.1 0 0 1-.11.11H.1A.1.1 0 0 1 0 8.6V5.2a.1.1 0 0 1 .11-.11h.57q.1 0 .13.1l.08.43h.04q.24-.6.85-.61m6.31.19v3.38a.1.1 0 0 1-.11.11H7.4q-.1 0-.13-.1l-.08-.43h-.04q-.24.6-.86.61c-.65 0-1.05-.53-1.05-1.4V5.21a.1.1 0 0 1 .11-.11h.7a.1.1 0 0 1 .1.1v2.1q0 .63.48.64.53 0 .53-.76V5.21a.1.1 0 0 1 .12-.11h.69a.1.1 0 0 1 .11.1m2.27.92c-.04-.24-.23-.38-.47-.38q-.4.02-.41.32 0 .27.4.36l.5.12c.63.16.9.52.9 1.06 0 .68-.58 1.17-1.36 1.17-.7 0-1.3-.36-1.4-1.15q0-.11.1-.13l.6-.11q.1-.03.14.11.1.56.56.56c.27 0 .47-.14.47-.37q0-.33-.42-.42l-.38-.09c-.76-.18-1-.55-1-1.05 0-.7.57-1.1 1.3-1.1.72 0 1.18.38 1.3.94q.04.12-.08.14l-.62.1q-.11.01-.13-.08m1.8-2.38c.3 0 .54.2.54.54 0 .33-.25.53-.54.53s-.54-.2-.54-.53.25-.54.54-.54m-.46 4.84V5.21a.1.1 0 0 1 .11-.11h.7a.1.1 0 0 1 .1.1v3.38a.1.1 0 0 1-.1.11h-.7a.1.1 0 0 1-.11-.1M16 7.56c-.16.78-.73 1.21-1.4 1.21-.89 0-1.55-.8-1.55-1.88s.66-1.87 1.55-1.87c.67 0 1.24.43 1.4 1.2q.02.12-.1.14l-.62.11q-.1.02-.13-.09-.15-.64-.55-.63-.6.02-.6 1.14 0 1.13.6 1.15.4 0 .55-.63.03-.1.13-.1l.63.12q.1.02.09.14m-4.3 2.93c-.05-.13.13-.26.33-.36q.48-.26 1.04-.26c.35 0 .8.1.92.27.13.18.07.64-.05.97q-.18.52-.6.88c-.12.12-.26.22-.36.22q-.06 0-.09-.03c-.09-.09-.04-.2.06-.37.28-.45.52-1.06.41-1.22s-.77-.15-1.29-.04q-.3.07-.36-.06"/><path fill="currentColor" d="M2.1 10.32q-.03-.17.04-.21c.11-.09.27.03.42.14a8.7 8.7 0 0 0 5.47 1.72c1.68 0 3.27-.38 4.3-.92.17-.09.31-.16.41-.06q.05.05.05.11 0 .15-.3.4a7.3 7.3 0 0 1-4.65 1.51c-2.06 0-4.2-.72-5.53-2.35q-.15-.2-.2-.34"/></svg>