<svg width="24" height="24" fill="none" xmlns="http://www.w3.org/2000/svg"><path fill="currentColor" d="M21.38 2h.12c.5 0 .9.27 1.2.65q.46.57.73 1.52c.37 1.25.57 3.06.57 5.33s-.2 4.08-.57 5.33a5 5 0 0 1-.72 1.52c-.3.38-.71.65-1.21.65h-.12l-.1-.05h-.02l-.05-.03-.93-.43a40 40 0 0 0-2.5-1.02c-2-.75-4.43-1.47-6.28-1.47H9.2l3 9H7.13l-3-9H0V5h11.5c1.85 0 4.28-.72 6.29-1.47a45 45 0 0 0 3.42-1.45l.05-.02h.02zm.2 1.01-.9.42c-.63.28-1.52.66-2.54 1.04A23 23 0 0 1 12 5.99V13c1.95.11 4.28.83 6.14 1.52A46 46 0 0 1 21.59 16q.14-.03.34-.26.29-.35.54-1.18.51-1.7.53-5.05-.02-3.35-.53-5.05a4 4 0 0 0-.54-1.18q-.2-.23-.34-.26M11 13V6H1v7h3.86l3 9h2.95l-3-9z"/></svg>