<svg width="16" height="16" fill="none" xmlns="http://www.w3.org/2000/svg"><path fill="currentColor" d="m14.59.38.26.27q.23.22.4.64.2.43.36 1.12c.22.93.39 2.26.39 4.09s-.17 3.16-.39 4.09q-.16.69-.35 1.12-.19.42-.4.64l-.27.27-.33-.18a43 43 0 0 0-3.08-1.55q-.87-.39-1.6-.64A4 4 0 0 0 8.5 10H6.7l2 6H4.13l-2-6H0V3h8.5q.33 0 1.07-.25t1.61-.64A43 43 0 0 0 14.26.56zM9.89 3.7c-.5.17-1 .3-1.39.3H8v5h.5c.39 0 .89.13 1.4.3q.79.28 1.7.68c.97.44 1.98.95 2.73 1.35v-.02q.16-.33.3-.95c.2-.84.37-2.09.37-3.86s-.16-3.02-.36-3.86a6 6 0 0 0-.31-.98c-.75.4-1.76.92-2.74 1.36q-.9.4-1.7.68M7 9V4H1v5h1.86l2 6h2.45l-2-6z"/></svg>