<svg width="48" height="48" fill="none" xmlns="http://www.w3.org/2000/svg"><path fill="currentColor" d="M24 12V2h1v10zm11.5-9.53L46.35 22h-21.7zM26.35 21h18.3L35.5 4.53zm-17-14.35 7 7-.7.7-7-7zm9.96 9.43q-.1.1-.11.42v.05L15.5 36h18.31l-1.8-11.42.98-.16L34.83 36h1.67c.41 0 .8.14 1.08.42s.42.67.42 1.08v4c0 .41-.14.8-.42 1.08a1.5 1.5 0 0 1-1.08.42h-24c-.41 0-.8-.14-1.08-.42A1.5 1.5 0 0 1 11 41.5v-4c0-.41.14-.8.42-1.08A1.5 1.5 0 0 1 12.5 36h1.99l3.71-19.55q0-.56.32-.98.37-.46.98-.47H26v1h-6.5q-.15 0-.2.08M35 19v-2h1v2zm0-4V9h1v6zm-21 9H4v-1h10zm-1.87 13.13q-.12.1-.13.37v4q.01.27.13.37.1.12.37.13h24q.27-.01.37-.13.12-.1.13-.37v-4q-.01-.27-.13-.37-.1-.12-.37-.13h-24q-.28.01-.37.13"/></svg>