<svg width="24" height="24" fill="none" xmlns="http://www.w3.org/2000/svg"><path fill="currentColor" d="M11.5 6V0h1v6zM3.26 2.75l4 4.1-.72.7-4-4.1zm18.3.7-4 4.1-.72-.7 4-4.1zM8.86 9 6.62 20H17.4L15.13 9zM5.1 21l-.1.03v1.94l.04.02.06.01H19l.1-.03v-1.94l-.04-.02L19 21zm.5-1L7.9 8.74q0-.17.1-.36a.7.7 0 0 1 .34-.3A1 1 0 0 1 8.66 8h6.68a1 1 0 0 1 .32.08.7.7 0 0 1 .34.3q.1.19.1.36L18.4 20h.6q.39 0 .72.24c.21.17.38.43.38.76v2c0 .33-.17.6-.38.76s-.47.24-.72.24H5.1q-.39 0-.72-.24A1 1 0 0 1 4 23v-2c0-.33.17-.6.38-.76s.47-.24.72-.24zM5 13H0v-1h5zm19 0h-5v-1h5z"/></svg>