<svg width="16" height="16" fill="none" xmlns="http://www.w3.org/2000/svg"><path fill="currentColor" d="M15.16 13.29A8.4 8.4 0 0 1 8.99 16C4.5 16 .75 12.37.75 8s3.73-8 8.23-8c3.02 0 5.18 1.6 6.17 2.71q.27.3.26.58c0 .36-.3.62-.65.62q-.3 0-.57-.29a7 7 0 0 0-5.2-2.29A6.73 6.73 0 0 0 2.12 8c0 3.7 3.05 6.67 6.86 6.67a7 7 0 0 0 5.2-2.3q.28-.29.58-.28c.34 0 .65.25.65.62a1 1 0 0 1-.26.58"/><path fill="currentColor" d="m11.84 8.74-4.33 2.5c-.35.2-.76.05-.76-.31v-5.2c0-.35.43-.5.76-.31l4.33 2.52c.32.17.33.6 0 .8"/></svg>