<svg width="24" height="24" fill="none" xmlns="http://www.w3.org/2000/svg"><path fill="currentColor" d="M22.21 19.6a12 12 0 0 1-8.86 3.9C6.88 23.5 1.5 18.28 1.5 12 1.5 5.7 6.87.5 13.34.5c4.33 0 7.43 2.3 8.86 3.9q.38.44.37.84c0 .51-.44.87-.93.87a1.1 1.1 0 0 1-.82-.4 10 10 0 0 0-7.48-3.3A9.67 9.67 0 0 0 3.49 12a9.7 9.7 0 0 0 9.86 9.58c3.62 0 6.16-1.8 7.48-3.29.24-.3.55-.4.82-.4.5 0 .93.36.93.87q.01.4-.37.84"/><path fill="currentColor" d="m17.45 13.06-6.23 3.6c-.51.3-1.1.07-1.1-.46V8.74c0-.51.62-.73 1.1-.45l6.23 3.62c.45.25.46.88 0 1.15"/></svg>