<svg width="48" height="48" fill="none" xmlns="http://www.w3.org/2000/svg"><path fill="currentColor" d="M40.4 36.22a19.5 19.5 0 0 1-14.26 6.28c-10.4 0-19.06-8.4-19.06-18.5 0-10.12 8.64-18.5 19.05-18.5 6.97 0 11.95 3.7 14.25 6.28q.6.7.6 1.34c0 .83-.7 1.41-1.5 1.41-.44 0-.93-.2-1.32-.65a16 16 0 0 0-12.03-5.3c-8.83 0-15.85 6.86-15.85 15.42s7.04 15.42 15.86 15.42c5.83 0 9.9-2.9 12.04-5.3.4-.47.88-.65 1.32-.65.79 0 1.5.58 1.5 1.41q0 .63-.6 1.34"/><path fill="currentColor" d="m32.74 25.7-10.02 5.8c-.83.47-1.76.1-1.76-.74v-12c0-.83 1-1.18 1.76-.74l10.02 5.83c.73.4.75 1.42 0 1.86"/></svg>