<svg width="24" height="24" fill="none" xmlns="http://www.w3.org/2000/svg"><path fill="currentColor" d="M10.5 5.1a.1.1 0 0 0-.1-.1H8.6a.1.1 0 0 0-.1.1v13.84a.1.1 0 0 0 .1.06h1.8a.1.1 0 0 0 .1-.1V5.1Zm5 2a.1.1 0 0 0-.1-.1h-1.8a.1.1 0 0 0-.1.1v9.8c0 .06.04.1.1.1h1.8a.1.1 0 0 0 .1-.1V7.1Zm-10 2a.1.1 0 0 0-.1-.1H3.6a.1.1 0 0 0-.1.1v5.8c0 .06.04.1.1.1h1.8a.1.1 0 0 0 .1-.1V9.1Zm15 0a.1.1 0 0 0-.1-.1h-1.8a.1.1 0 0 0-.1.1v5.8c0 .06.04.1.1.1h1.8a.1.1 0 0 0 .1-.1V9.1Zm-14 5.8c0 .6-.5 1.1-1.1 1.1H3.6c-.6 0-1.1-.5-1.1-1.1V9.1C2.5 8.5 3 8 3.6 8h1.8c.6 0 1.1.5 1.1 1.1v5.8Zm15 0c0 .6-.5 1.1-1.1 1.1h-1.8c-.6 0-1.1-.5-1.1-1.1V9.1c0-.6.5-1.1 1.1-1.1h1.8c.6 0 1.1.5 1.1 1.1v5.8Zm-5 2c0 .6-.5 1.1-1.1 1.1h-1.8c-.6 0-1.1-.5-1.1-1.1V7.1c0-.6.5-1.1 1.1-1.1h1.8c.6 0 1.1.5 1.1 1.1v9.8Zm-5 2c0 .6-.5 1.1-1.1 1.1H8.6a1.1 1.1 0 0 1-1.1-.99V5.1C7.5 4.5 8 4 8.6 4h1.8c.6 0 1.1.5 1.1 1.1v13.8Z"/></svg>