<svg width="48" height="48" fill="none" xmlns="http://www.w3.org/2000/svg"><path fill="currentColor" d="M24 10.53v26.94L14.96 31H6V17h8.96zm-8.8 19.41 7.8 5.59V12.47l-7.8 5.59zM14 18H7v12h7zm20.97-6.32.66-.76.01.02.04.02.54.54a22 22 0 0 1 4.74 7.34c.9 2.41 1.35 5.27.7 8.38s-2.43 6.46-5.91 9.84l-.7-.72c3.37-3.27 5.02-6.43 5.62-9.32s.2-5.56-.65-7.83A20 20 0 0 0 35 11.7zm-5.03 5.37.36-.35.36-.35v.01l.03.02.27.32q.29.33.71.95a13 13 0 0 1 1.66 3.39c.9 2.85.88 6.7-2.66 10.6l-.74-.68c3.26-3.6 3.25-7.05 2.44-9.62a12 12 0 0 0-2.42-4.28z"/></svg>