<svg width="48" height="48" fill="none" xmlns="http://www.w3.org/2000/svg"><path fill="currentColor" d="M18 4h11v4h5v18.5h-1V9H14v31.5a3.5 3.5 0 0 0 3.5 3.5h12a3.5 3.5 0 0 0 1.75-.47l.5.87q-1.03.6-2.25.6h-12a4.5 4.5 0 0 1-4.5-4.5V8h5zm1 4h9V5h-9zm4 11h-4.5v-1H23v-4.5h1V18h4.5v1H24v4.5h-1zm16 7h3v2h3v1h-3v3h3v1h-3v2h-3.05a5 5 0 0 1-.72-.05 6 6 0 0 1-1.68-.45 4 4 0 0 1-1.75-1.35 4 4 0 0 1-.78-2.15h-4.25l-.26.01q-.28.03-.61.16-.32.14-.55.42t-.25.91q.02.64.25.9.22.3.55.43a2 2 0 0 0 .82.17H31c.55 0 1.11.1 1.5.56.38.43.5 1.06.5 1.84V42h-1v-5.6c0-.72-.12-1.04-.25-1.18-.1-.13-.3-.22-.75-.22h-1.22l-.38-.02a3 3 0 0 1-.9-.23 2.3 2.3 0 0 1-.96-.76 2.5 2.5 0 0 1-.44-1.49q.01-.92.44-1.5c.27-.37.63-.6.96-.75a3 3 0 0 1 1.28-.25h4.24c.08-.88.37-1.6.78-2.15a4 4 0 0 1 1.75-1.35A6 6 0 0 1 39 26m0 8h2v-7h-2.04a4 4 0 0 0-.6.04c-.39.06-.9.16-1.41.38s-.99.55-1.34 1.02c-.36.48-.6 1.13-.6 2.06s.24 1.58.6 2.06c.35.48.83.8 1.34 1.02a5 5 0 0 0 2 .42zm-11.5 2v1h-8v-1z"/></svg>