<svg width="24" height="24" fill="none" xmlns="http://www.w3.org/2000/svg"><path fill="currentColor" d="M8.5 1.5V3h-6V1.5zM0 4h11v9a4.8 4.8 0 0 0-3.22 4H3.5v1h4.28a4.7 4.7 0 0 0 2.2 3.52Q9.31 22 8.5 22h-6A2.5 2.5 0 0 1 0 19.5zm5 8h1v-2h2V9H6V7H5v2H3v1h2z"/><path fill="currentColor" d="M18 10h3v1.75h3v1.5h-3v2.5h3v1.5h-3V19h-3.05a5 5 0 0 1-.72-.05 6 6 0 0 1-1.68-.45 4 4 0 0 1-1.75-1.35 4 4 0 0 1-.75-1.9h-.55a2.25 2.25 0 0 0 0 4.5h1a2.75 2.75 0 0 1 2.75 2.75V24h-1.5v-1.5c0-.7-.56-1.25-1.25-1.25h-1a3.75 3.75 0 1 1 0-7.5h.55c.1-.77.38-1.4.75-1.9a4 4 0 0 1 1.75-1.35A6 6 0 0 1 18 10"/></svg>