<svg width="24" height="24" fill="none" xmlns="http://www.w3.org/2000/svg"><path fill="currentColor" d="m18.37 2.28.33-.38.33-.38.02.02.26.25a10 10 0 0 1 2.26 3.38c.42 1.1.64 2.42.32 3.85a8.4 8.4 0 0 1-2.86 4.36l-.66-.76a7.4 7.4 0 0 0 2.54-3.83 5.4 5.4 0 0 0-.28-3.26 9 9 0 0 0-2.24-3.24zM6.5 5C5.68 5 5 5.68 5 6.5v3c0 .82.68 1.5 1.5 1.5h3c.82 0 1.5-.68 1.5-1.5v-3c0-.82-.68-1.5-1.5-1.5zM4 6.5A2.5 2.5 0 0 1 6.5 4h3A2.5 2.5 0 0 1 12 6.5v3A2.5 2.5 0 0 1 9.5 12h-3A2.5 2.5 0 0 1 4 9.5zm10.83-1.76.37-.34.37-.34v.01l.14.16a6 6 0 0 1 1.1 2c.2.64.3 1.4.15 2.23a5 5 0 0 1-1.4 2.5l-.71-.71c.68-.69 1-1.36 1.12-1.98a3.5 3.5 0 0 0-.12-1.74 5 5 0 0 0-1-1.76zM2.46 14H13.6c.94 0 1.5.79 1.5 1.6V23H1v-7.4q0-.65.4-1.08.42-.42 1.02-.51zm.09 1a1 1 0 0 0-.4.2.6.6 0 0 0-.15.4V22h12.1v-6.4c0-.39-.24-.6-.5-.6z"/></svg>