<svg width="24" height="24" fill="none" xmlns="http://www.w3.org/2000/svg"><path fill="currentColor" d="M4 6.5A2.5 2.5 0 0 1 6.5 4h3A2.5 2.5 0 0 1 12 6.5v3A2.5 2.5 0 0 1 9.5 12h-3A2.5 2.5 0 0 1 4 9.5zM2.46 14H13.6c.94 0 1.5.79 1.5 1.6V23H1v-7.4q0-.65.4-1.08.42-.42 1.02-.51zM18.21 2.47l.49-.57.49-.57.03.03.27.25a11 11 0 0 1 2.31 3.47 7 7 0 0 1 .33 4 8.6 8.6 0 0 1-2.94 4.48l-.98-1.12a7 7 0 0 0 2.46-3.7 5.3 5.3 0 0 0-.27-3.12 8.4 8.4 0 0 0-2.18-3.14zM14.65 4.9l.55-.51.55-.51.01.01.14.17a6 6 0 0 1 1.14 2.08c.22.67.33 1.49.16 2.36a5 5 0 0 1-1.47 2.62l-1.06-1.06c.65-.65.95-1.28 1.06-1.85s.04-1.12-.12-1.62a5 5 0 0 0-.94-1.67z"/></svg>