<svg width="24" height="24" fill="none" xmlns="http://www.w3.org/2000/svg"><path fill="currentColor" d="M2.13 5.75c-.48 0-1.47.03-2.1.76l1.14.98a1 1 0 0 1 .34-.18q.28-.07.62-.06c.45 0 .77.15 1.11.49.39.37.76.94 1.3 1.76l1.25-.82-.03-.05c-.49-.75-.95-1.46-1.47-1.97a3 3 0 0 0-2.16-.91"/><path fill="currentColor" d="M16.53 7.26a7 7 0 0 0-1.7-.32 23 23 0 0 0-4.06.01c-.58.06-1.13.15-1.51.32a6 6 0 0 0-1.3.88q-.74.62-1.82 1.65c-1.74.24-2.89.48-3.64.73q-.91.32-1.53.84c-.39.32-.7.71-.83 1.1q-.12.4-.12.83L0 14v.45c0 .41.2.8.45 1.06s.62.49 1.05.49l1.04.01a2.7 2.7 0 0 0 2.68 2.24h.03c1.34 0 2.46-.97 2.7-2.25l8.08.02a2.7 2.7 0 0 0 2.68 2.23h.04c1.36 0 2.5-1 2.7-2.3l1.1-.2A1.57 1.57 0 0 0 24 14.07l-.2-2.63a2 2 0 0 0-1.53-1.76l-.18-.05c-.3-.07-.57-.15-.92-.2q-.3-.06-.87-.3a22 22 0 0 1-1.56-.8c-.75-.4-1.54-.81-2.2-1.06"/></svg>