<svg width="48" height="48" fill="none" xmlns="http://www.w3.org/2000/svg"><path fill="currentColor" d="M2.84 12.87A5 5 0 0 1 5 12.5c.72 0 1.51.42 2.34 1.06.84.64 1.8 1.59 2.9 2.77l1.02 1.07.07.07.14.34-.92.38-.07-.17-.98-1.01q-1.62-1.77-2.77-2.66c-.8-.61-1.36-.85-1.73-.85-.92 0-1.38.1-1.7.27a3 3 0 0 0-.92.82l-.74-.68.08-.08a4 4 0 0 1 1.13-.96m26.45 1.27a46 46 0 0 0-7.61.02c-1.1.11-1.96.28-2.49.5-.44.2-1.15.67-2.15 1.5q-1.47 1.2-3.67 3.33l-.12.1-.16.03q-5.27.7-7.3 1.39c-.98.33-1.8.82-2.42 1.35a4 4 0 0 0-1.12 1.5 7 7 0 0 0-.25 2.53v.35c0 .7.56 1.26 1.26 1.26H7v.5a3.5 3.5 0 0 0 3.5 3.5h.5a3.5 3.5 0 0 0 3.5-3.5V28h19v.5A3.5 3.5 0 0 0 37 32h.5a3.5 3.5 0 0 0 3.5-3.5v-.47l3.3-.23c.87-.06 1.64-.89 1.7-1.83a18 18 0 0 0-.63-4.4c-.31-1.05-.86-1.96-1.75-2.19q-1.1-.28-2.2-.46c-.6-.1-1.3-.37-2.05-.7q-1.14-.53-2.41-1.2l-.72-.38a39 39 0 0 0-4.06-1.97c-.65-.24-1.67-.42-2.9-.53m.08-1c1.25.12 2.37.3 3.16.6a40 40 0 0 1 4.2 2.02l.7.37q1.26.67 2.35 1.18 1.1.49 1.8.62 1.14.2 2.28.48c1.46.37 2.14 1.77 2.47 2.87a19 19 0 0 1 .66 4.75 2.96 2.96 0 0 1-2.63 2.77l-2.38.17A4.5 4.5 0 0 1 37.5 33H37a4.5 4.5 0 0 1-4.47-4H15.47A4.5 4.5 0 0 1 11 33h-.5a4.5 4.5 0 0 1-4.47-4H3.26A2.26 2.26 0 0 1 1 26.74v-.35c0-1.4.04-2.07.3-2.85a5 5 0 0 1 1.42-1.94 8 8 0 0 1 2.76-1.54q2.16-.72 7.31-1.4a67 67 0 0 1 3.62-3.28q1.5-1.24 2.4-1.64c.67-.28 1.66-.46 2.77-.57 1.13-.12 2.43-.16 3.74-.17 1.39 0 2.8.03 4.05.15"/></svg>