<svg width="16" height="16" fill="none" xmlns="http://www.w3.org/2000/svg"><path fill="currentColor" d="M1.86 3.1Q2.3 2.99 3 3c.47 0 .93.28 1.36.63q.67.57 1.52 1.54l.52.58.06.07.1.22-.83.32-.07.06-.02-.02h-.02l-.02-.05-.48-.52q-.82-.96-1.4-1.42C3.33 4.08 3.1 4 3 4c-.5 0-.7.02-.83.06-.08.03-.15.07-.32.27l-.76-.66c.21-.24.43-.45.77-.56m13.92 1.84a22 22 0 0 0-3.92 0 5 5 0 0 0-1.21.25q-.3.1-1.05.73-.75.62-1.9 1.71l-.11.12-.16.02a22 22 0 0 0-3.62.7q-.74.26-1.2.66-.47.42-.54.66-.05.16-.07.55v1.11q0 .16.18.37.2.19.32.18l2 .03v.5c0 .95.77 1.72 1.73 1.72h.02c.97 0 1.75-.78 1.75-1.75V12h8v1H8.95a2.75 2.75 0 0 1-2.7 2.25h-.02a2.7 2.7 0 0 1-2.69-2.24L2.5 13c-.43 0-.8-.23-1.05-.5A1.6 1.6 0 0 1 1 11.46V10.3q.01-.43.13-.82c.13-.4.44-.79.83-1.11q.62-.52 1.53-.84c.75-.25 1.9-.5 3.64-.73q1.08-1.04 1.83-1.65.78-.66 1.3-.88c.38-.17.93-.26 1.5-.32a23 23 0 0 1 4.1 0z"/></svg>