<svg width="24" height="24" fill="none" xmlns="http://www.w3.org/2000/svg"><path fill="currentColor" d="M.86 6.1Q1.3 5.99 2 6c.47 0 .93.28 1.36.63q.67.57 1.52 1.54l.52.58.06.07.1.22-.83.32-.07.06-.02-.02h-.02l-.02-.05-.48-.52q-.82-.96-1.4-1.42C2.33 7.08 2.1 7 2 7c-.5 0-.7.02-.83.06-.08.03-.15.07-.32.27l-.76-.66c.21-.24.43-.45.77-.56m13.89 1.84a22 22 0 0 0-3.88 0q-.86.1-1.22.25-.3.1-1.05.73-.75.62-1.89 1.71l-.11.12-.17.02c-1.8.24-2.93.48-3.61.7q-.74.26-1.2.66-.47.42-.53.66-.06.16-.07.55l-.01.64v.47q0 .16.18.37.2.19.32.18l2 .03v.5c0 .95.77 1.72 1.73 1.72h.02c.96 0 1.74-.78 1.74-1.75V15l10 .02v.5c0 .96.77 1.73 1.72 1.73h.04c.96 0 1.73-.77 1.73-1.73v-.42l1.95-.34h.03c.3-.02.54-.29.52-.63l-.2-2.63c-.03-.38-.35-.75-.78-.86l-.19-.05c-.3-.08-.53-.14-.82-.19q-.52-.1-1.12-.38-.6-.27-1.26-.62l-.37-.2c-.75-.4-1.48-.78-2.07-1q-.47-.18-1.43-.26m.09-1c.64.06 1.25.15 1.7.32.65.25 1.44.67 2.19 1.06l1.56.8q.56.24.87.3c.35.05.62.13.92.2l.18.05c.79.2 1.47.89 1.53 1.76l.2 2.63c.05.85-.55 1.62-1.43 1.7l-1.1.19a2.7 2.7 0 0 1-2.7 2.3h-.04a2.7 2.7 0 0 1-2.68-2.23L7.96 16a2.75 2.75 0 0 1-2.7 2.25h-.02a2.7 2.7 0 0 1-2.69-2.24L1.51 16c-.43 0-.8-.23-1.05-.5A1.6 1.6 0 0 1 0 14.46V13.3q.01-.43.13-.82c.13-.4.44-.79.83-1.11q.62-.53 1.53-.84c.75-.25 1.9-.5 3.64-.73a34 34 0 0 1 1.82-1.65 6 6 0 0 1 1.3-.88c.38-.17.93-.26 1.5-.32q.92-.08 1.96-.09c.72 0 1.46.02 2.12.08"/></svg>