<svg width="48" height="48" fill="none" xmlns="http://www.w3.org/2000/svg"><path fill="currentColor" fill-rule="evenodd" d="M5.5 25a18.5 18.5 0 1 1 37 0 18.5 18.5 0 0 1-37 0M24 7.5A17.5 17.5 0 0 0 7.86 31.79H10c.82 0 1.95-.56 2.91-1.48s1.63-2.07 1.66-3.11l.02-.49h.48c.32 0 .46.27.58.52.2.38.58 1.13 1.1 1.87.38.52.8 1.02 1.27 1.39q.7.56 1.4.57c1.13 0 2.08-.34 2.75-.96a3.8 3.8 0 0 0 1.1-2.9v-.49h.5c.33 0 .46.28.58.53.19.38.55 1.12 1.06 1.86a6 6 0 0 0 1.25 1.39q.7.55 1.47.57 1.8-.02 2.79-.96c.64-.62 1.04-1.56 1.05-2.9v-.49h.5c.31 0 .45.25.57.5.19.36.58 1.13 1.12 1.89.37.52.8 1.02 1.26 1.39q.7.56 1.4.57h3.6Q41.5 28.21 41.5 25A17.5 17.5 0 0 0 24 7.5m16.02 24.56h-3.2a3.3 3.3 0 0 1-2.02-.78 8 8 0 0 1-1.46-1.6q-.32-.46-.57-.88a4.3 4.3 0 0 1-1.16 2.02 5 5 0 0 1-3.48 1.24c-.8 0-1.5-.33-2.08-.78a7 7 0 0 1-1.46-1.6l-.54-.86q-.35 1.22-1.2 2a5 5 0 0 1-3.43 1.24c-.76 0-1.44-.34-2.01-.78a8 8 0 0 1-1.47-1.6q-.38-.56-.67-1.05c-.34.9-.96 1.73-1.67 2.4-1.05 1-2.42 1.76-3.6 1.76H8.32a17.5 17.5 0 0 0 31.7-.73M.5 25c0-6.06 2.3-11.58 6.06-15.75l.74.67A22.4 22.4 0 0 0 1.5 25c0 6.43 2.7 12.23 7.02 16.33l-.69.72A23.4 23.4 0 0 1 .5 25m46.18 0c0-5.8-2.2-11.09-5.8-15.08l.74-.67A23.4 23.4 0 0 1 47.68 25a23.4 23.4 0 0 1-7.34 17.05l-.68-.72c4.32-4.1 7.02-9.9 7.02-16.33" clip-rule="evenodd"/></svg>