<svg width="48" height="48" fill="none" xmlns="http://www.w3.org/2000/svg"><path fill="currentColor" d="M36.53.47 47.35 20h-21.7zM27.35 19h18.3L36.53 2.53zM5.5 25A18.5 18.5 0 0 1 27.76 6.88l-.2.98A17.5 17.5 0 1 0 41.5 25h1a18.5 18.5 0 1 1-37 0M36 13V7h1v6zM.5 25c0-6.06 2.3-11.58 6.06-15.75l.74.67A22.4 22.4 0 0 0 1.5 25c0 6.43 2.7 12.23 7.02 16.33l-.69.72A23.4 23.4 0 0 1 .5 25M36 17v-2h1v2zm-19.5 8a7.5 7.5 0 0 1 4.61-6.92l.39.92a6.5 6.5 0 1 0 8.99 5.64l1-.06.01.42a7.5 7.5 0 1 1-15 0m4 0a3.5 3.5 0 1 1 7 0 3.5 3.5 0 0 1-7 0m3.5-2.5a2.5 2.5 0 1 0 0 5 2.5 2.5 0 0 0 0-5M47.5 25c0 7.12-3.17 13.5-8.16 17.8l-.66-.75A22.5 22.5 0 0 0 46.5 25z"/></svg>