<svg width="48" height="48" fill="none" xmlns="http://www.w3.org/2000/svg"><path fill="currentColor" d="M5.5 25a18.5 18.5 0 1 1 37 0 18.5 18.5 0 0 1-37 0M24 7.5a17.5 17.5 0 1 0 0 35 17.5 17.5 0 0 0 0-35M1.93 17.91a24 24 0 0 1 4.82-8.9l.75.65a23 23 0 0 0-4.6 8.53zm39.35-8.87a24 24 0 0 1 4.56 8.13l-.95.3a23 23 0 0 0-4.37-7.78zM16.5 25a7.5 7.5 0 1 1 15 0 7.5 7.5 0 0 1-15 0m7.5-6.5a6.5 6.5 0 1 0 0 13 6.5 6.5 0 0 0 0-13m22.39.63a24 24 0 0 1-.55 12.8l-.95-.32a23 23 0 0 0 .52-12.25zM1 24.55q0-2.4.45-4.65l.98.2a23 23 0 0 0 .46 10.78l-.97.28Q1.01 28 1 24.55m19.5.45a3.5 3.5 0 1 1 7 0 3.5 3.5 0 0 1-7 0m3.5-2.5a2.5 2.5 0 1 0 0 5 2.5 2.5 0 0 0 0-5M8.54 41.94a23.6 23.6 0 0 1-5.95-8.8l.93-.36a22.6 22.6 0 0 0 5.7 8.43zm36.59-8.1a24 24 0 0 1-5.96 8.36l-.66-.75a23 23 0 0 0 5.7-8z"/></svg>