<svg width="24" height="24" fill="none" xmlns="http://www.w3.org/2000/svg"><path fill="currentColor" fill-rule="evenodd" d="M2.5 12a9.5 9.5 0 1 1 19 0 9.5 9.5 0 0 1-19 0M12 3.5a8.5 8.5 0 0 0-7.97 11.46q.4-.06.81-.4c.4-.33.81-.96 1-2.14h.99c.21 1.36.83 1.97 1.35 2.27a2.4 2.4 0 0 0 1.04.3q.08 0 .22-.03.3-.04.72-.27c.51-.3 1.13-.91 1.35-2.27h.98c.22 1.36.84 1.97 1.35 2.27a2.4 2.4 0 0 0 1.05.3q.08 0 .22-.03.3-.04.71-.27c.52-.3 1.14-.91 1.35-2.27h1c.17 1.16.59 1.79.99 2.13q.42.34.81.4.52-1.39.53-2.95c0-4.7-3.8-8.5-8.5-8.5m7.56 12.38a3 3 0 0 1-1.05-.57 4 4 0 0 1-.86-1.14 3.5 3.5 0 0 1-2.67 1.82h-.3l-.32-.05a3.4 3.4 0 0 1-2.36-1.8 3.5 3.5 0 0 1-2.69 1.85h-.29l-.33-.05a3.4 3.4 0 0 1-2.33-1.76q-.37.74-.88 1.15-.52.42-1.04.56a8.5 8.5 0 0 0 15.12 0M0 12.02C0 8.98 1.13 6.2 3 4.1l.75.66a10.97 10.97 0 0 0 .86 15.42l-.68.74A12 12 0 0 1 0 12.02M21.01 4.1a11.97 11.97 0 0 1-1.1 16.94l-.65-.75a10.97 10.97 0 0 0 1-15.53z" clip-rule="evenodd"/></svg>