<svg width="24" height="24" fill="none" xmlns="http://www.w3.org/2000/svg"><path fill="currentColor" d="M2.5 12a9.5 9.5 0 1 1 19 0 9.5 9.5 0 0 1-19 0M12 3.5a8.5 8.5 0 1 0 0 17 8.5 8.5 0 0 0 0-17M.49 8.63c.5-1.7 1.36-3.25 2.5-4.54l.76.66a11 11 0 0 0-2.3 4.17zM21 4.1q1.6 1.81 2.39 4.15l-.95.32a11 11 0 0 0-2.19-3.8zm2.67 5.16a12 12 0 0 1-.28 6.53l-.95-.31a11 11 0 0 0 .26-6zM0 12.02q0-1.2.23-2.37l.99.2a11 11 0 0 0 .22 5.27l-.96.28A12 12 0 0 1 0 12.02m3.93 8.89a12 12 0 0 1-3.1-4.5l.93-.36c.62 1.58 1.6 2.99 2.85 4.12zm19.1-4.14a12 12 0 0 1-3.11 4.27l-.66-.75c1.22-1.07 2.2-2.4 2.85-3.92z"/></svg>