<svg width="24" height="24" fill="none" xmlns="http://www.w3.org/2000/svg"><path fill="currentColor" d="M12 2.5a9.5 9.5 0 1 1 0 19 9.5 9.5 0 0 1 0-19M3.06 3.92l1.13 1a11 11 0 0 0-2.26 4.07L.5 8.56a12 12 0 0 1 2.56-4.64"/><path fill="currentColor" d="m23.34 8.17-1.42.48a11 11 0 0 0-2.13-3.72l1.12-1a12 12 0 0 1 2.43 4.24m.62 3.85q-.01 2.02-.62 3.85l-1.42-.47a10.7 10.7 0 0 0 .25-5.86l1.46-.34q.33 1.36.33 2.82M.24 9.6l1.47.3a11 11 0 0 0 .22 5.15l-1.44.42A12 12 0 0 1 .24 9.6m.61 6.9 1.4-.54a11 11 0 0 0 2.77 4.02l-1 1.11a12 12 0 0 1-3.17-4.58m18.95 4.72-1-1.13a11 11 0 0 0 2.79-3.82l1.37.59a12 12 0 0 1-3.16 4.36"/></svg>