<svg width="48" height="48" fill="none" xmlns="http://www.w3.org/2000/svg"><path fill="currentColor" d="M25.35 4.35Q22.98 6.74 23 9.5c0 1.31.64 2.19 1.4 3.2l.03.03c.73.99 1.57 2.1 1.57 3.77q.01 1.61-.7 2.77A4.4 4.4 0 0 1 23.2 21l-.4-.92a3.4 3.4 0 0 0 1.65-1.33q.54-.84.55-2.24c0-1.31-.64-2.19-1.4-3.2l-.03-.03c-.73-.99-1.57-2.1-1.57-3.77q.01-3.24 2.65-5.85zm-5.43 4.93Q19 10.64 19 12.5q0 .53.38 1.04.38.5.95 1.04l.02.02.03.03c.71.7 1.62 1.58 1.62 2.87q0 1.22-.74 2.13-.75.88-2.1 1.34l-.33-.94a3.7 3.7 0 0 0 1.66-1.04q.51-.6.51-1.49c0-.82-.57-1.42-1.35-2.19l-.05-.05a9 9 0 0 1-1.04-1.15A3 3 0 0 1 18 12.5q0-2.13 1.08-3.78zm9.03-.06A6.5 6.5 0 0 0 28.5 12c0 .79.48 1.37 1.13 2.13l.02.02c.6.71 1.35 1.6 1.35 2.85 0 1.66-1 2.97-2.76 3.94l-.48-.88C29.33 19.2 30 18.16 30 17c0-.85-.49-1.47-1.13-2.22l-.06-.07c-.6-.7-1.31-1.54-1.31-2.71q-.01-2.05.55-3.22zm5.9 13.41c.07.08.15.2.15.37q0 .9-.04 1.77.26-.18.54-.33a7 7 0 0 1 2.23-.75c.77-.1 1.6-.03 2.24.42q1.02.72 1.03 2.39c0 2.8-2.06 4.43-4.03 5.56a34 34 0 0 1-1.73.92l-1.08.57q-.61.33-1.01.63-.38.3-.5.52a11 11 0 0 1-2.01 3c-.8.8-1.7 1.3-2.64 1.3h-8c-.93 0-1.84-.5-2.64-1.3s-1.55-1.96-2.2-3.37A28 28 0 0 1 13 23c0-.17.08-.3.14-.37l.18-.14q.15-.07.29-.1.29-.09.73-.13.92-.11 2.42-.18c1.98-.1 4.61-.14 7.24-.14s5.26.04 7.24.14c.99.05 1.83.1 2.42.18q.45.04.73.13.15.03.3.1zm-3.08 11.62.15-.33A27 27 0 0 0 34 23.32l-.46-.07q-.86-.1-2.34-.17c-1.96-.1-4.58-.14-7.2-.14s-5.24.04-7.2.14a34 34 0 0 0-2.8.24c.04 4.3.9 7.99 2.08 10.6.6 1.34 1.3 2.38 2 3.07.7.7 1.35 1.01 1.92 1.01h8c.57 0 1.23-.3 1.93-1a10 10 0 0 0 1.84-2.75m1.68-1.45.23-.13 1.11-.58.25-.13q.71-.36 1.44-.77C38.4 30.1 40 28.71 40 26.5c0-.89-.28-1.34-.6-1.57q-.55-.37-1.53-.25c-.64.09-1.32.33-1.9.64q-.78.44-1.12.84a28 28 0 0 1-1.4 6.64M38 41v1H10v-1z"/></svg>