<svg width="24" height="24" fill="none" xmlns="http://www.w3.org/2000/svg"><path fill="currentColor" d="M10.25 4c0 .4.24.68.78 1.22l.06.05c.46.46 1.16 1.16 1.16 2.23q.01.96-.52 1.7-.56.73-1.49 1.02l-.48-1.41c.4-.14.62-.32.76-.5q.22-.27.23-.81c0-.4-.24-.68-.78-1.22l-.06-.05C9.45 5.77 8.75 5.07 8.75 4c0-1.41.96-2.45 2.41-3.18l.68 1.33c-1.22.62-1.59 1.26-1.59 1.85m4 1.5q-.02.02.08.2t.33.43l.06.08c.3.36.78.97.78 1.79q0 .78-.49 1.39-.5.56-1.26.82l-.5-1.42q.48-.18.61-.37Q14 8.28 14 8c0-.23-.13-.45-.46-.86l-.05-.06q-.22-.26-.43-.59a2 2 0 0 1-.31-.99c0-.91.56-1.61 1.34-2.13l.82 1.26c-.55.36-.66.66-.66.87m2.69 12.15q-.45 1.02-1.03 1.63c-.39.42-.87.72-1.41.72h-5c-.54 0-1.02-.3-1.41-.72a6 6 0 0 1-1.06-1.72A15 15 0 0 1 6 11.85c0-.26.18-.4.24-.45l.22-.11q.2-.06.44-.1.5-.08 1.29-.12a67 67 0 0 1 7.62 0q.8.04 1.3.12l.43.1.22.1c.05.04.18.15.23.33q.42-.11.89-.16c.47-.03 1.05 0 1.54.31.54.34.83.91.83 1.63 0 1.73-1.4 2.66-2.46 3.23q-.43.22-.83.4l-.12.06zm1-4.33q-.1 1.26-.35 2.33l.5-.25c1.06-.56 1.66-1.12 1.66-1.9 0-.28-.09-.33-.12-.36q-.14-.1-.63-.08a4 4 0 0 0-1.06.26M5 21h14v1.5H5z"/></svg>