<svg width="16" height="16" fill="none" xmlns="http://www.w3.org/2000/svg"><path fill="currentColor" d="M7.18 2.2q-.16.1-.18.43c0 .1.07.2.36.5l.02.03c.23.23.62.63.62 1.22 0 .44-.2.86-.56 1.16Q6.9 6 6 6V5c.41 0 .67-.11.8-.23a.5.5 0 0 0 .2-.4c0-.14-.08-.26-.36-.54L6.6 3.8c-.22-.22-.6-.6-.6-1.16q0-.75.57-1.23Q7.14 1 8 1v1c-.44 0-.69.1-.82.2m5.14 5.1c.07.04.25.18.25.44V8H13a2.5 2.5 0 0 1 0 5h-1.38l-.03.07q-.43.96-1.03 1.4-.61.45-1.24.43H4.75c-.5 0-.94-.24-1.3-.6a5 5 0 0 1-1-1.48 12 12 0 0 1-.95-5.08c0-.26.18-.4.24-.45l.21-.1.4-.1q.46-.06 1.2-.1a62 62 0 0 1 8.16.1q.23.04.4.1.1.03.21.1m-.34 4.7H13a1.5 1.5 0 0 0 0-3h-.48a14 14 0 0 1-.54 3M2.5 8.09c.04 1.84.4 3.3.86 4.32q.37.8.77 1.17c.26.25.47.32.62.32h4.57q.3.01.64-.22c.22-.17.47-.46.7-.99l.02-.05a12 12 0 0 0 .88-4.55q-.4-.06-1.1-.1a61 61 0 0 0-7.95.1"/></svg>