<svg width="24" height="24" fill="none" xmlns="http://www.w3.org/2000/svg"><path fill="currentColor" d="M11.73 1.93C10.47 2.57 10 3.27 10 4c0 .51.32.87.85 1.4l.05.04c.47.47 1.1 1.1 1.1 2.06q0 .89-.47 1.55-.5.65-1.37.94l-.32-.95q.63-.22.88-.58.27-.35.28-.96c0-.51-.32-.87-.85-1.4l-.05-.04C9.63 5.59 9 4.96 9 4c0-1.27.87-2.25 2.27-2.96zm3.04 2.49c-.59.38-.77.75-.77 1.08q0 .12.12.34.13.2.34.45l.05.07c.3.37.74.91.74 1.64q0 .7-.43 1.23-.43.5-1.15.74l-.34-.94q.54-.2.72-.44.2-.23.2-.59c0-.33-.2-.62-.51-1.02l-.06-.06q-.21-.26-.41-.56A1.6 1.6 0 0 1 13 5.5c0-.8.48-1.43 1.23-1.92zm2.99 6.98c.06.04.24.19.24.45v.25q.51-.22 1.12-.29c.4-.03.88.01 1.27.3q.6.46.61 1.39c0 1.54-1.1 2.42-2.08 3l-.74.4-.13.07-.51.27q-.3.16-.46.3l-.16.15q-.45.99-1 1.6c-.4.4-.88.71-1.42.71h-5c-.54 0-1.02-.3-1.41-.72a6 6 0 0 1-1.06-1.72A15 15 0 0 1 6 11.85c0-.26.18-.41.24-.45l.22-.11q.2-.06.44-.1.5-.07 1.29-.12a67 67 0 0 1 7.62 0q.8.04 1.3.12l.43.1zm-.3 4.75.13-.07.13-.07q.35-.17.69-.38c.92-.54 1.59-1.17 1.59-2.13 0-.39-.12-.53-.2-.59q-.15-.13-.6-.1a3 3 0 0 0-1.25.44 16 16 0 0 1-.49 2.9m-.49-3.3.03-.66-.05-.01q-.43-.06-1.2-.11a66 66 0 0 0-7.5 0 14 14 0 0 0-1.25.12c.04 2.04.43 3.76.95 4.98q.41.96.87 1.42c.3.32.53.41.68.41h5c.15 0 .39-.09.69-.4q.4-.43.78-1.24zM19 21v1H5v-1z"/></svg>