<svg width="48" height="48" fill="none" xmlns="http://www.w3.org/2000/svg"><path fill="currentColor" d="M16.5 8a2.6 2.6 0 0 0-2.5 2.5v7c0 1.32 1.18 2.5 2.5 2.5h7c1.32 0 2.5-1.18 2.5-2.5v-7C26 9.18 24.82 8 23.5 8zM13 10.5C13 8.62 14.62 7 16.5 7h7c1.88 0 3.5 1.62 3.5 3.5v7c0 1.88-1.62 3.5-3.5 3.5h-7a3.6 3.6 0 0 1-3.5-3.5zM8 27.22V40h19v1H7V27.16l.5.04-.5-.04v-.01l.02-.15.08-.36c.08-.29.23-.68.5-1.07C8.16 24.75 9.19 24 11 24h16v1H11c-1.49 0-2.2.6-2.58 1.13a3 3 0 0 0-.42 1.1M29 24h14v20h-6v-5h-2v5h-6zm1 1v18h4v-5h4v5h4V25zm2 2h3v3h-3zm1 1v1h1v-1zm4-1h3v3h-3zm1 1v1h1v-1zm-6 5h3v3h-3zm1 1v1h1v-1zm4-1h3v3h-3zm1 1v1h1v-1z"/></svg>