<svg width="24" height="24" fill="none" xmlns="http://www.w3.org/2000/svg"><path fill="currentColor" d="M5.8 2C4.78 2 4 2.78 4 3.8V6h2V4h1v2h3V3.82A1.9 1.9 0 0 0 8.1 2zM11 6h11.5c.41 0 .78.2 1.04.46s.46.63.46 1.04V22H1.5C.76 22 0 21.4 0 20.5V6h3V3.8C3 2.22 4.22 1 5.8 1h2.3A2.9 2.9 0 0 1 11 3.76zm-1 1H7v3.5c0 .44.19 1.1.52 1.66q.24.42.52.64.27.21.46.2.2.01.46-.2.27-.23.52-.64c.33-.56.52-1.22.52-1.66zM6 7H1v13.5c0 .3.24.5.5.5H23V7.5a.5.5 0 0 0-.17-.33.5.5 0 0 0-.33-.17H11v3.5c0 .66-.26 1.5-.66 2.17q-.3.53-.75.9c-.3.25-.67.43-1.09.43s-.8-.18-1.1-.43q-.44-.37-.74-.9A4.6 4.6 0 0 1 6 10.5zm11 10v1H3v-1z"/></svg>