<svg width="24" height="24" fill="none" xmlns="http://www.w3.org/2000/svg"><path fill="currentColor" d="M7.13 6.13Q7 6.23 7 6.5V8H2.5q-.27.01-.37.13-.12.1-.13.37V19h19.5q.28-.01.37-.13.12-.1.13-.37V8h-5V6.5q-.01-.27-.13-.37-.1-.12-.37-.13h-9q-.27.01-.37.13m-.7-.7A1.5 1.5 0 0 1 7.5 5h9c.41 0 .8.14 1.08.42S18 6.1 18 6.5V7h5v11.5c0 .41-.14.8-.42 1.08a1.5 1.5 0 0 1-1.08.42H1V8.5c0-.41.14-.8.42-1.08A1.5 1.5 0 0 1 2.5 7H6v-.5c0-.41.14-.8.42-1.08M7 13a5 5 0 1 1 10 0 5 5 0 0 1-10 0m5-4a4 4 0 1 0 0 8 4 4 0 0 0 0-8"/></svg>