<svg width="16" height="16" fill="none" xmlns="http://www.w3.org/2000/svg"><path fill="currentColor" d="m15.35 1.35-14 14-.7-.7 14-14 .7.7ZM15 13.5V3h1v10.5c0 .41-.14.8-.42 1.08a1.5 1.5 0 0 1-1.08.42H4v-1h10.5c.19 0 .3-.06.37-.13s.13-.18.13-.37Zm-15-9c0-.41.14-.8.42-1.08A1.5 1.5 0 0 1 1.5 3H3v-.5c0-.41.14-.8.42-1.08A1.5 1.5 0 0 1 4.5 1H12v1H4.5c-.19 0-.3.06-.37.13S4 2.3 4 2.5V4H1.5c-.19 0-.3.06-.37.13S1 4.3 1 4.5V13H0V4.5Zm11 4c0-.46-.1-.9-.29-1.29l.9-.42A3.99 3.99 0 0 1 8 12.5c-.61 0-1.2-.14-1.71-.38l.42-.9A3 3 0 0 0 11 8.5Zm-7 0a4 4 0 0 1 5.14-3.83l-.28.95a3 3 0 0 0-3.74 3.74l-.95.28A4 4 0 0 1 4 8.5Z"/></svg>