<svg width="16" height="16" fill="none" xmlns="http://www.w3.org/2000/svg"><path fill="currentColor" d="M4.13 2.13Q4 2.23 4 2.5V4H1.5q-.27.01-.37.13-.12.1-.13.37V14h13.5q.28-.01.37-.13.12-.1.13-.37V4h-3V2.5q-.01-.27-.13-.37-.1-.12-.37-.13h-7q-.27.01-.37.13m-.7-.7A1.5 1.5 0 0 1 4.5 1h7c.41 0 .8.14 1.08.42S13 2.1 13 2.5V3h3v10.5c0 .41-.14.8-.42 1.08a1.5 1.5 0 0 1-1.08.42H0V4.5c0-.41.14-.8.42-1.08A1.5 1.5 0 0 1 1.5 3H3v-.5c0-.41.14-.8.42-1.08M4 8.5a4 4 0 1 1 8 0 4 4 0 0 1-8 0m4-3a3 3 0 1 0 0 6 3 3 0 0 0 0-6"/></svg>