<svg width="24" height="24" fill="none" xmlns="http://www.w3.org/2000/svg"><path fill="currentColor" d="M11.5 4c-.52 0-1.08.01-1.57.06-.48.04-.95.11-1.29.24a15 15 0 0 0-1.88.92q-.48.26-.88.43-.4.19-.6.22-.45.07-.89.18c-.65.17-1.12.73-1.17 1.4l-.22 2v.02c-.02.39.15.73.38.96q.36.36.89.42l.78.1a2 2 0 0 0 3.89.05h6.12a2 2 0 0 0 3.88-.02l.91-.06c.64 0 1.15-.52 1.15-1.16v-.21q.01-.83-.16-1.36-.16-.47-.63-.86a3 3 0 0 0-1.14-.65q-.85-.27-2.72-.53-.77-.73-1.31-1.18a5 5 0 0 0-.98-.66q-.47-.19-1.13-.25T11.5 4M2.75 15v5h1.5v-1.75h15.5V20h1.5v-5h-1.5v1.75H4.25V15z"/></svg>