<svg width="16" height="16" fill="none" xmlns="http://www.w3.org/2000/svg"><path fill="currentColor" d="M6.06 1h4v2.66q.4.18.77.44l2.3-1.32 2 3.46-2.3 1.32q.04.45 0 .89l2.29 1.37-2 3.46-2.3-1.33q-.37.25-.76.4V15h-4v-2.66a5 5 0 0 1-.77-.44L3 13.23l-2-3.4 2.3-1.38q-.06-.45 0-.9L1 6.24l2-3.46L5.3 4.1q.36-.25.76-.43zm1 1v2.36l-.34.11q-.59.21-1.07.6l-.27.23-2.02-1.17-1 1.74 2.02 1.16-.06.34q-.1.63 0 1.26l.06.33-2.02 1.21 1 1.7 2.02-1.18.27.23q.48.4 1.08.6l.33.13V14h2v-2.37l.35-.1a4 4 0 0 0 1.08-.57l.26-.2 2 1.16 1.01-1.74-2.02-1.22.06-.33q.1-.63 0-1.26l-.06-.34 2.02-1.15-1-1.74-2.02 1.17-.27-.23a4 4 0 0 0-1.08-.6l-.33-.13V2zm1 5a1 1 0 1 0 0 2 1 1 0 0 0 0-2m-2 1a2 2 0 1 1 4 0 2 2 0 0 1-4 0"/></svg>