<svg width="24" height="24" fill="none" xmlns="http://www.w3.org/2000/svg"><path fill="currentColor" d="M5.06 1h4v2.66q.4.18.77.44l2.3-1.32 2 3.46-2.3 1.32q.04.45 0 .89l2.29 1.37-2 3.46-2.3-1.33q-.37.25-.76.4V15h-4v-2.66a5 5 0 0 1-.77-.44L2 13.23l-2-3.4 2.3-1.38q-.06-.45 0-.9L0 6.24l2-3.46L4.3 4.1q.36-.25.76-.43zm1 1v2.36l-.34.11q-.59.21-1.07.6l-.27.23-2.02-1.17-1 1.74 2.02 1.16-.06.34q-.1.63 0 1.26l.06.33-2.02 1.21 1 1.7 2.02-1.18.27.23q.48.4 1.08.6l.33.13V14h2v-2.37l.35-.1a4 4 0 0 0 1.08-.57l.26-.2 2 1.16 1.01-1.74-2.02-1.22.06-.33q.1-.63 0-1.26l-.06-.34 2.02-1.15-1-1.74-2.02 1.17-.27-.23a4 4 0 0 0-1.08-.6l-.33-.13V2zm8.96 3.83q1.75.07 3.52.22l.24.02.14.2q.81 1.23 1.41 2.2.6.95 1.57 2.73l2.1 2.1v8.2c0 .83-.67 1.5-1.5 1.5h-2a1.5 1.5 0 0 1-1.5-1.5V21l-14-.04v.54c0 .83-.67 1.5-1.5 1.5h-2A1.5 1.5 0 0 1 0 21.5V13h1v1h3v1H1v6.5c0 .28.22.5.5.5h2a.5.5 0 0 0 .5-.5v-1.55L20 20v1.5c0 .28.22.5.5.5h2a.5.5 0 0 0 .5-.5V15h-4v-1h4v-.3L21.3 12h-6.8v-1h6.15a45 45 0 0 0-2.43-3.98 80 80 0 0 0-3.24-.19zM7.06 7a1 1 0 1 0 0 2 1 1 0 0 0 0-2m-2 1a2 2 0 1 1 4 0 2 2 0 0 1-4 0m11.23 7H10v-1h6.7l1.37 1.36-.1.3q-.46 1.5-.88 2.31-.2.41-.41.67c-.13.15-.36.36-.68.36H8c-.3 0-.5-.18-.64-.32a3 3 0 0 1-.38-.57q-.36-.68-.8-1.95l.96-.32q.4 1.24.72 1.8.15.28.23.36h7.82l.01-.01q.1-.12.28-.46.31-.63.73-1.9z"/></svg>