<svg width="24" height="24" fill="none" xmlns="http://www.w3.org/2000/svg"><path fill="currentColor" d="M1 4.5C1 3.67 1.67 3 2.5 3h7c.83 0 1.5.67 1.5 1.5v15c0 .83-.67 1.5-1.5 1.5h-7A1.5 1.5 0 0 1 1 19.5v-15ZM3 19h6v-1H3v1Zm9.01-10V3.77c2.15 0 4.33.1 6.53.28l.24.02.14.2A52.18 52.18 0 0 1 21.8 9H12Zm0 1h10.7L24 11.3v.7h-5v1h5v6.5c0 .83-.67 1.5-1.5 1.5h-2a1.5 1.5 0 0 1-1.5-1.5V19h-6.99v-2H16a.9.9 0 0 0 .68-.36c.14-.17.28-.4.41-.67.27-.53.57-1.31.89-2.32l.09-.29L16.7 12H12v-2Z"/><path fill="currentColor" d="M12.01 16v-3h4.28l.64.64c-.28.84-.52 1.47-.73 1.89-.12.23-.21.38-.28.46l-.01.01H12Z"/></svg>