<svg width="24" height="24" fill="none" xmlns="http://www.w3.org/2000/svg"><path fill="currentColor" d="M10.02 5.05q-.71.06-1.03.18c-.42.16-.94.44-1.5.73l-1.2.6q-.43.22-.85.3l-.8.16a.6.6 0 0 0-.42.5v.02l-.22 2q0 .08.09.18.11.12.27.13h.01l1.63.21v.44a1 1 0 1 0 2 0V10h8v.5a1 1 0 1 0 2 0v-.47l1.82-.1h.02q.15-.02.16-.17v-.21q0-.77-.1-1.04a1 1 0 0 0-.34-.43 2 2 0 0 0-.81-.45 17 17 0 0 0-2.7-.5l-.16-.03-.12-.11q-.82-.8-1.37-1.25a4 4 0 0 0-.74-.51 3 3 0 0 0-.83-.17Q12.23 5 11.5 5c-.5 0-1.03.01-1.48.05m-.09-1a18 18 0 0 1 3 .01c.42.05.83.12 1.13.25q.4.18.98.66.54.46 1.3 1.18 1.88.26 2.73.53.7.25 1.14.65.47.39.63.86.17.53.16 1.36v.21c0 .64-.51 1.15-1.15 1.16l-.9.06a2 2 0 0 1-3.89.02H8.94a2 2 0 0 1-3.89-.05l-.78-.1a1.4 1.4 0 0 1-.89-.42c-.23-.23-.4-.57-.38-.96v-.01l.22-2.01c.05-.67.52-1.23 1.17-1.4l.89-.18q.2-.04.6-.22a16 16 0 0 0 1.14-.57c.54-.29 1.13-.6 1.62-.78.34-.13.8-.2 1.29-.24M4 18v2H3v-5h1v2h16v-2h1v5h-1v-2z"/></svg>