<svg width="24" height="24" fill="none" xmlns="http://www.w3.org/2000/svg"><path fill="currentColor" d="M10.02 5.05q-.72.06-1.03.18c-.42.16-.95.44-1.5.73l-.27.14q-.48.27-.93.47-.44.2-.85.28-.4.07-.8.17a.6.6 0 0 0-.43.5v.02l-.21 2q0 .08.09.18.12.12.26.13h.02l1.63.21v.44a1 1 0 1 0 2 0V10h8v.5a1 1 0 1 0 2 0v-.47l1.82-.1h.01q.16-.02.17-.17v-.21q0-.77-.1-1.04a1 1 0 0 0-.34-.43 2 2 0 0 0-.81-.45 17 17 0 0 0-2.7-.5l-.16-.03-.12-.11q-.82-.8-1.37-1.25a4 4 0 0 0-.74-.51 3 3 0 0 0-.83-.17Q12.23 5 11.5 5q-.78 0-1.48.05m-.1-1a18 18 0 0 1 3.01.01c.42.05.83.12 1.13.25q.4.18.98.66.54.46 1.3 1.18 1.88.26 2.72.53.7.25 1.15.65.46.39.63.86.17.53.16 1.36v.21c0 .64-.51 1.15-1.15 1.16l-.9.06a2 2 0 0 1-3.89.02H8.94a2 2 0 0 1-3.89-.05l-.78-.1a1.4 1.4 0 0 1-.89-.42c-.23-.23-.4-.57-.38-.96v-.01l.22-2.01c.05-.67.52-1.23 1.17-1.4l.89-.18q.2-.04.6-.22a16 16 0 0 0 1.14-.57c.54-.29 1.13-.6 1.62-.78.34-.13.8-.2 1.29-.24m11.1 10.63-5.55 1.66a2.05 2.05 0 0 1-1.97 1.66H7v-1h6.5c.52 0 1-.48 1-1s-.48-1-1-1H8.8c-1.42 0-2.94.38-4.16 1.04l-1.18.61c-.29.15-.53.25-.8.3a4 4 0 0 1-.84.06H1V21h8.5a12 12 0 0 0 4.4-.86l.74-.34 6.82-3.14q.57-.25 1.02-.6.5-.37.52-.96-.01-.28-.17-.35a1.4 1.4 0 0 0-.66-.16 4 4 0 0 0-1.14.1M14.1 20.6l.19.46h-.01l-.02.02-.38.13A15 15 0 0 1 9.5 22H0v-6h1.45l.38.01c.3 0 .48 0 .63-.04.15-.03.3-.09.56-.21l.66-.34.49-.26A10 10 0 0 1 8.8 14h4.7c.84 0 1.59.56 1.88 1.33l5.4-1.61.12.48-.11-.49h.04l.41-.08c.26-.03.62-.06.99-.04.36.02.78.1 1.13.31.39.25.64.65.64 1.2 0 .8-.41 1.35-.88 1.74-.4.32-.87.55-1.23.73l-.17.08h-.02a495 495 0 0 0-6.64 3.06l-.75.34zm0 0 .19.46h.02z"/></svg>