<svg width="48" height="48" fill="none" xmlns="http://www.w3.org/2000/svg"><path fill="currentColor" d="M2 14.4c.1 6.42 5.28 11.5 11.6 11.6C19.93 26 25 21.41 25 14.4 25 8.08 19.92 3 13.6 3A11.6 11.6 0 0 0 2 14.4m-1 0A12.6 12.6 0 0 1 13.6 2C20.48 2 26 7.52 26 14.4c0 4.68-2.1 8.38-5.33 10.53l11.95 19-.84.54-11.96-19.02c-1.83 1-3.95 1.55-6.22 1.55A12.77 12.77 0 0 1 1 14.4m11.47-3.9c4.24-.3 7.34-.47 9.52-.5l.02 1c-2.12.03-5.13.2-9.26.48A35 35 0 0 0 7.82 19H21v1H6.18l.37-.73a59 59 0 0 1 2.53-4.54q1.12-1.78 3.04-4.05l.13-.16zm20.07-.24 3 .24.2.02.14.16a37 37 0 0 1 3.04 4.05 59 59 0 0 1 2.49 4.47L46 23.8V38a2 2 0 0 1-2 2h-5a2 2 0 0 1-2-2v-1h-6v-1h7v2a1 1 0 0 0 1 1h5a1 1 0 0 0 1-1V24.2L40.8 20H28v-1h12.18a35 35 0 0 0-4.93-7.52l-2.84-.23q-2.08-.2-3.43-.25l.04-1q1.38.05 3.52.26m10.45 14.79a32 32 0 0 0-3.95.02q-1.54.13-3.67.4l.23.25.05.03.15.09.51.21a29 29 0 0 0 3.63 1.02H42q.13.02.4-.19.24-.23.4-.54.08-.15.14-.6.04-.3.05-.7m-4.03-.97q1.9-.15 4.57 0l.47.02v.47q0 .75-.07 1.29-.05.53-.23.9-.23.5-.65.88c-.27.23-.63.43-1.05.43h-2q-.19 0-.42-.05L39 27.9a30 30 0 0 1-3.05-.91l-.6-.26a2 2 0 0 1-.45-.3 4 4 0 0 1-.85-1.13l-.31-.63.7-.1q2.66-.34 4.52-.5M2 38V25h1v13a1 1 0 0 0 1 1h5a1 1 0 0 0 1-1v-2h14v1H11v1a2 2 0 0 1-2 2H4a2 2 0 0 1-2-2m28.76-12H24v-1h7.24l2.33 2.9-.1.27a33 33 0 0 1-1.78 4.2q-.39.71-.76 1.12c-.23.25-.54.51-.93.51h-1v-1h.98q.01.02.21-.18a5 5 0 0 0 .62-.93q.69-1.26 1.62-3.8zm-25.67-.07q.05.3.11.4.16.33.4.55.27.21.4.2h2v1H6c-.41 0-.78-.2-1.05-.44q-.41-.37-.65-.87-.14-.3-.2-.67zM18.02 33H22v1h-4c-.33 0-.61-.19-.82-.39q-.34-.31-.67-.85-.67-1.06-1.47-3.08l.93-.36a18 18 0 0 0 1.38 2.9q.3.49.5.66c.1.1.16.11.17.12"/></svg>