<svg width="24" height="24" fill="none" xmlns="http://www.w3.org/2000/svg"><path fill="currentColor" d="M1 4.5C1 3.67 1.67 3 2.5 3h7c.83 0 1.5.67 1.5 1.5v15c0 .83-.67 1.5-1.5 1.5h-7A1.5 1.5 0 0 1 1 19.5zM3 19h6v-1H3zm9.01-10V3.77q3.23 0 6.53.28l.24.02.14.2q.81 1.23 1.41 2.2.57.9 1.47 2.53zm0 1h10.7L24 11.3v.7h-5v1h5v6.5c0 .83-.67 1.5-1.5 1.5h-2a1.5 1.5 0 0 1-1.5-1.5V19h-6.99v-2H16a1 1 0 0 0 .68-.36q.21-.26.41-.67.4-.8.89-2.32l.09-.29L16.7 12H12z"/><path fill="currentColor" d="M12.01 16v-3h4.28l.64.64q-.42 1.26-.73 1.89-.18.34-.28.46l-.01.01z"/></svg>