<svg width="48" height="48" fill="none" xmlns="http://www.w3.org/2000/svg"><path fill="currentColor" d="M20.7 11.1q-1.33.12-2.02.37c-.83.3-1.84.84-2.87 1.4l-.51.26q-.91.48-1.73.86a7 7 0 0 1-1.48.5q-.78.13-1.56.33a1.5 1.5 0 0 0-1.12 1.35v.01L9 19.8q-.03.37.29.7c.2.2.5.34.78.36l2.42.18v.46a2.5 2.5 0 0 0 5 0V21h14v.5a2.5 2.5 0 0 0 5 0V21h2.75c.42 0 .75-.34.75-.75V20q0-1.46-.22-2.1a2.5 2.5 0 0 0-.76-.99c-.42-.36-.99-.7-1.68-.94q-1.41-.47-5.15-.97l-.17-.03-.11-.1q-1.58-1.52-2.61-2.37-1.05-.86-1.5-1.04a7 7 0 0 0-1.72-.35 29 29 0 0 0-2.58-.1 25 25 0 0 0-2.8.1m-.09-1a32 32 0 0 1 5.57.02c.8.08 1.52.2 2.02.42q.67.3 1.74 1.19 1.04.86 2.54 2.3 3.63.48 5.18 1c.81.27 1.5.67 2.01 1.12.52.45.9.96 1.06 1.44q.28.88.27 2.41v.25c0 .97-.78 1.75-1.75 1.75h-1.78a3.5 3.5 0 0 1-6.93 0H18.47a3.5 3.5 0 0 1-6.94-.03l-1.52-.11a2.3 2.3 0 0 1-1.42-.66A2 2 0 0 1 8 19.72l.4-3.63a2.5 2.5 0 0 1 1.88-2.24q.83-.2 1.64-.34.47-.08 1.25-.43a30 30 0 0 0 2.16-1.1c1.03-.54 2.1-1.11 3-1.45.58-.21 1.4-.35 2.28-.43M7 37v-9h1v4h32v-4h1v9h-1v-4H8v4z"/></svg>