<svg width="48" height="48" fill="none" xmlns="http://www.w3.org/2000/svg"><path fill="currentColor" d="M2 9.5A2.5 2.5 0 0 1 4.5 7h12A2.5 2.5 0 0 1 19 9.5v27a2.5 2.5 0 0 1-2.5 2.5h-12A2.5 2.5 0 0 1 2 36.5zM4.5 8C3.67 8 3 8.67 3 9.5v27c0 .83.67 1.5 1.5 1.5h12c.83 0 1.5-.67 1.5-1.5v-27c0-.83-.67-1.5-1.5-1.5zm15.49 1.06a136 136 0 0 1 15.55.44l.2.02.14.16a37 37 0 0 1 3.04 4.05 59 59 0 0 1 2.49 4.47L46 22.8V37a2 2 0 0 1-2 2h-5a2 2 0 0 1-2-2v-1H20v-1h18v2a1 1 0 0 0 1 1h5a1 1 0 0 0 1-1V23.2L40.8 19H20v-1h20.18a35 35 0 0 0-4.93-7.52 129 129 0 0 0-15.24-.42zm23 14.99a32 32 0 0 0-3.95.02q-1.54.13-3.67.4l.23.25.05.03.15.09.51.21a29 29 0 0 0 3.63 1.02H42q.13.02.4-.19.24-.23.4-.54.08-.15.14-.6.04-.3.05-.7m-4.03-.97q1.9-.15 4.57 0l.47.02v.47q0 .75-.07 1.29-.05.53-.23.9-.24.5-.65.88c-.27.23-.64.43-1.05.43h-2q-.19 0-.42-.05L39 26.9a30 30 0 0 1-3.05-.91l-.6-.26a2 2 0 0 1-.45-.3 4 4 0 0 1-.85-1.13l-.31-.63.7-.1q2.66-.34 4.52-.5M30.76 25H20v-1h11.24l2.33 2.9-.1.27a33 33 0 0 1-1.78 4.2q-.39.71-.76 1.12c-.23.25-.54.51-.93.51H20v-1h9.98q.01.02.21-.18a5 5 0 0 0 .62-.93q.69-1.26 1.62-3.8zM16 36H5v-1h11z"/></svg>