<svg width="48" height="48" fill="none" xmlns="http://www.w3.org/2000/svg"><path fill="currentColor" d="M12.46 9.5a131 131 0 0 1 23.08 0l.2.02.14.16a37 37 0 0 1 3.04 4.05 59 59 0 0 1 2.49 4.47L46 22.8V37a2 2 0 0 1-2 2h-5a2 2 0 0 1-2-2v-1H11v1a2 2 0 0 1-2 2H4a2 2 0 0 1-2-2V22.8l4.59-4.6q1.38-2.7 2.49-4.47a37 37 0 0 1 3.04-4.05l.13-.16zM7.2 19 3 23.2V37a1 1 0 0 0 1 1h5a1 1 0 0 0 1-1v-2h28v2a1 1 0 0 0 1 1h5a1 1 0 0 0 1-1V23.2L40.8 19zm32.97-1a35 35 0 0 0-4.93-7.52 129 129 0 0 0-22.5 0A35 35 0 0 0 7.82 18zM5.01 24.05q0 .4.05.69.07.45.14.6.16.31.4.54.27.21.4.2h2l.06-.01.18-.03.53-.12a29 29 0 0 0 2.92-.87 6 6 0 0 0 .66-.3l.05-.03.23-.25a84 84 0 0 0-3.67-.4q-1.64-.14-3.95-.02m-.54-.97q2.67-.15 4.57 0 1.86.15 4.53.5l.7.1-.32.62q-.3.6-.85 1.13c-.12.12-.3.22-.45.3q-.27.13-.6.26a30 30 0 0 1-3.63 1.04l-.42.04H6c-.41 0-.78-.2-1.05-.43q-.41-.37-.65-.87a3 3 0 0 1-.23-.91Q4 24.32 4 23.57v-.47zm38.52.97a32 32 0 0 0-3.95.02q-1.54.13-3.67.4l.23.25.05.03.15.09.51.21a29 29 0 0 0 3.63 1.02H42q.13.02.4-.19.24-.23.4-.54.08-.15.14-.6.04-.3.05-.7m-4.03-.97q1.9-.15 4.57 0l.47.02v.47q0 .75-.07 1.29-.05.53-.23.9-.24.5-.65.88c-.27.23-.64.43-1.05.43h-2q-.19 0-.42-.05L39 26.9a30 30 0 0 1-3.05-.91l-.6-.26a2 2 0 0 1-.45-.3 4 4 0 0 1-.85-1.13l-.31-.63.7-.1q2.66-.34 4.52-.5m-22.2.92h14.48l2.33 2.9-.1.27a32 32 0 0 1-1.78 4.2q-.39.71-.76 1.12c-.23.25-.54.51-.93.51H18c-.39 0-.7-.26-.93-.5q-.37-.42-.76-1.14a32 32 0 0 1-1.78-4.19l-.1-.26zm.48 1-1.67 2.1a30 30 0 0 0 1.62 3.79 5 5 0 0 0 .62.93c.13.14.2.17.2.18h11.97q.02.02.21-.18a5 5 0 0 0 .62-.93q.69-1.26 1.62-3.8L30.76 25z"/></svg>