<svg width="48" height="48" fill="none" xmlns="http://www.w3.org/2000/svg"><path fill="currentColor" d="M23.25 1h1.5l.15.2c2.9 3.87 7.52 5.83 11.47 6.82a35 35 0 0 0 7.1.98H44v.5c0 15.62-4.92 24.99-9.88 30.46a28 28 0 0 1-6.82 5.55 21 21 0 0 1-3.13 1.46h-.02L24 46.5l-.15.48h-.02l-.22-.08-.64-.26a21 21 0 0 1-2.27-1.13 28 28 0 0 1-6.82-5.55C8.92 34.5 4 25.12 4 9.5V9h.53l.52-.02q.55-.01 1.53-.1c1.3-.13 3.08-.37 5.05-.87 3.95-.98 8.57-2.94 11.47-6.81zM5 9.99c.1 15.09 4.89 24.08 9.62 29.3 2.4 2.64 4.8 4.33 6.58 5.35a20 20 0 0 0 2.75 1.31l.05.02q.03 0 .05-.02l.6-.23q.78-.31 2.15-1.08a27 27 0 0 0 6.58-5.35c4.73-5.22 9.52-14.21 9.62-29.3a23 23 0 0 1-1.67-.12 36 36 0 0 1-5.2-.88C32.15 7.99 27.36 6 24.25 2h-.5c-3.11 4-7.9 5.99-11.88 6.99a36 36 0 0 1-6.87 1M24 46.5l-.15.48.15.04.15-.04zm2.28-27.06a22 22 0 0 0-3.88 0 5 5 0 0 0-1.22.25q-.3.1-1.05.73-.75.62-1.9 1.71l-.1.12-.17.02a22 22 0 0 0-3.62.7q-.74.26-1.2.66-.47.42-.53.66-.07.16-.07.55l-.01.64v.47q0 .16.18.37.2.19.32.18l2 .03v.5c0 .95.78 1.72 1.73 1.72h.02c.97 0 1.75-.78 1.75-1.75v-.5l10 .02v.5c0 .96.78 1.73 1.73 1.73h.04c.96 0 1.73-.77 1.73-1.73v-.42l1.95-.34h.03a.57.57 0 0 0 .52-.63l-.2-2.63c-.02-.38-.34-.75-.77-.86l-.2-.05c-.3-.08-.52-.14-.82-.19q-.52-.1-1.12-.38a23 23 0 0 1-1.63-.82c-.75-.4-1.48-.78-2.07-1a6 6 0 0 0-1.44-.26m.1-1a7 7 0 0 1 1.69.32c.66.25 1.45.67 2.2 1.06l1.56.8q.56.24.87.3c.35.05.63.13.93.2l.17.05a2 2 0 0 1 1.53 1.76l.2 2.63c.06.85-.55 1.62-1.42 1.7l-1.11.19a2.7 2.7 0 0 1-2.7 2.3h-.04a2.7 2.7 0 0 1-2.68-2.23l-8.1-.02a2.75 2.75 0 0 1-2.7 2.25h-.02a2.7 2.7 0 0 1-2.68-2.24l-1.05-.01c-.43 0-.8-.23-1.05-.5a1.6 1.6 0 0 1-.45-1.05V24.8q.01-.43.13-.82c.13-.4.44-.79.83-1.11q.62-.53 1.53-.84c.75-.25 1.9-.5 3.64-.73a34 34 0 0 1 1.83-1.65q.79-.66 1.3-.88c.38-.17.93-.26 1.5-.32a23 23 0 0 1 4.07-.01"/></svg>