<svg width="24" height="24" fill="none" xmlns="http://www.w3.org/2000/svg"><path fill="currentColor" d="M6.06 8a1 1 0 1 1 2 0 1 1 0 0 1-2 0"/><path fill="currentColor" d="M5.06 1h4v2.66q.4.18.77.44l2.3-1.32 2 3.46-2.3 1.32q.04.45 0 .89l2.29 1.37-2 3.46-2.3-1.33q-.37.25-.76.4V15h-4v-2.66a5 5 0 0 1-.77-.44L2 13.23l-2-3.4 2.3-1.38q-.06-.45 0-.9L0 6.24l2-3.46L4.3 4.1q.36-.25.76-.43zm2 5a2 2 0 1 0 0 4 2 2 0 0 0 0-4"/><path fill="currentColor" d="M20.33 8.46q.57.9 1.47 2.54h-7.2l.88-1.53-2.43-1.46 2.44-1.4-.45-.78q1.74.07 3.5.22l.24.02.14.2q.81 1.23 1.41 2.2M.55 12.74 1.3 14H0v-.7zM10.06 15h6.23l.64.64q-.42 1.26-.73 1.89-.18.34-.28.46l-.01.01H8.09l-.01-.01a2 2 0 0 1-.28-.46q-.27-.54-.6-1.53h2.86zm0-1v-.75l1.3.75z"/><path fill="currentColor" d="M0 21.5V15h4.06v1h2.08q.4 1.26.77 1.97.2.41.41.67c.13.15.36.36.68.36h8a1 1 0 0 0 .68-.36q.21-.26.41-.67.4-.8.89-2.32l.09-.29L16.7 14h-3.85l1.16-2h8.69l1.3 1.3v.7h-5v1h5v6.5c0 .83-.67 1.5-1.5 1.5h-2a1.5 1.5 0 0 1-1.5-1.5V21l-14-.04v.54c0 .83-.67 1.5-1.5 1.5h-2A1.5 1.5 0 0 1 0 21.5m4.06-8.3v.8H2.67z"/></svg>