<svg width="16" height="16" fill="none" xmlns="http://www.w3.org/2000/svg"><path fill="currentColor" d="M7.22 0h1.56l.15.24q.47.75 1.49 1.17a8 8 0 0 0 2.2.53 15 15 0 0 0 2.78.07h.05l.55-.06v.55c0 5.38-1.93 8.76-3.9 10.79a12 12 0 0 1-3.58 2.54C8.35 15.91 8 16 8 16s-.35-.1-.52-.17q-.34-.14-.9-.45a12 12 0 0 1-2.69-2.1C1.93 11.27 0 7.89 0 2.5v-.55L.55 2H.6l.79.04c.52 0 1.24 0 1.99-.1a8 8 0 0 0 2.2-.53A3 3 0 0 0 7.08.24zM1 3.03c.12 4.8 1.87 7.78 3.6 9.56A11 11 0 0 0 8 14.97a6 6 0 0 0 .93-.46c.66-.38 1.56-1 2.46-1.92 1.73-1.78 3.48-4.76 3.6-9.56a17 17 0 0 1-2.49-.1c-.8-.1-1.68-.27-2.47-.6A4 4 0 0 1 8.23 1h-.46a4 4 0 0 1-1.8 1.33c-.79.33-1.67.5-2.47.6a16 16 0 0 1-2.5.1m10.78 2.26L7.4 11.47 4.15 8.21l.7-.7 2.43 2.42 3.7-5.22z"/></svg>