<svg width="24" height="24" fill="none" xmlns="http://www.w3.org/2000/svg"><path fill="currentColor" d="m2.2 11.02-.84.53a7 7 0 0 0 5.99 3.35h.41a7 7 0 0 0 2.92-.75l3.83 5.84L5 19.96v.54c0 .83-.67 1.5-1.5 1.5h-2A1.5 1.5 0 0 1 0 20.5v-7.23l1.1-1.68A8 8 0 0 1 0 7.82V7.8A7.2 7.2 0 0 1 7.37.65a7.4 7.4 0 0 1 6.4 4.12l-.12.06h1.41q1.16.05 3.48.22l.24.02.14.2q.81 1.23 1.41 2.2a25 25 0 0 0 3.52 4.68l.15.15v8.2c0 .83-.67 1.5-1.5 1.5h-2a1.5 1.5 0 0 1-1.5-1.5V20h-3l1.58 2.39-1.26.82-1.9-2.9 1.04-.69-3.94-6a6.8 6.8 0 0 0 2.73-5.73q-.02-1.62-.7-3.01l-.9.44q.59 1.2.6 2.58v.01a5.7 5.7 0 0 1-5.5 5.99h-.4a6 6 0 0 1-5.14-2.88m-.17-.87.62-.95q.6-1.06 1.02-1.74.6-.96 1.41-2.19l.14-.2.25-.02q2.8-.18 4.52-.24h2.08a5.9 5.9 0 0 0-4.74-2.66A5.7 5.7 0 0 0 1.5 7.79q.04 1.28.53 2.36"/></svg>