<svg width="24" height="24" fill="none" xmlns="http://www.w3.org/2000/svg"><path fill="currentColor" d="M1 7.8a6.16 6.16 0 0 0 6.1 6.1h.4A5.7 5.7 0 0 0 13 7.91V7.9a6.1 6.1 0 0 0-5.91-6A5.93 5.93 0 0 0 1 7.8m-1 0C0 3.92 3.23.8 7.11.9a7.1 7.1 0 0 1 6.89 7c.06 2.33-1 4.44-2.73 5.72l3.53 5.37L20 19v1.5c0 .28.22.5.5.5h2a.5.5 0 0 0 .5-.5v-7.8l-1.9-1.9-.04-.06a55 55 0 0 0-2.84-4.71q-2.13-.15-3.2-.2l.04-1q1.16.05 3.48.22l.24.02.14.2q.81 1.23 1.41 2.2.6.95 1.57 2.73l2.1 2.1v8.2c0 .83-.67 1.5-1.5 1.5h-2a1.5 1.5 0 0 1-1.5-1.5V20h-3.55l1.67 2.54-.84.54L14.26 20 5 19.96v.54c0 .83-.67 1.5-1.5 1.5h-2A1.5 1.5 0 0 1 0 20.5v-7.08h1v7.08c0 .28.22.5.5.5h2a.5.5 0 0 0 .5-.5v-1.54l9.6.02-3.17-4.83q-1.31.69-2.92.75H7.1c-3.88 0-7-3.13-7.1-7.09zm5.47-2.75q2.8-.18 4.52-.24l.03 1q-1.62.04-4.24.22L4.51 8q-.4.65-1 1.7l-.87-.48q.6-1.08 1.03-1.76.6-.96 1.41-2.19l.14-.2z"/></svg>