<svg width="24" height="24" fill="none" xmlns="http://www.w3.org/2000/svg"><path fill="currentColor" d="M12.01 3.77q3.23 0 6.53.28l.24.02.14.2q.81 1.23 1.41 2.2.57.9 1.47 2.53H2.2a52 52 0 0 1 2.88-4.73l.14-.2.24-.02A80 80 0 0 1 12 3.77m-4.93 9.87.64-.64h8.58l.64.64q-.42 1.26-.73 1.89-.18.34-.28.46l-.01.01H8.09l-.01-.01a2 2 0 0 1-.28-.46q-.31-.63-.73-1.9"/><path fill="currentColor" d="m22.7 10 1.3 1.3v.7h-5v1h5v6.5c0 .83-.67 1.5-1.5 1.5h-2a1.5 1.5 0 0 1-1.5-1.5V19l-14-.04v.54c0 .83-.67 1.5-1.5 1.5h-2A1.5 1.5 0 0 1 0 19.5V13h5v-1H0v-.7L1.3 10zm-6 2H7.3l-1.37 1.36.1.3q.46 1.5.88 2.31.2.41.41.67c.13.15.36.36.68.36h8a1 1 0 0 0 .68-.36q.21-.26.41-.67.4-.8.89-2.32l.09-.29z"/></svg>