<svg width="24" height="24" fill="none" xmlns="http://www.w3.org/2000/svg"><path fill="currentColor" d="M6.06 8a1 1 0 1 1 2 0 1 1 0 0 1-2 0Z"/><path fill="currentColor" d="M5.06 1h4v2.66c.27.12.53.27.77.44l2.3-1.32 2 3.46-2.3 1.32c.03.3.03.6 0 .89l2.29 1.37-2 3.46-2.3-1.33c-.24.16-.5.3-.76.4V15h-4v-2.66a4.5 4.5 0 0 1-.77-.44L2 13.23l-2-3.4 2.3-1.38c-.04-.3-.04-.6 0-.9L0 6.24l2-3.46L4.3 4.1c.23-.17.5-.31.76-.43V1Zm2 5a2 2 0 1 0 0 4 2 2 0 0 0 0-4Z"/><path fill="currentColor" d="M20.33 8.46c.38.6.87 1.45 1.47 2.54h-7.2l.88-1.53-2.43-1.46 2.44-1.4-.45-.78c1.16.05 2.33.12 3.5.22l.24.02.14.2c.54.82 1.01 1.55 1.41 2.2ZM.55 12.74 1.3 14H0v-.7l.55-.56ZM10.06 15h6.23l.64.64c-.28.84-.52 1.47-.73 1.89-.12.23-.21.38-.28.46l-.01.01H8.09l-.01-.01a2.35 2.35 0 0 1-.28-.46c-.18-.36-.38-.87-.6-1.53h2.86v-1Zm0-1v-.75l1.3.75h-1.3Z"/><path fill="currentColor" d="M0 21.5V15h4.06v1h2.08c.27.84.53 1.5.77 1.97.13.27.27.5.41.67.13.15.36.36.68.36h8a.9.9 0 0 0 .68-.36c.14-.17.28-.4.41-.67.27-.53.57-1.31.89-2.32l.09-.29L16.7 14h-3.85l1.16-2h8.69l1.3 1.3v.7h-5v1h5v6.5c0 .83-.67 1.5-1.5 1.5h-2a1.5 1.5 0 0 1-1.5-1.5V21l-14-.04v.54c0 .83-.67 1.5-1.5 1.5h-2A1.5 1.5 0 0 1 0 21.5Zm4.06-8.3v.8H2.67l1.39-.8Z"/></svg>