<svg width="48" height="48" fill="none" xmlns="http://www.w3.org/2000/svg"><path fill="currentColor" d="M17.5 4V3h1v1zm3 0V3h1v1zm3 0V3h1v1zm3 0V3h1v1zm3 0V3h1v1zm-13 3V6h1v1zM20 7V6h1v1zm3.5 0V6h1v1zM27 7V6h1v1zm3.5 0V6h1v1zM15 10V9h1v1zm4 0V9h1v1zm4.5 0V9h1v1zm4.5 0V9h1v1zm4 0V9h1v1zm-18.5 3v-1h1v1zm4.5 0v-1h1v1zm5.5 0v-1h1v1zm5.5 0v-1h1v1zm4.5 0v-1h1v1zM12 16v-1h1v1zm5.5 0v-1h1v1zm6 0v-1h1v1zm6 0v-1h1v1zm5.5 0v-1h1v1zm-24.5 3v-1h1v1zm6 0v-1h1v1zm7 0v-1h1v1zm7 0v-1h1v1zm6 0v-1h1v1zM24 21.63c3.62 0 7.28.12 9.07.38l.2.02.12.16a38 38 0 0 1 2.64 4.06 91 91 0 0 1 1.38 2.45l3.09 3.1V43a2 2 0 0 1-2 2H36a2 2 0 0 1-2-2v-1H14v1a2 2 0 0 1-2 2H9.5a2 2 0 0 1-2-2V31.8l3.1-3.11 4.1-6.65.23-.04c1.79-.25 5.45-.37 9.07-.37M11.2 29.5l-2.7 2.7v.8H14v1H8.5v9a1 1 0 0 0 1 1H12a1 1 0 0 0 1-1v-2h22v2a1 1 0 0 0 1 1h2.5a1 1 0 0 0 1-1v-9H34v-1h5.5v-.8l-2.7-2.7zm24.96-1-1-1.75c-.75-1.3-1.67-2.8-2.43-3.78a85 85 0 0 0-8.73-.34c-3.47 0-6.91.11-8.7.33l-3.4 5.54zM18.2 34l-1.15 1.15c.17.63.43 1.46.72 2.15q.27.61.52.97a1 1 0 0 0 .22.23h10.96l.02-.02q.08-.05.2-.21.25-.35.52-.97c.3-.7.55-1.52.72-2.15L29.8 34zm12-1 1.84 1.85-.06.27c-.18.68-.48 1.71-.86 2.58q-.28.66-.62 1.16-.18.24-.4.42a1 1 0 0 1-.61.22h-11a1 1 0 0 1-.6-.22 2 2 0 0 1-.4-.42 6 6 0 0 1-.63-1.16c-.38-.87-.68-1.9-.86-2.58l-.06-.27L17.79 33z"/></svg>