<svg width="24" height="24" fill="none" xmlns="http://www.w3.org/2000/svg"><path fill="currentColor" d="M1 4.5C1 3.67 1.67 3 2.5 3h7c.83 0 1.5.67 1.5 1.5v15c0 .83-.67 1.5-1.5 1.5h-7A1.5 1.5 0 0 1 1 19.5v-15ZM2.5 4a.5.5 0 0 0-.5.5v15c0 .28.22.5.5.5h7a.5.5 0 0 0 .5-.5v-15a.5.5 0 0 0-.5-.5h-7Zm9.51-.23c2.15 0 4.33.1 6.53.28l.24.02.14.2A54.68 54.68 0 0 1 21.9 9.2l2.1 2.1v8.2c0 .83-.67 1.5-1.5 1.5h-2a1.5 1.5 0 0 1-1.5-1.5V19l-7-.02v-1l8 .02v1.5c0 .28.22.5.5.5h2a.5.5 0 0 0 .5-.5V13h-4v-1h4v-.3L21.3 10H12V9h8.65a45.13 45.13 0 0 0-2.43-3.98 77.8 77.8 0 0 0-6.2-.25v-1ZM16.3 13H12v-1h4.7l1.37 1.36-.1.3c-.31 1-.6 1.78-.88 2.31-.13.27-.27.5-.41.67-.13.15-.36.36-.68.36h-3.99v-1h3.9l.01-.01c.07-.08.16-.23.28-.46.21-.42.45-1.05.73-1.9l-.64-.63ZM9 19H3v-1h6v1Z"/></svg>