<svg width="48" height="48" fill="none" xmlns="http://www.w3.org/2000/svg"><path fill="currentColor" d="M9.4 5h4.2v2.84q.56.19 1.11.44L16.7 6.3l3 3.01-1.98 1.99q.25.55.44 1.11H21v4.3h-2.84q-.19.56-.44 1.11l2 2-3.03 2.89-1.98-1.98q-.55.25-1.11.44V24H9.4v-2.84a9 9 0 0 1-1.11-.44L6.3 22.7l-3-3.01 1.98-1.99a9 9 0 0 1-.44-1.11H2v-4.2h2.84q.19-.56.44-1.11L3.3 9.3l3.01-3L8.3 8.28q.55-.25 1.11-.44zm1 1v2.56l-.34.11q-.93.29-1.6.66l-.34.2L6.3 7.71 4.7 9.3l1.83 1.82-.2.34c-.27.44-.45.99-.66 1.6l-.11.34H3v2.2h2.56l.11.34q.29.93.66 1.6l.2.34-1.82 1.82 1.59 1.6 1.82-1.83.34.2c.44.27.99.45 1.6.66l.34.11V23h2.2v-2.56l.34-.11q.93-.29 1.6-.66l.34-.2 1.83 1.83 1.57-1.5-1.81-1.82.2-.34c.27-.44.45-.99.66-1.6l.11-.34H20v-2.3h-2.56l-.11-.34a8 8 0 0 0-.66-1.6l-.2-.34 1.82-1.82-1.59-1.6-1.82 1.83-.34-.2a8 8 0 0 0-1.6-.66l-.34-.11V6zm-2.9 8.5c0-2.18 1.82-4 4-4s4 1.82 4 4-1.82 4-4 4-4-1.82-4-4m4-3c-1.62 0-3 1.38-3 3s1.38 3 3 3 3-1.38 3-3-1.38-3-3-3m10.5.52a137 137 0 0 1 13.54.48l.2.02.14.16a37 37 0 0 1 3.04 4.05 59 59 0 0 1 2.49 4.47L46 25.8V40a2 2 0 0 1-2 2h-5a2 2 0 0 1-2-2v-1H11v1a2 2 0 0 1-2 2H4a2 2 0 0 1-2-2V25.8l2.86-2.87.7.71L3 26.21V40a1 1 0 0 0 1 1h5a1 1 0 0 0 1-1v-2h28v2a1 1 0 0 0 1 1h5a1 1 0 0 0 1-1V26.2L40.8 22H19.76v-1h20.41a35 35 0 0 0-4.93-7.52A129 129 0 0 0 22 13.01zM5 27.05q.02.4.06.69.07.45.14.6.16.31.4.54.27.21.4.2h2l.06-.01.18-.03.53-.12a29 29 0 0 0 2.92-.87 6 6 0 0 0 .66-.3l.05-.03.23-.25a84 84 0 0 0-3.67-.4q-1.64-.14-3.95-.02m-.53-.97q2.67-.15 4.57 0 1.86.15 4.53.5l.7.1-.32.62q-.3.6-.85 1.13c-.12.12-.3.22-.45.3q-.27.13-.6.26a30 30 0 0 1-3.63 1.04l-.42.04H6c-.41 0-.78-.2-1.05-.43q-.41-.37-.65-.87a3 3 0 0 1-.23-.91Q4 27.32 4 26.57v-.47zm38.52.97a32 32 0 0 0-3.95.02q-1.54.13-3.67.4l.23.25.05.03.15.09.51.21a29 29 0 0 0 3.63 1.02H42q.13.02.4-.19.24-.23.4-.54.08-.15.14-.6.04-.3.05-.7m-4.03-.97q1.9-.15 4.57 0l.47.02v.47q0 .75-.07 1.29-.05.53-.23.9-.24.5-.65.88c-.27.23-.64.43-1.05.43h-2q-.19 0-.42-.05L39 29.9a30 30 0 0 1-3.05-.91l-.6-.26a2 2 0 0 1-.45-.3 4 4 0 0 1-.85-1.13l-.31-.63.7-.1q2.66-.34 4.52-.5m-22.2.92h14.48l2.33 2.9-.1.27a32 32 0 0 1-1.78 4.2q-.39.71-.76 1.12c-.23.25-.54.51-.93.51H18c-.39 0-.7-.26-.93-.5q-.37-.42-.76-1.14a32 32 0 0 1-1.78-4.19l-.1-.26zm.48 1-1.67 2.1a30 30 0 0 0 1.62 3.79 5 5 0 0 0 .62.93c.13.14.2.17.2.18h11.97q.02.02.21-.18a5 5 0 0 0 .62-.93q.69-1.26 1.62-3.8L30.76 28z"/></svg>