<svg width="24" height="24" fill="none" xmlns="http://www.w3.org/2000/svg"><path fill="currentColor" d="M5.46 4.05a80 80 0 0 1 13.08 0l.24.02.14.2q.81 1.23 1.41 2.2.6.94 1.57 2.73l2.1 2.1v8.2c0 .83-.67 1.5-1.5 1.5h-2a1.5 1.5 0 0 1-1.5-1.5V19l-14-.04v.54c0 .83-.67 1.5-1.5 1.5h-2A1.5 1.5 0 0 1 0 19.5v-8.2l2.1-2.1a55 55 0 0 1 2.98-4.93l.14-.2zM2.7 10 1 11.7v.3h4v1H1v6.5c0 .28.22.5.5.5h2a.5.5 0 0 0 .5-.5v-1.55L20 18v1.5c0 .28.22.5.5.5h2a.5.5 0 0 0 .5-.5V13h-4v-1h4v-.3L21.3 10zm17.94-1a45 45 0 0 0-2.43-3.98 78 78 0 0 0-12.44 0L4.51 7q-.46.73-1.16 2zM7.3 12h9.42l1.36 1.36-.1.3q-.46 1.5-.88 2.31-.2.41-.41.67c-.13.15-.36.36-.68.36H8a1 1 0 0 1-.68-.36q-.21-.26-.41-.67a17 17 0 0 1-.89-2.32l-.09-.29zm.42 1-.64.64q.42 1.26.73 1.89a2 2 0 0 0 .3.47h7.8l.02-.01q.1-.12.28-.46.31-.63.73-1.9L16.3 13z"/></svg>