<svg width="48" height="48" fill="none" xmlns="http://www.w3.org/2000/svg"><path fill="currentColor" d="M22.2 9.07A7.6 7.6 0 0 0 21 13.5c0 1.96.48 3.39 1.2 4.43a6.4 6.4 0 0 0 2.68 2.19c1.96.89 4.04.88 4.65.88H34V6h-4.47c-.6 0-2.69 0-4.65.88a6.4 6.4 0 0 0-2.69 2.2M29.52 5H35v4h8v1h-8v7h8v1h-8v4h-5.47c-.63 0-2.9.01-5.06-.97a7.4 7.4 0 0 1-3.1-2.54A8.4 8.4 0 0 1 20 14h-9.69a5 5 0 0 0-2.08.63 4 4 0 0 0-1.53 1.45C6.29 16.76 6 17.7 6 19s.3 2.24.7 2.92c.42.69.98 1.15 1.54 1.45a5 5 0 0 0 2.25.63h4.21c2.39 0 5.3 1.84 5.3 5v14h-1V29c0-2.44-2.29-4-4.3-4h-4.2v-.5.5h-.02l-.23-.01a6 6 0 0 1-2.5-.74 5 5 0 0 1-1.9-1.81A6.5 6.5 0 0 1 5 19c0-1.45.33-2.58.85-3.44a5 5 0 0 1 1.9-1.81 6 6 0 0 1 2.73-.75h.01l.01.5V13h9.51c.08-1.9.59-3.36 1.36-4.5a7.4 7.4 0 0 1 3.1-2.53C26.63 4.99 28.9 5 29.53 5"/></svg>