<svg width="24" height="24" fill="none" xmlns="http://www.w3.org/2000/svg"><path fill="currentColor" d="M15 4h3v2h3v1h-3v3h3v1h-3v2h-3.05a5 5 0 0 1-.72-.05 6 6 0 0 1-1.68-.45 4 4 0 0 1-1.75-1.35A4 4 0 0 1 10.02 9H5.77l-.26.01q-.28.03-.61.16-.32.14-.55.42c-.14.2-.25.48-.25.91q.02.64.25.9.22.3.55.43a2 2 0 0 0 .87.17H7c.55 0 1.11.1 1.5.56.38.43.5 1.06.5 1.84V20H8v-5.6c0-.72-.12-1.04-.25-1.18-.1-.13-.3-.22-.75-.22H5.78l-.38-.02a3 3 0 0 1-.9-.23 2.3 2.3 0 0 1-.96-.76 2.5 2.5 0 0 1-.44-1.49q.02-.92.44-1.5c.27-.37.63-.6.96-.75A3 3 0 0 1 5.78 8h4.24c.08-.88.37-1.6.78-2.15a4 4 0 0 1 1.75-1.35A6 6 0 0 1 15 4m0 8h2V5h-2.04a4 4 0 0 0-.6.04c-.39.06-.9.16-1.41.38s-.99.55-1.34 1.02c-.36.48-.6 1.13-.6 2.06s.24 1.58.6 2.06c.35.48.83.8 1.34 1.02a5 5 0 0 0 2 .42z"/></svg>