<svg width="24" height="24" fill="none" xmlns="http://www.w3.org/2000/svg"><path fill="currentColor" d="M21 7.26v-.02h-3v2.5h3v1.5h-3v1.75h-3.2l-.55-.05a6 6 0 0 1-1.68-.45 4 4 0 0 1-1.75-1.34 4 4 0 0 1-.75-1.9H5.74l-.18.01q-.25.03-.54.14t-.45.34c-.1.14-.2.37-.2.76s.1.62.2.76q.16.22.45.34a2 2 0 0 0 .72.15H7c.58 0 1.23.12 1.69.65.44.5.56 1.21.56 2V20h-1.5v-5.6c0-.71-.12-.95-.2-1.02-.03-.04-.13-.13-.55-.13H5.69l-.32-.02a3 3 0 0 1-.97-.25 2.5 2.5 0 0 1-1.56-2.48q.01-1 .49-1.64c.3-.42.7-.68 1.07-.84.36-.15.72-.22.97-.25l.32-.02h4.36q.16-1.14.75-1.9a4.3 4.3 0 0 1 1.75-1.34 6 6 0 0 1 2.23-.5h3.21v1.75h3z"/></svg>