<svg width="48" height="48" fill="none" xmlns="http://www.w3.org/2000/svg"><path fill="currentColor" d="M10 5.5a2.5 2.5 0 0 1 5 0V7h3v1h-3v2h3v1h-3v2h3v1h-3v14.47a6.7 6.7 0 0 1 4 6.03c0 3.58-2.92 6.5-6.5 6.5A6.52 6.52 0 0 1 10 28.46zM12.5 4c-.82 0-1.5.68-1.5 1.5V20h3V5.5c0-.82-.68-1.5-1.5-1.5M14 21h-3v8.16l-.34.11A5.52 5.52 0 0 0 12.5 40c3.02 0 5.5-2.48 5.5-5.5 0-2.37-1.55-4.4-3.68-5.23l-.32-.13zM24.5 3.71l4.89 5.97-.78.64L25 5.9v6.67l-.02.58a14 14 0 0 0 1.66 6.5l.8 1.43c1.65 2.88 3.06 5.33 3.06 8.92 0 2.06-.43 4.77-1.7 7a7.5 7.5 0 0 1-6.8 4v-1c2.94 0 4.79-1.5 5.93-3.5A14 14 0 0 0 29.5 30c0-3.3-1.26-5.51-2.9-8.4l-.84-1.46A14.6 14.6 0 0 1 24 12.51V5.9l-3.61 4.42-.78-.64zm12 0 4.89 5.97-.78.64L37 5.9v6.67l-.02.58a14 14 0 0 0 1.66 6.5l.8 1.43c1.65 2.88 3.06 5.33 3.06 8.92 0 2.06-.43 4.77-1.7 7a7.5 7.5 0 0 1-6.8 4v-1c2.94 0 4.79-1.5 5.93-3.5A14 14 0 0 0 41.5 30c0-3.3-1.26-5.51-2.9-8.4l-.84-1.46A14.6 14.6 0 0 1 36 12.51V5.9l-3.61 4.42-.78-.64zM42 44v1H6v-1z"/></svg>