<svg width="24" height="24" fill="none" xmlns="http://www.w3.org/2000/svg"><path fill="currentColor" d="M9.6 9.42a3.5 3.5 0 0 0-1.07 2.1 7 7 0 0 1-5.06-1.64l-.01-.01-.01-.02A4.2 4.2 0 0 1 2.3 5.87a7 7 0 0 1 1.84-3.32c.35-.36.87-.76 1.46-.98.6-.22 1.32-.26 2 .19q.96.64 1.48 2.56c.31 1.2.5 2.85.51 5.1M4.8 15.01c1.15-.34 2.66-.56 4.63-.6.54.58 1.3.97 2.16 1.07v.04a7.3 7.3 0 0 1-1.81 5.8l-.01.02a4 4 0 0 1-3.9 1.18 7 7 0 0 1-3.22-1.87 4 4 0 0 1-1-1.72 2.6 2.6 0 0 1 .4-2.22c.5-.71 1.38-1.3 2.75-1.7m9.81 4.62a18 18 0 0 1-.6-4.74 3.4 3.4 0 0 0 1.4-2.1h.05q.16-.04.43-.06.54-.07 1.43-.02a6.2 6.2 0 0 1 3.83 1.63 3.7 3.7 0 0 1 1.07 3.87 7.6 7.6 0 0 1-1.97 3.14c-.41.42-1.01.84-1.68 1.07-.68.22-1.48.25-2.23-.2q-1.1-.62-1.73-2.6M15 9.5h-.52a3.4 3.4 0 0 0-1.65-.9 10 10 0 0 1 .01-2.31c.14-1.2.54-2.58 1.5-3.54l.01-.01a4.4 4.4 0 0 1 4.06-1.13 7 7 0 0 1 3.34 1.84c.47.46.98 1.06 1.3 1.7.3.64.47 1.42.1 2.15q-.55 1.08-2.46 1.62c-1.28.37-3.12.58-5.69.58M9.5 12c0-1.42 1.08-2.5 2.5-2.5s2.5 1.08 2.5 2.5-1.08 2.5-2.5 2.5A2.45 2.45 0 0 1 9.5 12"/></svg>