<svg width="48" height="48" fill="none" xmlns="http://www.w3.org/2000/svg"><path fill="currentColor" d="M15.2 4.7a6.4 6.4 0 0 1 1.7 2.24c.46.9.82 1.9 1.08 2.81.62 1.88.82 4.74.92 6.62a78 78 0 0 1 .1 3.31 6.5 6.5 0 0 1 5-2.28q1.66.01 3.02.7v-.06a36 36 0 0 1 .49-3.83c.4-2.34 1.32-4.79 1.74-5.63v-.01h.01c.33-.61.91-1.37 1.61-2.06a7 7 0 0 1 2.45-1.68h.01c.79-.28 1.8-.36 2.78-.28 1 .08 2.03.32 2.88.69a15 15 0 0 1 4.36 3c.5.5.95 1.14 1.28 1.8.33.64.57 1.35.57 1.96 0 1.1-.34 1.89-.55 2.32A5.5 5.5 0 0 1 43.1 16c-.25.2-.5.4-.88.61-.37.2-.84.41-1.55.67-1.46.62-3.41 1.13-6.74 1.43a57 57 0 0 1-5.7.21 6.5 6.5 0 0 1 2.26 4.99q-.01 1.7-.73 3.06l.75-.06c.68-.05 1.61-.08 2.67-.04 2.1.1 4.76.5 6.78 1.82a8 8 0 0 1 3.34 3.64c.49 1.15.49 2.1.49 2.48 0 .78-.12 2.17-1.37 4.26a17 17 0 0 1-2.88 3.7c-.4.4-1.05.85-1.82 1.18s-1.7.52-2.62.35a5.6 5.6 0 0 1-3.17-1.92c-.81-.92-1.4-2-1.71-2.9v-.01c-.31-.92-.92-2.96-1.13-5.21a93 93 0 0 1-.3-5.65v-.1l.03-.09q.04-.07.06-.16A6.5 6.5 0 0 1 24 30.4a7 7 0 0 1-2.9-.65 29 29 0 0 1-.4 3.6c-.35 2.12-1.01 4.78-2.27 6.71a6.6 6.6 0 0 1-5.92 3.34c-.84 0-2.54 0-4.66-1.27a11 11 0 0 1-3.32-2.7 7 7 0 0 1-1.08-1.85A5.4 5.4 0 0 1 3 34.94v-.03a5 5 0 0 1 1.91-3c.91-.72 2-1.22 2.9-1.58h.03c.93-.31 2.46-.72 4.88-1.12h.01c2.23-.31 5.56-.41 5.97-.41h.06l.06.01a9 9 0 0 0 1 .13 6.5 6.5 0 0 1-2.32-5.04q.01-1.63.68-2.97a65 65 0 0 1-3.08.17h-.04c-1.42-.1-3.16-.3-5.32-1.02-2.64-.85-4.78-3.07-5.33-5.36-.54-2.18.23-4.32 1.05-5.77.42-.72 1.03-1.67 1.8-2.56a9 9 0 0 1 2.72-2.24 4.6 4.6 0 0 1 5.23.56M18 19.95a99 99 0 0 0-.1-3.51c-.1-1.92-.3-4.65-.88-6.37v-.03a16 16 0 0 0-1-2.64 6 6 0 0 0-1.42-1.89h-.01l-.01-.02c-1.06-.88-2.45-1.24-4.17-.43a8 8 0 0 0-2.4 1.99c-.7.83-1.29 1.73-1.68 2.4-.77 1.36-1.4 3.22-.95 5.04.46 1.91 2.31 3.89 4.67 4.64 2.04.68 3.7.88 5.07.98a33 33 0 0 0 2.88-.16m10.04-2.03a59 59 0 0 0 5.81-.2c3.27-.3 5.12-.8 6.45-1.37h.02l.01-.01a10 10 0 0 0 1.41-.6c.3-.17.5-.32.75-.52a5 5 0 0 0 1.26-1.33c.18-.37.45-.99.45-1.88 0-.39-.16-.93-.46-1.51a6 6 0 0 0-1.1-1.54 14 14 0 0 0-4.03-2.79h-.01a8 8 0 0 0-2.57-.61c-.9-.07-1.75 0-2.36.22-.7.27-1.45.81-2.1 1.45a9 9 0 0 0-1.43 1.81c-.38.77-1.26 3.11-1.65 5.36a42 42 0 0 0-.45 3.52M24 18.4a5.4 5.4 0 0 0-5.5 5.5 5.4 5.4 0 0 0 5.5 5.5 5.4 5.4 0 0 0 5.5-5.5 5.4 5.4 0 0 0-5.5-5.5m5.97 9.55q-.04.32-.17.74c.01.63.1 3.5.3 5.46.2 2.15.78 4.1 1.07 4.99a8 8 0 0 0 1.52 2.57 4.7 4.7 0 0 0 2.6 1.6c.67.12 1.4-.02 2.05-.3a5 5 0 0 0 1.5-.96h.01c.68-.7 1.55-1.56 2.72-3.5 1.15-1.92 1.23-3.13 1.23-3.75 0-.33 0-1.12-.41-2.1a7 7 0 0 0-2.95-3.17l-.02-.01c-1.78-1.18-4.22-1.57-6.27-1.66a24 24 0 0 0-3.18.09m-17.1 2.24c-2.36.4-3.83.8-4.7 1.08-.88.34-1.85.8-2.64 1.42A4 4 0 0 0 4 35.07c-.08.68.1 1.44.37 2.13.28.7.66 1.27.92 1.57l.01.02c.57.66 1.14 1.32 3.07 2.48a7.4 7.4 0 0 0 4.13 1.13c.86 0 3.42-.1 5.08-2.86v-.01c1.15-1.76 1.79-4.25 2.14-6.35a33 33 0 0 0 .36-3.22l-1.42-.16c-.57 0-3.69.11-5.78.4"/></svg>