<svg width="48" height="48" fill="none" xmlns="http://www.w3.org/2000/svg"><path fill="currentColor" d="M37.96 30.52c-.58.23-1.27.41-2.08.53-.8.13-1.68.19-2.63.19a9.5 9.5 0 0 1-4.25-.9 6.41 6.41 0 0 1-2.78-2.59 7.92 7.92 0 0 1-.97-4c0-1.47.33-2.77.98-3.9a6.7 6.7 0 0 1 2.78-2.64 8.7 8.7 0 0 1 4.07-.93c.86 0 1.7.07 2.49.2.8.14 1.48.33 2.06.58v1.78a12 12 0 0 0-4.28-.8 7.2 7.2 0 0 0-3.24.67 4.6 4.6 0 0 0-2.05 1.95c-.47.85-.7 1.89-.7 3.1 0 1.2.23 2.23.7 3.09a4.74 4.74 0 0 0 2.08 1.97 7 7 0 0 0 3.16.68c.9 0 1.75-.06 2.54-.18.8-.12 1.5-.3 2.12-.52v1.72Zm-14.96 0c-.58.23-1.27.41-2.08.53-.8.13-1.68.19-2.63.19a9.5 9.5 0 0 1-4.25-.9 6.41 6.41 0 0 1-2.78-2.59 7.92 7.92 0 0 1-.97-4c0-1.47.33-2.77.98-3.9a6.7 6.7 0 0 1 2.78-2.64 8.7 8.7 0 0 1 4.07-.93c.86 0 1.7.07 2.49.2.8.14 1.48.33 2.06.58v1.78a12 12 0 0 0-4.28-.8c-1.26 0-2.34.22-3.24.67a4.6 4.6 0 0 0-2.05 1.95c-.47.85-.7 1.89-.7 3.1 0 1.2.23 2.23.7 3.09a4.74 4.74 0 0 0 2.08 1.97 7 7 0 0 0 3.16.68c.9 0 1.75-.06 2.54-.18.8-.12 1.5-.3 2.11-.52v1.72Z"/><path fill="currentColor" d="M46 9.5c0-.82-.68-1.5-1.5-1.5H2v30.5c0 .82.68 1.5 1.5 1.5H46V9.5ZM47 41H3.5A2.5 2.5 0 0 1 1 38.5V7h43.5A2.5 2.5 0 0 1 47 9.5V41Z"/></svg>