<svg width="24" height="24" fill="none" xmlns="http://www.w3.org/2000/svg"><path fill="currentColor" d="M22.5 4c.41 0 .78.2 1.04.46s.46.63.46 1.04V20H1.5C.76 20 0 19.4 0 18.5V4h22.5ZM9.06 8.44c-.76 0-1.44.15-2.04.47-.6.3-1.06.75-1.38 1.31a3.86 3.86 0 0 0-.5 1.96c0 .77.17 1.44.49 2 .32.56.79.99 1.4 1.3.6.29 1.3.44 2.12.44a7.74 7.74 0 0 0 2.35-.36v-.86a8.5 8.5 0 0 1-2.33.36c-.6 0-1.13-.12-1.58-.35-.46-.23-.8-.56-1.04-.99a3.16 3.16 0 0 1-.35-1.54c0-.6.11-1.12.35-1.55a2.3 2.3 0 0 1 1.03-.97c.45-.23.99-.34 1.62-.34a6 6 0 0 1 2.14.4v-.89a4.6 4.6 0 0 0-1.04-.29c-.4-.07-.8-.1-1.24-.1Zm7.48 0c-.76 0-1.44.15-2.04.47-.6.3-1.06.75-1.38 1.31a3.86 3.86 0 0 0-.5 1.96c0 .77.17 1.44.49 2 .32.56.79.99 1.4 1.3.6.29 1.3.44 2.12.44a7.74 7.74 0 0 0 2.35-.36v-.86a8.5 8.5 0 0 1-2.33.36c-.6 0-1.12-.12-1.58-.35-.45-.23-.8-.56-1.04-.99a3.16 3.16 0 0 1-.35-1.54c0-.6.11-1.12.35-1.55a2.3 2.3 0 0 1 1.03-.97c.45-.23.99-.34 1.62-.34a6 6 0 0 1 2.14.4v-.89a4.6 4.6 0 0 0-1.04-.29c-.4-.07-.8-.1-1.24-.1Z"/></svg>