<svg width="48" height="48" fill="none" xmlns="http://www.w3.org/2000/svg"><path fill="currentColor" d="M25.2 30.72c-2.99 0-5.2-1.63-5.2-4.86 0-3.05 2.21-4.86 5.08-4.86 1.03 0 2.15.16 2.97.5v1.16a8 8 0 0 0-2.78-.52c-2.36 0-3.9 1.23-3.9 3.72 0 2.78 1.96 3.73 3.86 3.73 1.5 0 2.5-.26 3.02-.45v1.12a9 9 0 0 1-3.05.46m8.74 0c-3.3 0-5.02-1.98-5.02-4.86 0-2.77 1.8-4.86 5.02-4.86 3.3 0 5.02 1.99 5.02 4.86 0 2.77-1.8 4.86-5.02 4.86m0-1.06c2.47 0 3.66-1.7 3.66-3.8s-1.19-3.8-3.66-3.8-3.65 1.7-3.65 3.8 1.18 3.8 3.65 3.8m6.2 3.27v-.82l2-1.45c1.2-.87 1.77-1.3 1.77-1.93q.02-1-1.44-1.02c-.71 0-1.47.16-2.06.39v-.96a6 6 0 0 1 2.12-.39c1.7 0 2.66.74 2.66 1.95 0 1.13-1.12 1.82-2.31 2.65l-.98.67h3.83v.91z"/><path fill="currentColor" d="M30 9a11 11 0 0 0-9.9 6.2l-.2.41-.43-.16a7 7 0 0 0-9.01 9.06l.35.9-.94-.24A5.51 5.51 0 1 0 8.3 36H42v1H8.26a6.5 6.5 0 1 1 1-12.96 8 8 0 0 1 10.14-9.67A12 12 0 0 1 42 20h-1A11 11 0 0 0 30 9"/></svg>