<svg width="24" height="24" fill="none" xmlns="http://www.w3.org/2000/svg"><path fill="currentColor" d="m9.97 13.8-.5.15a4.7 4.7 0 0 1-2.8-.14q-.6-.3-.93-.87a3 3 0 0 1-.32-1.33q0-.73.33-1.3t.95-.88q.6-.3 1.43-.3a5 5 0 0 1 1.77.34v.84a4 4 0 0 0-1.7-.36q-.53 0-.91.2t-.58.57-.2.9.2.9.58.57.91.2a5 5 0 0 0 1.77-.3zm3.39.3a3 3 0 0 1-1.46-.3q-.6-.3-.93-.86a2.6 2.6 0 0 1-.32-1.33q0-.73.33-1.3.34-.58.94-.88.62-.3 1.44-.3.85 0 1.46.3.6.3.93.86t.32 1.32-.33 1.31a2.2 2.2 0 0 1-.94.88q-.6.3-1.44.3m0-.83q.51 0 .88-.2.36-.2.55-.57t.19-.89q0-.5-.19-.88a1.3 1.3 0 0 0-.55-.57q-.37-.2-.88-.2-.5 0-.88.2a1.3 1.3 0 0 0-.55.57q-.2.37-.2.88 0 .52.2.9.2.37.55.57.37.19.88.19m3.61 1.68v-.54l1.19-.73q.21-.14.33-.26a1 1 0 0 0 .2-.23l.06-.24q0-.16-.08-.28a.5.5 0 0 0-.26-.18 1 1 0 0 0-.4-.06 3 3 0 0 0-.88.18v-.65a3 3 0 0 1 .96-.18q.5 0 .85.13.36.14.54.4a1 1 0 0 1 .07 1.04q-.12.2-.34.4-.22.18-.6.38l-.38.22H20v.6z"/><path fill="currentColor" d="M14 4a5 5 0 0 0-3.97 1.97l-.21.27-.33-.1A3.5 3.5 0 0 0 5 9.5l.01.52-.38.1A3.5 3.5 0 0 0 5.32 17h13.37a3.5 3.5 0 0 0 .68-6.9l-.38-.09L19 9a5 5 0 0 0-5-5m5 13.97V18H5.28A4.5 4.5 0 0 1 4 9.24 4.5 4.5 0 0 1 9.44 5.1 5.99 5.99 0 0 1 20 9v.26a4.5 4.5 0 0 1-1 8.71"/></svg>