<svg width="24" height="24" fill="none" xmlns="http://www.w3.org/2000/svg"><path fill="currentColor" d="M14.75 8.25v6.5h2.81q1.3 0 2.05-.47.75-.5.76-1.45a1.5 1.5 0 0 0-.89-1.42q.16-.12.28-.26.3-.4.31-.98 0-.94-.76-1.45a4 4 0 0 0-2.05-.47zm2.63 5.31H16.1v-1.48h1.28q.9 0 1.28.18.18.1.25.22t.08.35-.08.34a1 1 0 0 1-.25.21q-.39.19-1.28.18m-.3-2.64h-.98V9.44h.98q.9 0 1.28.18.18.1.25.2.08.13.09.35 0 .23-.09.35a1 1 0 0 1-.25.22q-.38.18-1.28.18m-5.68 3.83-3.26-6.5h-1.3l-3.24 6.5h1.5l.73-1.48h3.3l.75 1.48zm-2.82-2.68h-2.2l1.1-2.22zM12 19V4h1.5v15z"/></svg>