<svg width="24" height="24" fill="none" xmlns="http://www.w3.org/2000/svg"><path fill="currentColor" d="M2.13 1.13Q2 1.23 2 1.5v21q.01.28.13.37.1.12.37.13h12q.28-.01.37-.13.12-.1.13-.37v-21q-.01-.27-.13-.37-.1-.12-.37-.13h-12q-.27.01-.37.13m-.7-.7A1.5 1.5 0 0 1 2.5 0h12c.41 0 .8.14 1.08.42S16 1.1 16 1.5v21c0 .41-.14.8-.42 1.08a1.5 1.5 0 0 1-1.08.42h-12c-.41 0-.8-.14-1.08-.42A1.5 1.5 0 0 1 1 22.5v-21c0-.41.14-.8.42-1.08M5 5.5C5 3.52 6.52 2 8.5 2S12 3.52 12 5.5c0 1.39-.79 2.59-2 3.14v1.7L11.1 12l-1 1.5 1.02 1.53-2.58 3.22L7 16.7V8.64A3.4 3.4 0 0 1 5 5.5M8.5 3A2.45 2.45 0 0 0 6 5.5c0 1.09.66 2 1.66 2.33l.34.11v8.35l.46.46 1.42-1.78-.98-1.47 1-1.5-.9-1.35V7.94l.34-.11c1-.34 1.66-1.24 1.66-2.33C11 4.08 9.92 3 8.5 3m12.37 3.16A8.5 8.5 0 0 1 23 12c0 2.1-.63 4.23-2.13 5.84l-.74-.68A7.5 7.5 0 0 0 22 12c0-1.9-.57-3.77-1.87-5.16zm-2 2.71A4.7 4.7 0 0 1 20 12c0 1.1-.33 2.23-1.15 3.05l-.7-.7c.58-.58.85-1.44.85-2.35 0-.9-.27-1.78-.88-2.47zM13 20v1H4v-1z"/></svg>