<svg width="24" height="24" fill="none" xmlns="http://www.w3.org/2000/svg"><path fill="currentColor" d="m11.91 1.22-.41.28-.41-.29.41-.58zM19 15.39c.1 4.07-3 7.4-7.07 7.6l-.02.01h-.42A7.6 7.6 0 0 1 4 15.4c0-1.09.48-2.53 1.14-4.02a48 48 0 0 1 2.43-4.65A91 91 0 0 1 11 1.33l.06-.09.01-.02h.01l.41.28.41-.28.02.03.06.08L13 2.86a94 94 0 0 1 2.42 3.91 49 49 0 0 1 2.43 4.65c.66 1.48 1.14 2.9 1.14 3.97m-7.5-13a90 90 0 0 0-3.07 4.85 47 47 0 0 0-2.38 4.54A10 10 0 0 0 5 15.4a6.6 6.6 0 0 0 6.5 6.6h.39A6.4 6.4 0 0 0 18 15.41v-.01c0-.84-.4-2.1-1.05-3.57a48 48 0 0 0-2.38-4.55 93 93 0 0 0-3.07-4.9"/></svg>