<svg width="48" height="48" fill="none" xmlns="http://www.w3.org/2000/svg"><path fill="currentColor" d="m19.9 5.21-.4.29-.4-.29.4-.58zm-.4 1.17.1.15a154 154 0 0 1 5.47 8.59 81 81 0 0 1 4.1 7.75C30.29 25.4 31 27.6 31 29.1 31 35.35 25.8 41 19.5 41S8 35.45 8 29.1c0-1.54.7-3.75 1.83-6.27 1.12-2.5 2.6-5.22 4.1-7.75a153 153 0 0 1 5.57-8.7m0-.88-.4-.29-.02.01-.02.04-.1.15a104 104 0 0 0-1.75 2.57 154 154 0 0 0-4.14 6.6 81 81 0 0 0-4.15 7.84C7.79 24.95 7 27.34 7 29.1 7 35.95 12.6 42 19.5 42S32 35.85 32 29.1c0-1.74-.8-4.11-1.92-6.63a82 82 0 0 0-4.15-7.86 158 158 0 0 0-5.99-9.35l-.02-.03-.01-.02zm13.1 4.71-.4.29-.41-.28.4-.6zm6.9 15.68a7.4 7.4 0 0 1-6 7.22l.2.98a8.4 8.4 0 0 0 6.8-8.18v-.01c0-1.19-.53-2.77-1.26-4.42a53 53 0 0 0-2.7-5.15 101 101 0 0 0-3.84-5.99l-.07-.1-.01-.02h-.01l-.41.28-.41-.28-.02.02-.05.08-.9 1.36c-.6.9-1.4 2.15-2.25 3.56l.86.52a130 130 0 0 1 2.78-4.37 100 100 0 0 1 3.46 5.45 52 52 0 0 1 2.65 5.04c.73 1.64 1.18 3.05 1.18 4.01"/></svg>