<svg width="24" height="24" fill="none" xmlns="http://www.w3.org/2000/svg"><path fill="currentColor" d="m7.92 3.88-.61-.42a29 29 0 0 0-2.32-1.5A8.4 8.4 0 0 0 1 .76v1.5c1.06 0 2.18.43 3.26 1.03.8.44 1.5.93 2.14 1.37l.68.47 1.41.94q.51.6.78 1.26c.39.92.5 2.01.25 3.36-.48 2.72-2.35 6.4-5.93 11.53l-.55.79h17.57l-.12-.6c-1.97-10.04-5.08-15.38-9.8-17.87A9 9 0 0 1 17 2.25V.75c-2.1 0-3.59.4-4.83 1.02a16 16 0 0 0-2.55 1.7l-.56.43-.13.1H8.1z"/><path fill="currentColor" d="M19.75 7.9V12h1.5V7.9a3 3 0 1 0-1.5 0m-17 5.1v4h1.5v-4h2.46L3.5 4.01.3 13z"/></svg>