<svg width="24" height="24" fill="none" xmlns="http://www.w3.org/2000/svg"><path fill="currentColor" d="M7.65 4h1.68l.44-.34c.78-.6 1.56-1.2 2.5-1.67C13.48 1.39 14.94 1 17 1v1c-1.93 0-3.23.36-4.28.88-.83.42-1.52.94-2.27 1.52 4.85 2.44 8.03 7.79 10.04 18l.12.6H3.04l.55-.79c3.58-5.13 5.45-8.8 5.93-11.53a6 6 0 0 0-.25-3.36 5.7 5.7 0 0 0-2.05-2.4l-.67-.47a28 28 0 0 0-2.17-1.39A7 7 0 0 0 1 2V1c1.38 0 2.72.55 3.87 1.19A27 27 0 0 1 7.65 4m1.22 1a6 6 0 0 1 1.33 1.94q.7 1.68.3 3.92C10 13.66 8.2 17.25 4.96 22H19.4C17.3 11.81 14.05 7.03 9.37 5zM20.5 3a2 2 0 1 0 0 4 2 2 0 0 0 0-4m-3 2A3 3 0 1 1 21 7.96V12h-1V7.96A3 3 0 0 1 17.5 5m-14-.99L6.71 13H4v4H3v-4H.3zM1.71 12h3.58L3.5 6.99z"/></svg>