<svg width="48" height="48" fill="none" xmlns="http://www.w3.org/2000/svg"><path fill="currentColor" d="M25.43 6a20 20 0 0 0-3.86 0q-.56.07-1.61.48a1.5 1.5 0 0 0-.96 1.4V25.5c0 .83.67 1.5 1.5 1.5h6c.83 0 1.5-.67 1.5-1.5V7.89a1.5 1.5 0 0 0-.96-1.4A8 8 0 0 0 25.43 6m-4-.99c1.05-.15 3.2-.13 4.14 0a9 9 0 0 1 1.83.55A2.5 2.5 0 0 1 29 7.89V25.5a2.5 2.5 0 0 1-2.5 2.5h-6a2.5 2.5 0 0 1-2.5-2.5V7.88a2.5 2.5 0 0 1 1.6-2.34 9 9 0 0 1 1.83-.53m-1.4 7.47a1.5 1.5 0 0 1 1.5-1.48h3.92c.83 0 1.5.67 1.5 1.5V15H20zm1.5-.48a.5.5 0 0 0-.5.5L21 14h4.94v-1.5a.5.5 0 0 0-.5-.5zm-1.54 9h6.96v2.5c0 .83-.67 1.5-1.5 1.5h-3.92a1.5 1.5 0 0 1-1.5-1.48zm1.02 1 .02 1.5c0 .28.23.5.5.5h3.92a.5.5 0 0 0 .5-.5V22zm-4.69 9.47a10 10 0 0 1-2.7-5.4l.99-.15a9 9 0 0 0 2.43 4.85zm17.05-5.4a10 10 0 0 1-2.3 4.97l-.76-.66a9 9 0 0 0 2.08-4.46zm-21.79-.13c.37 3.08 1.9 5.8 4.16 7.71l-.65.76a13 13 0 0 1-4.5-8.35zm20.14 7.3a12 12 0 0 0 3.7-7.3l.99.12a13 13 0 0 1-4 7.91zM8.57 25.95c.41 4.3 2.64 8.07 5.9 10.53l-.6.8a16 16 0 0 1-6.3-11.23zm24.5 10.1a15 15 0 0 0 5.36-10.1l1 .1a16 16 0 0 1-5.72 10.77zM24 32v10.3l3.65-3.65.7.7-4.85 4.86-4.85-4.86.7-.7L23 42.29V32z"/></svg>