<svg width="24" height="24" fill="none" xmlns="http://www.w3.org/2000/svg"><path fill="currentColor" d="M10.6 2q-.23 0-.44.06L9 2.42v10.12c0 .27.23.5.5.5h4a.5.5 0 0 0 .5-.5V2.44l-1.49-.4-.37-.04zm-.73-.9q.36-.1.73-.1h1.54q.31 0 .62.08l1.5.38a1 1 0 0 1 .74.97v10.1c0 .83-.67 1.5-1.5 1.5h-4a1.5 1.5 0 0 1-1.5-1.5V2.43a1 1 0 0 1 .71-.96zM13.25 7h-3.5V6h3.5zm0 5h-3.5v-1h3.5zm-6.91 3.61a8 8 0 0 1-2.38-3.44l.94-.34a7 7 0 0 0 2.08 3.02zm12.7-3.44a8 8 0 0 1-2.38 3.44l-.64-.76a7 7 0 0 0 2.08-3.02zM1.8 11.88a10 10 0 0 0 3.64 5.56l-.61.8a11 11 0 0 1-4-6.12zm15.78 5.56a10 10 0 0 0 3.65-5.56l.97.24a11 11 0 0 1-4 6.12zM12 16v5.3l2.15-2.15.7.7-3.35 3.36-3.35-3.36.7-.7L11 21.29V16z"/></svg>