<svg width="24" height="24" fill="none" xmlns="http://www.w3.org/2000/svg"><path fill="currentColor" d="M1 1v22h1V1zm10.7 0H3v14h6.3l.85.85.7-.7L9.71 14H8v-3h6V6h5V2h-6.3zM14 3v3H8V2h3.3l1 1zM4 6h4v5H4z"/><path fill="currentColor" d="M18.5 9a4.5 4.5 0 0 0-4.5 4.5q.01 1.26.65 2.1c.37.5.86.88 1.42 1.22L16.6 19h3.78l.55-2.19C22.02 16.1 23 15.08 23 13.5A4.5 4.5 0 0 0 18.5 9M15 13.5c0-1.92 1.58-3.5 3.5-3.5s3.5 1.58 3.5 3.5c0 1.14-.71 1.9-1.77 2.58l-.17.1-.45 1.82h-2.22l-.46-1.83-.18-.1q-.85-.49-1.3-1.07a2.4 2.4 0 0 1-.45-1.5m1.5 6.5v1h4v-1zm3.5 3v-1h-3v1z"/></svg>