<svg width="24" height="24" fill="none" xmlns="http://www.w3.org/2000/svg"><path fill="currentColor" d="m0 .2 8.48 4.04L15.51.42 23 4.92v17.14l-3.75-2.12.5-.87L22 20.34V5.48l-6-3.6V6h-1V1.84L9 5.1v15.37l2.47-1.31.46.88-3.43 1.83L0 17.3zm8 20.26V5.12L1 1.79V16.7zm2.5-7.96c0-2.78 2.22-5 5-5s5 2.22 5 5c0 .74-.32 1.7-.75 2.66-.43.99-1 2.06-1.57 3.03a60 60 0 0 1-2.22 3.52l-.04.05v.02l-.42-.28-.41.28-.01-.02-.04-.05-.66-1c-.43-.64-1-1.54-1.56-2.52a31 31 0 0 1-1.57-3.03 7 7 0 0 1-.75-2.66m5 9-.41.28.41.6.41-.6zm0-.9a59 59 0 0 0 1.82-2.91c.56-.96 1.1-1.99 1.52-2.93a7 7 0 0 0 .66-2.26c0-2.23-1.77-4-4-4s-4 1.77-4 4c0 .51.24 1.3.66 2.26.41.94.96 1.97 1.52 2.93a58 58 0 0 0 1.82 2.92m-2-8.1a2 2 0 1 1 4 0 2 2 0 0 1-4 0m2-1a1 1 0 1 0 0 2 1 1 0 0 0 0-2"/></svg>