<svg width="48" height="48" fill="none" xmlns="http://www.w3.org/2000/svg"><path fill="currentColor" d="M21.23 4.06a9 9 0 0 1 3.54 3.36v.01l.27.46 2.84 4.85-3.12 1.86 11.9 3.84 2.29-12.3-3.12 1.87-.27-.4a7.8 7.8 0 0 0-6.53-3.55zm-2.43-.8q.88-.2 1.83-.2h8.4a8.8 8.8 0 0 1 7.1 3.6l4.2-2.51-2.89 15.59-15.1-4.87 4.17-2.48-2.34-4-.11-.2-4.63 8.01-8.61-4.97 2.2-3.81a8.8 8.8 0 0 1 5.77-4.18zm.07 1a7.8 7.8 0 0 0-4.98 3.66l-1.7 2.94 6.88 3.98 4.38-7.6a7.8 7.8 0 0 0-4.58-2.99m-4.09 11.43 3.33 15.51-4.23-2.37-2.29 4.02-.12.2h9.25V43h-4.4a8.8 8.8 0 0 1-6.5-2.91h.01q-.61-.68-1.09-1.5l-4.2-7.27a8.8 8.8 0 0 1-.42-7.96L0 20.98zm-4.12 23.83A7.8 7.8 0 0 0 16.32 42h3.4v-7.94h-8.77a7.8 7.8 0 0 0-.3 5.46M9.3 37.57a9 9 0 0 1 1.14-4.75l.27-.46 2.79-4.89 3.16 1.77-2.62-12.22-11.68 4.17 3.06 1.77-.22.42a7.8 7.8 0 0 0 .2 7.44zm33.4-18.89 2.2 3.82a8.8 8.8 0 0 1 .73 7.08h-.01a9 9 0 0 1-.75 1.69l-4.2 7.27A8.8 8.8 0 0 1 34 42.9l.07 4.9-12.05-10.3 11.76-10.65.06 4.85 4.64-.02h.23l-4.63-8.01zm-2.86 12.94a7.8 7.8 0 0 0 4.88-2.47 7.8 7.8 0 0 0-.69-6.16l-1.7-2.94-6.88 3.97zm3.86-.33c-1.37.87-3 1.37-4.68 1.38h-.55l-5.61.03-.05-3.63-9.28 8.4 9.5 8.12-.05-3.64.49-.02a7.8 7.8 0 0 0 6.34-3.89z"/></svg>