<svg width="16" height="16" fill="none" xmlns="http://www.w3.org/2000/svg"><path fill="currentColor" d="M8.78 1.5q-.36.16-.77.17-.42-.02-.77-.17l-.5-.22-.12-.06q-.3-.15-.5-.2-.2-.04-.27 0-.09.01-.22.17a3 3 0 0 0-.35.57L5 2.25q-.2.31-.52.58c-.22.16-.48.24-.7.3l-.54.12-.14.02q-.33.07-.53.14-.19.08-.23.15t-.07.27a3 3 0 0 0 .05.7l.05.53q.02.36-.07.76c-.09.26-.25.48-.4.66l-.35.4-.1.1q-.23.24-.35.42t-.1.28q-.01.09.1.27a3 3 0 0 0 .43.51q.2.2.37.4c.15.19.31.41.4.68q.11.4.07.77-.01.28-.05.55l-.02.13a3 3 0 0 0-.03.54q.02.2.07.26.05.07.24.16a3 3 0 0 0 .66.16l.54.11c.22.06.48.15.7.31q.34.27.52.58l.28.48.06.12q.16.3.3.46t.21.18q.06.03.26-.02t.5-.2l.12-.05.51-.23q.36-.14.77-.16.42.02.77.16l.62.29q.3.14.5.2.2.04.27 0 .09-.01.22-.17a3 3 0 0 0 .35-.57l.28-.49c.13-.2.3-.42.52-.58q.35-.23.7-.3l.54-.12q.08 0 .14-.03.32-.06.53-.13.19-.09.23-.16.05-.05.07-.26.01-.22-.03-.55l-.02-.15-.05-.53q-.02-.37.07-.76c.09-.27.25-.49.4-.66l.46-.5q.22-.25.34-.43.11-.17.1-.27a.5.5 0 0 0-.1-.27 3 3 0 0 0-.43-.51l-.37-.4a2 2 0 0 1-.4-.68q-.11-.4-.07-.77.01-.28.05-.55l.02-.14a3 3 0 0 0 .03-.53q-.02-.21-.07-.27-.04-.07-.24-.15a3 3 0 0 0-.66-.16l-.54-.12a2 2 0 0 1-.7-.3 2 2 0 0 1-.52-.58l-.28-.48-.06-.12q-.16-.3-.3-.46T10.17 1t-.26.02a3 3 0 0 0-.5.2q-.06.01-.12.05-.25.12-.51.22M9.66.06c.25-.07.54-.1.83 0 .3.1.5.3.66.5q.25.29.4.6l.08.14.23.4q.15.24.26.32.12.07.38.15l.44.1.17.02q.34.06.7.2a1.4 1.4 0 0 1 .94 1.27q.01.38-.04.72l-.02.17-.05.45q-.01.29.04.42.03.13.2.34l.43.45q.24.24.46.57a1.5 1.5 0 0 1 0 1.6q-.21.33-.46.58l-.14.14-.29.32q-.17.2-.2.32-.04.13-.03.4 0 .2.04.44l.03.19q.04.34.03.73a1.5 1.5 0 0 1-.27.78c-.18.25-.43.4-.66.5s-.49.14-.7.18l-.17.04-.45.1q-.26.06-.38.15a1 1 0 0 0-.26.3l-.23.4-.07.14q-.16.31-.4.62c-.16.2-.38.39-.67.48-.3.1-.59.07-.83.01a4 4 0 0 1-.68-.26l-.14-.07-.43-.18q-.25-.1-.4-.1t-.4.1q-.21.07-.44.19l-.14.06q-.3.16-.67.26c-.25.06-.54.1-.83 0-.3-.1-.5-.3-.66-.5a4 4 0 0 1-.48-.75l-.23-.4q-.15-.23-.26-.3-.12-.09-.38-.16l-.61-.13q-.34-.06-.7-.19c-.24-.09-.5-.24-.67-.49a1.5 1.5 0 0 1-.27-.78q-.01-.38.04-.73l.02-.16.05-.46q.01-.27-.04-.4a1 1 0 0 0-.2-.35l-.3-.33-.13-.12a4 4 0 0 1-.46-.57 1.5 1.5 0 0 1-.25-.8c0-.32.11-.59.25-.8a4 4 0 0 1 .6-.72l.29-.32q.18-.21.2-.32.04-.12.03-.4 0-.2-.04-.44l-.03-.19a4 4 0 0 1-.03-.73c.02-.25.08-.53.27-.79.18-.25.43-.4.66-.49q.36-.13.7-.19.1 0 .17-.03l.45-.1q.26-.07.38-.15.1-.08.26-.3l.23-.4.07-.15q.16-.31.4-.6c.16-.2.38-.4.67-.5s.59-.07.83 0q.37.1.68.26l.14.06.43.2q.25.09.4.09t.4-.1L9 .31c.2-.09.43-.2.67-.25m1.38 5.76L7.28 10.6 4.97 8.35l.7-.72 1.51 1.48 3.08-3.91z"/></svg>