<svg width="24" height="24" fill="none" xmlns="http://www.w3.org/2000/svg"><path fill="currentColor" d="M16.54 3.4c.66.24 1.45.66 2.2 1.06l.35.19q.66.35 1.2.6.57.25.88.3a10 10 0 0 1 1.1.26 2 2 0 0 1 1.53 1.75l.2 2.64c.05.76-.43 1.46-1.16 1.65l.05-.39q.04-.3.03-.64a1.4 1.4 0 0 0-.24-.71q-.27-.35-.61-.45-.32-.12-.63-.17l-.14-.03-.38-.08a1 1 0 0 1-.3-.12A1 1 0 0 1 20.4 9l-.2-.34-.07-.13Q20 8.27 19.79 8a1.4 1.4 0 0 0-.6-.44c-.28-.1-.54-.06-.76 0a4 4 0 0 0-.72.28l-.37.16a1 1 0 0 1-.33.08 1 1 0 0 1-.33-.08l-.36-.16-.12-.06a3 3 0 0 0-.6-.23 1.3 1.3 0 0 0-.76 0c-.27.1-.47.28-.61.45q-.22.27-.35.54l-.07.13-.2.34a1 1 0 0 1-.2.25 1 1 0 0 1-.31.12l-.53.1q-.3.07-.62.18c-.2.08-.44.22-.6.45q-.24.36-.25.71-.01.36.03.65l.02.16.04.51H7.95a2.75 2.75 0 0 1-2.7 2.25h-.02a2.7 2.7 0 0 1-2.69-2.24l-1.04-.01c-.43 0-.8-.23-1.05-.5A1.6 1.6 0 0 1 0 10.6V9.44Q.01 9 .13 8.6c.13-.39.44-.78.83-1.1.4-.34.93-.65 1.53-.85.75-.25 1.9-.49 3.64-.72Q7.21 4.9 7.96 4.29q.78-.66 1.3-.89c.38-.16.93-.25 1.5-.31a23 23 0 0 1 4.07-.01 7 7 0 0 1 1.7.32"/><path fill="currentColor" d="m17.7 8.93.45-.2.52-.21q.17-.03.2-.01.03-.01.15.13a3 3 0 0 1 .3.49l.25.42q.16.28.46.52.32.2.63.28l.48.1.56.14q.14.06.17.1.03.03.05.2a3 3 0 0 1-.04.57l-.05.48c-.01.2 0 .46.07.7q.14.36.35.6l.4.44q.2.2.3.35.08.14.07.2.01.05-.08.2-.1.15-.29.35l-.09.1q-.16.16-.3.34-.22.23-.36.6-.1.35-.07.68l.05.46.02.13q.03.29.02.46t-.05.2q-.02.05-.17.11a3 3 0 0 1-.56.14l-.47.1q-.32.07-.64.28-.3.23-.47.52l-.3.52q-.13.26-.24.39t-.16.13q-.03.01-.2-.01l-.41-.17-.1-.05-.45-.2q-.3-.12-.69-.14-.39.02-.69.14l-.45.2-.1.05q-.25.12-.42.17-.17.03-.2 0-.03 0-.15-.12a3 3 0 0 1-.3-.5l-.25-.41a2 2 0 0 0-.46-.52q-.31-.21-.63-.28l-.47-.1-.57-.14q-.14-.06-.17-.1t-.05-.2q0-.18.03-.46l.01-.11.05-.48q.02-.33-.07-.7a2 2 0 0 0-.35-.6q-.16-.2-.33-.36l-.08-.08a2 2 0 0 1-.29-.35q-.08-.14-.07-.2-.01-.05.08-.2.1-.15.29-.35l.09-.1q.16-.15.3-.34.23-.24.36-.6.1-.36.07-.68l-.05-.47-.02-.13-.02-.46q.01-.17.05-.2.02-.04.17-.1a3 3 0 0 1 .56-.14l.47-.1q.32-.07.64-.28.3-.25.47-.52l.24-.43.05-.1q.14-.24.25-.38.1-.13.15-.13.05-.02.2.01a3 3 0 0 1 .52.21l.45.2q.3.13.69.15.39-.02.69-.15m-1.32 7.93 3.31-4.2-.78-.63-2.62 3.34-1.26-1.23-.7.71z"/></svg>