<svg width="24" height="24" fill="none" xmlns="http://www.w3.org/2000/svg"><path fill="currentColor" d="M14.75 3.94a22 22 0 0 0-3.89 0 5 5 0 0 0-1.21.25q-.3.11-1.05.73T6.7 6.63l-.11.12-.16.02a22 22 0 0 0-3.62.7q-.74.26-1.2.66-.47.42-.54.66-.05.16-.07.55v1.12q0 .15.18.36.2.19.32.18l2 .03v.5c0 .95.77 1.72 1.73 1.72h.02c.97 0 1.75-.78 1.75-1.75V11h3v1H7.95a2.75 2.75 0 0 1-2.7 2.25h-.02a2.7 2.7 0 0 1-2.69-2.24L1.5 12c-.43 0-.8-.23-1.05-.5A1.6 1.6 0 0 1 0 10.47V9.3q.01-.43.13-.82c.13-.4.44-.79.83-1.11q.62-.53 1.53-.84c.75-.25 1.9-.5 3.64-.73q1.08-1.04 1.83-1.65.78-.66 1.3-.88c.38-.17.93-.26 1.5-.32a23 23 0 0 1 4.07-.01 7 7 0 0 1 1.7.32c.67.25 1.46.67 2.2 1.06l1.57.8q.56.24.87.3a10 10 0 0 1 1.1.25 2 2 0 0 1 1.53 1.76V9h-1V7.48c-.03-.37-.35-.73-.77-.84l-.2-.05c-.3-.08-.52-.14-.82-.19-.34-.05-.73-.2-1.12-.37q-.6-.28-1.26-.63l-.37-.2c-.76-.4-1.48-.78-2.07-1a6 6 0 0 0-1.44-.26m.6 4.58q-.16-.04-.2-.01-.04 0-.16.13l-.24.38-.06.1q-.1.21-.24.43-.16.28-.46.52-.32.2-.64.28l-.59.12q-.27.05-.44.11l-.17.11q-.03.03-.05.2a3 3 0 0 0 .04.59l.05.46q.02.31-.07.69-.14.35-.35.6l-.4.43q-.2.2-.3.35-.08.14-.07.2-.01.05.07.2.1.15.29.35l.08.08.33.36q.21.24.35.6.1.37.07.7-.01.24-.05.48l-.01.11q-.04.28-.03.45t.05.2q.02.03.17.1a3 3 0 0 0 .56.14l.47.1q.32.08.64.28.3.24.46.52.14.21.24.42l.3.49q.13.13.16.13.04.02.19-.01.16-.05.42-.17l.1-.04q.22-.11.45-.2.3-.13.69-.15.39.02.69.15.23.09.44.2l.1.04q.25.12.42.17.16.04.2 0 .04 0 .16-.12.1-.14.24-.39l.06-.1.24-.42q.16-.28.46-.52c.2-.15.44-.23.64-.28l.47-.1.12-.02q.27-.05.44-.12.14-.06.17-.1.03-.03.05-.2a3 3 0 0 0-.04-.59l-.05-.47q-.02-.32.07-.68.14-.36.35-.6l.31-.34.1-.1q.18-.2.28-.34t.08-.2q.01-.06-.07-.2a2 2 0 0 0-.37-.44l-.32-.35a2 2 0 0 1-.36-.6 2 2 0 0 1-.07-.7q.01-.25.05-.48l.01-.11q.05-.29.03-.46-.01-.16-.05-.19-.02-.04-.17-.1l-.44-.12-.12-.02-.47-.1q-.32-.08-.64-.28a2 2 0 0 1-.46-.52l-.24-.42-.3-.5q-.13-.12-.16-.12-.04-.02-.19.01a3 3 0 0 0-.52.21l-.45.2q-.3.13-.69.15-.39-.02-.69-.15l-.44-.2-.1-.05q-.26-.12-.42-.16M16.67 8q.23.08.33.08t.33-.08l.37-.16.12-.06q.26-.14.6-.23c.21-.05.48-.08.75.01q.4.17.6.44.21.27.35.54l.07.12.2.35q.13.18.21.25.07.06.3.12l.53.1q.3.06.62.17c.2.09.44.22.6.45.18.23.23.5.25.72q0 .33-.03.64l-.02.14-.04.39q-.01.23.02.33a1 1 0 0 0 .18.27q.1.14.25.28l.1.11q.23.21.41.5.21.3.23.73-.02.45-.23.73a3 3 0 0 1-.52.63l-.25.28q-.14.17-.17.26a1 1 0 0 0-.02.32l.06.53q.04.31.03.65c-.02.22-.07.48-.24.72s-.4.36-.6.44a4 4 0 0 1-.78.2l-.38.08a1 1 0 0 0-.3.12 1 1 0 0 0-.2.25q-.1.15-.2.34l-.07.13q-.14.25-.35.54c-.15.17-.34.35-.62.44s-.53.06-.75 0a3 3 0 0 1-.73-.28l-.35-.16a1 1 0 0 0-.33-.08 1 1 0 0 0-.33.08l-.37.16-.12.06q-.26.13-.6.23c-.21.05-.48.08-.75-.01q-.4-.17-.6-.44a4 4 0 0 1-.42-.67l-.2-.34a1 1 0 0 0-.21-.25 1 1 0 0 0-.3-.12l-.38-.08-.15-.03a4 4 0 0 1-.62-.17 1.4 1.4 0 0 1-.6-.44 1.4 1.4 0 0 1-.25-.72q0-.34.03-.64l.02-.14.04-.4q.01-.22-.02-.32a1 1 0 0 0-.18-.28l-.25-.28-.1-.1a3 3 0 0 1-.41-.5q-.21-.3-.23-.74.02-.43.23-.73a3 3 0 0 1 .52-.63l.25-.27q.14-.17.17-.26a1 1 0 0 0 .02-.32l-.06-.54q-.04-.3-.03-.64c.02-.23.07-.49.24-.72s.4-.36.6-.45a4 4 0 0 1 .78-.2l.38-.07a1 1 0 0 0 .3-.13 1 1 0 0 0 .2-.24l.27-.47q.14-.27.35-.54c.15-.17.34-.35.62-.44s.53-.07.75-.01a3 3 0 0 1 .73.29zm3 4.64-3.3 4.2-2.05-2 .7-.71 1.26 1.22 2.61-3.32z"/></svg>