<svg width="48" height="48" fill="none" xmlns="http://www.w3.org/2000/svg"><path fill="currentColor" d="m41.85 6.85-34 34-.7-.7 34-34zM3.61 23.5l.46.62a38 38 0 0 0 8.9 8.32l.14.1.08.08.02.02-.7.72-.03-.03-.06-.06a39 39 0 0 1-9.78-9.42l-.04-.05-.01-.01v-.01L3 23.5l-.41.28-.2-.28.2-.28.41.28-.41-.28v-.01l.02-.03.4-.54q.4-.55 1.17-1.5a40 40 0 0 1 4.42-4.52C12.36 13.34 17.72 10 24 10q3.15.01 8.22 1.97l.45.18a3 3 0 0 1 .65.41l-.7.7v.01l-.04-.03-.24-.14-.04-.02-.44-.18Q26.86 11 24 11c-5.92 0-11.06 3.16-14.75 6.38a39 39 0 0 0-5.64 6.12m31.93-8.6-.18-.15.71-.7v-.01l.07.05.06.05.02.01a38 38 0 0 1 9.15 9l.03.05.01.01-.41.29.41.28v.01l-.02.03-.4.54q-.4.55-1.17 1.5a40 40 0 0 1-4.42 4.52C35.64 33.66 30.28 37 24 37a20 20 0 0 1-8.45-1.98q-.12-.06-.24-.18l.66-.73h-.02.02l.03.01.04.02A19 19 0 0 0 24 36c5.92 0 11.06-3.16 14.75-6.38a39 39 0 0 0 5.64-6.12l-.42-.56q-.6-.82-1.77-2.14a37 37 0 0 0-6.66-5.9M45 23.5l.41.28.2-.28-.2-.28zm-28.5 0a7.5 7.5 0 0 1 11.82-6.13v.01l.04.04.02.03.02.01v.01l-.7.7-.04-.04-.02-.01a6.5 6.5 0 0 0-9 9.06l.03.04v-.01l-.7.71-.15-.17a7.5 7.5 0 0 1-1.32-4.25m14.02-3.68q.04.04.08.12a7.5 7.5 0 0 1-10.26 10.1l-.13-.13.7-.7h-.02.02l.03.03a6.5 6.5 0 0 0 8.79-8.8l-.01-.03h-.01l.7-.71z"/></svg>