<svg width="24" height="24" fill="none" xmlns="http://www.w3.org/2000/svg"><path fill="currentColor" d="m15.78 5.78-2.44 2.45a4 4 0 0 0-5.1 5.14l-3.07 3.1q-.56-.42-1.04-.84A21 21 0 0 1 1.1 12.3l-.01-.01v-.01L.89 12l.2-.28.01-.02.2-.28.6-.76a22 22 0 0 1 2.23-2.29C6.03 6.72 8.77 5 12 5c1.35 0 2.62.3 3.78.78"/><path fill="currentColor" d="m12.53 9.05-3.48 3.5a3 3 0 0 1 3.48-3.5m-.95 5.92 3.39-3.41q.03.21.03.44a3 3 0 0 1-3.42 2.97"/><path fill="currentColor" d="M10.75 15.8a4 4 0 0 0 5.04-5.07l3.12-3.14q.51.39.96.78a21 21 0 0 1 3.03 3.33v.01h.01l.2.29-.2.28-.01.02-.2.28-.6.76a22 22 0 0 1-2.23 2.29C17.97 17.28 15.23 19 12 19a10 10 0 0 1-3.69-.74zM21.53 3.53 4.03 21.15 2.97 20.1l17.5-17.63z"/></svg>