<svg width="48" height="48" fill="none" xmlns="http://www.w3.org/2000/svg"><path fill="currentColor" d="M3.61 23.5a23 23 0 0 0 1.34 1.71c1 1.2 2.47 2.81 4.3 4.41C12.95 32.84 18.08 36 24 36s11.06-3.16 14.75-6.38a39 39 0 0 0 5.64-6.12 23 23 0 0 0-1.34-1.71c-1-1.2-2.47-2.81-4.3-4.41C35.05 14.16 29.92 11 24 11s-11.06 3.16-14.75 6.38a39 39 0 0 0-5.64 6.12m41.39 0 .41.28v.01l-.02.03-.4.54q-.4.55-1.17 1.5a40 40 0 0 1-4.42 4.52C35.64 33.66 30.28 37 24 37s-11.64-3.34-15.4-6.62a40 40 0 0 1-5.99-6.56l-.02-.03.41-.29-.41.28-.2-.28.2-.28.41.28-.41-.28v-.01l.02-.03.4-.54q.4-.55 1.17-1.5a40 40 0 0 1 4.42-4.52C12.36 13.34 17.72 10 24 10s11.64 3.34 15.4 6.62a40 40 0 0 1 5.99 6.56l.02.03zm0 0 .41.28.2-.28-.2-.28zm-28.5 0a7.5 7.5 0 1 1 15 0 7.5 7.5 0 0 1-15 0M24 17a6.5 6.5 0 1 0 0 13 6.5 6.5 0 0 0 0-13"/></svg>