<svg width="16" height="16" fill="none" xmlns="http://www.w3.org/2000/svg"><path fill="currentColor" d="M1.62 7.94c.68.94 1.62 1.86 2.68 2.57A7 7 0 0 0 8 11.77c1.86 0 3.5-1 4.7-2.04a13 13 0 0 0 1.68-1.8C12.9 5.9 10.45 4.1 8 4.1c-1.86 0-3.5 1-4.7 2.05a13 13 0 0 0-1.68 1.8m13.38 0 .41.28v.01l-.14.2-.4.5c-.36.43-.87.99-1.52 1.55-1.28 1.12-3.14 2.3-5.35 2.3-1.5 0-2.98-.6-4.25-1.44A12 12 0 0 1 .59 8.22l-.2-.28.2-.28.41.28-.41-.28v-.02l.14-.19.4-.51c.36-.42.87-.98 1.52-1.55C3.93 4.28 5.79 3.1 8 3.1c3.03 0 5.86 2.26 7.41 4.56l.2.28-.2.28zM8 6.5a1.5 1.5 0 1 0 0 3 1.5 1.5 0 0 0 0-3M5.5 8a2.5 2.5 0 1 1 5 0 2.5 2.5 0 0 1-5 0"/></svg>