<svg width="24" height="24" fill="none" xmlns="http://www.w3.org/2000/svg"><path fill="currentColor" d="M2.12 12q.18.26.55.7c.5.59 1.21 1.38 2.12 2.17C6.62 16.47 9.13 18 12 18s5.38-1.53 7.2-3.13A19 19 0 0 0 21.89 12q-.18-.26-.55-.7c-.5-.59-1.21-1.38-2.12-2.17C17.38 7.53 14.87 6 12 6S6.62 7.53 4.8 9.13A19 19 0 0 0 2.11 12m20.38 0 .41.28-.01.02-.04.06a12 12 0 0 1-.76.98 22 22 0 0 1-2.23 2.29C17.97 17.28 15.23 19 12 19s-5.97-1.72-7.87-3.37A21 21 0 0 1 1.1 12.3v-.01h-.01v-.01L1.5 12l-.41.28-.2-.28.2-.28.41.28-.41-.28.01-.02.2-.28.6-.76a22 22 0 0 1 2.23-2.29C6.03 6.72 8.77 5 12 5s5.97 1.72 7.87 3.37a20 20 0 0 1 2.99 3.27l.04.06v.01h.01zm0 0 .41.28.2-.28-.2-.28zM8 12a4 4 0 1 1 8 0 4 4 0 0 1-8 0m4-3a3 3 0 1 0 0 6 3 3 0 0 0 0-6"/></svg>