<svg width="24" height="24" fill="none" xmlns="http://www.w3.org/2000/svg"><path fill="currentColor" d="M21.35 3.35 3.85 20.98l-.7-.7 17.5-17.63zM1.5 12l-.41.28-.2-.28.2-.28zm13.62-5.4A9 9 0 0 0 12 6C9.13 6 6.62 7.53 4.8 9.13A19 19 0 0 0 2.11 12a12 12 0 0 0 .85 1.05 19 19 0 0 0 3.1 2.86l-.7.71-.08-.07A20 20 0 0 1 1.1 12.3l-.02-.02v-.01L1.5 12l-.41-.28.01-.02.2-.28.6-.76a22 22 0 0 1 2.23-2.29C6.03 6.72 8.77 5 12 5a10 10 0 0 1 3.7.77c.06.03.18.1.26.18l-.7.72zm3.06 1.7L18 8.14l.7-.71h.02l.02.03.03.02a20 20 0 0 1 4.12 4.2l.02.02-.41.29.41.28-.01.02-.04.06a12 12 0 0 1-.76.98 22 22 0 0 1-2.23 2.29C17.97 17.28 15.23 19 12 19a10 10 0 0 1-3.53-.68h-.03v-.01h-.02v-.01l-.03-.02-.27-.18.7-.72-.02-.01h.02l.01.02.03.01c.98.37 2.03.6 3.14.6 2.87 0 5.38-1.53 7.2-3.13A19 19 0 0 0 21.89 12a13 13 0 0 0-.83-1.03 19 19 0 0 0-2.87-2.68M22.5 12l.41.28.2-.28-.2-.28zM8 12a4 4 0 0 1 5.02-3.87h.01l.06.03a2 2 0 0 1 .4.25l-.69.73-.02-.02-.08-.04a3 3 0 0 0-3.62 3.6l.07.1.01.01v.01h.01l-.72.7a2 2 0 0 1-.26-.35L8.13 13A4 4 0 0 1 8 12m7.85-1.02.05.15a4.02 4.02 0 0 1-4.8 4.77l-.1-.03-.14-.07-.24-.16.64-.76.1.05a3 3 0 0 0 3.58-3.55l-.06-.1.7-.71a1 1 0 0 1 .27.4"/></svg>