<svg width="16" height="16" fill="none" xmlns="http://www.w3.org/2000/svg"><path fill="currentColor" d="M14.35 2.29 2.7 14.04l-.71-.7L13.65 1.59zM1 7.94l-.41.28-.2-.28.2-.28zm9.02-3.45A6 6 0 0 0 8 4.1c-1.86 0-3.5 1-4.7 2.05a13 13 0 0 0-1.68 1.79 12 12 0 0 0 2.4 2.36l.14.12-.7.72-.03-.03h-.01A13 13 0 0 1 .6 8.23v-.02H.58L1 7.94l-.41-.28v-.02l.14-.19.4-.51c.36-.42.87-.98 1.52-1.55C3.93 4.28 5.79 3.1 8 3.1a7 7 0 0 1 2.55.54q.08.04.2.15l-.7.71.02.01v.01zm2 1.11-.13-.11.7-.71h.01l.02.02a13 13 0 0 1 2.78 2.84v.01h.01l-.41.29.41.28v.01l-.14.2-.4.5c-.36.43-.87.99-1.52 1.55-1.28 1.12-3.14 2.3-5.35 2.3a7 7 0 0 1-2.43-.48h-.02l-.01-.01-.03-.02-.05-.02c-.02-.02-.1-.06-.16-.12l.7-.73-.03-.01-.02-.01h.02q.96.39 2.03.4c1.86 0 3.5-1 4.7-2.05a13 13 0 0 0 1.68-1.8 12 12 0 0 0-2.36-2.33M15 7.94l.41.28.2-.28-.2-.28zm-2.42-3.17"/></svg>