<svg width="24" height="24" fill="none" xmlns="http://www.w3.org/2000/svg"><path fill="currentColor" d="M17.5.5a6 6 0 1 1 0 12 6 6 0 0 1 0-12m1.2 8.58q.4-.05.9-.2v-.82a6 6 0 0 1-1.7.24q-.4 0-.74-.09a2 2 0 0 1-.59-.27q-.24-.18-.38-.43h2.54v-.67h-2.74a3 3 0 0 1-.01-.62h2.75v-.67h-2.59q.14-.27.4-.46.25-.2.6-.3t.77-.1a5 5 0 0 1 1.66.32v-.85a4 4 0 0 0-1.74-.31q-.68 0-1.23.2t-.93.58-.57.92h-.6v.67h.46a4 4 0 0 0 0 .62h-.46v.67h.62a2.3 2.3 0 0 0 1.48 1.45q.54.18 1.23.18.46 0 .87-.06m-1.78 10.76-1.86.86-.75.35-.43.16A15 15 0 0 1 9.5 22H0v-6h.5l1.33.01c.3 0 .48 0 .63-.04.15-.03.3-.09.56-.21l.66-.34.49-.26A10 10 0 0 1 8.8 14h4.7c1.08 0 1.05.7 1.01 1.52l-.01.48c0 .52-.48 1-1 1H7v1h6.5c1.08 0 2-.92 2-2v-.71l5.27-1.57.47-.09c.26-.03.62-.06.99-.04.36.02.78.1 1.13.31.39.25.64.65.64 1.2 0 .8-.41 1.35-.88 1.74-.4.32-.87.55-1.24.73l-.16.08q-1.49.73-3.02 1.4-.9.39-1.78.8"/></svg>