<svg width="48" height="48" fill="none" xmlns="http://www.w3.org/2000/svg"><path fill="currentColor" d="M26.5 12a9.5 9.5 0 1 1 19 0 9.5 9.5 0 0 1-19 0M36 3.5a8.5 8.5 0 1 0 0 17 8.5 8.5 0 0 0 0-17m6.22 21.49-11.15 3.36A3 3 0 0 1 28.09 31H15v-1h13.09a2 2 0 1 0 0-4H17.42c-2.98 0-6.18.65-8.7 1.94a22 22 0 0 0-2.32 1.39l-.45.31q-.5.36-.96.64c-.89.5-1.84.7-3.99.72v8h18c2.36 0 4.65-.46 6.37-.93a29 29 0 0 0 2.76-.91l.04-.02.39-.18a1939 1939 0 0 1 14.85-6.93c.8-.36 1.66-.75 2.35-1.31A3 3 0 0 0 47 26.29c0-.56-.24-.9-.6-1.12-.4-.24-.98-.36-1.63-.4a10 10 0 0 0-2.51.21zm-13.85 12.6.2.47h-.02l-.04.02-.76.29A29 29 0 0 1 19 40H0V30h.5c2.5 0 3.29-.2 4-.6.26-.14.5-.32.83-.54l.5-.36c.58-.4 1.33-.87 2.44-1.44A20.6 20.6 0 0 1 17.42 25h10.67a3 3 0 0 1 2.92 2.33l10.96-3.3.02-.01.1.49-.1-.5h.06l.82-.14c.53-.07 1.24-.13 1.95-.1.71.04 1.48.18 2.1.55.64.4 1.08 1.04 1.08 1.97 0 1.46-.7 2.48-1.6 3.2-.8.65-1.78 1.1-2.56 1.45l-.22.1a1285 1285 0 0 0-14.63 6.82l-.4.19zm0 0 .2.47.01-.01z"/><path fill="currentColor" d="M31 11.4v-.93h1.15c.6-1.76 2.23-2.77 4.25-2.77.91 0 1.87.13 2.6.44v1a7 7 0 0 0-2.43-.45c-1.64 0-2.8.62-3.27 1.78h4.2v.93h-4.4q-.05.3-.04.6 0 .34.03.63h4.42v.93h-4.18c.52 1.27 1.83 1.76 3.2 1.76 1.34 0 2.06-.2 2.53-.38v.97a7 7 0 0 1-2.55.4c-2.12 0-3.79-.93-4.37-2.75H31v-.93h.94a6 6 0 0 1 0-1.23z"/></svg>