<svg width="24" height="24" fill="none" xmlns="http://www.w3.org/2000/svg"><path fill="currentColor" d="M19.6 8.88a6 6 0 0 1-1.77.26 4 4 0 0 1-1.23-.18 2.3 2.3 0 0 1-1.48-1.45h-.62v-.67h.47v-.62h-.47v-.67h.6a2.4 2.4 0 0 1 1.5-1.5q.55-.2 1.23-.2a5 5 0 0 1 1.74.31v.85a4 4 0 0 0-2.43-.22q-.35.1-.6.3-.26.2-.4.46h2.59v.67h-2.75a4 4 0 0 0 .01.62h2.74v.67h-2.54q.14.24.38.43.25.17.6.27.33.1.74.1a6 6 0 0 0 1.7-.25z"/><path fill="currentColor" d="M9.56 22H0v-6h.5l1.04.01q1.02.02 2.16-.57l.49-.25a10.4 10.4 0 0 1 4.59-1.18h4.72c.85 0 1.58.54 1.87 1.29l5.34-1.61c.23-.05 1.93-.41 2.79.28q.49.4.5 1.07c0 1.51-1.37 2.14-2.19 2.51l-.1.05-7.35 3.43c-.12.05-2.36.98-4.8.98zm-8.55-1h8.55c2.24 0 4.37-.88 4.39-.89 0 0 4.42-2.09 7.34-3.43l.11-.05c.91-.41 1.6-.79 1.6-1.6q-.01-.24-.12-.29c-.35-.28-1.33-.22-1.92-.09l-5.49 1.65c-.15.96-.98 1.7-1.98 1.7h-6.5v-1h6.5a1 1 0 0 0 1-1 1 1 0 0 0-1-1H8.77c-1.31 0-2.81.39-4.13 1.07l-.49.25c-1.33.69-1.41.71-2.64.69H.99v4zm16.5-8.5a6 6 0 1 1 5.99-6 6 6 0 0 1-6 6zm0-11a5 5 0 1 0 0 10 5 5 0 0 0 0-10"/></svg>