<svg width="16" height="16" fill="none" xmlns="http://www.w3.org/2000/svg"><path fill="currentColor" d="M4.52 15.7a4 4 0 0 1-1.63.3q-.74 0-1.25-.31t-.78-.91-.27-1.45q0-.81.28-1.41t.8-.9q.54-.33 1.27-.32.45 0 .83.08.4.08.7.24v.83a4 4 0 0 0-1.47-.3q-.44 0-.74.21t-.46.6-.16.97q0 .62.15 1.02.16.4.46.6t.78.19q.43 0 .78-.06.36-.07.71-.21zm4.21.18L6.8 12.94a7 7 0 0 1-.43-.76q.06.54.06.77v2.93h-.98v-5.07h1.06l1.93 2.94q.21.3.42.76-.04-.44-.04-.77v-2.93h.97v5.07zm5.55-2.45h1v2.2q-.43.18-.93.27-.49.1-1.04.1a3 3 0 0 1-1.38-.3 2 2 0 0 1-.83-.9q-.28-.59-.28-1.47 0-.82.3-1.42t.86-.9 1.36-.31q.5 0 .9.08t.74.25v.84q-.33-.15-.73-.23a4 4 0 0 0-.84-.08q-.5 0-.85.2t-.52.6q-.17.38-.17.97 0 .62.17 1.02.15.4.5.6.33.2.85.2.51 0 .89-.1zM3.5 1C2.67 1 2 1.67 2 2.5v7H1v-7A2.5 2.5 0 0 1 3.5 0h3A2.5 2.5 0 0 1 9 2.5V6h.5A2.5 2.5 0 0 1 12 8.5v1h-1v-1c0-.83-.67-1.5-1.5-1.5H9v2.5H8v-7C8 1.67 7.33 1 6.5 1zm10.36 5.61a16 16 0 0 0-2.75-5.3l.78-.62a17 17 0 0 1 2.93 5.62q.18.62.18 1.25V9.5h-1V7.56q0-.5-.14-.95M7 7H3V6h4z"/></svg>