<svg width="24" height="24" fill="none" xmlns="http://www.w3.org/2000/svg"><path fill="currentColor" d="M8.93 23.5a4 4 0 0 1-1.64.3q-.73 0-1.25-.31-.51-.31-.78-.91-.26-.6-.26-1.45 0-.81.28-1.41t.8-.9q.54-.32 1.26-.32.45 0 .84.08t.69.24v.83a4 4 0 0 0-1.47-.3q-.43 0-.74.21-.3.21-.45.6-.16.4-.16.97 0 .62.15 1.02t.45.6.78.19q.44 0 .79-.06.35-.07.7-.21zm4.21.18-1.94-2.94a7 7 0 0 1-.42-.76q.05.54.05.77v2.93h-.97v-5.07h1.06l1.93 2.94q.2.3.42.76-.05-.44-.05-.77v-2.93h.98v5.07zm5.54-2.45h1.01v2.2q-.44.18-.93.27t-1.04.1a3 3 0 0 1-1.38-.3 2 2 0 0 1-.83-.9q-.29-.59-.28-1.47 0-.82.3-1.42t.86-.9 1.36-.31q.5 0 .9.08t.73.25v.84q-.31-.15-.73-.23a4 4 0 0 0-.84-.08q-.5 0-.84.2t-.52.6q-.17.38-.17.97 0 .62.16 1.02.17.4.5.6t.86.2q.5 0 .88-.1zM6 3.5A2.5 2.5 0 0 1 8.5 1h4A2.5 2.5 0 0 1 15 3.5V7h.51c.82 0 1.5.66 1.5 1.48l.06 3.56c0 .53.44.96.97.96s.96-.43.96-.96V5.57a10 10 0 0 0-1.89-3.76l.78-.62a11 11 0 0 1 2.1 4.18l.01.06v6.61c0 1.08-.88 1.96-1.96 1.96a2 2 0 0 1-1.97-1.95L16 8.5a.5.5 0 0 0-.5-.49H15v8h1v1H5v-1h1zM7 16h7V3.5c0-.83-.67-1.5-1.5-1.5h-4C7.67 2 7 2.67 7 3.5zm6-8H8V7h5z"/></svg>