<svg width="16" height="16" fill="none" xmlns="http://www.w3.org/2000/svg"><path fill="currentColor" d="M3 5c0-2.78 2.22-5 5-5s5 2.22 5 5c0 .74-.32 1.7-.75 2.66-.43.99-1 2.06-1.57 3.03a60 60 0 0 1-2.22 3.52l-.04.05v.02L8 14l-.41.28-.01-.02-.04-.05-.66-1c-.43-.64-1-1.54-1.56-2.52a31 31 0 0 1-1.57-3.03A7 7 0 0 1 3 5m5 9-.41.28.41.6.41-.6zm0-.9a61 61 0 0 0 1.82-2.91c.56-.96 1.1-1.99 1.52-2.93A7 7 0 0 0 12 5c0-2.23-1.77-4-4-4S4 2.77 4 5c0 .51.24 1.3.66 2.26.41.94.96 1.97 1.52 2.93A59 59 0 0 0 8 13.1M6 5a2 2 0 1 1 4 0 2 2 0 0 1-4 0m2-1a1 1 0 1 0 0 2 1 1 0 0 0 0-2M3.32 14.5q.33.11.88.22c.96.17 2.3.28 3.8.28s2.84-.11 3.8-.28q.55-.11.88-.22h-.02q-.6-.2-1.72-.34l.12-1q1.17.15 1.91.38.36.11.64.3c.15.1.39.32.39.66 0 .27-.15.46-.28.58q-.21.16-.45.27-.5.21-1.3.35c-1.02.19-2.43.3-3.97.3s-2.95-.11-3.98-.3q-.78-.15-1.29-.35a2 2 0 0 1-.45-.27.8.8 0 0 1-.28-.58c0-.34.24-.56.4-.66q.27-.19.63-.3.74-.24 1.91-.37l.12.99q-1.12.14-1.72.33z"/></svg>