<svg width="24" height="24" fill="none" xmlns="http://www.w3.org/2000/svg"><path fill="currentColor" d="m11.33 22.76.83-1.2.02-.02.05-.08.93-1.4q.54-.82 1.24-1.95c1.6.12 3.05.34 4.23.63a9 9 0 0 1 2.31.85c.55.31 1.06.77 1.06 1.41s-.51 1.1-1.06 1.41a9 9 0 0 1-2.31.85c-1.89.46-4.45.74-7.23.74s-5.32-.28-7.18-.74a9 9 0 0 1-2.29-.85C1.4 22.1.9 21.63.9 21c0-.64.5-1.1 1.03-1.41a9 9 0 0 1 2.29-.85 26 26 0 0 1 4.06-.62 89 89 0 0 0 2.16 3.34l.05.08.02.02z"/><path fill="currentColor" d="M9.4 18.05A89 89 0 0 0 11.34 21l.6-.9c.35-.51.81-1.23 1.33-2.06a41 41 0 0 0-3.85 0"/><path fill="currentColor" d="M11.33 11.05a2.71 2.71 0 1 1 0-5.43 2.71 2.71 0 0 1 0 5.43m6.34-2.72A6.3 6.3 0 0 0 11.33 2 6.3 6.3 0 0 0 5 8.33C5 11.86 11.33 21 11.33 21s6.34-9.14 6.34-12.67"/></svg>