<svg width="24" height="24" fill="none" xmlns="http://www.w3.org/2000/svg"><path fill="currentColor" d="M17.5.01 24 13H11zm0 2.24L12.6 12h9.79zM5.2 7.42a6.37 6.37 0 0 1 7.28-5.31l-.16.98a5.37 5.37 0 0 0-6.18 4.93v.01l-.04.37c0 .71.33 1.78.88 3.03a40 40 0 0 0 2 3.86 76 76 0 0 0 2.52 4.02 83 83 0 0 0 3.26-5.35l.88.48A74 74 0 0 1 12 20.35l-.07.1-.01.02v.01l-.42-.28-.41.28-.02-.02-.05-.07-.86-1.3a77 77 0 0 1-2.04-3.3 41 41 0 0 1-2.06-3.95A10 10 0 0 1 5.1 8.4q.01-.3.05-.52l.05-.38zm6.3 12.78-.41.28.41.6.41-.6zM17 8V5h1v3zM8.75 6.98a2.97 2.97 0 0 1 4.1-1.21l-.5.86a2 2 0 0 0-2.7.8c-.4.8-.25 1.78.32 2.44l-.75.66a3.2 3.2 0 0 1-.47-3.55M17 11V9h1v2zM2.17 20.62c-.25.22-.27.34-.27.38 0 .06.06.27.54.55q.68.4 2.02.74c1.76.44 4.22.71 6.94.71s5.2-.27 7-.71q1.34-.34 2.04-.74c.5-.29.56-.49.56-.55 0-.04-.03-.17-.27-.38a4 4 0 0 0-1.11-.64 16 16 0 0 0-4.18-.98l.12-1c1.78.2 3.33.59 4.45 1.06q.84.36 1.37.8c.33.3.62.68.62 1.14 0 .64-.51 1.1-1.06 1.41a9 9 0 0 1-2.31.85c-1.89.46-4.45.74-7.23.74s-5.32-.28-7.18-.74a9 9 0 0 1-2.29-.85C1.4 22.1.9 21.63.9 21c0-.47.28-.85.62-1.14q.53-.45 1.4-.8c1.14-.47 2.74-.85 4.62-1.06l.11 1c-1.82.2-3.32.56-4.35.99q-.78.32-1.13.63"/></svg>