<svg width="24" height="24" fill="none" xmlns="http://www.w3.org/2000/svg"><path fill="currentColor" d="M2 2h17.5c.83 0 1.5.67 1.5 1.5V21H3.5A1.5 1.5 0 0 1 2 19.5zm1 1v8h4.79a4.4 4.4 0 0 1-2-2.32 1.69 1.69 0 0 1 1.9-2.25l.4.08A4.5 4.5 0 0 1 11 8.47V3zm9 0v5.24a4 4 0 0 1 2.97-1.94l.22-.02A1.75 1.75 0 0 1 17 8.76l-.1.2A5 5 0 0 1 15.07 11H20V3.5a.5.5 0 0 0-.5-.5zm8 9h-7.3l3.65 3.65-.7.7L12 12.71V20h8zm-9 8v-7.3l-3.65 3.65-.7-.7L10.29 12H3v7.5c0 .28.22.5.5.5zm1.23-9.08 1.23-.31a3.8 3.8 0 0 0 2.53-2.08l.1-.2a.75.75 0 0 0-.78-1.06l-.22.02a3 3 0 0 0-2.58 2.34zm-1.41-.08-.19-.75A3.5 3.5 0 0 0 7.9 7.5l-.4-.08a.7.7 0 0 0-.78.91 3.4 3.4 0 0 0 2.47 2.16z"/></svg>