<svg width="16" height="16" fill="none" xmlns="http://www.w3.org/2000/svg"><path fill="currentColor" d="M0 0h14.5c.83 0 1.5.67 1.5 1.5V16H1.5A1.5 1.5 0 0 1 0 14.5zm1 1v6.5h3.5a4 4 0 0 1-1.55-1.92 1.53 1.53 0 0 1 1.73-2.04l.35.08c1.02.2 1.9.78 2.47 1.6V1zm6.28 6.34-.13-.54a3 3 0 0 0-2.32-2.2l-.35-.07a.53.53 0 0 0-.6.7c.35.92 1.14 1.6 2.1 1.82zM6.76 8.5H1v6c0 .28.22.5.5.5h6V9.17l-3.08 3.08-.7-.7zm1.74.75V15H15V8.5H9.17l3.04 3.05-.7.7zm2.78-1.75H15v-6a.5.5 0 0 0-.5-.5h-6v3.9a3.5 3.5 0 0 1 2.46-1.47l.2-.02a1.58 1.58 0 0 1 1.61 2.25l-.08.17q-.49 1.03-1.4 1.67m-2.6-.1.96-.23A3.2 3.2 0 0 0 11.8 5.4l.08-.17a.58.58 0 0 0-.6-.83l-.19.03A2.5 2.5 0 0 0 8.91 6.4z"/></svg>