<svg width="24" height="24" fill="none" xmlns="http://www.w3.org/2000/svg"><path fill="currentColor" d="M12 21v-8.3l3.65 3.65.7-.7L12.71 12H21v9zm-1 0H3.5A1.5 1.5 0 0 1 2 19.5V12h8.3l-3.65 3.65.7.7L11 12.71zM2 11V2h9v6.47a4.5 4.5 0 0 0-2.9-1.96l-.4-.08a1.69 1.69 0 0 0-1.92 2.25c.38 1 1.1 1.81 2 2.32zm10-9h7.5c.83 0 1.5.67 1.5 1.5V11h-5.93a5 5 0 0 0 1.82-2.04l.1-.2a1.75 1.75 0 0 0-1.8-2.48l-.22.02A4 4 0 0 0 12 8.24z"/><path fill="currentColor" d="M12.51 9.63A3 3 0 0 1 15.1 7.3l.22-.02a.75.75 0 0 1 .77 1.06l-.1.2a3.8 3.8 0 0 1-2.52 2.08l-1.23.3zm-3.31.85a3.4 3.4 0 0 1-2.48-2.16.7.7 0 0 1 .78-.91l.4.08a3.5 3.5 0 0 1 2.73 2.6l.19.75z"/></svg>