<svg width="16" height="16" fill="none" xmlns="http://www.w3.org/2000/svg"><path fill="currentColor" d="M5 .04V2.5h2v3H5v2.59L.22 3.99zm5 0 4.78 3.95L10 8.1V5.5H8v-3h2zM1.78 4 4 5.9V4.5h2v-1H4V2.16zM11 2.16V3.5H9v1h2v1.41l2.22-1.9zM13.5 6H16v9h-2.5v-.5c0-.35-.12-.9-.49-1.35-.35-.43-.95-.82-2.01-.82h-.85c.48.35.85.82.85 1.42 0 .77-.62 1.34-1.3 1.68-.72.36-1.67.57-2.7.57s-1.98-.2-2.7-.57c-.69-.34-1.3-.9-1.3-1.68 0-.6.37-1.07.85-1.42H2.48l-.09.01-.37.08c-.32.1-.75.29-1.19.68l-.83.74V7.16l.83.74a3 3 0 0 0 1.65.77H11c1.06 0 1.66-.39 2.01-.82.37-.45.49-1 .49-1.35zm.95 1c-.08.47-.28 1-.66 1.48A3.4 3.4 0 0 1 11 9.67H2.5v-.5.5h-.03l-.2-.02A3 3 0 0 1 1 9.23v2.54a4 4 0 0 1 1.47-.44h.02l.01.5v-.5H11c1.34 0 2.24.5 2.79 1.19.38.47.58 1.01.66 1.48H15V7zm-9.7 5.96c-.58.29-.75.6-.75.79s.17.5.75.79c.55.28 1.34.46 2.25.46s1.7-.18 2.25-.46c.58-.29.75-.6.75-.79s-.17-.5-.75-.79A5 5 0 0 0 7 12.5c-.9 0-1.7.18-2.25.46"/></svg>