<svg width="48" height="48" fill="none" xmlns="http://www.w3.org/2000/svg"><path fill="currentColor" d="M41 9h4v29h-4v-.5c0-2.9-.67-5.04-1.65-6.63a9.5 9.5 0 0 0-3.6-3.4A12.4 12.4 0 0 0 30.53 26H28.5q2.13.8 3.66 1.95c1.86 1.4 3.01 3.2 2.84 5.1-.17 2.06-1.83 3.68-4.15 4.7-2.34 1.02-5.47 1.5-8.89 1.25a18.5 18.5 0 0 1-8.6-2.67c-2.15-1.4-3.53-3.3-3.36-5.37.12-1.55 1.12-2.9 2.6-3.91q.88-.6 1.99-1.05H12a11.6 11.6 0 0 0-8.1 3.3l-.02.03-.88.99V16.35l.92 1.37c.32.5.96.96 1.8 1.4.84.42 1.83.77 2.77 1.05a31 31 0 0 0 3.52.82l.03.01H30.5c2.63 0 4.57-.72 6.02-1.78a10 10 0 0 0 3.11-3.93A16 16 0 0 0 41 9.52zm.98 1v.05a17 17 0 0 1-1.44 5.66 11 11 0 0 1-3.43 4.32A11 11 0 0 1 30.5 22H11.92l.08-.5-.08.5-.02-.01-.06-.01-1.05-.2a32 32 0 0 1-2.58-.65 20 20 0 0 1-2.93-1.12q-.7-.36-1.28-.79v8.64q.56-.48 1.47-1.04C6.97 25.92 9.19 25 12 25h7v1h-.47c-2.17.3-4.03.97-5.36 1.88-1.34.9-2.09 2.01-2.17 3.16-.13 1.53.89 3.14 2.9 4.45s4.86 2.27 8.14 2.51a18 18 0 0 0 8.4-1.17c2.19-.96 3.43-2.34 3.56-3.87.13-1.41-.72-2.91-2.44-4.21a16 16 0 0 0-7.1-2.75H24v-1h6.5v.5-.5h.04l.48.03q.48.04 1.3.18c1.06.2 2.49.6 3.92 1.39 1.44.79 2.88 1.97 3.97 3.74A13 13 0 0 1 41.99 37H44V10zM16.77 28.56c1.68-.51 3.92-.71 6.26-.56 2.35.15 4.4.7 5.87 1.47 1.43.76 2.46 1.85 2.4 3.16a2.4 2.4 0 0 1-.95 1.7q-.83.66-2.11 1.06c-1.69.53-3.93.76-6.27.6a14 14 0 0 1-5.87-1.51c-1.43-.8-2.46-1.9-2.4-3.2.03-.69.41-1.25.96-1.7a6 6 0 0 1 2.1-1.02m-1.49 1.8c-.4.33-.56.65-.58.96-.04.7.53 1.54 1.88 2.28 1.3.72 3.2 1.25 5.45 1.4s4.37-.07 5.9-.56a5 5 0 0 0 1.78-.89c.4-.33.57-.66.6-.97.03-.7-.54-1.51-1.88-2.23-1.31-.7-3.21-1.2-5.46-1.35s-4.37.05-5.91.52a5 5 0 0 0-1.78.85"/></svg>