<svg width="24" height="24" fill="none" xmlns="http://www.w3.org/2000/svg"><path fill="currentColor" d="M21.2 4H24v16h-2.8v-.5c0-1.57-.36-2.67-.87-3.45a4.3 4.3 0 0 0-1.88-1.57 6 6 0 0 0-2.8-.48h-.79l.53.3c1 .66 1.67 1.58 1.6 2.73-.06 1.18-1 2.03-2.2 2.52-1.22.5-2.83.7-4.54.55-1.7-.16-3.23-.62-4.34-1.31-1.1-.68-1.87-1.65-1.8-2.82.05-.8.48-1.42 1.11-1.87a9 9 0 0 0-3.12.85 5 5 0 0 0-1.2.85L0 17V6.5l.9 1.2c.65.86 1.89 1.45 3.17 1.82C5.35 9.88 6.55 10 7 10h8.6a5.7 5.7 0 0 0 3.25-.86 5 5 0 0 0 1.64-1.87 7 7 0 0 0 .7-2.72l.01-.04zm.97 1a8 8 0 0 1-.79 2.73 6 6 0 0 1-1.98 2.25A7 7 0 0 1 15.6 11H7c-.55 0-1.85-.13-3.2-.52A9 9 0 0 1 1 9.18v5.25q.27-.19.65-.38A12 12 0 0 1 7 13h8.58l.27-.01a7 7 0 0 1 3 .58c.84.37 1.68.97 2.31 1.93a7 7 0 0 1 1.03 3.5H23V5zm-10.8 9H8.53q-1.6.22-2.51.77c-.6.35-.88.78-.92 1.26-.03.64.38 1.31 1.34 1.9a9 9 0 0 0 3.9 1.17 9 9 0 0 0 4.07-.47c1.05-.44 1.56-1.04 1.6-1.66q.06-.99-1.17-1.83A9 9 0 0 0 11.37 14"/></svg>