<svg width="24" height="24" fill="none" xmlns="http://www.w3.org/2000/svg"><path fill="currentColor" d="M6 .26V4h3v5H6v3.74L0 6.5zm8 .03 6.2 6.21-6.2 6.2V9h-3V4h3zm1 2.42V5h-3v3h3v2.3l3.8-3.8zM1.4 6.5 5 10.26V8h3V5H5V2.74zM20 10h3v14h-3v-.5c0-1.16-.29-2-.7-2.61a4 4 0 0 0-1.52-1.32 6 6 0 0 0-2.06-.56q.53.3.88.71.44.56.4 1.31c-.07 1.03-.94 1.82-2 2.3-1.08.5-2.51.74-4.03.64a7.4 7.4 0 0 1-3.63-1.08c-.87-.6-1.4-1.45-1.34-2.42v-.01q.07-.9.68-1.46H6c-1.23 0-2.04.24-2.52.46a3 3 0 0 0-.61.38L2 20.8v-7.95l.92 1.37q.19.3.66.5.5.2 1.05.29a8 8 0 0 0 1.25.1h.1v-.01h9.62c1.13 0 1.95-.3 2.55-.7.6-.43 1-.99 1.29-1.57a6 6 0 0 0 .56-2.29zm.97 1a7 7 0 0 1-.63 2.27 5 5 0 0 1-1.62 1.94c-.78.55-1.8.89-3.12.89H5.55a9 9 0 0 1-1.08-.1A5 5 0 0 1 3 15.54v3.03l.07-.04A7 7 0 0 1 6 18h9.5v.5-.5h.02l.23.01a7 7 0 0 1 2.47.67A4.9 4.9 0 0 1 20.98 23H22V11zm-9 8H9.53a5 5 0 0 0-1.98.58c-.35.23-.52.5-.56.96-.03.52.23 1.06.9 1.52.69.46 1.74.82 3.13.91 1.38.1 2.65-.14 3.56-.55.95-.43 1.38-.98 1.41-1.45a1 1 0 0 0-.19-.63 2 2 0 0 0-.76-.55c-.74-.35-1.8-.6-3.09-.79"/></svg>