<svg width="24" height="24" fill="none" xmlns="http://www.w3.org/2000/svg"><path fill="currentColor" d="M6 4V.26L0 6.5l6 6.24V9h3V4zm14.2 2.5L14 .3V4h-3v5h3v3.7z"/><path fill="currentColor" d="M20 23.5v.5h3V10h-3v.54a4 4 0 0 1-.07.68 6 6 0 0 1-.5 1.61 4 4 0 0 1-1.28 1.56c-.6.42-1.42.71-2.55.71H5.88a8 8 0 0 1-1.25-.1 4 4 0 0 1-1.05-.28 1.5 1.5 0 0 1-.66-.5L2 12.85v7.95l.87-.96.01-.02.1-.08q.15-.12.5-.28A6 6 0 0 1 6 19h.11q-.3.49-.36 1.14v.01c-.07 1.09.52 2.01 1.45 2.65a7.5 7.5 0 0 0 3.75 1.15 9 9 0 0 0 4.17-.68c1.08-.5 2.05-1.35 2.13-2.52a2 2 0 0 0-.53-1.57q.5.13 1.06.4c.56.28 1.11.7 1.52 1.3.41.62.7 1.46.7 2.62M12.3 19c1.1.2 2.01.41 2.64.71q.52.26.67.49.15.18.14.45c-.02.33-.35.83-1.26 1.26-.88.4-2.1.63-3.44.54a6 6 0 0 1-3-.88c-.62-.43-.83-.9-.8-1.31.03-.38.16-.59.44-.77.3-.19.78-.35 1.54-.49z"/></svg>