<svg width="48" height="48" fill="none" xmlns="http://www.w3.org/2000/svg"><path fill="currentColor" d="M11 3.3V10h7v7h-7v6.7L.8 13.5zm17 0 10.2 10.2L28 23.7V17h-7v-7h7zM2.2 13.5l7.8 7.8V16h7v-5h-7V5.7zM29 5.7V11h-7v5h7v5.3l7.8-7.8zM43.03 19H46v25h-3v-.5c0-2.4-.62-4.18-1.52-5.5a8.5 8.5 0 0 0-3.35-2.8 12 12 0 0 0-4.9-1.2h-1.31q1.47.55 2.59 1.3c1.6 1.09 2.6 2.54 2.49 4.23-.12 1.82-1.6 3.32-3.65 4.27a16 16 0 0 1-7.9 1.2 16.4 16.4 0 0 1-7.51-2.36c-1.86-1.22-3.06-2.86-2.94-4.67v-.01c.12-1.41 1.03-2.54 2.36-3.35q.56-.34 1.21-.61h-1.56a13 13 0 0 0-7.17 2.37l-.02.02-.82.65v-11.7l.92 1.38q.42.61 1.54 1.1c.73.31 1.59.55 2.42.73a25 25 0 0 0 3.09.45H33.2c4.58 0 7-2.36 8.31-4.74A13 13 0 0 0 43 19.49v-.02zm.92 1q-.06.45-.22 1.17c-.22.97-.63 2.27-1.34 3.57C40.95 27.36 38.22 30 33.2 30H16.97l.03-.5-.03.5h-.08l-.92-.1a26 26 0 0 1-2.3-.37 14 14 0 0 1-2.6-.8 7 7 0 0 1-1.07-.57v6.9q.53-.34 1.35-.73c1.36-.63 3.3-1.28 5.64-1.33H23v1h-.37c-1.94.25-3.58.75-4.74 1.46q-1.75 1.1-1.9 2.58c-.07 1.29.78 2.64 2.5 3.77a15.4 15.4 0 0 0 7.05 2.2 15 15 0 0 0 7.39-1.11c1.92-.9 2.99-2.15 3.07-3.43.08-1.2-.61-2.36-2.06-3.34A15 15 0 0 0 27.86 34H27v-1h6.2v.5-.5h.04l.44.02a14 14 0 0 1 4.89 1.28 9.5 9.5 0 0 1 3.73 3.14A10.3 10.3 0 0 1 44 43h1V20zM21.52 36.3a16 16 0 0 1 5.02-.3c1.85.15 3.44.38 4.56.8q.86.3 1.39.83.55.59.5 1.4c-.06 1.1-1 1.91-2.2 2.4-1.24.5-2.92.72-4.83.57a16 16 0 0 1-4.83-1.05 5 5 0 0 1-1.54-1 2 2 0 0 1-.59-1.48 2 2 0 0 1 .81-1.4q.69-.5 1.71-.77m-1.1 1.57c-.3.22-.4.44-.42.66q-.04.34.32.73.37.4 1.2.77c1.11.48 2.7.82 4.52.97a10 10 0 0 0 4.37-.5c1.1-.44 1.56-1.03 1.6-1.53a.8.8 0 0 0-.25-.65q-.29-.3-1-.59-1.5-.52-4.3-.73a15 15 0 0 0-4.68.27 4 4 0 0 0-1.36.6"/></svg>