<svg width="48" height="48" fill="none" xmlns="http://www.w3.org/2000/svg"><path fill="currentColor" d="M9 15.5C9 9.72 13.72 5 19.5 5h11C36.28 5 41 9.72 41 15.5v3.6c2.42.7 4 3.58 4 6.9 0 1.78-.44 3.42-1.21 4.67A4.8 4.8 0 0 1 41 32.91V35h-3.5c-1.34 0-2.5-1-2.5-2.4V19.5a2.5 2.5 0 0 1 2.5-2.5H40v-1.5c0-5.22-4.28-9.5-9.5-9.5h-11a9.53 9.53 0 0 0-9.5 9.5V17h2.5a2.5 2.5 0 0 1 2.5 2.5v13.1c0 1.4-1.16 2.4-2.5 2.4h-1.83c1.4 3.5 4.84 6 8.83 6h.5v-2h11v5H20v-2h-.5c-5.29 0-9.7-3.96-10.4-9.06a4.7 4.7 0 0 1-2.89-2.27A9 9 0 0 1 5 26c0-3.32 1.58-6.2 4-6.9zm1 16q0 1.3.34 2.5h2.16c.86 0 1.5-.6 1.5-1.4V19.5c0-.82-.68-1.5-1.5-1.5H10zM9 20.16c-1.68.67-3 2.88-3 5.84a8 8 0 0 0 1.06 4.15A4 4 0 0 0 9 31.87zM40 18h-2.5c-.82 0-1.5.68-1.5 1.5v13.1c0 .8.64 1.4 1.5 1.4H40zm1 13.87a4 4 0 0 0 1.94-1.72A8 8 0 0 0 44 26c0-2.96-1.32-5.17-3-5.84zM21 40v3h9v-3z"/></svg>