<svg width="24" height="24" fill="none" xmlns="http://www.w3.org/2000/svg"><path fill="currentColor" d="M9.25 0C5.49 0 3 2.88 3 6.45V8h1v8.7H3V8c-.89.09-1.62.67-2.13 1.44A5.6 5.6 0 0 0 0 12.5c0 1.14.32 2.24.87 3.06.5.77 1.24 1.35 2.13 1.43v-.29c0 1.8.55 3.43 1.6 4.63A5.8 5.8 0 0 0 9 23.25V24h7v-3H9v.75a4.3 4.3 0 0 1-3.27-1.4A5 5 0 0 1 4.63 18h.97q.75 0 1.13-.57c.22-.33.27-.75.27-1.13V8.6c0-.34-.05-.74-.28-1.06A1.3 1.3 0 0 0 5.6 7H4.5v-.55c0-2.83 1.9-4.95 4.75-4.95h5.5c1.46 0 2.63.53 3.44 1.38a5 5 0 0 1 1.31 3.57V7h-1.1q-.75 0-1.12.54A2 2 0 0 0 17 8.6v7.7c0 .38.05.8.27 1.13q.38.57 1.13.57H20V8h1V6.45c0-1.82-.6-3.44-1.72-4.6A6 6 0 0 0 14.75 0zM21 17c.94-.04 1.69-.65 2.19-1.45.52-.82.81-1.92.81-3.05s-.3-2.23-.81-3.05c-.5-.8-1.25-1.4-2.19-1.45z"/></svg>