<svg width="24" height="24" fill="none" xmlns="http://www.w3.org/2000/svg"><path fill="currentColor" d="M3 6.2C3 2.75 5.4 0 9 0h6c1.78 0 3.29.65 4.35 1.77A6.3 6.3 0 0 1 21 6.2V8c.94.04 1.69.65 2.19 1.45.52.82.81 1.92.81 3.05s-.3 2.23-.81 3.05c-.5.8-1.25 1.4-2.19 1.45v1h-2.6q-.75 0-1.13-.57A2 2 0 0 1 17 16.3V8.6c0-.34.05-.74.28-1.06A1.3 1.3 0 0 1 18.4 7H20v-.8c0-1.54-.51-2.83-1.37-3.74A5 5 0 0 0 15 1H9C6 1 4 3.25 4 6.2V7h1.6q.75 0 1.12.54c.23.32.28.72.28 1.06v7.7c0 .38-.05.8-.27 1.13Q6.35 18 5.6 18H4.12q.29 1.51 1.17 2.5c.81.93 2 1.5 3.51 1.5H9v-1h7v3H9v-1h-.2a5.5 5.5 0 0 1-4.26-1.83A6.3 6.3 0 0 1 3.1 18H3v-1a3 3 0 0 1-2.13-1.44A5.6 5.6 0 0 1 0 12.5c0-1.14.32-2.24.87-3.06A3 3 0 0 1 3 8zm0 2.82c-.46.07-.92.4-1.3.97-.42.65-.7 1.55-.7 2.51s.28 1.86.7 2.51q.59.86 1.3.97zM4 17h1.6q.17 0 .21-.04l.08-.07q.1-.12.11-.59V8.6q-.01-.38-.1-.5c-.03-.03-.09-.1-.3-.1H4zm6 5v1h5v-1zM20 8h-1.6c-.21 0-.27.07-.3.1q-.09.12-.1.5v7.7q.01.46.1.6.04.04.09.06.05.03.21.04H20zm1 8c.48-.04.96-.37 1.34-.98.4-.65.66-1.55.66-2.52s-.26-1.87-.66-2.52c-.38-.61-.86-.94-1.34-.98z"/></svg>