<svg width="24" height="24" fill="none" xmlns="http://www.w3.org/2000/svg"><path fill="currentColor" d="M19.5 2a.5.5 0 0 0-.5.5v4q0 .15.17.33t.33.17h1.1c.3 0 .5-.24.5-.5v-4a.5.5 0 0 0-.17-.33.5.5 0 0 0-.33-.17zm-1.5.5c0-.74.6-1.5 1.5-1.5h1.1c.41 0 .78.2 1.04.46s.46.63.46 1.04v4c0 .74-.6 1.5-1.5 1.5h-1.1c-.41 0-.78-.2-1.04-.46A1.5 1.5 0 0 1 18 6.5zm-1.42 8.9a17 17 0 0 0-2.82 4.69v.02a11 11 0 0 0-.86 3.36L14.85 22h.23l.53-1.17 4.33-9.43c.2-.48.18-.96.05-1.44a2 2 0 0 0-1.57.03q-.91.4-1.84 1.4M15.4 22.5l.46.2-.14.3h-3.45L2 21.95v-2.43c-.11-1.48 1-2.7 2.46-2.82h.44c1.35 0 3.3.6 4.86 1.18a45 45 0 0 1 2.22.89c.15-1.04.43-2.12.86-3.07a18 18 0 0 1 3-4.97 6 6 0 0 1 2.2-1.66 3 3 0 0 1 2.59.09l.18.09.06.2c.22.65.36 1.49-.01 2.35v.01a1074 1074 0 0 0-4.34 9.43l-.66 1.47zm-1.81-.5-1.66-2.16a40 40 0 0 0-2.52-1.02c-1.57-.58-3.36-1.12-4.51-1.12h-.38c-.93.09-1.6.86-1.52 1.76v1.59l9.33.95z"/></svg>