<svg width="16" height="16" fill="none" xmlns="http://www.w3.org/2000/svg"><path fill="currentColor" d="M13.05 1.05a.2.2 0 0 0-.05.12v2.67l.01.03.05.07.1.06h.67q.09 0 .12-.05a.2.2 0 0 0 .05-.12V1.16l-.01-.03-.05-.07-.07-.05h-.03V1h-.67a.2.2 0 0 0-.12.05M12 1.17C12 .59 12.46 0 13.17 0h.66c.33 0 .62.16.82.35.2.2.35.49.35.82v2.66C15 4.41 14.54 5 13.83 5h-.66c-.33 0-.62-.16-.82-.35-.19-.2-.35-.49-.35-.82zm-.78 6.27a8 8 0 0 0-1.76 2.75v.02c-.17.35-.4.9-.59 1.43q-.25.69-.34 1.18l1.78 1.78 1.07-2.74c.7-1.78 1.48-3.74 1.76-4.33a2 2 0 0 0 .19-.7c-.67-.33-1.38-.1-2.1.6m-.72 8.06.47.18-.13.32H8.46l-7.3-1.24V13q0-.9.5-1.46c.35-.36.81-.53 1.3-.57h.31c.94 0 2.2.42 3.17.8q.7.28 1.19.5.13-.48.3-.96c.2-.57.44-1.13.61-1.5a9 9 0 0 1 1.99-3.1c.87-.83 2.05-1.4 3.3-.75.48.25.52.75.5 1.06-.04.33-.17.67-.27.91v.02c-.27.54-1.03 2.47-1.74 4.27l-1.24 3.17-.11.29zM9.3 15l-1.6-1.59-.41-.2-1.21-.51a9 9 0 0 0-2.81-.73h-.25q-.44.05-.62.25c-.12.14-.23.37-.23.78v.91L8.54 15z"/></svg>