<svg width="48" height="48" fill="none" xmlns="http://www.w3.org/2000/svg"><path fill="currentColor" d="M37.5 3c-.82 0-1.5.68-1.5 1.5v5c0 .82.68 1.5 1.5 1.5h3c.83 0 1.5-.68 1.5-1.5v-5c0-.82-.67-1.5-1.5-1.5zM35 4.5A2.5 2.5 0 0 1 37.5 2h3A2.5 2.5 0 0 1 43 4.5v5a2.5 2.5 0 0 1-2.5 2.5h-3A2.5 2.5 0 0 1 35 9.5zM24.7 38.83l4.63 5.95.46-.12.03-.09.27-.72a1336 1336 0 0 1 3.97-10.75c1.14-3.04 2.33-6.19 3.35-8.79a74 74 0 0 1 2.35-5.54c.87-1.65.8-2.48.65-2.86a1 1 0 0 0-.36-.43h-.02l-.02-.02H40c-2.03-.97-3.94-.47-5.77 1.04-1.84 1.53-3.52 4.05-4.95 6.93a52 52 0 0 0-3.35 8.9 30 30 0 0 0-1.22 6.5M30.2 45l.47.17-.03.09-.06.06q-.11.15-.4.26-.26.1-.9.23c-.88.15-2.43.29-5.18.29h-.03L4 43.44v-4.42l-.01-.2a5.4 5.4 0 0 1 .46-2.33c.3-.65.78-1.3 1.56-1.8a6 6 0 0 1 3.2-.79c2.7 0 6.52 1.18 9.62 2.33a84 84 0 0 1 4.9 2c.12-1.53.55-3.73 1.22-6.17A53 53 0 0 1 28.38 23c1.45-2.93 3.2-5.6 5.2-7.25 2.02-1.68 4.35-2.37 6.82-1.2h.01l.09.05.26.16c.2.16.43.4.58.8.3.76.23 1.93-.7 3.68-.43.82-1.27 2.84-2.3 5.45-1.02 2.6-2.2 5.73-3.35 8.77a1329 1329 0 0 0-3.96 10.74l-.27.73-.09.25zM5 38.95v3.62l19.13 2.53c1.9 0 3.19-.07 4.06-.16l-4.3-5.54-1.5-.66c-1-.43-2.37-1-3.91-1.57-3.1-1.15-6.78-2.27-9.28-2.27a5 5 0 0 0-2.66.64 3 3 0 0 0-1.18 1.37A4 4 0 0 0 5 38.94"/></svg>