<svg width="24" height="24" fill="none" xmlns="http://www.w3.org/2000/svg"><path fill="currentColor" d="m23.6 4.58-1.2 9.08v.03l-.06.27q-.05.26-.2.66c-.2.45-.58 1.11-1.34 1.27l-9.86 2.2h-.04q-.06.03-.18.05-.23.07-.64.12c-.55.05-1.33.05-2.28-.17-1.92-.46-4.48-1.8-7.29-5.28l-.46-.56 10.9-3.55.23.5.17.32q.17.3.6.67c.6.48 1.55.91 3.05.91q1.29 0 1.94-.66c.43-.42.58-.97.62-1.45a4 4 0 0 0-.29-1.86l-.15-.44zm-4.2 4.45-.45 3.18-9.15 2.7h-.2q-.26.01-.77-.13a6 6 0 0 1-2.13-1.16l3.44-1.04-.29-.96-5.12 1.55.62.6a8 8 0 0 0 3.21 1.97 4 4 0 0 0 1.4.16h.02l-.08-.5.08.5.03-.01 9.84-2.9.54-3.82z"/><path fill="currentColor" d="m12.1 8.81-.19-.42L16.17 7l.16.47v.01l.01.03.13.42c.06.28.12.64.1.98q-.04.52-.33.82c-.2.19-.55.37-1.24.37-1.3 0-2.02-.37-2.41-.69a2 2 0 0 1-.48-.58z"/></svg>