<svg width="24" height="24" fill="none" xmlns="http://www.w3.org/2000/svg"><path fill="currentColor" d="m3.53 9.02-3.5-2.2.54-.84 3.5 2.2zm16.69-.83 3.2-2.2.56.82-3.2 2.2zM7.12 6.52h.02c.74.55 1.68 1.24 2.43 2.04.77.8 1.43 1.8 1.43 2.94s-.66 2.14-1.43 2.94-1.71 1.45-2.46 1.95c-.35.31-.8.31-.98.31H6.1a1.1 1.1 0 0 1-.9-.53 1.3 1.3 0 0 1-.2-.92V7.67c0-.18 0-.67.35-1.02q.34-.35.84-.42c.3-.04.66.03.93.29m-.8.7a.5.5 0 0 0-.27.13l-.03.1q-.03.1-.02.25v7.66l-.01.06a.3.3 0 0 0 .04.21q.06.08.07.07.15 0 .25-.02.1-.01.1-.03l.03-.04.04-.03c.75-.5 1.64-1.12 2.33-1.84.7-.73 1.15-1.48 1.15-2.24s-.44-1.51-1.15-2.26a18 18 0 0 0-2.33-1.92l-.05-.04-.02-.03q-.02-.04-.14-.03m11.37 0q-.12 0-.14.03l-.02.03-.05.04a18 18 0 0 0-2.33 1.92c-.7.75-1.15 1.5-1.15 2.26s.44 1.51 1.15 2.24c.7.72 1.58 1.35 2.33 1.84l.04.03.03.04.1.03q.1.03.25.02l.07-.07a.3.3 0 0 0 .04-.2l-.01-.07V7.7l-.02-.3-.03-.05a.5.5 0 0 0-.26-.13m.12-1q.5.08.84.43c.35.34.35.73.35 1.01v7.59c.06.33-.03.67-.2.92a1.1 1.1 0 0 1-.9.53h-.03c-.17 0-.63 0-.98-.3-.75-.5-1.7-1.17-2.46-1.96-.77-.8-1.43-1.8-1.43-2.94s.66-2.14 1.43-2.94c.75-.8 1.7-1.5 2.43-2.03l.02-.01c.27-.26.62-.33.93-.3M4 12H0v-1h4zm16-1h4v1h-4zM4.07 14.82l-3.5 2.2-.54-.84 3.5-2.2zM20.78 14l3.2 2.2-.56.82-3.2-2.2z"/></svg>