<svg width="24" height="24" fill="none" xmlns="http://www.w3.org/2000/svg"><path fill="currentColor" d="M18.65 6.65a1.5 1.5 0 0 0-.84-.42c-.3-.04-.66.03-.93.29h-.02c-.74.55-1.68 1.24-2.43 2.04-.77.8-1.43 1.8-1.43 2.94s.66 2.14 1.43 2.94 1.71 1.45 2.46 1.95c.34.31.8.31.98.31h.03c.42 0 .73-.26.9-.53.17-.25.26-.59.2-.92V7.66c0-.28 0-.67-.35-1.01M7.14 6.53l-.02-.01a1.2 1.2 0 0 0-.93-.3q-.5.08-.84.43C5 7 5 7.49 5 7.67v7.58c-.06.33.03.67.2.92.17.27.48.53.9.53h.03c.17 0 .63 0 .98-.3.75-.5 1.7-1.17 2.46-1.96.77-.8 1.43-1.8 1.43-2.94s-.66-2.14-1.43-2.94c-.75-.8-1.7-1.5-2.43-2.03M3.4 9.23 0 7.03l.82-1.26 3.38 2.2zm16.66-1.24 3.06-2.2.88 1.22-3.06 2.2zM4 12.25H0v-1.5h4zm16-1.5h4v1.5h-4zM4.2 15.03l-3.37 2.2L0 15.97l3.38-2.2zm16.74-1.24L24 16l-.88 1.22-3.06-2.2z"/></svg>