<svg width="48" height="48" fill="none" xmlns="http://www.w3.org/2000/svg"><path fill="currentColor" d="M19.25 36.98c-3.48 0-9.83-1.54-17.23-10.56l-.46-.56L46.1 10.77 44 28.26c-.01.15-.46 3.56-2.68 4.03l-19.26 4.29c-.23.08-1.22.4-2.8.4zm-16-10.64c5.32 6.29 10 8.5 13.02 9.24 3.34.82 5.43.06 5.45.05l.07-.02 19.3-4.3c1.5-.32 1.9-3.14 1.9-3.17l1.92-15.91-9.88 3.35c.12.91.37 3.93-1.25 5.87Q32.4 23.1 29.8 23.1c-5.11 0-6.5-2.63-6.81-3.45zm20.8-6.74c.43.81 1.79 2.5 5.75 2.5q2.12 0 3.2-1.29c1.2-1.42 1.17-3.67 1.08-4.73zM34 28h-1v-1h1zm-2 0h-1v-1h1zm-2 0h-1v-1h1zm-2 0h-1v-1h1zm-2 0h-1v-1h1zm-2 0h-1v-1h1zm-2 0h-1v-1h1zm-2 0h-1v-1h1zm-2 0h-1v-1h1zm-2 0h-1v-1h1zm-2 0h-1v-1h1zm22-1h-1v-1h1zm2-1h-1v-1h1zm1-2h-1v-1h1zm0-2h-1v-1h1zm0-2h-1v-1h1zm0-2h-1v-1h1z"/></svg>