<svg width="16" height="16" fill="none" xmlns="http://www.w3.org/2000/svg"><path fill="currentColor" d="M10.76 3.66a1.3 1.3 0 0 1 2.24.87v7.94a1.3 1.3 0 0 1-2.24.87l-.02-.02c-.37-.4-.57-.62-.73-.83a6.5 6.5 0 0 1 0-7.98c.16-.2.36-.43.73-.83zm1.24.87a.3.3 0 0 0-.5-.2c-.4.43-.57.62-.7.8a5.5 5.5 0 0 0 0 6.74c.13.18.3.37.7.8.17.19.5.06.5-.2zm-7.5-.2a.3.3 0 0 0-.5.2v7.94c0 .26.33.39.5.2.4-.43.57-.62.7-.8a5.5 5.5 0 0 0 0-6.74c-.13-.18-.3-.37-.7-.8m-1.5.2a1.3 1.3 0 0 1 2.24-.87l.02.02c.37.4.57.62.73.83a6.5 6.5 0 0 1 0 7.98c-.16.2-.36.43-.73.83l-.02.02c-.8.87-2.24.3-2.24-.87zM1.67 5.98.42 4.88l.66-.76 1.25 1.1zm12-.76 1.25-1.1.66.76-1.25 1.1zM2 9H0V8h2zm12-1h2v1h-2zM2.32 11.78l-1.25 1.05-.64-.76 1.25-1.05zm12-.76 1.25 1.05-.64.76-1.25-1.05z"/></svg>