<svg width="24" height="24" fill="none" xmlns="http://www.w3.org/2000/svg"><path fill="currentColor" d="m23.6 4.58-1.2 9.08v.03l-.06.27q-.06.26-.2.66c-.2.45-.58 1.11-1.34 1.27l-9.86 2.2-.22.05q-.23.07-.64.12c-.55.05-1.33.05-2.28-.17-1.92-.46-4.48-1.8-7.29-5.28l-.46-.56zm-2.2 8.96 1-7.52-4.97 1.62.01.06c.08.34.16.8.12 1.29-.04.48-.2 1.03-.62 1.45q-.66.65-1.94.66c-1.5 0-2.39-.43-2.9-.95a2 2 0 0 1-.45-.63l-9.9 3.23c2.5 2.9 4.71 4 6.28 4.36a6 6 0 0 0 2.45.06q.09 0 .11-.03h.03l.03-.02 9.95-2.21q.36-.08.61-.68a3 3 0 0 0 .2-.68zM12.61 9.2q.07.1.2.24c.28.28.89.65 2.19.65.69 0 1.04-.18 1.24-.37q.3-.3.32-.82c.03-.33-.02-.68-.09-.96zM20 10h-1V9h1zm0 2h-1v-1h1zm-2 1h-1v-1h1zM8 14H7v-1h1zm2 0H9v-1h1zm2 0h-1v-1h1zm2 0h-1v-1h1zm2 0h-1v-1h1z"/></svg>