<svg width="24" height="24" fill="none" xmlns="http://www.w3.org/2000/svg"><path fill="currentColor" d="M23.23 1.35 1.73 22.98l-.71-.7L22.52.64zM12.58 3.03c1.15.45 2.52 1 3.9 1.65.06.03.23.12.36.25l-.7.71-.07-.05h-.01a67 67 0 0 0-3.84-1.62c-.65-.26-1.22-.22-1.6-.02-.36.2-.62.57-.62 1.15V12H9V5.1c0-.92.44-1.65 1.15-2.03a3 3 0 0 1 2.43-.04m7.18 3.37.15.1c1.11.69 2.12 1.44 2.85 2.26A4.2 4.2 0 0 1 24 11.5c0 1.03-.53 1.97-1.29 2.8s-1.81 1.6-2.96 2.31a53 53 0 0 1-7.16 3.45c-.86.35-1.74.34-2.44-.03A2.2 2.2 0 0 1 9 18v-1h1v1c0 .58.26.95.62 1.15.38.2.95.24 1.6-.01a52 52 0 0 0 7-3.38 13 13 0 0 0 2.75-2.14Q23 12.51 23 11.5q0-.99-.98-2.07a12 12 0 0 0-2.81-2.2l-.24-.17.7-.72.02.01zM7 8H0V7h7zm0 4H0v-1h7zm-1 4H0v-1h6z"/></svg>