<svg width="24" height="24" fill="none" xmlns="http://www.w3.org/2000/svg"><path fill="currentColor" d="M17.76 9.9q-.02.15-.17.16h-1.67v.64h1.67q.15.01.17.17v.6q-.02.16-.17.17h-1.67v.63h1.67q.15.02.17.17v.6q-.02.16-.17.17h-2.46l-.11-.05a.2.2 0 0 1-.06-.12V9.3a.2.2 0 0 1 .05-.12.2.2 0 0 1 .12-.05h2.46q.15.02.17.17zm-3.4 3.14q-.01.16-.16.17h-.67l-.01-.01h-.02v-.01h-.01l-.05-.05-1.75-2.32v2.22q-.01.16-.17.17h-.61a.2.2 0 0 1-.17-.17V9.3q.02-.15.17-.17h.63l.02.01h.02l.02.01h.01v.01h.01v.01h.02v.01l.01.01.02.02 1.74 2.32V9.3q.02-.15.17-.17h.62q.16.02.17.17zm-4.22 0q-.01.16-.17.17h-.61a.2.2 0 0 1-.17-.17V9.3q.01-.15.17-.17h.61q.16.02.17.17zm-1.48 0q-.01.16-.17.17H6.04a.2.2 0 0 1-.12-.05.2.2 0 0 1-.05-.12V9.3q.02-.15.17-.17h.61q.16.02.17.17v2.98H8.5q.16.02.17.17zM20.5 11c0-3.87-3.93-7-8.75-7S3 7.13 3 10.99c0 3.45 3.11 6.34 7.32 6.89.28.06.67.18.77.42.09.22.06.56.03.78l-.13.74c-.04.22-.17.85.76.46s5.04-2.92 6.87-5a6.2 6.2 0 0 0 1.88-4.3"/></svg>