<svg width="48" height="48" fill="none" xmlns="http://www.w3.org/2000/svg"><path fill="currentColor" fill-rule="evenodd" d="M25.54 13.5c0-4.7 3.8-8.5 8.5-8.5H36c4.7 0 8.5 3.8 8.5 8.5v7h-1v-7A7.5 7.5 0 0 0 36 6h-1.96a7.5 7.5 0 0 0-7.5 7.5V20H32v24H4V20h21.54zM5 21v22h26V21zm12.3 5.09a3 3 0 0 0-2.21 2.22 3.1 3.1 0 0 0 1.63 3.44l.28.14V37h2v-5.08l.24-.15c.91-.54 1.76-1.6 1.76-2.77a3 3 0 0 0-3.7-2.91m-.2-.98A4 4 0 0 1 22 29a4.4 4.4 0 0 1-2 3.47V38h-4v-5.5a4.1 4.1 0 0 1-1.89-4.41 4 4 0 0 1 2.98-2.98" clip-rule="evenodd"/></svg>