<svg width="48" height="48" fill="none" xmlns="http://www.w3.org/2000/svg"><path fill="currentColor" d="M7 2h30.5A3.5 3.5 0 0 1 41 5.5v37a3.5 3.5 0 0 1-3.5 3.5H7v-6H5v-1h2V9H5V8h2zm1 7v30h1.9v1H8v5h29.5a2.5 2.5 0 0 0 2.5-2.5v-37A2.5 2.5 0 0 0 37.5 3H8v5h1.9v1zm5 14a11 11 0 1 1 22 0 11 11 0 0 1-22 0m1.05-1q-.05.5-.05 1c0 2.84 1.18 5.4 3.08 7.22l3.52-3.53a5 5 0 0 1-.6-2.44v-.02c0-.61 0-1.34.14-2l.05-.23zm.15-1h6.43q.23-.33.6-.57c.3-.2.76-.3 1.2-.37a11 11 0 0 1 3.14 0c.44.07.9.18 1.2.37q.37.24.6.57h6.43a10 10 0 0 0-19.6 0m19.75 1h-6.14l.05.23c.14.66.14 1.39.14 2v.02q0 1.4-.6 2.44l3.52 3.53A10 10 0 0 0 33.95 22m-3.78 8.87-3.4-3.39A4 4 0 0 1 24 28.5a4 4 0 0 1-2.77-1.02l-3.4 3.4a9.96 9.96 0 0 0 12.34 0m-7.6-9.82q-.65.11-.8.22-.5.32-.66 1.16a10 10 0 0 0-.11 1.82c0 1.03.3 1.84.8 2.38.48.54 1.21.87 2.2.87s1.72-.33 2.2-.87c.5-.54.8-1.35.8-2.38 0-.64 0-1.27-.11-1.82q-.16-.84-.66-1.16a2 2 0 0 0-.8-.22 10 10 0 0 0-2.85 0"/></svg>