<svg width="24" height="24" fill="none" xmlns="http://www.w3.org/2000/svg"><path fill="currentColor" d="M8.16 10.17a5.5 5.5 0 0 1 10.68 0h-3.25q-.15-.2-.39-.37c-.21-.14-.52-.2-.77-.24a7 7 0 0 0-1.86 0c-.25.04-.56.1-.77.24q-.24.15-.39.37zm-.15 1h3.04q-.06.53-.05.97v.03q0 .76.3 1.37l-1.77 1.77a5.5 5.5 0 0 1-1.52-4.14m7.94 0H19a5.6 5.6 0 0 1-1.52 4.14l-1.77-1.77q.3-.61.3-1.37v-.03c0-.28 0-.63-.05-.97m.74 4.8a5.5 5.5 0 0 1-6.41 0l1.65-1.65q.64.49 1.56.49.91 0 1.56-.5zm-4.36-5.33.1-.03.28-.06a6 6 0 0 1 1.94.1q.19.1.28.52.08.44.06 1-.02.82-.4 1.21-.34.41-1.1.43-.76-.02-1.1-.43-.38-.39-.4-1.21-.02-.56.06-1c.06-.3.16-.45.28-.53"/><path fill="currentColor" d="M23 3.5v17a2.5 2.5 0 0 1-2.5 2.5H3v-3.75H1v-1.5h2V6.25H1v-1.5h2V1h17.5A2.5 2.5 0 0 1 23 3.5m-16 8a6.5 6.5 0 1 0 13 0 6.5 6.5 0 0 0-13 0"/></svg>