<svg width="24" height="24" fill="none" xmlns="http://www.w3.org/2000/svg"><path fill="currentColor" d="M3 1h17.5A2.5 2.5 0 0 1 23 3.5v17a2.5 2.5 0 0 1-2.5 2.5H3v-4H1v-1h2V6H1V5h2zm1 5v12h2v1H4v3h16.5c.83 0 1.5-.67 1.5-1.5v-17c0-.83-.67-1.5-1.5-1.5H4v3h2v1zm3 5.5a6.5 6.5 0 1 1 13 0 6.5 6.5 0 0 1-13 0m1.01-.33a5.6 5.6 0 0 0 1.52 4.14l1.77-1.77q-.3-.61-.3-1.37v-.03c0-.28 0-.63.05-.97zm.15-1h3.25q.15-.2.39-.37c.21-.13.52-.2.77-.24a7 7 0 0 1 1.86 0c.25.04.56.1.77.24q.24.15.39.37h3.25a5.5 5.5 0 0 0-10.68 0m10.83 1h-3.04q.06.53.05.97v.03q0 .76-.3 1.37l1.77 1.77a5.5 5.5 0 0 0 1.52-4.14m-2.28 4.8-1.65-1.65q-.64.49-1.56.49-.91 0-1.56-.5l-1.65 1.66a5.5 5.5 0 0 0 6.42 0m-4.27-5.36-.1.03q-.19.1-.28.53-.08.44-.06 1 .02.82.4 1.21.34.41 1.1.43.76-.02 1.1-.43.38-.39.4-1.21.02-.56-.06-1c-.06-.3-.16-.45-.28-.53l-.1-.03-.28-.06a6 6 0 0 0-1.84.06"/></svg>