<svg width="24" height="24" fill="none" xmlns="http://www.w3.org/2000/svg"><path fill="currentColor" d="m14.28.21 1.82 1.22-.53 1.56 4.57 4.57 1.56-.53 1.22 1.82-.84.56-.78-1.18-.9.3-.3.9 1.18.78-.56.84-1.82-1.22.53-1.56-4.56-4.57-1.57.53-1.22-1.82.84-.56.78 1.18.9-.3.3-.9-1.18-.78zM6.2 8.95A10 10 0 0 0 5 14c0 2 .47 3.78 1.21 5.05.75 1.28 1.7 1.95 2.65 1.95h1.43q-.6-.61-1.06-1.46A12 12 0 0 1 8 14a12 12 0 0 1 1.23-5.54q.46-.85 1.06-1.46H8.86c-.95 0-1.9.67-2.65 1.95m5.93-2.93L12.5 6c1.38 0 2.51 1.04 3.27 2.46C16.54 9.9 17 11.86 17 14s-.46 4.1-1.23 5.54c-.76 1.42-1.9 2.46-3.27 2.46l-.36-.02V22H8.86c-1.45 0-2.68-1.01-3.51-2.45A11 11 0 0 1 4 14c0-2.14.5-4.1 1.35-5.55C6.18 7 7.4 6 8.86 6h3.28zM10.1 8.93A11 11 0 0 0 9 14c0 2 .43 3.8 1.11 5.07.7 1.3 1.56 1.93 2.39 1.93s1.7-.64 2.39-1.93A11 11 0 0 0 16 14c0-2-.43-3.8-1.11-5.07C14.19 7.63 13.33 7 12.5 7s-1.7.64-2.39 1.93m1.64 2.42c.18-.19.43-.35.75-.35s.57.16.75.35q.27.3.42.7c.21.52.33 1.21.33 1.95s-.12 1.43-.33 1.95q-.15.4-.42.7c-.18.19-.43.35-.75.35s-.57-.16-.75-.35a2 2 0 0 1-.42-.7A5 5 0 0 1 11 14c0-.74.12-1.43.33-1.95q.15-.4.42-.7m.5 1.07c-.14.38-.25.94-.25 1.58s.1 1.2.26 1.58a1 1 0 0 0 .24.4l.03-.02q.1-.1.21-.38c.15-.38.26-.94.26-1.58s-.1-1.2-.26-1.58a1 1 0 0 0-.24-.4l-.03.02q-.1.1-.21.38"/></svg>