<svg width="24" height="24" fill="none" xmlns="http://www.w3.org/2000/svg"><path fill="currentColor" d="M8.86 6h3.64c-1.38 0-2.51 1.04-3.27 2.46A12 12 0 0 0 8 14a12 12 0 0 0 1.23 5.54c.76 1.42 1.9 2.46 3.27 2.46H8.86c-1.45 0-2.68-1.01-3.51-2.45A11 11 0 0 1 4 14c0-2.14.5-4.1 1.35-5.55C6.18 7 7.4 6 8.86 6"/><path fill="currentColor" d="M12 14c0-.64.1-1.2.26-1.58a1 1 0 0 1 .24-.4l.03.02q.1.1.21.38c.15.38.26.94.26 1.58s-.1 1.2-.26 1.58a1 1 0 0 1-.24.4l-.03-.02a1 1 0 0 1-.21-.38A4 4 0 0 1 12 14"/><path fill="currentColor" d="M10.11 8.93C10.81 7.63 11.67 7 12.5 7s1.7.64 2.39 1.93A11 11 0 0 1 16 14c0 2-.43 3.8-1.11 5.07-.7 1.3-1.56 1.93-2.39 1.93s-1.7-.64-2.39-1.93A11 11 0 0 1 9 14c0-2 .43-3.8 1.11-5.07M12.5 11c-.32 0-.57.16-.75.35a2 2 0 0 0-.42.7A5 5 0 0 0 11 14c0 .74.12 1.43.33 1.95q.15.4.42.7c.18.19.43.35.75.35s.57-.16.75-.35q.27-.3.42-.7c.21-.52.33-1.21.33-1.95s-.12-1.43-.33-1.95a2 2 0 0 0-.42-.7 1 1 0 0 0-.75-.35m1.92-11 1.97 1.32-.53 1.6 4.34 4.35 1.6-.53 1.32 1.97-1.24.84-.69-1.03-.6.2-.2.6 1.03.69-.84 1.24-1.97-1.31.53-1.6-4.34-4.35-1.6.53-1.32-1.97 1.24-.84.69 1.03.6-.2.2-.6-1.03-.69z"/></svg>