<svg width="24" height="24" fill="none" xmlns="http://www.w3.org/2000/svg"><path fill="currentColor" d="M8.5 2.5h3A2.5 2.5 0 0 1 14 5v3a2.5 2.5 0 0 1-2.5 2.5h-3A2.5 2.5 0 0 1 6 8V5a2.5 2.5 0 0 1 2.5-2.5m3 10v.1c0 4.03 1.08 6.77 2.25 8.54l.24.36H3v-7.4q0-.65.4-1.08.42-.42 1.02-.51l.04-.01zm5.04 10.2-.5-.4a9 9 0 0 1-1.46-1.71c-1.05-1.6-2.08-4.15-2.08-7.99v-.5h.5c1 0 1.93-.46 2.62-.96a7 7 0 0 0 1.09-.95l.01-.01.4-.46.37.46.01.02.26.28q.28.29.76.67c.65.5 1.5.95 2.38.95h.5v.5c0 3.65-1 6.19-2.02 7.83a10 10 0 0 1-2.03 2.34l-.06.04-.08.05-.18.13-.1-.06-.24-.14z"/></svg>