<svg width="24" height="24" fill="none" xmlns="http://www.w3.org/2000/svg"><path fill="currentColor" d="M8.5 3.5C7.68 3.5 7 4.18 7 5v3c0 .82.68 1.5 1.5 1.5h3c.83 0 1.5-.68 1.5-1.5V5c0-.82-.67-1.5-1.5-1.5zM6 5a2.5 2.5 0 0 1 2.5-2.5h3A2.5 2.5 0 0 1 14 5v3a2.5 2.5 0 0 1-2.5 2.5h-3A2.5 2.5 0 0 1 6 8zm10.72 5.17.4-.45.37.46.01.02.26.28q.28.29.76.67c.65.5 1.5.95 2.38.95h.5v.5c0 3.65-1 6.19-2.02 7.83a10 10 0 0 1-2.03 2.34l-.04.03h-.02v.01L17 22.4l-.25.43h-.02l-.19-.14q-.19-.12-.5-.4c-.4-.35-.93-.9-1.46-1.7-1.05-1.6-2.08-4.15-2.08-7.99v-.5h.5c1 0 1.93-.46 2.62-.96a7 7 0 0 0 1.09-.95zM17 22.4l-.25.43.28.16.26-.18zm-.02-.63.28-.26c.34-.34.8-.87 1.27-1.61a13.3 13.3 0 0 0 1.87-6.83 5.4 5.4 0 0 1-2.49-1.12 8 8 0 0 1-.82-.72q-.32.31-.89.73a6 6 0 0 1-2.7 1.11c.09 3.39 1.02 5.6 1.92 6.97a8 8 0 0 0 1.56 1.73M3 14.51v-.28q.02-.27.14-.65c.1-.25.25-.52.51-.73q.4-.34 1.05-.35H10v1H4.7q-.31.02-.42.12a1 1 0 0 0-.2.3 2 2 0 0 0-.08.54v6.04h9v1H3z"/></svg>