<svg width="48" height="48" fill="none" xmlns="http://www.w3.org/2000/svg"><path fill="currentColor" d="M16 7.5a2.6 2.6 0 0 0-2.5 2.5v7c0 1.32 1.18 2.5 2.5 2.5h7c1.32 0 2.5-1.18 2.5-2.5v-7c0-1.32-1.18-2.5-2.5-2.5zM12.5 10c0-1.88 1.62-3.5 3.5-3.5h7c1.88 0 3.5 1.62 3.5 3.5v7c0 1.88-1.62 3.5-3.5 3.5h-7a3.6 3.6 0 0 1-3.5-3.5zm21.1 9.19.4-.49.39.48v.01l.03.03.48.52c.34.35.83.8 1.44 1.26A8 8 0 0 0 41 22.8h.5v.5c0 6.35-1.78 10.74-3.58 13.56a17 17 0 0 1-3.3 3.8l-.31.24h-.02v.01h-.01L34 40.5l-.25.43-.03-.01-.3-.2a15 15 0 0 1-3.33-3.59c-1.81-2.74-3.59-7.14-3.59-13.83v-.5h.5c1.84 0 3.49-.88 4.7-1.8a13 13 0 0 0 1.88-1.78zM34 40.5l-.25.43.27.16.26-.17zm-.02-.61q.29-.22.77-.68c.63-.61 1.48-1.56 2.33-2.9 1.65-2.58 3.33-6.64 3.42-12.53a9.3 9.3 0 0 1-4.76-1.98A14 14 0 0 1 34 20.25a13 13 0 0 1-1.7 1.55 9 9 0 0 1-4.8 1.98c.08 6.23 1.76 10.3 3.4 12.8a14 14 0 0 0 3.07 3.3M7.5 26.72V39.5h21v1h-22V26.66l.5.04-.5-.04v-.01l.02-.15.08-.37c.08-.3.23-.7.5-1.1.55-.84 1.58-1.63 3.4-1.63h12v1h-12c-1.48 0-2.2.61-2.57 1.18a3 3 0 0 0-.43 1.14"/></svg>