<svg width="48" height="48" fill="none" xmlns="http://www.w3.org/2000/svg"><path fill="currentColor" d="M16 7.5a2.58 2.58 0 0 0-2.5 2.5v7c0 1.32 1.18 2.5 2.5 2.5h7c1.32 0 2.5-1.18 2.5-2.5v-7c0-1.32-1.18-2.5-2.5-2.5h-7ZM12.5 10c0-1.88 1.62-3.5 3.5-3.5h7c1.88 0 3.5 1.62 3.5 3.5v7c0 1.88-1.62 3.5-3.5 3.5h-7a3.58 3.58 0 0 1-3.5-3.5v-7Zm21.1 9.19.4-.49.39.48v.01l.03.03a7.44 7.44 0 0 0 .48.52c.34.35.83.8 1.44 1.26A8.01 8.01 0 0 0 41 22.8h.5v.5c0 6.35-1.78 10.74-3.58 13.56a17.12 17.12 0 0 1-3.3 3.8 7.04 7.04 0 0 1-.31.24h-.02v.01h-.01L34 40.5l-.25.43-.03-.01a3.27 3.27 0 0 1-.3-.2 14.73 14.73 0 0 1-3.33-3.59c-1.81-2.74-3.59-7.14-3.59-13.83v-.5h.5c1.84 0 3.49-.88 4.7-1.8a12.48 12.48 0 0 0 1.88-1.78l.02-.02v-.01ZM34 40.5l-.25.43.27.16.26-.17-.28-.42Zm-.02-.61a16.12 16.12 0 0 0 3.09-3.56c1.66-2.6 3.34-6.66 3.43-12.55a9.32 9.32 0 0 1-4.76-1.98A14.18 14.18 0 0 1 34 20.25a12.8 12.8 0 0 1-1.7 1.55 9.23 9.23 0 0 1-4.8 1.98c.08 6.23 1.76 10.3 3.4 12.8a13.73 13.73 0 0 0 3.07 3.3Zm-.26.2ZM7.5 26.72V39.5h21v1h-22V26.66l.5.04-.5-.04v-.01a1.66 1.66 0 0 1 .02-.15l.08-.37c.08-.3.23-.7.5-1.1.55-.84 1.58-1.63 3.4-1.63h12v1h-12c-1.48 0-2.2.61-2.57 1.18a2.81 2.81 0 0 0-.43 1.14Z"/></svg>