<svg width="48" height="48" fill="none" xmlns="http://www.w3.org/2000/svg"><path fill="currentColor" d="M9.78 8.02 8.51 10q-.46.74-1.16 2.01h17.3a45 45 0 0 0-2.43-3.98 78 78 0 0 0-12.44 0M25.3 13H6.71L5 14.7v.3h4v1H5v6.5c0 .28.22.5.5.5h2a.5.5 0 0 0 .5-.5v-1.55L24 21v1.5c0 .28.22.5.5.5h2a.5.5 0 0 0 .43-.25l.87.5a1.5 1.5 0 0 1-1.3.75h-2a1.5 1.5 0 0 1-1.5-1.5V22l-14-.04v.54c0 .83-.67 1.5-1.5 1.5h-2A1.5 1.5 0 0 1 4 22.5v-8.2l2.1-2.1a55 55 0 0 1 2.98-4.93l.14-.2.24-.02a80 80 0 0 1 13.08 0l.24.02.14.2q.81 1.23 1.41 2.2.6.95 1.57 2.73l2.1 2.1V16h-5v-1h4v-.3zm7.64-2.98 2.52 6.03 7.18-.82-3.57 4.58-.79-.62 2.1-2.7-5.56.64-1.73-4.15-1.65 5.53-5.5.6 4.75 3.02v3.91l1.93-2.48.8.61-3.73 4.79v-6.28L23 18.43l7.66-.85zM11.3 15h9.42l1.36 1.36-.1.3q-.46 1.5-.88 2.31-.2.41-.41.67c-.13.15-.36.36-.68.36h-8a1 1 0 0 1-.68-.36q-.21-.26-.41-.67-.4-.8-.89-2.32l-.09-.29zm.42 1-.64.64q.42 1.26.73 1.89.18.34.28.46l.01.01h7.82l.01-.01q.1-.12.28-.46.31-.63.73-1.9L20.3 16zm25.79 5.12L42.16 38h-9.32zM34.16 37h6.68L37.5 24.88zm8.82 3H32v-1h10.98z"/></svg>