<svg width="24" height="24" fill="none" xmlns="http://www.w3.org/2000/svg"><path fill="currentColor" d="M1 1h22v1H1zm0 3h22v16H1zm18.82 15H22V5h-2v4h-1V5h-3v14h1.5c.7 0 1.18-.26 1.53-.62.36-.38.6-.87.8-1.35.06-.19.06-.48-.05-.71a.7.7 0 0 0-.6-.42q-.74 0-1.37.49l-.62-.78c.59-.47 1.3-.71 2.01-.71h.05c.74.07 1.21.5 1.44 1 .22.49.22 1.05.08 1.46v.03c-.2.49-.49 1.1-.95 1.61M15 19V5H9v14zm-7 0V5H2v14zm-2.6-9H3V9h4l-2.95 5.92-.9-.44zM10 9h4v1h-3v1.63q.47.03 1.1.2c.39.12.83.3 1.18.61.36.32.62.77.62 1.36q0 .45-.21.8-.22.32-.55.5c-.4.22-.9.28-1.33.29a7 7 0 0 1-1.69-.2h-.04l.12-.49.12-.49.03.01.43.08c.28.05.65.1 1.01.09q.57-.01.87-.17.13-.07.18-.16l.06-.26q0-.38-.28-.6-.3-.27-.81-.4a5 5 0 0 0-1.29-.2H10zm13 14H1v-1h22z"/></svg>