<svg width="48" height="48" fill="none" xmlns="http://www.w3.org/2000/svg"><path fill="currentColor" d="M1 7h45v1H1zm0 4h13v26H1zm1 1v24h11V12zm15-1h13v26H17zm1 1v24h11V12zm15-1h13v26H33zm1 1v24h7v-2h-5.47L42 24.94V33h1v1h-1v2h3V12h-3.02a3.4 3.4 0 0 1-1.48 2.47c.48.27.82.64 1.05 1.02a3 3 0 0 1 .45 1.46V17l-.5.01h.5v.04l-.04.42q-.03.4-.25.98c-.14.36-.37.75-.73 1.05q-.55.48-1.46.51a4.6 4.6 0 0 1-3.35-1.12l.66-.76c.7.62 1.67.97 2.62.88h.05c.39 0 .65-.12.84-.27q.3-.26.45-.67a3 3 0 0 0 .2-1.02L41 17v-.02l-.04-.28q-.05-.31-.26-.7c-.27-.44-.8-.95-1.97-1l-.26-.01.03-1h.24a2.3 2.3 0 0 0 2.24-2zm7 21v-4.94L37.47 33zM9.67 20H4v-1h7.33L5.94 29.23l-.88-.46zM21 19h6v1h-5v3.01a11 11 0 0 1 2.14.35c.66.19 1.37.5 1.92 1 .56.5.94 1.21.94 2.14 0 .98-.5 1.64-1.18 2.05-.66.4-1.5.55-2.28.61a13 13 0 0 1-3.05-.16h-.07l.08-.5.09-.5.01.01h.05l.84.12c.54.05 1.26.09 1.97.03.72-.05 1.38-.2 1.85-.47.43-.26.69-.62.69-1.19a1.8 1.8 0 0 0-.62-1.4 4 4 0 0 0-1.52-.78 9 9 0 0 0-2.3-.32h-.05l-.51.01zm25 22H1v-1h45z"/></svg>