<svg width="16" height="16" fill="none" xmlns="http://www.w3.org/2000/svg"><path fill="currentColor" d="M0 0h16v1H0zm0 4V3h16v1h-2v2h-1V4zm3.4 2H1V5h4l-2.95 5.92-.9-.44zM6 5h3.5v1H7v1c.3 0 .7.04 1.1.12.41.1.87.25 1.24.53.39.3.66.75.66 1.35 0 .66-.28 1.16-.7 1.5-.4.32-.9.5-1.35.59a6 6 0 0 1-1.75.11h-.04l.09-1h.02l.44.02q.47 0 1.04-.1.57-.13.92-.4Q8.98 9.5 9 9q0-.36-.28-.56-.3-.22-.83-.34A5 5 0 0 0 6.56 8h-.02L6 8.03zm7.18 3.9q-.74 0-1.37.49l-.62-.78c.59-.47 1.3-.71 2.01-.71h.05c.7.07 1.23.41 1.52.92.28.5.28 1.12-.04 1.64a6 6 0 0 1-1.5 1.54H16v1H0v-1h11.38a9 9 0 0 0 .94-.57c.58-.4 1.21-.93 1.55-1.5q.19-.32.02-.62c-.1-.18-.32-.37-.71-.41M16 16H0v-1h16z"/></svg>