<svg width="24" height="24" fill="none" xmlns="http://www.w3.org/2000/svg"><path fill="currentColor" d="M1 4h7v16H1zm2 6h2.4l-2.25 4.48.9.44L7 9H3zm12 10H9V4h6zm-1-10V9h-4v3.6h.52l.38.02c.26.03.59.08.9.17q.51.15.82.4.28.23.28.61 0 .19-.06.26l-.18.16q-.3.15-.87.17a6 6 0 0 1-1.44-.17h-.02l-.13.48-.12.49h.04l.5.1c.32.05.75.1 1.19.1s.92-.07 1.33-.3q.32-.15.55-.5.21-.35.21-.79c0-.59-.26-1.04-.62-1.36-.35-.3-.8-.5-1.19-.6-.4-.13-.8-.18-1.09-.21V10zm5-1h1V4h3v16h-2v-.93h-1.25c.5-.52.8-1.17 1.01-1.68v-.02l.01-.01c.14-.41.14-.97-.08-1.45-.23-.52-.7-.94-1.44-1l-.03-.01h-.02c-.71 0-1.42.24-2.01.71l.62.78c.4-.32.89-.48 1.37-.49.34.04.5.21.6.42.1.23.1.52.05.71-.2.48-.44.97-.8 1.35-.35.36-.83.62-1.53.62v1H16V4h3zM1 1h22v1.5H1zm22 22H1v-1.5h22z"/></svg>