<svg width="48" height="48" fill="none" xmlns="http://www.w3.org/2000/svg"><path fill="currentColor" d="M16 7.5a2.58 2.58 0 0 0-2.5 2.5v7c0 1.32 1.18 2.5 2.5 2.5h7c1.32 0 2.5-1.18 2.5-2.5v-7c0-1.32-1.18-2.5-2.5-2.5h-7ZM12.5 10c0-1.88 1.62-3.5 3.5-3.5h7c1.88 0 3.5 1.62 3.5 3.5v7c0 1.88-1.62 3.5-3.5 3.5h-7a3.58 3.58 0 0 1-3.5-3.5v-7Zm14 16c0-4.19 3.33-7.4 7.5-7.4s7.5 3.21 7.5 7.4c0 1.09-.48 2.53-1.14 4.03a48.51 48.51 0 0 1-2.43 4.68 92.28 92.28 0 0 1-3.44 5.46l-.06.08-.01.03L34 40l-.41.28-.02-.03-.06-.08a66.14 66.14 0 0 1-1.02-1.54 92.28 92.28 0 0 1-2.42-3.92 48.51 48.51 0 0 1-2.43-4.68c-.66-1.5-1.14-2.94-1.14-4.03ZM34 40l-.41.28.41.6.41-.6L34 40Zm0-.89a92.17 92.17 0 0 0 3.07-4.9c.87-1.5 1.73-3.1 2.38-4.58A10.42 10.42 0 0 0 40.5 26c0-3.61-2.87-6.4-6.5-6.4a6.37 6.37 0 0 0-6.5 6.4c0 .86.4 2.14 1.05 3.63a47.54 47.54 0 0 0 2.38 4.58 91.31 91.31 0 0 0 3.07 4.9Zm0-15.61a2.26 2.26 0 0 0-2.3 2.37v.06a2.39 2.39 0 0 0 2.4 2.57h.08a2.58 2.58 0 0 0 2.42-2.58A2.58 2.58 0 0 0 34 23.5Zm-3.3 2.4a3.26 3.26 0 0 1 3.3-3.4 3.58 3.58 0 0 1 3.6 3.37v.03a3.58 3.58 0 0 1-3.37 3.6h-.13a3.39 3.39 0 0 1-3.4-3.6Zm-23.2.82V39.5h21v1h-22V26.66l.5.04-.5-.04v-.01a1.66 1.66 0 0 1 .02-.15l.08-.37c.08-.3.23-.7.5-1.1.55-.84 1.58-1.63 3.4-1.63h12v1h-12c-1.48 0-2.2.61-2.57 1.18a2.81 2.81 0 0 0-.43 1.14Z"/></svg>