<svg width="16" height="16" fill="none" xmlns="http://www.w3.org/2000/svg"><path fill="currentColor" d="M5.5 2C4.68 2 4 2.68 4 3.5v2C4 6.32 4.68 7 5.5 7H6v1h-.5A2.5 2.5 0 0 1 3 5.5v-2A2.5 2.5 0 0 1 5.5 1h2q.69 0 1.25.34l-.5.86Q7.9 2 7.5 2zm6 1.5A3.5 3.5 0 0 0 8 7c0 .44.2 1.13.58 1.98.37.83.86 1.74 1.35 2.6a53 53 0 0 0 1.57 2.52 53 53 0 0 0 1.57-2.53c.5-.85.98-1.76 1.35-2.6S15 7.45 15 7c0-1.92-1.58-3.5-3.5-3.5m0 11.5-.41.28-.01-.01-.04-.05-.58-.89c-.38-.58-.89-1.38-1.4-2.25s-1-1.82-1.4-2.7A7 7 0 0 1 7 7a4.5 4.5 0 0 1 9 0c0 .66-.3 1.52-.67 2.38-.38.88-.9 1.83-1.4 2.7a54 54 0 0 1-1.97 3.14l-.04.05v.01zm0 0 .41.28-.41.6-.41-.6zm-9-5c-.83 0-1.5.67-1.5 1.5V15h8.44v1H0v-4.5A2.5 2.5 0 0 1 2.5 9H6v1z"/></svg>