<svg width="24" height="24" fill="none" xmlns="http://www.w3.org/2000/svg"><path fill="currentColor" d="M8.5 2.5C7.68 2.5 7 3.18 7 4v3c0 .82.68 1.5 1.5 1.5h3c.83 0 1.5-.68 1.5-1.5V4c0-.82-.67-1.5-1.5-1.5zM6 4a2.5 2.5 0 0 1 2.5-2.5h3A2.5 2.5 0 0 1 14 4v3a2.5 2.5 0 0 1-2.5 2.5h-3A2.5 2.5 0 0 1 6 7zm11 6a3.5 3.5 0 0 0-3.5 3.5c0 .44.21 1.13.58 1.98.37.83.86 1.74 1.35 2.6A53 53 0 0 0 17 20.6a58 58 0 0 0 1.57-2.53c.5-.85.98-1.76 1.35-2.6s.58-1.53.58-1.97c0-1.92-1.57-3.5-3.5-3.5m0 11.5-.41.28-.01-.01-.04-.05-.58-.89c-.38-.58-.89-1.38-1.4-2.25s-1-1.82-1.4-2.7a7 7 0 0 1-.66-2.38c0-2.48 2.03-4.5 4.5-4.5s4.5 2.02 4.5 4.5c0 .66-.29 1.52-.67 2.38-.38.88-.9 1.83-1.4 2.7a54 54 0 0 1-1.97 3.14l-.03.05h-.01v.01zm0 0 .41.28-.4.6-.42-.6zM3 13.51v-.28q.02-.27.14-.65c.1-.25.25-.52.51-.73q.4-.34 1.05-.35H10v1H4.7q-.31.02-.42.12a1 1 0 0 0-.2.3 2 2 0 0 0-.08.54v6.04h9v1H3z"/></svg>