<svg width="48" height="48" fill="none" xmlns="http://www.w3.org/2000/svg"><path fill="currentColor" d="M23 30h3v1h-3zm-1 2h5v1h-5zm-1-7s3 0 3 3h-3s-3 0-3-3zm7 0h3c0 3-3 3-3 3h-3c0-3 3-3 3-3"/><path fill="currentColor" d="m32.39 14.49.3.4a9 9 0 0 1 2.27-.39H35v.5-.5h.5v12.55l-.01.06L35 27l.49.11-.01.03-.1.39q-.12.39-.36 1.05a15 15 0 0 1-1.67 3.2 10.4 10.4 0 0 1-8.85 4.72 10.4 10.4 0 0 1-8.85-4.71 15 15 0 0 1-2.13-4.65v-.03L14 27l-.49.1-.01-.05V14.48l.52.02-.02.5.02-.5h.04l.49.05a10 10 0 0 1 1.73.38l.33-.44c.36-.45.88-1.03 1.58-1.62a9.7 9.7 0 0 1 6.31-2.37 9.7 9.7 0 0 1 6.3 2.37c.7.59 1.23 1.17 1.59 1.62m-13.4 1.85a8 8 0 0 1 1.21-.78 9 9 0 0 1 4.3-1.06 9 9 0 0 1 5.44 1.8l.05.03a7 7 0 0 1 1.72-1.08 11 11 0 0 0-1.54-1.62 8.7 8.7 0 0 0-5.67-2.13 8.7 8.7 0 0 0-5.67 2.13 11 11 0 0 0-1.58 1.67q.88.38 1.75 1.04m14.38-.6c-.95.23-2.1.7-3.02 1.61l-.35.36-.35-.36h-.02l-.3-.27q-.34-.27-1-.64a8 8 0 0 0-3.83-.94 8 8 0 0 0-5.07 1.79l-.06.05-.02.01-.33.34-.36-.32a7.5 7.5 0 0 0-3.08-1.6 9 9 0 0 0-1.08-.22v11.43a8 8 0 0 0 .41 1.25c.31.82.81 1.9 1.56 2.98a9.4 9.4 0 0 0 8.03 4.29 9.4 9.4 0 0 0 8.03-4.29 14 14 0 0 0 1.96-4.23l.01-.04v-11.4q-.45.02-1.13.2M10 22c0-2.6 3-4 3-4v7.9s-3-1.3-3-3.9m29 0c0 2.6-3 3.9-3 3.9V18s3 1.4 3 4"/></svg>