<svg width="24" height="24" fill="none" xmlns="http://www.w3.org/2000/svg"><path fill="currentColor" d="M9 12s2 .1 2 2H9s-2-.1-2-2zm2 4v-1h1v1zm-1 2v-1h3v1zm6-6c0 1.9-2 2-2 2h-2c0-1.9 2-2 2-2z"/><path fill="currentColor" d="m16.9 5.52.25.29a5 5 0 0 1 1.02-.28A5 5 0 0 1 19 5.5v2.4s1.9.9 1.9 2.6-1.9 2.6-1.9 2.6v.96l-.09.32q-.08.26-.24.67a9 9 0 0 1-1.13 2A7.3 7.3 0 0 1 11.5 20a7.3 7.3 0 0 1-6.04-2.95 9 9 0 0 1-1.46-3v-.95c-.06-.03-1.9-.93-1.9-2.6S3.94 7.93 4 7.9V5.5h.15q.34 0 .68.03a4 4 0 0 1 1.31.4l.02-.03.25-.34q.33-.45 1-1.04A6.2 6.2 0 0 1 11.5 3c1.84 0 3.3.76 4.28 1.5.49.37.87.74 1.12 1.02M7.53 6.84q.31-.24.87-.53a7 7 0 0 1 3.1-.81 6.7 6.7 0 0 1 3.97 1.34q.39-.33.76-.57l-.06-.07a8 8 0 0 0-1-.9A6 6 0 0 0 11.5 4c-1.55 0-2.7.64-3.45 1.28A6 6 0 0 0 7 6.43q.25.18.52.41m10.2-.18c-.5.17-1.19.5-1.88 1.2l-.33.33-.35-.32h-.01l-.25-.2a5.7 5.7 0 0 0-3.4-1.17 5.7 5.7 0 0 0-3.42 1.17l-.25.2h-.01l-.35.32-.33-.34A5 5 0 0 0 5 6.58v7.36a5 5 0 0 0 .25.73c.2.49.53 1.13 1.01 1.78A6.3 6.3 0 0 0 11.5 19a6.3 6.3 0 0 0 5.24-2.55A8 8 0 0 0 18 13.94V6.58z"/></svg>