<svg width="24" height="24" fill="none" xmlns="http://www.w3.org/2000/svg"><path fill="currentColor" d="M6 3a1 1 0 1 0 0 2 1 1 0 0 0 0-2M4 4a2 2 0 1 1 3.56 1.25l2.46 3.27a4 4 0 0 1 4.67.52l2.51-2.16A2 2 0 0 1 19 4a2 2 0 1 1-1.14 3.64L15.34 9.8a4 4 0 0 1 .63 2.68l2.27.57a2 2 0 1 1-.24.97l-2.27-.57a4 4 0 0 1-6.18 1.71l-3.83 3.82a2 2 0 1 1-.7-.7l3.82-3.83a4 4 0 0 1 .38-5.32L6.76 5.85A2 2 0 0 1 4 4m15 1a1 1 0 1 0 0 2 1 1 0 0 0 0-2m-7 4a3 3 0 0 0-3 3 3 3 0 0 0 3 3 3 3 0 0 0 0-6m8 4a1 1 0 1 0 0 2 1 1 0 0 0 0-2M4 19a1 1 0 1 0 0 2 1 1 0 0 0 0-2"/></svg>