<svg width="16" height="16" fill="none" xmlns="http://www.w3.org/2000/svg"><path fill="currentColor" d="M2.5 2a.5.5 0 1 0 0 1 .5.5 0 0 0 0-1M1 2.5a1.5 1.5 0 1 1 2.85.65l1.7 1.69a4 4 0 0 1 4.9 0l1.7-1.7A1.5 1.5 0 0 1 13.5 1a1.5 1.5 0 1 1-.65 2.85l-1.69 1.7a4 4 0 0 1 0 4.9l1.7 1.7q.28-.15.64-.15a1.5 1.5 0 1 1-1.35.85l-1.7-1.69a4 4 0 0 1-4.9 0l-1.7 1.7q.15.28.15.64a1.5 1.5 0 1 1-.85-1.35l1.69-1.7a4 4 0 0 1 0-4.9l-1.7-1.7Q2.87 4 2.5 4A1.5 1.5 0 0 1 1 2.5M13.5 2a.5.5 0 1 0 0 1 .5.5 0 0 0 0-1M8 5a3 3 0 1 0 0 6 3 3 0 0 0 0-6m-5.5 8a.5.5 0 1 0 0 1 .5.5 0 0 0 0-1m11 0a.5.5 0 1 0 0 1 .5.5 0 0 0 0-1"/></svg>