<svg width="24" height="24" fill="none" xmlns="http://www.w3.org/2000/svg"><path fill="currentColor" d="m9.6 11.87-.72.72-5.73-5.1a10 10 0 0 0 .56 3.77l-1.42.48a11 11 0 0 1-.42-5.9l.27-1.25 6.42 5.7a8.4 8.4 0 0 0-.35-5.7L9.6 4a10 10 0 0 1 .01 7.87m6.45-6.5-1.28 1.29-.27-1.03a8 8 0 0 0-.34-1.1c-.11-.25-.25-.5-.54-1.01l-.04-.08 1.3-.74.07.12c.26.47.44.79.59 1.11l.18.5zm3.1-3.12-1.2 1.21-.22-.65-.2-.57-.02-.06c-.15-.36-.31-.65-.56-1.1l-.12-.22 1.32-.72.12.22c.25.47.44.81.62 1.26zm-.51 5.48 1.48-1.48.04 1.62a15.3 15.3 0 0 1-2.01 7.99l-1.32-.72a14 14 0 0 0 1.8-5.78zm-3.99 4.02 2.05-2.07-.47 2a5 5 0 0 1-1.09 2.14l-1.12-1q.44-.5.63-1.07M6.75 19.7l.9-.9h.6V24h-.61L5 21.55l1.02-1.1.73.68zm-3.99 4.01 1.53-1.53-.02 1.78-1.5.01zM14 17.75v1.5h-2.75v1.5H14v1.5h-2.75V24h-1.5v-6.25zm5.84 1.45q-.38-.2-.8-.2c-.92.07-1.65.8-1.7 1.72-.06.95.63 1.7 1.7 1.78.38 0 .78-.17 1.12-.47l.98 1.14c-.56.49-1.32.83-2.13.83h-.05c-1.77-.11-3.24-1.47-3.12-3.37a3.34 3.34 0 0 1 3.12-3.13h.05q.82 0 1.55.4zM23.4 1.53 1.9 23.15.85 22.1 22.34.47z"/></svg>