<svg width="48" height="48" fill="none" xmlns="http://www.w3.org/2000/svg"><path fill="currentColor" d="M36.33 1.45a29 29 0 0 1 .2 28.19l-.87-.48a28 28 0 0 0-.2-27.21zm-5.9 4.7a18.5 18.5 0 0 1 .1 19l-.86-.5a17.6 17.6 0 0 0-.1-18zm-7.44 15.53a17.4 17.4 0 0 0-.25-12.79l.92-.38a18.4 18.4 0 0 1 0 14.18l-.26.62-12.54-10.36c-.38 3.13.03 6.34 1.11 9.38l-.94.34A21.4 21.4 0 0 1 10 11.92l.14-.86zm-13 14.11 8 8V36h1v10.2l-8-8V46h-1zM22 36h7v1h-6v4h5v1h-5v4h-1zm13.8 1.3a3.77 3.77 0 0 0-3.8 3.8c0 2.12 1.68 3.8 3.8 3.8a4 4 0 0 0 2.4-.9l.6.8a5 5 0 0 1-3 1.1 4.77 4.77 0 0 1-4.8-4.8 4.77 4.77 0 0 1 7.03-4.25l-.45.9a4 4 0 0 0-1.77-.45"/></svg>