<svg width="48" height="48" fill="none" xmlns="http://www.w3.org/2000/svg"><path fill="currentColor" d="m38.52 6.35.36 1-.81.85-.26-.8a28 28 0 0 0-2.36-5.43l.86-.5a29 29 0 0 1 2.21 4.88m7.33-3.5-42 42-.7-.7 42-42zm-13.18 9.3.2.93-.94.8-.13-.9a16 16 0 0 0-2.3-6.33l.85-.52a17 17 0 0 1 2.32 6.02m-10.48 9.5a17.5 17.5 0 0 0-.3-12.74l.93-.39a18.5 18.5 0 0 1 .05 14.14l-.26.63-12.58-10.3c-.38 3.16 0 6.37 1.1 9.37l-.94.35a21 21 0 0 1-1.03-10.76l.14-.85zm17.46-11.53.25 2.35a29 29 0 0 1-3.37 17.2l-.88-.5a28 28 0 0 0 3.08-17.84l-.04-.25zm-6.46 6.53-.5 2.71a18 18 0 0 1-2.19 5.75l-.86-.5a17 17 0 0 0 2.25-6.55l.02-.17zM19 36v10.2l-7.63-7.52.7-.72L18 43.81V36zm3 0h7v1h-6v4h5v1h-5v4h-1zm15.5 1.7a3.8 3.8 0 1 0-1.76 7.16c.87 0 1.72-.3 2.38-.88l.66.76a4.8 4.8 0 1 1-3.05-8.48v.5-.5q1.19 0 2.24.56zm-1.77 8.16v-.5zm-24.64-7.02L11 40.87V46h-1v-6.14z"/></svg>