<svg width="24" height="24" fill="none" xmlns="http://www.w3.org/2000/svg"><path fill="currentColor" d="M17.77 2.14q.1.25.21.6l.24.72.85-.77-.4-.98c-.18-.43-.36-.76-.61-1.23l-.12-.22-.88.48.12.22c.25.45.41.75.57 1.13zm5.46-.79L1.73 22.98l-.7-.7L22.51.64zm-9.37 2.06-.06-.1.88-.49.06.12c.27.47.44.78.58 1.1q.1.21.17.47l.37 1.06-.9.76-.2-.76a8 8 0 0 0-.36-1.14c-.12-.26-.26-.52-.54-1.02m-5.17 7.33a8.7 8.7 0 0 0-.25-6.24l.92-.4a9.8 9.8 0 0 1 0 7.7l-.27.64-6.15-5.46C2.8 8.4 3 9.9 3.47 11.34l-.94.32a11 11 0 0 1-.42-5.77l.19-.83zm11.2-4.3.03 1.43c.08 2.83-.6 5.33-1.98 7.87l-.88-.48a14 14 0 0 0 1.83-5.89l.01-1.62zm-3.53 3.62L16 11.61a5 5 0 0 1-1.04 2.04l-.74-.66q.47-.54.68-1.18l.15-.56zM19.03 19c-1.05.07-1.88.9-1.94 1.96-.07 1.1.75 1.96 1.94 2.04.45 0 .92-.2 1.3-.53l.65.76c-.53.46-1.23.77-1.97.77h-.03c-1.66-.1-3-1.36-2.9-3.1a3.1 3.1 0 0 1 2.9-2.9H19q.76 0 1.43.36l-.48.88q-.44-.24-.93-.24M10 18h4v1h-3v2h3v1h-3v2h-1zm-3 3.7v-2.9h1V24l-2.83-2.63.68-.74zm-2.96.42-.02 1.84h-1l-.03-.87z"/></svg>