<svg width="24" height="24" fill="none" xmlns="http://www.w3.org/2000/svg"><path fill="currentColor" d="M5.5.05 10.8 11H.2zm0 2.3L1.8 10h7.4zM20.75 3.5a2.25 2.25 0 1 0 0 4.5 2.25 2.25 0 0 0 0-4.5M17.5 5.75a3.25 3.25 0 1 1 6.5 0 3.25 3.25 0 0 1-6.5 0M5 7V4h1v3zm0 2V8h1v1zm18.14.97-2.67 11.28a3.5 3.5 0 0 1-5.35 2.12l-2.17-1.45-4.42 1.92a1.8 1.8 0 0 1-1.47-3.28l5-2.33a2.5 2.5 0 0 1 1.85-.1l1.74.58 1.2-4.71h-4.07a1.78 1.78 0 0 1-.08-3.55zm-1.28 1.06-9.12.41a.78.78 0 0 0 .04 1.56h5.36l-1.79 7-2.75-.92a1.5 1.5 0 0 0-1.11.06l-5.01 2.33a.8.8 0 0 0 .65 1.45l4.92-2.14 2.63 1.75a2.5 2.5 0 0 0 3.82-1.5z"/></svg>