<svg width="48" height="48" fill="none" xmlns="http://www.w3.org/2000/svg"><path fill="currentColor" d="m12.44 3.44 8.67 17.92H3.77zm0 2.3L5.36 20.35h14.16zm26.69 2.5a4.31 4.31 0 1 0 0 8.62 4.31 4.31 0 0 0 0-8.62m-5.32 4.3a5.31 5.31 0 1 1 10.63 0 5.31 5.31 0 0 1-10.63 0m-21.87 2.2V9.49h1v5.25zm0 3.5v-1.75h1v1.75zm30.88 2.1-4.55 19.5a5.75 5.75 0 0 1-8.79 3.48l-3.97-2.64-7.92 3.44a2.77 2.77 0 0 1-2.27-5.05l8.77-4.08a4 4 0 0 1 2.95-.16l3.42 1.14 2.34-9.36h-7.63a2.74 2.74 0 0 1-.12-5.47zm-1.27 1.05-16.45.75a1.74 1.74 0 0 0 .07 3.47h8.9l-2.9 11.65-4.45-1.49a3 3 0 0 0-2.2.13l-8.78 4.07a1.77 1.77 0 0 0 1.45 3.24l8.42-3.67 4.43 2.95a4.75 4.75 0 0 0 7.26-2.87z"/></svg>