<svg width="48" height="48" fill="none" xmlns="http://www.w3.org/2000/svg"><path fill="currentColor" d="M12.46 4.5a131 131 0 0 1 23.08 0l.2.02.14.16a37 37 0 0 1 3.04 4.05 59 59 0 0 1 2.49 4.47L46 17.8v6.7h-1v-6.3L40.8 14H7.2L3 18.2V32a1 1 0 0 0 1 1h5a1 1 0 0 0 1-1v-2h14v1H11v1a2 2 0 0 1-2 2H4a2 2 0 0 1-2-2V17.8l4.59-4.6a59 59 0 0 1 2.49-4.47 37 37 0 0 1 3.04-4.05l.13-.16zM7.82 13h32.36a35 35 0 0 0-4.93-7.52 129 129 0 0 0-22.5 0A35 35 0 0 0 7.82 13M5 19.05q0 .4.05.69.07.45.14.6.16.31.4.54.27.21.4.2h2l.06-.01.18-.03.53-.12a29 29 0 0 0 2.92-.87 6 6 0 0 0 .66-.3l.05-.03.23-.25a84 84 0 0 0-3.67-.4q-1.64-.14-3.95-.02m-.54-.97q2.67-.15 4.57 0 1.86.15 4.53.5l.7.1-.32.62q-.3.6-.85 1.13c-.12.12-.3.22-.45.3q-.27.13-.6.26a30 30 0 0 1-3.63 1.04l-.42.04H6c-.41 0-.78-.2-1.05-.43q-.41-.37-.65-.87a3 3 0 0 1-.23-.91Q4 19.32 4 18.57v-.47zm38.52.97a32 32 0 0 0-3.95.02q-1.54.13-3.67.4l.23.25.05.03.15.09.51.21a29 29 0 0 0 3.63 1.02H42q.13.02.4-.19.24-.23.4-.54.08-.15.14-.6.04-.3.05-.7m-4.03-.97q1.9-.15 4.57 0l.47.02v.47q0 .75-.07 1.29-.05.53-.23.9-.24.5-.65.88c-.27.23-.64.43-1.05.43h-2q-.19 0-.42-.05L39 21.9a30 30 0 0 1-3.05-.91l-.6-.26a2 2 0 0 1-.45-.3 4 4 0 0 1-.85-1.13l-.31-.63.7-.1q2.66-.34 4.52-.5m-22.2.92h14.48l2.15 2.69-.78.62-1.85-2.3H17.24l-1.67 2.1a30 30 0 0 0 1.62 3.79 5 5 0 0 0 .62.93c.13.14.2.17.2.18H24v1h-6c-.39 0-.7-.26-.93-.5q-.37-.42-.76-1.14a32 32 0 0 1-1.78-4.19l-.1-.26zm19.74 8a8.4 8.4 0 0 0-7.65 4.72 9 9 0 0 0-.72 2.07l-.97-.2q.24-1.19.79-2.3A9.4 9.4 0 0 1 36.5 26c4.21 0 7.3 3.13 8.5 6.46V27.6h1v6.49h-6.05v-1h4.21C43.14 29.94 40.3 27 36.5 27m-9.36 9.08h5.4v1h-4.2c1.02 3.17 3.86 6.1 7.66 6.1a8.4 8.4 0 0 0 7.65-4.71q.5-1.02.72-2.07l.97.2a10 10 0 0 1-.79 2.3A9.4 9.4 0 0 1 36 44.18c-3.6 0-6.37-2.28-7.86-5.02v3.42h-1z"/></svg>