<svg width="24" height="24" fill="none" xmlns="http://www.w3.org/2000/svg"><path fill="currentColor" d="M5.46 2.05a80 80 0 0 1 13.08 0l.24.02.14.2q.81 1.23 1.41 2.2.57.9 1.47 2.53H2.2a52 52 0 0 1 2.88-4.73l.14-.2zM1.3 8h21.4L24 9.3V11h-6l-1-1H7.3l-1.37 1.36.1.3q.46 1.5.87 2.31.21.41.42.67c.13.15.36.36.68.36h5.1q-.35.95-.35 2H5v.5c0 .83-.67 1.5-1.5 1.5h-2A1.5 1.5 0 0 1 0 17.5V11h5v-1H0v-.7z"/><path fill="currentColor" d="m8.1 14-.02-.01a2 2 0 0 1-.28-.46q-.31-.63-.73-1.9l.64-.63h8.79l.32.32A6 6 0 0 0 13.55 14zm10.93-.3a3.7 3.7 0 0 0-3.38 2.08l-.18.42-1.41-.5q.1-.3.24-.58a5.2 5.2 0 0 1 4.73-2.92c1.43 0 2.61.64 3.47 1.54V13H24v4.25h-3.97v-1.5h2.08a3.6 3.6 0 0 0-3.08-2.05m-5.28 4.05H18v1.5h-2.08A3.6 3.6 0 0 0 19 21.3a3.7 3.7 0 0 0 3.37-2.08l.18-.42 1.42.5q-.1.3-.25.58A5.2 5.2 0 0 1 19 22.8a4.8 4.8 0 0 1-3.75-1.86V22h-1.5z"/></svg>