<svg width="24" height="24" fill="none" xmlns="http://www.w3.org/2000/svg"><path fill="currentColor" d="M5.46 2.05a80 80 0 0 1 13.08 0l.24.02.14.2q.81 1.23 1.41 2.2.6.95 1.57 2.73L24 9.3V11h-5v-1h4v-.3L21.3 8H2.7L1 9.7v.3h4v1H1v6.5c0 .28.22.5.5.5h2a.5.5 0 0 0 .5-.5V16h8v1H5v.5c0 .83-.67 1.5-1.5 1.5h-2A1.5 1.5 0 0 1 0 17.5V9.3l2.1-2.1a55 55 0 0 1 2.98-4.93l.14-.2zM3.35 7h17.3a45 45 0 0 0-2.43-3.98 78 78 0 0 0-12.44 0L4.51 5q-.46.73-1.16 2m3.94 3H17v1H7.7l-.63.64q.42 1.26.73 1.89a2 2 0 0 0 .3.47H12v1H8a1 1 0 0 1-.68-.36q-.21-.26-.41-.67a17 17 0 0 1-.89-2.32l-.09-.29zm11.74 3.45c-1.57 0-2.94.85-3.6 2.22l-.2.45-.93-.33q.1-.3.23-.56a4.9 4.9 0 0 1 4.5-2.78A4.7 4.7 0 0 1 23 14.79V13h1v4h-3.97v-1h2.47c-.56-1.37-1.84-2.55-3.47-2.55M14 18h4v1h-2.47c.56 1.37 1.84 2.55 3.47 2.55 1.56 0 2.94-.85 3.6-2.22q.11-.22.19-.45l.94.33q-.1.3-.23.56a4.9 4.9 0 0 1-4.5 2.78 4.7 4.7 0 0 1-4-2.39V22h-1z"/></svg>