<svg width="24" height="24" fill="none" xmlns="http://www.w3.org/2000/svg"><path fill="currentColor" d="M18 20.55a4.7 4.7 0 0 1-4-2.38V20h-1v-4h4v1h-2.47c.56 1.34 1.83 2.55 3.47 2.55a3.95 3.95 0 0 0 3.79-2.67l.94.33-.23.56a5 5 0 0 1-4.5 2.78M11 18H5.28A4.5 4.5 0 0 1 4 9.25 4.5 4.5 0 0 1 9.43 5.1 6 6 0 0 1 19.99 9h-1a5 5 0 0 0-8.97-3.03l-.21.27-.33-.1A3.5 3.5 0 0 0 4.99 9.5v.51l-.37.1A3.5 3.5 0 0 0 5.31 17h5.68zm12.02-3h-4v-1h2.47c-.56-1.34-1.83-2.55-3.47-2.55-1.56 0-2.94.85-3.6 2.22q-.11.23-.19.45l-.94-.33q.1-.28.23-.56a5 5 0 0 1 4.5-2.78 4.7 4.7 0 0 1 4 2.38V11h1z"/></svg>