<svg width="16" height="16" fill="none" xmlns="http://www.w3.org/2000/svg"><path fill="currentColor" d="M0 8a8 8 0 1 1 16 0A8 8 0 0 1 0 8m8-7a7 7 0 1 0 0 14A7 7 0 0 0 8 1M6.66 3.75c.49-.2 1.07-.25 1.5-.25a6 6 0 0 1 2.23.39l-.45.9a5 5 0 0 0-1.77-.29 3 3 0 0 0-1.12.17 1 1 0 0 0-.3.2.5.5 0 0 0-.08.3c0 .32.07.46.2.57.2.15.59.3 1.38.43.4.06 1 .22 1.5.5.5.26 1.08.74 1.08 1.5 0 .66-.36 1.12-.67 1.4q-.15.12-.3.2c.23.32.3.68.3 1.06q0 .54-.3.92c-.18.24-.44.4-.69.5-.49.2-1.07.25-1.5.25a6 6 0 0 1-2.23-.39l.45-.89c.14.07.77.28 1.78.28.4 0 .81-.04 1.12-.17a1 1 0 0 0 .29-.2.5.5 0 0 0 .09-.3c0-.32-.07-.46-.21-.57-.2-.15-.58-.3-1.37-.43-.4-.06-1-.22-1.52-.5C5.58 9.07 5 8.6 5 7.83c0-.66.36-1.12.67-1.4q.15-.12.3-.2c-.23-.32-.3-.68-.3-1.06q0-.54.3-.92.3-.35.69-.5m.23 3.11-.18.1h-.02l-.1.05q-.12.06-.26.18a.8.8 0 0 0-.33.64c0 .18.14.4.55.62.39.21.87.34 1.2.39q.69.11 1.2.3l.18-.1h.02l.1-.05.26-.18a.8.8 0 0 0 .32-.64c0-.18-.14-.4-.55-.62a4 4 0 0 0-1.19-.39 6 6 0 0 1-1.2-.3"/></svg>