<svg width="24" height="24" fill="none" xmlns="http://www.w3.org/2000/svg"><path fill="currentColor" d="M0 11.5a11.5 11.5 0 1 1 23 0 11.5 11.5 0 0 1-23 0M11.5 1a10.5 10.5 0 1 0 0 21 10.5 10.5 0 0 0 0-21M10 6.3a5 5 0 0 1 1.83-.3c1.4 0 2.36.29 2.73.47l-.45.9c-.2-.1-1-.37-2.28-.37-.5 0-1.04.05-1.44.22q-.3.12-.42.3a.7.7 0 0 0-.14.44c0 .43.1.64.31.8.27.22.78.41 1.77.58.5.08 1.23.27 1.85.6.6.33 1.28.9 1.28 1.77 0 .78-.42 1.32-.8 1.65q-.26.21-.47.33c.34.39.44.85.44 1.35q-.01.63-.35 1.07a2 2 0 0 1-.82.59c-.59.25-1.3.3-1.83.3a7 7 0 0 1-2.73-.47l.45-.9c.2.1 1 .37 2.28.37.5 0 1.04-.05 1.44-.22q.3-.12.42-.3.13-.14.14-.44c0-.43-.1-.64-.31-.8-.27-.22-.78-.41-1.77-.58a6 6 0 0 1-1.85-.6c-.6-.33-1.28-.9-1.28-1.77 0-.78.42-1.32.8-1.65q.26-.21.47-.33a2 2 0 0 1-.44-1.35q.01-.63.35-1.07A2 2 0 0 1 10 6.3m.23 3.64-.27.14h-.02v.01l-.03.01-.11.06q-.15.07-.35.24c-.25.22-.45.5-.45.9q-.02.45.75.87c.5.28 1.12.44 1.53.5h.01q.9.14 1.52.39l.28-.14h.01v-.01l.03-.01.11-.06q.16-.08.35-.24c.25-.22.45-.5.45-.9q.02-.45-.75-.87a5 5 0 0 0-1.53-.5 8 8 0 0 1-1.53-.39"/></svg>