<svg width="24" height="24" fill="none" xmlns="http://www.w3.org/2000/svg"><path fill="currentColor" d="m9.96 10.08.27-.14q.62.25 1.52.39c.42.06 1.04.22 1.54.5q.76.42.75.88c0 .38-.2.67-.45.9a2 2 0 0 1-.46.29l-.02.01h-.02l-.28.15a8 8 0 0 0-1.52-.39 5 5 0 0 1-1.54-.5q-.77-.42-.75-.88c0-.38.2-.67.45-.9a2 2 0 0 1 .46-.29l.02-.01z"/><path fill="currentColor" d="M0 11.5a11.5 11.5 0 1 1 23 0 11.5 11.5 0 0 1-23 0M11.83 6a5 5 0 0 0-1.83.3 2 2 0 0 0-.82.6q-.34.42-.35 1.06c0 .5.1.96.44 1.35q-.21.12-.47.33c-.38.33-.8.87-.8 1.65 0 .87.67 1.44 1.28 1.76.63.34 1.36.53 1.85.61.99.17 1.5.36 1.77.57.21.17.3.38.3.81q0 .3-.13.45t-.42.29c-.4.17-.94.22-1.44.22a6 6 0 0 1-2.28-.36l-.45.89c.37.18 1.34.47 2.73.47a5 5 0 0 0 1.83-.3 2 2 0 0 0 .82-.6q.34-.43.35-1.06c0-.5-.1-.96-.44-1.35q.21-.12.47-.33c.38-.33.8-.87.8-1.65 0-.87-.67-1.44-1.28-1.76a6 6 0 0 0-1.85-.61 4 4 0 0 1-1.77-.57c-.21-.17-.3-.38-.3-.81q0-.3.13-.45t.42-.29c.4-.17.94-.22 1.44-.22a6 6 0 0 1 2.28.36l.45-.9A7 7 0 0 0 11.83 6"/></svg>