<svg width="48" height="48" fill="none" xmlns="http://www.w3.org/2000/svg"><path fill="currentColor" d="M23.5 2a21.5 21.5 0 1 0 0 43 21.5 21.5 0 0 0 0-43M1 23.5a22.5 22.5 0 1 1 45 0 22.5 22.5 0 0 1-45 0m20.02-8.04a8 8 0 0 1 2.82-.46c2.2 0 3.7.45 4.23.72l-.44.9a10 10 0 0 0-3.79-.62 7 7 0 0 0-2.43.38q-.52.21-.79.55-.27.31-.28.9c0 .74.17 1.19.6 1.54.5.39 1.39.7 2.98.97.76.12 1.9.41 2.87.94.95.5 1.9 1.33 1.9 2.55 0 1.13-.62 1.93-1.18 2.41a5 5 0 0 1-1.03.68h-.03c.69.6.9 1.36.9 2.25q-.01.9-.5 1.51c-.31.4-.74.68-1.19.86-.88.38-1.97.46-2.82.46-2.2 0-3.7-.45-4.23-.72l.45-.9c.36.19 1.7.62 3.78.62.82 0 1.74-.08 2.44-.38q.51-.21.78-.55.28-.31.29-.9c0-.74-.17-1.19-.61-1.54-.5-.39-1.38-.7-2.98-.97a10 10 0 0 1-2.87-.94c-.94-.5-1.89-1.33-1.89-2.55 0-1.13.61-1.93 1.17-2.41a5 5 0 0 1 1.04-.68h.02c-.68-.6-.9-1.36-.9-2.25q.02-.9.5-1.51.5-.6 1.19-.86m-.33 5.5h-.01l-.25.13q-.25.14-.6.42c-.44.38-.83.92-.83 1.66 0 .64.5 1.2 1.37 1.67.84.46 1.86.73 2.55.83q1.54.25 2.5.65l.56-.28H26l.24-.13q.27-.14.6-.42c.44-.38.83-.92.83-1.66 0-.64-.5-1.2-1.36-1.67a9 9 0 0 0-2.55-.83 12 12 0 0 1-2.51-.65z"/></svg>