<svg width="48" height="48" fill="none" xmlns="http://www.w3.org/2000/svg"><path fill="currentColor" d="M14.92 14.42A1.5 1.5 0 0 1 16 14h30.5v15.5c0 .41-.14.8-.42 1.08A1.5 1.5 0 0 1 45 31H18.7l-4.44 4.44-10.12 3.04-.28-.96 9.88-2.96 7.57-7.58a2.5 2.5 0 0 0-3.34-.1l-4.15 3.5-.64-.76 1.32-1.12V21h-4.34a1.5 1.5 0 0 0-1.3.75l-6.93 12-.86-.5 6.92-12A2.5 2.5 0 0 1 10.16 20h4.34v-4.5c0-.41.14-.8.42-1.08m.58 13.23 1.82-1.54a3.5 3.5 0 0 1 5 .49l.35.44L19.71 30H45q.27-.01.37-.13.12-.1.13-.37V15H16q-.28.01-.37.13-.12.1-.13.37zm11.52-9.62a4.8 4.8 0 0 1 3.46-1.29c1.24 0 2.5.36 3.46 1.3.96.93 1.54 2.39 1.54 4.45s-.58 3.52-1.54 4.46a4.8 4.8 0 0 1-3.46 1.29 4.8 4.8 0 0 1-3.46-1.3c-.96-.93-1.54-2.39-1.54-4.45s.58-3.52 1.54-4.46m.7.72c-.72.7-1.24 1.86-1.24 3.74s.52 3.04 1.24 3.74c.71.7 1.7 1.01 2.76 1.01s2.04-.3 2.76-1 1.24-1.87 1.24-3.75-.53-3.04-1.24-3.74c-.72-.7-1.7-1.01-2.76-1.01s-2.05.3-2.76 1"/></svg>