<svg width="24" height="24" fill="none" xmlns="http://www.w3.org/2000/svg"><path fill="currentColor" d="M7 6.5C7 5.67 7.67 5 8.5 5H24v7.5c0 .83-.67 1.5-1.5 1.5H10.96l-1.92 2.93-6.9 1.88-.27-.97 6.54-1.78 2.88-4.4a2 2 0 0 0-2.39.64l-1.5 2-.8-.6.4-.53V8H5.08a.5.5 0 0 0-.43.25l-3.72 6.5-.86-.5 3.7-6.5A1.5 1.5 0 0 1 5.09 7H7zm1 5.33.1-.13a3 3 0 0 1 4.2-.6l.38.28L11.6 13h10.9a.5.5 0 0 0 .5-.5V6H8.5a.5.5 0 0 0-.5.5zm5.53-4.64c.51-.5 1.19-.69 1.83-.69.63 0 1.31.18 1.83.69q.8.76.81 2.31-.02 1.55-.81 2.31c-.52.5-1.2.69-1.83.69s-1.32-.18-1.83-.69q-.8-.76-.82-2.31.02-1.54.82-2.31m.7.71c-.28.28-.52.76-.52 1.6s.24 1.32.52 1.6q.43.4 1.13.4t1.13-.4c.28-.28.51-.76.51-1.6s-.23-1.32-.51-1.6q-.44-.4-1.13-.4-.7 0-1.13.4"/></svg>