<svg width="24" height="24" fill="none" xmlns="http://www.w3.org/2000/svg"><path fill="currentColor" d="M16.49 7.9c.28.28.51.76.51 1.6 0 .84-.23 1.32-.51 1.6-.28.27-.68.4-1.13.4-.46 0-.85-.13-1.13-.4-.28-.28-.52-.76-.52-1.6 0-.84.24-1.32.52-1.6.28-.27.67-.4 1.13-.4.45 0 .85.13 1.13.4Z"/><path fill="currentColor" d="M7 6.5C7 5.67 7.67 5 8.5 5H24v7.5c0 .83-.67 1.5-1.5 1.5H11.81l-2.38 3.4-6.98 1.9-.4-1.45 6.46-1.76 3.29-4.68a2.53 2.53 0 0 0-3.04.95L7.66 14H7V8.25H5.08a.25.25 0 0 0-.21.12l-3.48 6.58-1.32-.7 3.48-6.6.01-.02c.31-.54.9-.88 1.52-.88H7V6.5Zm10.19.69c-.52-.5-1.2-.69-1.83-.69-.64 0-1.32.18-1.83.69-.53.51-.82 1.28-.82 2.31s.3 1.8.82 2.31c.51.5 1.19.69 1.83.69.63 0 1.31-.18 1.83-.69S18 10.53 18 9.5s-.29-1.8-.81-2.31Z"/></svg>