<svg width="48" height="48" fill="none" xmlns="http://www.w3.org/2000/svg"><path fill="currentColor" d="M8.51 27v-5.22H6.75v-.94H8.5v-.4q0-.75.31-1.26.31-.5.92-.76.62-.25 1.52-.25.5 0 .92.06t.76.19v.94a6 6 0 0 0-1.66-.23q-.56 0-.9.14-.35.14-.52.44-.15.3-.16.8v.33h2.6v.94H9.7V27zm5.03 0v-6.16h1.07l.1 1.12q.4-.6.98-.92.59-.32 1.33-.32.66 0 1.1.16v1.05q-.55-.15-1.24-.14-.72 0-1.26.3t-.9.9V27zm11.74-.42q-.62.29-1.3.43-.69.13-1.5.13-1.13 0-1.93-.4a3 3 0 0 1-1.25-1.14q-.42-.75-.42-1.77 0-.9.42-1.63.44-.72 1.2-1.1a4 4 0 0 1 1.8-.4q1.04 0 1.8.37.76.38 1.18 1.05.42.7.42 1.58 0 .25-.02.47h-5.62q.05.65.36 1.1t.86.68 1.34.23a7 7 0 0 0 2.66-.55zm-.74-3.32q-.05-.48-.35-.86-.3-.37-.8-.58-.49-.2-1.08-.2t-1.1.2q-.48.2-.79.59-.3.37-.34.85zm8.9 3.32q-.63.29-1.31.43-.69.13-1.5.13-1.12 0-1.93-.4a3 3 0 0 1-1.24-1.14q-.43-.75-.43-1.77 0-.9.43-1.63.42-.72 1.2-1.1a4 4 0 0 1 1.8-.4q1.02 0 1.79.37.76.38 1.19 1.05.4.7.41 1.58 0 .25-.02.47h-5.62q.04.65.36 1.1.31.45.86.68.56.23 1.34.23a7 7 0 0 0 2.67-.55zm-.75-3.32q-.05-.48-.35-.86-.3-.37-.8-.58-.49-.2-1.08-.2t-1.1.2q-.48.2-.79.59-.3.37-.34.85zm2.44 4.59 6.26 2.59-.38.92-4.81-1.99 3.86 9.14-.92.38-3.79-8.96-1.89 4.56-.92-.38z"/></svg>