<svg width="16" height="16" fill="none" xmlns="http://www.w3.org/2000/svg"><path fill="currentColor" d="M0 2.5h14a2 2 0 0 1 2 2v7H2a2 2 0 0 1-2-2zm1 1v6a1 1 0 0 0 1 1h13v-6a1 1 0 0 0-1-1zm5.07 1.43c.47-.47 1.1-.64 1.68-.64s1.2.17 1.68.64q.73.71.75 2.11-.02 1.41-.75 2.12c-.47.46-1.1.63-1.68.63s-1.2-.17-1.68-.63q-.74-.7-.75-2.12.02-1.4.75-2.11m.7.71c-.24.23-.45.65-.45 1.4s.2 1.17.45 1.4q.37.35.98.35t.98-.35c.24-.23.45-.65.45-1.4s-.2-1.17-.45-1.4a1.4 1.4 0 0 0-.98-.35q-.61 0-.98.35M0 12.5h16v1H0z"/></svg>