<svg width="24" height="24" fill="none" xmlns="http://www.w3.org/2000/svg"><path fill="currentColor" d="M13.36 10.51a2.5 2.5 0 0 0 1.16-.03q.27-.07.45-.23.18-.15.3-.38l.03-.08L13.4 6h1.25l1.07 2.24.23.49.23-.5L17.23 6h1.2l-1.97 3.92q-.29.55-.63.9-.35.33-.78.5-.44.15-1.02.16-.41 0-.67-.11zm-1.61-.71-.07-.38q-.3.24-.7.37a3 3 0 0 1-1.8-.01 1.2 1.2 0 0 1-.57-.4q-.2-.28-.19-.65 0-.4.26-.68t.8-.4q.52-.14 1.37-.14l.77.03v-.01a.7.7 0 0 0-.13-.43 1 1 0 0 0-.39-.25 2 2 0 0 0-.67-.08 4 4 0 0 0-1.61.3v-.82q.35-.17.8-.27a4.5 4.5 0 0 1 2.17.08q.48.16.72.52.24.35.24.87V9.8zm-.13-1.6h-.6q-.51 0-.82.04-.3.06-.45.16a.3.3 0 0 0-.15.3q0 .12.1.23.08.1.25.17.16.05.4.05.38 0 .68-.08.31-.1.59-.26zm-8.9 3.16V6h1.02l.08.43q.3-.26.72-.4t.9-.14q.67 0 1.15.23t.74.68q.24.45.25 1.06 0 .63-.26 1.1-.26.46-.75.71-.5.25-1.17.25-.44 0-.84-.11a2 2 0 0 1-.67-.3v1.85zM3.9 8.73a2.5 2.5 0 0 0 1.3.3q.39 0 .66-.14a1 1 0 0 0 .4-.38q.15-.25.15-.6 0-.36-.14-.6a1 1 0 0 0-.41-.39q-.27-.12-.66-.12-.4 0-.7.06-.3.08-.6.23zM1 12h19v1.5H1zm16.29 2.82 5.1 2.09-.58 1.38-2.75-1.12 2.43 6.05-1.39.56-2.4-5.99-1.1 2.7-1.4-.57z"/></svg>