<svg width="24" height="24" fill="none" xmlns="http://www.w3.org/2000/svg"><path fill="currentColor" d="M3.02 10V7.2h-.8v-.8h.8v-.1c0-.32.06-.6.2-.81.12-.22.31-.39.57-.5.25-.11.56-.17.92-.17a3.8 3.8 0 0 1 .96.13v.77a5 5 0 0 0-.74-.11c-.2 0-.36.02-.48.07a.51.51 0 0 0-.26.24.94.94 0 0 0-.09.43v.05h1.4v.78H4.1V10H3.02Zm3.14 0V6.41h1l.05.66c.13-.25.3-.44.51-.57.22-.13.47-.19.76-.19a2 2 0 0 1 .52.06v.96a2.82 2.82 0 0 0-.6-.06c-.26 0-.49.04-.69.13a1 1 0 0 0-.45.35V10h-1.1Zm7.25-.23a5.37 5.37 0 0 1-1.8.33c-.46 0-.87-.07-1.22-.22-.34-.15-.6-.37-.79-.65a1.83 1.83 0 0 1-.27-1c0-.39.1-.73.27-1.02.18-.3.43-.52.76-.68a2.7 2.7 0 0 1 1.17-.23c.46 0 .86.07 1.19.22a1.65 1.65 0 0 1 1.02 1.64c0 .12-.01.23-.03.33h-3.27c.02.17.09.32.19.44.1.11.25.2.43.26.19.05.42.08.69.08A5.23 5.23 0 0 0 13.4 9v.78Zm-.8-1.96a.88.88 0 0 0-.2-.4.87.87 0 0 0-.36-.25 1.5 1.5 0 0 0-.52-.09c-.2 0-.37.03-.52.09a.86.86 0 0 0-.36.25.9.9 0 0 0-.2.4h2.16Zm5.77 1.96a5.37 5.37 0 0 1-1.8.33c-.47 0-.88-.07-1.22-.22-.34-.15-.6-.37-.79-.65a1.83 1.83 0 0 1-.27-1c0-.39.09-.73.27-1.02.18-.3.43-.52.76-.68a2.7 2.7 0 0 1 1.17-.23c.46 0 .86.07 1.19.22.33.14.58.36.75.64.17.28.26.61.26 1 0 .12 0 .23-.02.33H15.4c.02.17.08.32.19.44.1.11.24.2.43.26.19.05.41.08.68.08A5.23 5.23 0 0 0 18.38 9v.78Zm-.8-1.96a.89.89 0 0 0-.2-.4.87.87 0 0 0-.36-.25 1.5 1.5 0 0 0-.52-.09c-.2 0-.38.03-.53.09a.86.86 0 0 0-.36.25.9.9 0 0 0-.18.4h2.14ZM1 12h19v1.5H1V12Zm16.29 2.82 5.1 2.09-.58 1.38-2.75-1.12 2.43 6.05-1.39.56-2.4-5.99-1.1 2.7-1.4-.57 2.09-5.1Z"/></svg>