<svg width="48" height="48" fill="none" xmlns="http://www.w3.org/2000/svg"><path fill="currentColor" d="M8.51 27v-5.22H6.75v-.94H8.5v-.4c0-.5.1-.92.31-1.26.2-.33.52-.59.92-.76a4 4 0 0 1 1.52-.25c.33 0 .64.02.92.06.28.04.53.1.76.19v.94a6.38 6.38 0 0 0-1.66-.23c-.37 0-.68.04-.9.14-.24.1-.4.24-.52.44-.1.2-.16.47-.16.8v.33h2.6v.94H9.7V27H8.5Zm5.03 0v-6.16h1.07l.1 1.12c.26-.4.6-.71.98-.92.4-.21.83-.32 1.33-.32.44 0 .8.06 1.1.16v1.05a4.7 4.7 0 0 0-1.24-.14c-.48 0-.9.1-1.26.3-.36.2-.66.5-.9.9V27h-1.18Zm11.74-.42a5.83 5.83 0 0 1-2.8.56c-.75 0-1.4-.13-1.93-.4a2.82 2.82 0 0 1-1.25-1.14 3.56 3.56 0 0 1-.42-1.77 2.9 2.9 0 0 1 1.62-2.73 3.97 3.97 0 0 1 1.8-.4c.69 0 1.29.12 1.8.37a2.8 2.8 0 0 1 1.6 2.63c0 .17 0 .32-.02.47h-5.62c.03.43.15.8.36 1.1.2.3.5.53.86.68.37.16.82.23 1.34.23a6.57 6.57 0 0 0 2.66-.55v.95Zm-.74-3.32c-.03-.32-.15-.6-.35-.86a2 2 0 0 0-.8-.58 2.7 2.7 0 0 0-1.08-.2c-.4 0-.76.06-1.1.2-.32.14-.59.33-.79.59-.2.25-.31.53-.34.85h4.46Zm8.9 3.32a6.1 6.1 0 0 1-2.81.56c-.74 0-1.4-.13-1.93-.4a2.82 2.82 0 0 1-1.24-1.14 3.46 3.46 0 0 1-.43-1.77c0-.6.14-1.15.43-1.63.28-.48.68-.85 1.2-1.1a3.97 3.97 0 0 1 1.8-.4c.68 0 1.28.12 1.79.37s.9.6 1.19 1.05c.27.46.41.99.41 1.58 0 .17 0 .32-.02.47h-5.62c.03.43.15.8.36 1.1.2.3.5.53.86.68.37.16.82.23 1.34.23a6.57 6.57 0 0 0 2.67-.55v.95Zm-.75-3.32c-.03-.32-.15-.6-.35-.86a2 2 0 0 0-.8-.58 2.7 2.7 0 0 0-1.08-.2c-.4 0-.76.06-1.1.2-.32.14-.59.33-.79.59-.2.25-.31.53-.34.85h4.46Zm2.44 4.59 6.26 2.59-.38.92-4.81-1.99 3.86 9.14-.92.38-3.79-8.96-1.89 4.56-.92-.38 2.59-6.26Z"/></svg>