<svg width="24" height="24" fill="none" xmlns="http://www.w3.org/2000/svg"><path fill="currentColor" d="M3.02 10V7.2h-.8v-.8h.8v-.1q0-.49.2-.81.18-.33.57-.5t.92-.17a4 4 0 0 1 .96.13v.77a5 5 0 0 0-.74-.11q-.3 0-.48.07a.5.5 0 0 0-.26.24 1 1 0 0 0-.09.43v.05h1.4v.78H4.1V10zm3.14 0V6.41h1l.05.66q.2-.38.51-.57.33-.2.76-.19.3 0 .52.06v.96a3 3 0 0 0-.6-.06q-.39 0-.69.13-.3.12-.45.35V10zm7.25-.23q-.3.15-.8.24-.5.1-.99.1-.7 0-1.23-.23-.5-.23-.79-.65a2 2 0 0 1-.27-1q0-.58.27-1.02t.76-.68a3 3 0 0 1 1.17-.23q.7 0 1.19.22.5.21.76.64.26.42.26 1 0 .18-.03.33h-3.27q.04.26.19.44t.43.26.69.08A5 5 0 0 0 13.4 9zm-.8-1.96a1 1 0 0 0-.2-.4 1 1 0 0 0-.36-.25 2 2 0 0 0-.52-.09q-.3 0-.52.09a1 1 0 0 0-.36.25 1 1 0 0 0-.2.4zm5.77 1.96q-.3.15-.8.24-.5.1-1 .1-.7 0-1.22-.23-.5-.23-.79-.65a2 2 0 0 1-.27-1q0-.58.27-1.02t.76-.68a3 3 0 0 1 1.17-.23q.7 0 1.19.22.5.21.75.64.26.42.26 1 0 .18-.02.33H15.4q.03.26.19.44.15.17.43.26t.68.08A5 5 0 0 0 18.38 9zm-.8-1.96a1 1 0 0 0-.2-.4 1 1 0 0 0-.36-.25 2 2 0 0 0-.52-.09q-.3 0-.53.09a1 1 0 0 0-.36.25 1 1 0 0 0-.18.4zm-.15 3.34 4.86 1.99-.38.92-3.3-1.35 2.65 6.6-.93.38-2.64-6.56-1.33 3.26-.92-.38z"/></svg>