<svg width="48" height="48" fill="none" xmlns="http://www.w3.org/2000/svg"><path fill="currentColor" d="M27.2 27.84a3 3 0 0 0 1.81-.1q.5-.18.9-.56.39-.4.73-1l.18-.33L27.3 19h1.5l2.27 4.61.47.98.48-1 2.24-4.6h1.47l-3.7 7.21q-.52 1.05-1.12 1.65t-1.33.9q-.75.3-1.7.3-.44 0-.7-.1zM24.6 26l-.11-.64q-.54.38-1.31.6a6.4 6.4 0 0 1-3.32-.05 2.3 2.3 0 0 1-1.08-.73 1.8 1.8 0 0 1-.37-1.12q0-.74.47-1.21.46-.48 1.41-.72.96-.24 2.4-.24.78 0 1.69.05v-.24q0-.6-.26-1a1.5 1.5 0 0 0-.76-.58q-.52-.2-1.3-.2-.9 0-1.57.12-.68.1-1.41.4V19.4q.65-.28 1.4-.42t1.7-.13q1.11 0 1.92.31.8.32 1.22.92.4.6.4 1.45V26zm-.22-3.11h-1.35q-1.17 0-1.87.11t-1.03.36a.8.8 0 0 0-.33.65q0 .38.22.62.2.26.64.37.44.13 1.11.13.78 0 1.46-.18.69-.18 1.15-.5zM8.32 28.88V19h1.13l.1.61q.55-.36 1.29-.56a5.6 5.6 0 0 1 3.69.22q.92.45 1.4 1.27t.48 1.95-.49 1.96-1.43 1.27q-.93.45-2.21.44-.77 0-1.46-.17a4 4 0 0 1-1.15-.48v3.37zm1.35-4.46a4.3 4.3 0 0 0 2.42.68q.96 0 1.61-.3t1-.88q.32-.58.32-1.43 0-.86-.33-1.44t-.99-.88-1.61-.3a4.7 4.7 0 0 0-2.42.68zm25.46 3.43 6.26 2.59-.38.92-4.81-1.99 3.86 9.14-.92.38-3.79-8.96-1.89 4.56-.92-.38z"/></svg>