<svg width="24" height="24" fill="none" xmlns="http://www.w3.org/2000/svg"><path fill="currentColor" d="M5.42 2.9q.22.05.43.25l3 3c.14.13.2.3.24.43a1.6 1.6 0 0 1 0 .84q-.04.22-.24.43l-1 1q0 .07.06.21c.2.53.9 1.64 3.04 3.79l.5.5c2.1 2.09 3.25 2.8 3.84 3q.32.1.37.08l1.5-1.3a1 1 0 0 1 .42-.22 1.6 1.6 0 0 1 .84 0q.22.04.43.24l3 3c.14.13.2.3.24.43a1.6 1.6 0 0 1 0 .84q-.04.22-.24.43v.01l-4.27 4.06-.33-.18A50 50 0 0 1 4.6 13.4 50 50 0 0 1 .3 7.79l-.03-.03-.2-.33 4.08-4.28c.13-.14.3-.2.43-.24a1.6 1.6 0 0 1 .84 0M17 0h4v3h3v4h-3v3h-4V7h-3V3h3z"/></svg>