<svg width="48" height="48" fill="none" xmlns="http://www.w3.org/2000/svg"><path fill="currentColor" d="M6 23.1V5h7.15c5.57 0 7.57 2.32 7.57 5.62s-2.12 5.73-7.7 5.73H8.57v6.74zm6.6-16H8.57v7.15h4.03c4.17 0 5.5-1.3 5.5-3.63 0-2.32-1.33-3.52-5.5-3.52M17 30a13 13 0 1 1 26 0 13 13 0 0 1-26 0m1.04-1q-.04.5-.04 1c0 3.39 1.4 6.45 3.66 8.63l4.04-4.04a6 6 0 0 1-.77-3.11v-.03c0-.75 0-1.64.15-2.45zm.13-1h7.2c.22-.54.56-1.03 1.1-1.38a4 4 0 0 1 1.5-.45 14 14 0 0 1 4.05 0c.59.08 1.15.22 1.52.45a3 3 0 0 1 1.1 1.38h7.2a12 12 0 0 0-23.67 0m23.79 1h-7.04c.15.81.15 1.7.15 2.45v.03c0 1.18-.26 2.25-.77 3.11l4.04 4.04A12 12 0 0 0 41.96 29m-4.37 10.3-3.9-3.9A5 5 0 0 1 30 36.88a5 5 0 0 1-3.7-1.46l-3.89 3.89a11.95 11.95 0 0 0 15.18 0m-9.47-12.14q-.86.13-1.11.3c-.5.32-.77.87-.93 1.6-.15.75-.15 1.6-.15 2.42 0 1.37.4 2.47 1.07 3.21a4 4 0 0 0 3 1.18 4 4 0 0 0 3-1.18 4.7 4.7 0 0 0 1.07-3.21c0-.83 0-1.67-.15-2.41-.16-.74-.44-1.29-.93-1.6q-.25-.18-1.11-.32a13 13 0 0 0-3.76 0"/></svg>