<svg width="16" height="16" fill="none" xmlns="http://www.w3.org/2000/svg"><path fill="currentColor" d="M1 8.5a7.5 7.5 0 1 1 15 0 7.5 7.5 0 0 1-15 0m1.02-.45L2 8.5c0 1.78.71 3.39 1.87 4.56L5.93 11a3.6 3.6 0 0 1-.43-1.8v-.02q-.01-.53.05-1.13zm.14-1h3.67q.2-.4.61-.7c.24-.15.6-.23.92-.27a8 8 0 0 1 2.28 0c.32.04.68.12.92.28q.41.28.6.69h3.68a6.5 6.5 0 0 0-12.68 0m12.82 1h-3.53c.05.39.05.8.05 1.13v.03a3.6 3.6 0 0 1-.43 1.79l2.06 2.06a6.5 6.5 0 0 0 1.85-5.01m-2.6 5.67-1.96-1.96a3 3 0 0 1-1.92.63 3 3 0 0 1-1.92-.63l-1.96 1.96a6.5 6.5 0 0 0 7.76 0M7.5 7.06q-.47.08-.52.14-.3.18-.41.73c-.08.38-.08.82-.08 1.28q.02 1.06.53 1.6c.32.35.8.58 1.47.58a2 2 0 0 0 1.47-.58q.51-.54.53-1.6.02-.7-.08-1.28-.12-.54-.4-.73-.06-.06-.53-.14a7 7 0 0 0-1.98 0"/></svg>