<svg width="24" height="24" fill="none" xmlns="http://www.w3.org/2000/svg"><path fill="currentColor" d="M1.5 1.5v11.86h2.55V9.31h2.17q2.6-.01 3.88-1.09a3.5 3.5 0 0 0 1.24-2.85c0-1.09-.34-2.1-1.2-2.81Q8.88 1.5 6.29 1.5zm4.46 5.55H4.05V3.76h1.91c1.23 0 1.92.18 2.3.45.34.23.5.57.5 1.17s-.16.95-.5 1.2c-.38.28-1.08.47-2.3.47m1.79 8.45a7.75 7.75 0 1 1 15.5 0 7.75 7.75 0 0 1-15.5 0m1.5-.2v.2c0 1.62.61 3.1 1.62 4.2l1.76-1.75a4 4 0 0 1-.38-1.74v-.03l.02-.88zm.24-1.5h3.2q.2-.38.62-.65c.29-.19.69-.27 1.01-.32a8 8 0 0 1 2.36 0c.32.04.72.13 1.01.32q.41.27.62.65h3.2a6.25 6.25 0 0 0-12.02 0m12.26 1.5h-3.02l.02.88v.03q0 .95-.38 1.74l1.76 1.75a6.2 6.2 0 0 0 1.62-4.4m-2.76 5.39-1.6-1.6q-.8.55-1.89.55-1.1 0-1.9-.55l-1.59 1.6a6.2 6.2 0 0 0 6.98 0m-4.86-6.28c-.12.07-.24.23-.3.57-.08.35-.08.76-.08 1.23 0 .66.19 1.13.46 1.43s.68.5 1.29.5 1.02-.2 1.29-.5.46-.77.46-1.43q.02-.7-.07-1.23c-.07-.34-.19-.5-.3-.57q-.03-.03-.42-.1a7 7 0 0 0-2.33.1"/></svg>