<svg width="48" height="48" fill="none" xmlns="http://www.w3.org/2000/svg"><path fill="currentColor" d="M14.1 5.5q-.43 0-.77.23a19.25 19.25 0 1 0 21.35 0 1.4 1.4 0 0 0-.79-.23zm-1.33-.6q.62-.4 1.34-.4h19.78q.72 0 1.34.4a20.25 20.25 0 1 1-22.46 0M17.5 9a1.5 1.5 0 1 0 0 3 1.5 1.5 0 0 0 0-3M15 10.5a2.5 2.5 0 1 1 5 0 2.5 2.5 0 0 1-5 0M24 9a1.5 1.5 0 1 0 0 3 1.5 1.5 0 0 0 0-3m-2.5 1.5a2.5 2.5 0 1 1 5 0 2.5 2.5 0 0 1-5 0m9-1.5a1.5 1.5 0 1 0 0 3 1.5 1.5 0 0 0 0-3M28 10.5a2.5 2.5 0 1 1 5 0 2.5 2.5 0 0 1-5 0M24 15a1.5 1.5 0 1 0 0 3 1.5 1.5 0 0 0 0-3m-2.5 1.5a2.5 2.5 0 1 1 5 0 2.5 2.5 0 0 1-5 0m-7.5 1a5 5 0 1 0 0 10 5 5 0 0 0 0-10m-6 5a6 6 0 1 1 12 0 6 6 0 0 1-12 0m26-5a5 5 0 1 0 0 10 5 5 0 0 0 0-10m-6 5a6 6 0 1 1 12 0 6 6 0 0 1-12 0M24 31a2.5 2.5 0 1 0 0 5 2.5 2.5 0 0 0 0-5m-3.5 2.5a3.5 3.5 0 1 1 7 0 3.5 3.5 0 0 1-7 0M16 32a1.5 1.5 0 1 0 0 3 1.5 1.5 0 0 0 0-3m-2.5 1.5a2.5 2.5 0 1 1 5 0 2.5 2.5 0 0 1-5 0M32 32a1.5 1.5 0 1 0 0 3 1.5 1.5 0 0 0 0-3m-2.5 1.5a2.5 2.5 0 1 1 5 0 2.5 2.5 0 0 1-5 0"/></svg>