<svg width="48" height="48" fill="none" xmlns="http://www.w3.org/2000/svg"><path fill="currentColor" d="M24 6.5c-13.96 0-17.3 3.99-17.93 5.68-.47 1.24-1.37 5.53-.97 12.3.39 6.64 3.21 10 4.36 11.17C11.18 37.4 16.56 41 24 41c7.45 0 12.82-3.6 14.54-5.35 1.15-1.17 3.97-4.53 4.36-11.18.4-6.76-.5-11.05-.97-12.3C41.3 10.5 37.96 6.5 24 6.5M5.13 11.82C6 9.52 9.96 5.5 24 5.5s18 4.01 18.87 6.32c.53 1.43 1.43 5.87 1.03 12.7-.4 6.96-3.37 10.54-4.64 11.83C37.38 38.27 31.76 42 24 42s-13.38-3.73-15.26-5.65c-1.27-1.3-4.23-4.87-4.64-11.82-.4-6.84.5-11.28 1.03-12.7m16.06-1.36c-.13.3-.1.65.05.87a10 10 0 0 1-10.99 15.29.8.8 0 0 0-.73.17q-.32.26-.24.59l.81 3.37c.09.36.6.59.99.34A24 24 0 0 1 24 27.5a24 24 0 0 1 12.92 3.59c.38.25.9.02.99-.34l.8-3.37q.09-.32-.23-.59a.8.8 0 0 0-.73-.17 10 10 0 0 1-11-15.29 1 1 0 0 0 .06-.87c-.13-.31-.35-.46-.56-.46h-4.5c-.21 0-.43.15-.56.46m-.92-.39c.23-.55.74-1.07 1.48-1.07h4.5c.74 0 1.25.52 1.48 1.07s.24 1.27-.15 1.83a9 9 0 0 0 9.9 13.76c.6-.18 1.21 0 1.64.36.43.35.73.94.57 1.59l-.81 3.37c-.27 1.12-1.61 1.53-2.5.95A23 23 0 0 0 24 28.5a23 23 0 0 0-12.38 3.43c-.89.58-2.23.17-2.5-.95l-.81-3.37a1.6 1.6 0 0 1 .57-1.6 1.8 1.8 0 0 1 1.65-.35 9 9 0 0 0 9.89-13.76 2 2 0 0 1-.15-1.83M13 13a4 4 0 1 0 0 8 4 4 0 0 0 0-8m-5 4a5 5 0 1 1 10 0 5 5 0 0 1-10 0m27-4a4 4 0 1 0 0 8 4 4 0 0 0 0-8m-5 4a5 5 0 1 1 10 0 5 5 0 0 1-10 0m-6 15a2.5 2.5 0 1 0 0 5 2.5 2.5 0 0 0 0-5m-3.5 2.5a3.5 3.5 0 1 1 7 0 3.5 3.5 0 0 1-7 0M16 33a1.5 1.5 0 1 0 0 3 1.5 1.5 0 0 0 0-3m-2.5 1.5a2.5 2.5 0 1 1 5 0 2.5 2.5 0 0 1-5 0M32 33a1.5 1.5 0 1 0 0 3 1.5 1.5 0 0 0 0-3m-2.5 1.5a2.5 2.5 0 1 1 5 0 2.5 2.5 0 0 1-5 0"/></svg>