<svg width="48" height="48" fill="none" xmlns="http://www.w3.org/2000/svg"><path fill="currentColor" d="M9.99 17.01a14.01 14.01 0 1 1 19.24 13h7.27a4.5 4.5 0 0 1 4.5 4.5v6a4.5 4.5 0 0 1-4.5 4.5h-25a4.5 4.5 0 0 1-4.5-4.5v-6a4.5 4.5 0 0 1 4.5-4.5h7.27a14 14 0 0 1-8.78-13m14.52 13a13.01 13.01 0 1 0-1.02 0zm-1.04 1H11.5a3.5 3.5 0 0 0-3.5 3.5v6a3.5 3.5 0 0 0 3.5 3.5h25a3.5 3.5 0 0 0 3.5-3.5v-6a3.5 3.5 0 0 0-3.5-3.5zM19 11.02a2 2 0 1 0 0 4 2 2 0 0 0 0-4m-3 2a3 3 0 1 1 6 0 3 3 0 0 1-6 0m13-2a2 2 0 1 0 0 4 2 2 0 0 0 0-4m-3 2a3 3 0 1 1 6 0 3 3 0 0 1-6 0m-9 6a1 1 0 1 0 0 2 1 1 0 0 0 0-2m-2 1a2 2 0 1 1 4 0 2 2 0 0 1-4 0m16-1a1 1 0 1 0 0 2 1 1 0 0 0 0-2m-2 1a2 2 0 1 1 4 0 2 2 0 0 1-4 0m-5 2a2 2 0 1 0 0 4 2 2 0 0 0 0-4m-3 2a3 3 0 1 1 6 0 3 3 0 0 1-6 0m-4.5 9.99a3.5 3.5 0 1 0 0 7 3.5 3.5 0 0 0 0-7m-4.5 3.5a4.5 4.5 0 1 1 9 0 4.5 4.5 0 0 1-9 0m19.5-3.5a3.5 3.5 0 1 0 0 7 3.5 3.5 0 0 0 0-7m-4.5 3.5a4.5 4.5 0 1 1 9 0 4.5 4.5 0 0 1-9 0"/></svg>