<svg width="24" height="24" fill="none" xmlns="http://www.w3.org/2000/svg"><path fill="currentColor" d="M11 3.38c0 .28.22.5.5.5h1a.5.5 0 0 0 .5-.5V1.92l.58.09a10 10 0 0 1 6.85 4.48c.37.57.57 1.25.57 1.93v1.46h.5c.83 0 1.5.67 1.5 1.5v1c0 .83-.67 1.5-1.5 1.5H21v1.46c0 .68-.2 1.36-.57 1.93a10 10 0 0 1-6.85 4.48l-.58.1v-1.47a.5.5 0 0 0-.5-.5h-1a.5.5 0 0 0-.5.5v1.46l-.58-.09a10 10 0 0 1-6.85-4.48A3.5 3.5 0 0 1 3 15.34v-1.46h-.5a1.5 1.5 0 0 1-1.5-1.5v-1c0-.83.67-1.5 1.5-1.5H3V8.42c0-.68.2-1.36.57-1.93A10 10 0 0 1 10.42 2l.58-.1zM8 11a1 1 0 1 0 0 2 1 1 0 0 0 0-2m8 0a1 1 0 1 0 0 2 1 1 0 0 0 0-2"/></svg>