<svg width="48" height="48" fill="none" xmlns="http://www.w3.org/2000/svg"><path fill="currentColor" d="M4 24a20 20 0 1 1 40 0 20 20 0 0 1-40 0M24 5a19 19 0 1 0 0 38 19 19 0 0 0 0-38m-5.5 10a1.5 1.5 0 1 0 0 3 1.5 1.5 0 0 0 0-3M16 16.5a2.5 2.5 0 1 1 5 0 2.5 2.5 0 0 1-5 0M29.5 15a1.5 1.5 0 1 0 0 3 1.5 1.5 0 0 0 0-3M27 16.5a2.5 2.5 0 1 1 5 0 2.5 2.5 0 0 1-5 0M13.5 24a1.5 1.5 0 1 0 0 3 1.5 1.5 0 0 0 0-3M11 25.5a2.5 2.5 0 1 1 5 0 2.5 2.5 0 0 1-5 0M34.5 24a1.5 1.5 0 1 0 0 3 1.5 1.5 0 0 0 0-3M32 25.5a2.5 2.5 0 1 1 5 0 2.5 2.5 0 0 1-5 0M24 30a3 3 0 1 0 0 6 3 3 0 0 0 0-6m-4 3a4 4 0 1 1 8 0 4 4 0 0 1-8 0"/></svg>