<svg width="48" height="48" fill="none" xmlns="http://www.w3.org/2000/svg"><path fill="currentColor" d="M36.1 6c.35 0 .7.12.97.36 6.27 5.33 9.25 14.43 5.45 23.78a18.5 18.5 0 0 1-10.01 10.1C17.83 46.35 3.75 35.7 3.75 21.78c0-6.18 2.77-11.7 7.13-15.41q.43-.35.98-.36zm0 1a.5.5 0 0 1 .32.12zM11.86 7a.5.5 0 0 0-.33.12 19.2 19.2 0 0 0-6.78 14.65c0 13.24 13.37 23.36 27.37 17.55a17.5 17.5 0 0 0 9.47-9.56c3.64-8.93.79-17.58-5.17-22.64M11.86 7H36.1zm5.62 6a1.5 1.5 0 1 0 0 3 1.5 1.5 0 0 0 0-3m-2.5 1.5a2.5 2.5 0 1 1 5 0 2.5 2.5 0 0 1-5 0M30.49 13a1.5 1.5 0 1 0 0 3 1.5 1.5 0 0 0 0-3m-2.5 1.5a2.5 2.5 0 1 1 5 0 2.5 2.5 0 0 1-5 0M12.98 20a3 3 0 1 0 0 6 3 3 0 0 0 0-6m-4 3a4 4 0 1 1 8 0 4 4 0 0 1-8 0m15-3a3 3 0 1 0 0 6 3 3 0 0 0 0-6m-4 3a4 4 0 1 1 8 0 4 4 0 0 1-8 0m15-3a3 3 0 1 0 0 6 3 3 0 0 0 0-6m-4 3a4 4 0 1 1 8 0 4 4 0 0 1-8 0m-13 6a3 3 0 1 0 0 6 3 3 0 0 0 0-6m-4 3a4 4 0 1 1 8 0 4 4 0 0 1-8 0m16-3a3 3 0 1 0 0 6 3 3 0 0 0 0-6m-4 3a4 4 0 1 1 8 0 4 4 0 0 1-8 0"/></svg>