<svg width="24" height="24" fill="none" xmlns="http://www.w3.org/2000/svg"><path fill="currentColor" d="M6 9a1.5 1.5 0 1 1 3 0 1.5 1.5 0 0 1-3 0m9 0a1.5 1.5 0 1 1 3 0 1.5 1.5 0 0 1-3 0"/><path fill="currentColor" d="M3.51 6.44C3.96 5.25 5.85 3.5 12 3.5s8.04 1.75 8.49 2.94c.25.67.64 2.65.47 5.65-.19 3.12-1.52 4.74-2.1 5.34-.87.88-3.4 2.54-6.86 2.54s-5.99-1.66-6.85-2.54c-.6-.6-1.92-2.22-2.1-5.34-.18-3 .21-4.98.46-5.65M11.5 6v6.5c-1.24.03-2.38.15-3.33.32a8 8 0 0 0-2.43.75l.52.86c.33-.2 1.06-.44 2.1-.63a21 21 0 0 1 7.29 0c1.03.19 1.76.43 2.1.63l.5-.86c-.5-.3-1.37-.56-2.42-.75-.95-.17-2.1-.29-3.33-.31V6zm-4 .5a2.5 2.5 0 1 0 0 5 2.5 2.5 0 0 0 0-5m9 0a2.5 2.5 0 1 0 0 5 2.5 2.5 0 0 0 0-5M12 15a1 1 0 1 0 0 2 1 1 0 0 0 0-2m-4 .5v1h1v-1zm7 1h1v-1h-1z"/></svg>