<svg width="16" height="16" fill="none" xmlns="http://www.w3.org/2000/svg"><path fill="currentColor" d="M10 2h-.21a7 7 0 0 0-2.24.5c-.62.27-1.26.7-1.75 1.35-.41.56-.7 1.27-.78 2.15H4.5a3.5 3.5 0 1 0 0 7h1c.83 0 1.5.67 1.5 1.5V16h1v-1.5A2.5 2.5 0 0 0 5.5 12h-1a2.5 2.5 0 0 1 0-5h.52c.08.89.37 1.6.78 2.15a4 4 0 0 0 1.75 1.35 6 6 0 0 0 2.4.5H13V9h2.98V8H13V5h3V4h-3V2zm0 8h-.04a4 4 0 0 1-.6-.04c-.39-.05-.9-.16-1.41-.38s-.99-.54-1.34-1.02A3.3 3.3 0 0 1 6 6.5c0-.93.24-1.58.6-2.06.35-.47.83-.8 1.34-1.02a5 5 0 0 1 2-.42H12v7z"/></svg>