<svg width="48" height="48" fill="none" xmlns="http://www.w3.org/2000/svg"><path fill="currentColor" d="M9 17.5C9 9.52 15.52 3 23.5 3S38 9.52 38 17.5c0 2.04-.92 4.78-2.23 7.67a90 90 0 0 1-4.84 8.98 170 170 0 0 1-6.98 10.59l-.03.04-.01.01-.41-.29-.4.3-.02-.02-.03-.04-.56-.8a166 166 0 0 1-6.42-9.8 90 90 0 0 1-4.84-8.97C9.92 22.27 9 19.54 9 17.5m14.5 27-.4.3.4.55.4-.56zm0-.86 1.77-2.56a170 170 0 0 0 4.8-7.45 89 89 0 0 0 4.79-8.87c1.3-2.89 2.14-5.45 2.14-7.26C37 10.08 30.92 4 23.5 4S10 10.08 10 17.5c0 1.8.83 4.37 2.14 7.26a89 89 0 0 0 4.79 8.87 170 170 0 0 0 6.57 10.01M22 8c-.82 0-1.5.68-1.5 1.5v3c0 .82.68 1.5 1.5 1.5h3c.82 0 1.5-.68 1.5-1.5v-3c0-.82-.68-1.5-1.5-1.5zm-2.5 1.5A2.5 2.5 0 0 1 22 7h3a2.5 2.5 0 0 1 2.5 2.5v3A2.5 2.5 0 0 1 25 15h-3a2.5 2.5 0 0 1-2.5-2.5zm-2.75 7.85q.4-.34 1.05-.35h11.5q.64.01 1.05.35.39.34.5.73.09.23.12.42h.13V26h-15v-7.27q.02-.27.14-.65.14-.4.5-.73M30.1 19.5h-.13l.03-.53v-.17q-.01-.17-.08-.38a1 1 0 0 0-.2-.3q-.1-.1-.42-.12H17.8q-.32.01-.42.12a1 1 0 0 0-.2.3 2 2 0 0 0-.08.54V25h13z"/></svg>