<svg width="24" height="24" fill="none" xmlns="http://www.w3.org/2000/svg"><path fill="currentColor" d="M4 8.5C4 4.32 7.32 1 11.5 1S19 4.32 19 8.5c0 1.09-.48 2.53-1.14 4.03a49 49 0 0 1-2.43 4.68A92 92 0 0 1 12 22.67l-.06.08-.01.03-.42-.28-.41.28-.02-.03-.06-.08L10 21.13a92 92 0 0 1-2.42-3.92 49 49 0 0 1-2.43-4.68C4.48 11.03 4 9.6 4 8.5m7.5 14-.41.28.41.6.41-.6zm0-.89a92 92 0 0 0 3.07-4.9c.87-1.5 1.73-3.1 2.38-4.58A10 10 0 0 0 18 8.5C18 4.88 15.12 2 11.5 2A6.46 6.46 0 0 0 5 8.5c0 .86.4 2.14 1.05 3.63a48 48 0 0 0 2.38 4.58 91 91 0 0 0 3.07 4.9M8 4h7v10h-3v-3h-1v3H8zm1 1v8h1v-3h3v3h1V5zm1 1h1v1h-1zm2 0h1v1h-1zm-2 2h1v1h-1zm2 0h1v1h-1z"/></svg>