<svg width="24" height="24" fill="none" xmlns="http://www.w3.org/2000/svg"><path fill="currentColor" d="M4 8.5C4 4.32 7.32 1 11.5 1S19 4.32 19 8.5v.05a10 10 0 0 1-.95 3.47l-.9-.44a9 9 0 0 0 .85-3.1A6.46 6.46 0 0 0 11.5 2 6.46 6.46 0 0 0 5 8.5c0 .86.4 2.14 1.05 3.63a48 48 0 0 0 2.38 4.58 91 91 0 0 0 3.07 4.9 94 94 0 0 0 3.86-6.25l.88.48a86 86 0 0 1-4.23 6.8l-.07.1-.02.04-.42-.28-.41.28-.02-.03-.06-.08-1.02-1.54a92 92 0 0 1-2.42-3.92 49 49 0 0 1-2.43-4.68C4.48 11.03 4 9.6 4 8.5m7.5 14-.41.28.4.6.42-.6zM9.03 6.06c1.33-1.44 3.55-1.28 4.9-.03a3.4 3.4 0 0 1 .35 4.55l4.87 4.87-.7.7-4.86-4.85c-.59.48-1.35.7-2.09.7q-1.41-.01-2.45-1.04c-1.43-1.32-1.26-3.54-.02-4.9m4.23.7c-1.04-.94-2.61-.98-3.5-.02-.94 1.04-.98 2.61-.02 3.5h.01q.78.77 1.75.76c.69 0 1.33-.26 1.72-.72l.01-.02.02-.01a2.4 2.4 0 0 0 .01-3.48"/></svg>