<svg width="48" height="48" fill="none" xmlns="http://www.w3.org/2000/svg"><path fill="currentColor" d="M9 17.5C9 9.52 15.52 3 23.5 3S38 9.52 38 17.5a12 12 0 0 1-.83 4.28l-.94-.36A11 11 0 0 0 37 17.5C37 10.08 30.92 4 23.5 4S10 10.08 10 17.5c0 1.8.83 4.37 2.14 7.26a89 89 0 0 0 4.79 8.87 170 170 0 0 0 6.57 10 137 137 0 0 0 2-2.89c1.43-2.12 3.33-5 5.17-8.1l.86.52a174 174 0 0 1-7.58 11.57l-.03.05-.01.01-.41-.29-.4.3-.02-.02-.03-.04-.56-.8a166 166 0 0 1-6.42-9.8 90 90 0 0 1-4.84-8.97C9.92 22.27 9 19.54 9 17.5m14.5 27-.4.3.4.55.4-.56zm-7.5-27a7.5 7.5 0 1 1 13.3 4.76l10.54 9.87-.68.74-10.55-9.88A7.5 7.5 0 0 1 16 17.5m7.5-6.5a6.5 6.5 0 1 0 0 13 6.5 6.5 0 0 0 0-13"/></svg>