<svg width="24" height="24" fill="none" xmlns="http://www.w3.org/2000/svg"><path fill="currentColor" d="M10 4.5c0-.26.2-.5.5-.5h2c.3 0 .5.24.5.5v2q-.01.27-.13.37-.1.12-.37.13h-2q-.27-.01-.37-.13-.12-.1-.13-.37zm4.5 5.7h.5zM9 10.16V10h4.96v.02l.04.18V13H9z"/><path fill="currentColor" d="M3.8 8.6C3.8 4.33 7.32.8 11.5.8s7.7 3.53 7.7 7.8c0 1.11-.5 2.58-1.17 4.1a48 48 0 0 1-2.5 4.7 90 90 0 0 1-3.54 5.47l-.06.09-.43.6-.43-.6-.06-.09-1.05-1.53a90 90 0 0 1-2.49-3.93 48 48 0 0 1-2.5-4.72C4.29 11.18 3.8 9.71 3.8 8.6M10.5 3C9.6 3 9 3.76 9 4.5v2c0 .41.14.8.42 1.08S10.1 8 10.5 8h2c.41 0 .8-.14 1.08-.42S14 6.9 14 6.5v-2c0-.74-.6-1.5-1.5-1.5zM9 9a1 1 0 0 0-.66.23 1 1 0 0 0-.3.48 1 1 0 0 0-.04.5V14h7v-3.82l-.01-.15-.08-.35a1 1 0 0 0-.28-.44A1 1 0 0 0 14 9z"/></svg>