<svg width="24" height="24" fill="none" xmlns="http://www.w3.org/2000/svg"><path fill="currentColor" d="M3.8 8.6C3.8 4.33 7.32.8 11.5.8s7.7 3.53 7.7 7.8c0 1.11-.5 2.58-1.17 4.1a48 48 0 0 1-2.5 4.7 90 90 0 0 1-3.54 5.47l-.06.09-.02.02V23l-.41-.29-.4.29h-.01l-.02-.03-.06-.09-1.05-1.53a90 90 0 0 1-2.49-3.93 48 48 0 0 1-2.5-4.72C4.29 11.18 3.8 9.71 3.8 8.6m7.7 14.1-.4.29.4.57.4-.57zm0-.87a88 88 0 0 0 3.17-4.94 47 47 0 0 0 2.45-4.6A10 10 0 0 0 18.2 8.6c0-3.73-3.08-6.8-6.7-6.8a6.8 6.8 0 0 0-6.7 6.8c0 .89.4 2.18 1.08 3.69.67 1.48 1.55 3.1 2.45 4.6a89 89 0 0 0 3.17 4.94M10.5 4a.5.5 0 0 0-.5.5v2q.01.27.13.37.1.12.37.13h2q.28-.01.37-.13.12-.1.13-.37v-2a.5.5 0 0 0-.5-.5zM9 4.5c0-.74.6-1.5 1.5-1.5h2c.9 0 1.5.76 1.5 1.5v2c0 .41-.14.8-.42 1.08A1.5 1.5 0 0 1 12.5 8h-2c-.41 0-.8-.14-1.08-.42A1.5 1.5 0 0 1 9 6.5zm-.66 4.73Q8.6 9 9 9h5q.39.02.63.24.22.23.28.44a2 2 0 0 1 .09.5v.02h-.5.5V14H8v-3.77a2 2 0 0 1 .04-.52 1 1 0 0 1 .3-.48m.66.9V13h5v-2.8l-.04-.2H9z"/></svg>