<svg width="48" height="48" fill="none" xmlns="http://www.w3.org/2000/svg"><path fill="currentColor" d="M9 17.5C9 9.52 15.52 3 23.5 3S38 9.52 38 17.5c0 2.04-.92 4.78-2.23 7.67a90 90 0 0 1-4.84 8.98 170 170 0 0 1-6.98 10.59l-.03.04-.01.01-.41-.29-.4.3-.02-.02-.03-.04-.56-.8a166 166 0 0 1-6.42-9.8 90 90 0 0 1-4.84-8.97C9.92 22.27 9 19.54 9 17.5m14.5 27-.4.3.4.55.4-.56zm0-.86 1.77-2.56a170 170 0 0 0 4.8-7.45 89 89 0 0 0 4.79-8.87c1.3-2.89 2.14-5.45 2.14-7.26C37 10.08 30.92 4 23.5 4S10 10.08 10 17.5c0 1.8.83 4.37 2.14 7.26a89 89 0 0 0 4.79 8.87 170 170 0 0 0 6.57 10.01m0-36.26 3.13 6.26 6.94 1.01-5.03 4.92 1.23 6.94-6.27-3.25-6.27 3.25 1.23-6.94-5.03-4.92 6.94-1zm0 2.24-2.47 4.94-5.46.79 3.97 3.88-.97 5.46 4.93-2.55 4.93 2.55-.97-5.46 3.97-3.88-5.46-.8z"/></svg>