<svg width="48" height="48" fill="none" xmlns="http://www.w3.org/2000/svg"><path fill="currentColor" d="M9 17.5C9 9.52 15.52 3 23.5 3S38 9.52 38 17.5c0 2.04-.92 4.78-2.23 7.67a90 90 0 0 1-4.84 8.98 170 170 0 0 1-6.98 10.59l-.03.04-.01.01-.41-.29-.4.3-.02-.02-.03-.04-.56-.8a166 166 0 0 1-6.42-9.8 90 90 0 0 1-4.84-8.97C9.92 22.27 9 19.54 9 17.5m14.5 27-.4.3.4.55.4-.56zm0-.86 1.77-2.56a170 170 0 0 0 4.8-7.45 89 89 0 0 0 4.79-8.87c1.3-2.89 2.14-5.45 2.14-7.26C37 10.08 30.92 4 23.5 4S10 10.08 10 17.5c0 1.8.83 4.37 2.14 7.26a89 89 0 0 0 4.79 8.87 170 170 0 0 0 6.57 10.01M29 11H16v-1h13zM16 21.83V12h13v5.7L23.7 23H20l.01 1.83q.01.12.04.13.01.03.13.04h10.65q.12-.01.13-.04.03-.01.04-.13V14h1v10.83q0 .48-.33.84-.36.33-.84.33H20.18q-.48 0-.84-.33a1.2 1.2 0 0 1-.33-.84h.5-.5m0-1.83h-1.84c-.7 0-1.17-.6-1.17-1.17M28 13H17v8.83q0 .05.05.12.05.05.12.05H23v-5h5zm-.7 5H24v3.3z"/></svg>