<svg width="24" height="24" fill="none" xmlns="http://www.w3.org/2000/svg"><path fill="currentColor" d="M17.2 16.53c.63-1.14 1.24-2.3 1.74-3.43q.6-1.3.96-2.59l.32-.01c2.02 0 3.72 1.7 3.72 3.77a6 6 0 0 1-.56 1.98 23 23 0 0 1-1.21 2.28 44 44 0 0 1-1.71 2.64l-.03.04v.01h-.01l-.2.28-.2-.28v-.01l-.04-.04-.5-.74a44 44 0 0 1-1.2-1.9q-.6-1-1.09-2M3.8 8.6C3.8 4.33 7.32.8 11.5.8s7.7 3.53 7.7 7.8c0 1.11-.5 2.58-1.17 4.1a48 48 0 0 1-2.5 4.7 90 90 0 0 1-3.54 5.47l-.06.09-.02.02V23l-.41.57-.41-.58-.02-.02-.06-.09-1.05-1.53a90 90 0 0 1-2.49-3.93 48 48 0 0 1-2.5-4.72C4.29 11.18 3.8 9.71 3.8 8.6M9 8.5a2.5 2.5 0 1 0 5 0 2.5 2.5 0 0 0-5 0"/></svg>