<svg width="24" height="24" fill="none" xmlns="http://www.w3.org/2000/svg"><path fill="currentColor" d="M4 8.5C4 4.32 7.32 1 11.5 1S19 4.32 19 8.5c0 1.09-.48 2.53-1.14 4.03a49 49 0 0 1-2.43 4.68A92 92 0 0 1 12 22.67l-.06.08-.01.03-.42-.28-.41.28-.02-.03-.06-.08L10 21.13a92 92 0 0 1-2.42-3.92 49 49 0 0 1-2.43-4.68C4.48 11.03 4 9.6 4 8.5m7.5 14-.41.28.41.6.41-.6zm0-.89a92 92 0 0 0 3.07-4.9c.87-1.5 1.73-3.1 2.38-4.58A10 10 0 0 0 18 8.5C18 4.88 15.12 2 11.5 2A6.46 6.46 0 0 0 5 8.5c0 .86.4 2.14 1.05 3.63a48 48 0 0 0 2.38 4.58 91 91 0 0 0 3.07 4.9M8 8.5a3.5 3.5 0 1 1 7 0 3.5 3.5 0 0 1-7 0M11.5 6a2.5 2.5 0 1 0 0 5 2.5 2.5 0 0 0 0-5M23 14.7a3 3 0 0 0-2.93-3l.06-1a4 4 0 0 1 3.87 4c0 .57-.24 1.25-.55 1.9-.31.66-.72 1.36-1.13 2a34 34 0 0 1-1.59 2.26l-.03.03v.01l-.4-.3-.4.3-.02-.03-.08-.1-1.1-1.49a48 48 0 0 1-1.83-2.62l.86-.52a47 47 0 0 0 2.57 3.63 49 49 0 0 0 1.18-1.71q.62-.95 1.07-1.9T23 14.7m-2.7 5.9-.4.3.4.52.4-.51z"/></svg>