<svg width="16" height="16" fill="none" xmlns="http://www.w3.org/2000/svg"><path fill="currentColor" d="M4.5 1.54V0h1v1.54q.9.13 1.6.66l1.08-1.1.7.7L7.8 2.9q.53.69.66 1.59H9.5v1H8.46q-.13.9-.66 1.6l1.1 1.09-.7.7L7.1 7.8q-.69.53-1.59.66v2.04A2.5 2.5 0 0 1 3 13H2a1 1 0 1 0 0 2h9c.82 0 1.5-.68 1.5-1.5V7.96A3 3 0 0 1 10 5V3h1V0h1v3h2V0h1v3h1v2a3 3 0 0 1-2.5 2.96v5.54A2.5 2.5 0 0 1 11 16H2a2 2 0 1 1 0-4h1c.82 0 1.5-.68 1.5-1.5V8.46a3.5 3.5 0 0 1-1.6-.66L1.82 8.9l-.7-.7L2.2 7.1q-.53-.69-.66-1.59H.5v-1h1.04q.13-.9.66-1.6L1.1 1.82l.7-.7L2.9 2.2q.69-.53 1.59-.66m.5.96a2.5 2.5 0 1 0 0 5 2.5 2.5 0 0 0 0-5M11 4v1a2 2 0 0 0 4 0V4z"/></svg>