<svg width="24" height="24" fill="none" xmlns="http://www.w3.org/2000/svg"><path fill="currentColor" d="M1 3.5A2.5 2.5 0 0 1 3.5 1H14v11.5a2.5 2.5 0 0 1-2.5 2.5H1zM3.5 2C2.67 2 2 2.67 2 3.5V14h9.5c.83 0 1.5-.67 1.5-1.5V2zM17 4V1h1v3h3V1h1v3h1v3.5a3.5 3.5 0 0 1-3 3.46v9.54a2.5 2.5 0 0 1-2.5 2.5H4a2.5 2.5 0 0 1 0-5h1.5c.83 0 1.5-.67 1.5-1.5V16h1v.5A2.5 2.5 0 0 1 5.5 19H4a1.5 1.5 0 0 0 0 3h13.5c.83 0 1.5-.67 1.5-1.5v-9.54a3.5 3.5 0 0 1-3-3.46V4zm5 1h-5v2.5a2.5 2.5 0 0 0 5 0zM7 3.5l.94-.23c.4.76.76 1.43 1.28 1.93.5.47 1.16.8 2.21.8H12v1h-.57a4 4 0 0 1-2.9-1.08q-.45-.45-.78-.97a3 3 0 0 1-1.05 1.3C5.9 6.8 4.8 7 3.57 7H3V6h.57q1.71 0 2.57-.58C6.66 5.07 7 4.5 7 3.5m0 4 .94-.23c.4.76.76 1.43 1.28 1.93.5.47 1.16.8 2.21.8H12v1h-.57a4 4 0 0 1-2.9-1.08q-.45-.45-.78-.97a3 3 0 0 1-1.05 1.3c-.8.55-1.91.75-3.13.75H3v-1h.57q1.71 0 2.57-.58C6.66 9.07 7 8.5 7 7.5"/></svg>