<svg width="48" height="48" fill="none" xmlns="http://www.w3.org/2000/svg"><path fill="currentColor" d="M5 5.5A2.5 2.5 0 0 1 7.5 3H27v26.5a2.5 2.5 0 0 1-2.5 2.5H5zM7.5 4C6.67 4 6 4.67 6 5.5V31h18.5c.83 0 1.5-.67 1.5-1.5V4zM37 9V4.5h1V9h5V4.5h1V9h3v6.5a6.5 6.5 0 0 1-6 6.48V40.5a4.5 4.5 0 0 1-4.5 4.5H8a4 4 0 0 1 0-8h4a3.5 3.5 0 0 0 3.5-3.5V33h1v.5A4.5 4.5 0 0 1 12 38H8a3 3 0 1 0 0 6h28.5a3.5 3.5 0 0 0 3.5-3.5V21.98a6.5 6.5 0 0 1-6-6.48V9zM12.01 9h.49a.5.5 0 0 1 .42.23l.04.06.08.15.15.3c.15.26.35.62.6.97q.38.55.84.93.46.36.87.36 1.13-.02 1.79-.62c.42-.4.7-1.01.71-1.88V9h.5a.5.5 0 0 1 .43.23l.03.07.08.15.14.3c.14.26.33.62.58.97q.36.54.83.92.45.35.91.36H24v1h-2.5c-.6 0-1.11-.25-1.53-.57a5 5 0 0 1-1.24-1.45 3 3 0 0 1-.76 1.13c-.65.6-1.53.89-2.47.89-.58 0-1.08-.25-1.49-.58a6 6 0 0 1-1.33-1.56c-.6 1.29-2 2.14-3.68 2.14H8v-1h1c1.78 0 2.96-1.14 3-2.51zM35 10v5.5a5.5 5.5 0 1 0 11 0V10zm-22.99 5h.49a.5.5 0 0 1 .42.23l.04.06.06.11.02.04.15.3c.15.26.35.62.6.97q.38.55.84.93.46.36.87.36 1.13-.02 1.79-.62c.42-.4.7-1.01.71-1.88V15h.5a.5.5 0 0 1 .43.23l.03.07.06.11.02.04.14.3c.14.26.33.62.58.97q.36.54.83.92.45.35.91.36H24v1h-2.5c-.6 0-1.11-.25-1.53-.57a5 5 0 0 1-1.24-1.45 3 3 0 0 1-.76 1.13c-.65.6-1.53.89-2.47.89-.58 0-1.08-.25-1.49-.58a6 6 0 0 1-1.33-1.56c-.6 1.29-2 2.14-3.68 2.14H8v-1h1c1.78 0 2.96-1.14 3-2.51zm0 6h.49a.5.5 0 0 1 .42.23l.04.06.08.15.15.3c.15.26.35.62.6.97q.38.55.84.93.46.36.87.36 1.13-.02 1.79-.62c.42-.4.7-1.01.71-1.88V21h.5a.5.5 0 0 1 .43.23l.03.07.06.11.02.04.14.3c.14.26.33.62.58.97q.36.54.83.92.45.35.91.36H24v1h-2.5c-.6 0-1.11-.25-1.53-.57a5 5 0 0 1-1.24-1.45 3 3 0 0 1-.76 1.13c-.65.6-1.53.89-2.47.89-.58 0-1.08-.25-1.49-.58a6 6 0 0 1-1.33-1.56c-.6 1.29-2 2.14-3.68 2.14H8v-1h1c1.78 0 2.96-1.14 3-2.51z"/></svg>