<svg width="24" height="24" fill="none" xmlns="http://www.w3.org/2000/svg"><path fill="currentColor" d="M10.75 0h1.5l.15.2c1.4 1.87 3.64 2.83 5.6 3.31a17 17 0 0 0 3.49.49H22v.5c0 7.87-2.54 12.71-5.13 15.6a16 16 0 0 1-4.73 3.58l-.44.18h-.03v.01l-.17-.47-.16.47h-.01l-.03-.01-.43-.18q-.45-.19-1.19-.62a16 16 0 0 1-3.55-2.96C3.54 17.2 1 12.37 1 4.5V4h.5v.5V4h.26l.76-.06c.63-.06 1.51-.18 2.48-.43C6.96 3.03 9.2 2.07 10.6.2zM2 4.98 1.52 5h-.01l-.01-.5H2zM11.25 1c-1.61 2-4.02 2.99-6 3.49a18 18 0 0 1-3.25.5c.1 7.34 2.5 11.8 4.87 14.44a15 15 0 0 0 4.4 3.34l.23.1.22-.1q.4-.17 1.09-.57a15 15 0 0 0 3.32-2.77c2.36-2.64 4.77-7.1 4.87-14.45a16 16 0 0 1-3.25-.5C15.77 4 13.36 3 11.75 1zm.25 22.4-.16.47.16.06.16-.06zM8 8.5A2.5 2.5 0 0 1 10.5 6h2A2.5 2.5 0 0 1 15 8.5V10h1v6H7v-6h1zM8 11v4h7v-4zm6-1V8.5c0-.83-.67-1.5-1.5-1.5h-2C9.67 7 9 7.67 9 8.5V10zm-3 4v-2h1v2z"/></svg>