<svg width="48" height="48" fill="none" xmlns="http://www.w3.org/2000/svg"><path fill="currentColor" d="M23.25 1h1.5l.15.2c2.9 3.87 7.52 5.83 11.47 6.82a35 35 0 0 0 7.1.98H44v.5c0 15.62-4.92 24.99-9.88 30.46a28 28 0 0 1-6.82 5.55 21 21 0 0 1-3.13 1.46h-.02L24 46.5l-.15.48h-.02l-.22-.08-.64-.26a21 21 0 0 1-2.27-1.13 28 28 0 0 1-6.82-5.55C8.92 34.5 4 25.12 4 9.5V9h.53l.52-.02q.55-.01 1.53-.1c1.3-.13 3.08-.37 5.05-.87 3.95-.98 8.57-2.94 11.47-6.81zM5 9.99c.1 15.09 4.89 24.08 9.62 29.3 2.4 2.64 4.8 4.33 6.58 5.35a20 20 0 0 0 2.75 1.31l.05.02q.03 0 .05-.02l.6-.23q.78-.31 2.15-1.08a27 27 0 0 0 6.58-5.35c4.73-5.22 9.52-14.21 9.62-29.3a23 23 0 0 1-1.67-.12 36 36 0 0 1-5.2-.88C32.15 7.99 27.36 6 24.25 2h-.5c-3.11 4-7.9 5.99-11.88 6.99a36 36 0 0 1-6.87 1M24 46.5l-.15.48.15.04.15-.04zM22.75 16A2.75 2.75 0 0 0 20 18.75V21h8v-2.25A2.75 2.75 0 0 0 25.25 16zM29 21h2v11H17V21h2v-2.25A3.75 3.75 0 0 1 22.75 15h2.5A3.75 3.75 0 0 1 29 18.75zm-11 1v9h12v-9zm5.5 6.5v-4h1v4z"/></svg>