<svg width="24" height="24" fill="none" xmlns="http://www.w3.org/2000/svg"><path fill="currentColor" d="M8 15v-4h7v4zm3-3v2h1v-2zm-2-2h5V8.5c0-.83-.67-1.5-1.5-1.5h-2C9.67 7 9 7.67 9 8.5z"/><path fill="currentColor" d="M12.4.2c1.4 1.87 3.64 2.83 5.6 3.31a17 17 0 0 0 3.49.49H22v.5c0 7.87-2.54 12.71-5.13 15.6a16 16 0 0 1-4.73 3.58l-.44.18h-.03v.01l-.17.06-.16-.06h-.01l-.03-.01-.44-.18q-.44-.19-1.18-.62a16 16 0 0 1-3.55-2.96C3.54 17.2 1 12.37 1 4.5V4h.76l.76-.06c.63-.06 1.51-.18 2.48-.43C6.96 3.03 9.2 2.07 10.6.2l.15-.2h1.5zM10.5 6A2.5 2.5 0 0 0 8 8.5V10H7v6h9v-6h-1V8.5A2.5 2.5 0 0 0 12.5 6z"/></svg>