<svg width="48" height="48" fill="none" xmlns="http://www.w3.org/2000/svg"><path fill="currentColor" d="M20.1 5.6a2.5 2.5 0 1 1 4.5 1.51L35.51 19h1.98c1.98 0 3.5 1.52 3.5 3.5V44H9.5A3.45 3.45 0 0 1 6 40.5V19h3.78L20.57 7.06q-.46-.63-.47-1.46m1.2 2.14L11.13 19h23.03L23.84 7.77a2.5 2.5 0 0 1-2.54-.03m1.3-3.64a1.5 1.5 0 1 0 0 3 1.5 1.5 0 0 0 0-3M7 20v20.5C7 41.92 8.08 43 9.5 43H40V22.5c0-1.42-1.08-2.5-2.5-2.5zm4 6h7v1h-7zm9 0h7v1h-7zm9 0h7v1h-7zm-18 5h7v1h-7zm9 0h7v1h-7zm9 0h7v1h-7zm-18 5h7v1h-7zm9 0h7v1h-7zm9 0h7v1h-7z"/></svg>