<svg width="24" height="24" fill="none" xmlns="http://www.w3.org/2000/svg"><path fill="currentColor" d="M9 2.5a2.5 2.5 0 1 1 4.94.56L18.84 9h1.66c.41 0 .8.14 1.08.42s.42.67.42 1.08V24H3.5c-.41 0-.8-.14-1.08-.42A1.5 1.5 0 0 1 2 22.5V9h2.16l4.9-5.94A3 3 0 0 1 9 2.5m.54 1.56L5.46 9h12.08l-4.08-4.94a2.5 2.5 0 0 1-3.92 0M11.5 1a1.5 1.5 0 1 0 0 3 1.5 1.5 0 0 0 0-3M3 10v12.5q.01.28.13.37.1.12.37.13H21V10.5q-.01-.28-.13-.37-.1-.12-.37-.13zm2 3h4v1H5zm5 0h4v1h-4zm5 0h4v1h-4zM5 16h4v1H5zm5 0h4v1h-4zm5 0h4v1h-4zM5 19h4v1H5zm5 0h4v1h-4zm5 0h4v1h-4z"/></svg>