<svg width="24" height="24" fill="none" xmlns="http://www.w3.org/2000/svg"><path fill="currentColor" d="M4.1 1C3.51 1 3 1.54 3 2.2V3h18v-.9c0-.62-.48-1.1-1.1-1.1zM21 4H3v5h18zm1 0v5h.5q.28-.01.37-.13.12-.1.13-.37V4zM2 3v-.8C2 1.06 2.89 0 4.1 0h15.8c1.18 0 2.1.92 2.1 2.1V3h2v5.5c0 .41-.14.8-.42 1.08a1.5 1.5 0 0 1-1.08.42H22v12h-1v.5c0 .41-.14.8-.42 1.08a1.5 1.5 0 0 1-1.08.42h-2c-.41 0-.8-.14-1.08-.42A1.5 1.5 0 0 1 16 22.5V22H8v.5c0 .41-.14.8-.42 1.08A1.5 1.5 0 0 1 6.5 24h-2c-.41 0-.8-.14-1.08-.42A1.5 1.5 0 0 1 3 22.5V22H2V10h-.5c-.41 0-.8-.14-1.08-.42A1.5 1.5 0 0 1 0 8.5V3zm0 1H1v4.5q.01.28.13.37.1.12.37.13H2zm1 6v3h18v-3zm18 4H3v7h1v1.5q.01.28.13.37.1.12.37.13h2q.27-.01.37-.13.12-.1.13-.37V21h10v1.5q.01.28.13.37.1.12.37.13h2q.28-.01.37-.13.12-.1.13-.37V21h1zM4.98 16.98c-.3.3-.48.68-.48 1.02s.17.72.48 1.02.68.48 1.02.48.72-.17 1.02-.48.48-.68.48-1.02-.17-.72-.48-1.02-.68-.48-1.02-.48-.72.17-1.02.48m-.7-.7A2.5 2.5 0 0 1 6 15.5c.66 0 1.28.33 1.73.77.44.45.77 1.07.77 1.73a2.5 2.5 0 0 1-.77 1.73A2.5 2.5 0 0 1 6 20.5a2.5 2.5 0 0 1-1.73-.77A2.5 2.5 0 0 1 3.5 18c0-.66.33-1.28.77-1.73m12.7.7c-.3.3-.48.68-.48 1.02s.17.72.48 1.02.68.48 1.02.48.72-.17 1.02-.48.48-.68.48-1.02-.17-.72-.48-1.02-.68-.48-1.02-.48-.72.17-1.02.48m-.7-.7A2.5 2.5 0 0 1 18 15.5c.66 0 1.28.33 1.73.77.44.45.77 1.07.77 1.73a2.5 2.5 0 0 1-.77 1.73 2.5 2.5 0 0 1-1.73.77 2.5 2.5 0 0 1-1.73-.77A2.5 2.5 0 0 1 15.5 18c0-.66.33-1.28.77-1.73"/></svg>