<svg width="48" height="48" fill="none" xmlns="http://www.w3.org/2000/svg"><path fill="currentColor" d="M2.13 10.13q-.12.1-.13.37v3q.01.28.13.37.1.12.37.13h12q.28-.01.37-.13.12-.1.13-.37v-3q-.01-.28-.13-.37-.1-.12-.37-.13h-12q-.27.01-.37.13m-.7-.7A1.5 1.5 0 0 1 2.5 9h12c.41 0 .8.14 1.08.42s.42.67.42 1.08v3c0 .41-.14.8-.42 1.08a1.5 1.5 0 0 1-1.08.42H9v3h4v3.08L24.04 23H37v-5h2v-3h-5.5c-.41 0-.8-.14-1.08-.42A1.5 1.5 0 0 1 32 13.5v-3c0-.41.14-.8.42-1.08A1.5 1.5 0 0 1 33.5 9h12c.41 0 .8.14 1.08.42s.42.67.42 1.08v3c0 .41-.14.8-.42 1.08a1.5 1.5 0 0 1-1.08.42H40v3h2v11h-2v3h5.5c.41 0 .8.14 1.08.42s.42.67.42 1.08v3c0 .41-.14.8-.42 1.08a1.5 1.5 0 0 1-1.08.42h-12c-.41 0-.8-.14-1.08-.42A1.5 1.5 0 0 1 32 36.5v-3c0-.41.14-.8.42-1.08A1.5 1.5 0 0 1 33.5 32H39v-3h-2v-5H24.04L13 25.92V29H9v3h5.5c.41 0 .8.14 1.08.42s.42.67.42 1.08v3c0 .41-.14.8-.42 1.08a1.5 1.5 0 0 1-1.08.42h-12c-.41 0-.8-.14-1.08-.42A1.5 1.5 0 0 1 1 36.5v-3c0-.41.14-.8.42-1.08A1.5 1.5 0 0 1 2.5 32H8v-3H4V18h4v-3H2.5c-.41 0-.8-.14-1.08-.42A1.5 1.5 0 0 1 1 13.5v-3c0-.41.14-.8.42-1.08M21.07 23.5 12 21.92V19H5v9h7v-2.92zm12.05-13.37q-.12.1-.13.37v3q.01.28.13.37.1.12.37.13h12q.27-.01.37-.13.12-.1.13-.37v-3q-.01-.28-.13-.37-.1-.12-.37-.13h-12q-.27.01-.37.13M38 19v9h3v-9zM2.13 33.13q-.12.1-.13.37v3q.01.27.13.37.1.12.37.13h12q.28-.01.37-.13.12-.1.13-.37v-3q-.01-.27-.13-.37-.1-.12-.37-.13h-12q-.27.01-.37.13m31 0q-.12.1-.13.37v3q.01.27.13.37.1.12.37.13h12q.27-.01.37-.13.12-.1.13-.37v-3q-.01-.27-.13-.37-.1-.12-.37-.13h-12q-.27.01-.37.13"/></svg>