<svg width="24" height="24" fill="none" xmlns="http://www.w3.org/2000/svg"><path fill="currentColor" d="M1.13 3.13Q1 3.23 1 3.5v1q.01.27.13.37.1.12.37.13h6q.27-.01.37-.13.12-.1.13-.37v-1q-.01-.27-.13-.37Q7.77 3 7.5 3h-6q-.27.01-.37.13m-.7-.7A1.5 1.5 0 0 1 1.5 2h6c.41 0 .8.14 1.08.42S9 3.1 9 3.5v1c0 .41-.14.8-.42 1.08A1.5 1.5 0 0 1 7.5 6H5v2h2v1.6l5.66 1.4H17V8h2V6h-2.5c-.41 0-.8-.14-1.08-.42A1.5 1.5 0 0 1 15 4.5v-1c0-.41.14-.8.42-1.08A1.5 1.5 0 0 1 16.5 2h6c.41 0 .8.14 1.08.42S24 3.1 24 3.5v1c0 .41-.14.8-.42 1.08A1.5 1.5 0 0 1 22.5 6H20v2h2v7h-2v2h2.5c.41 0 .8.14 1.08.42s.42.67.42 1.08v1c0 .41-.14.8-.42 1.08a1.5 1.5 0 0 1-1.08.42h-6c-.41 0-.8-.14-1.08-.42A1.5 1.5 0 0 1 15 19.5v-1c0-.41.14-.8.42-1.08A1.5 1.5 0 0 1 16.5 17H19v-2h-2v-3h-4.34L7 13.4V15H5v2h2.5c.41 0 .8.14 1.08.42S9 18.1 9 18.5v1c0 .41-.14.8-.42 1.08A1.5 1.5 0 0 1 7.5 21h-6c-.41 0-.8-.14-1.08-.42A1.5 1.5 0 0 1 0 19.5v-1c0-.41.14-.8.42-1.08A1.5 1.5 0 0 1 1.5 17H4v-2H2V8h2V6H1.5c-.41 0-.8-.14-1.08-.42A1.5 1.5 0 0 1 0 4.5v-1c0-.41.14-.8.42-1.08M10.5 11.5 6 10.4V9H3v5h3v-1.4zm5.62-8.37q-.12.1-.13.37v1q.01.27.13.37.1.12.37.13h6q.28-.01.37-.13.12-.1.13-.37v-1q-.01-.27-.13-.37-.1-.12-.37-.13h-6q-.28.01-.37.13M18 9v5h3V9zM1.13 18.13q-.12.1-.13.37v1q.01.28.13.37.1.12.37.13h6q.27-.01.37-.13.12-.1.13-.37v-1q-.01-.28-.13-.37-.1-.12-.37-.13h-6q-.27.01-.37.13m15 0q-.12.1-.13.37v1q.01.28.13.37.1.12.37.13h6q.28-.01.37-.13.12-.1.13-.37v-1q-.01-.28-.13-.37-.1-.12-.37-.13h-6q-.28.01-.37.13"/></svg>