<svg width="16" height="16" fill="none" xmlns="http://www.w3.org/2000/svg"><path fill="currentColor" d="M2.13 2.13Q2 2.23 2 2.5q.01.27.13.37.1.12.37.13h4q.27-.01.37-.13.12-.1.13-.37-.01-.27-.13-.37Q6.77 2 6.5 2h-4q-.27.01-.37.13m-.7-.7A1.5 1.5 0 0 1 2.5 1h4c.41 0 .8.14 1.08.42S8 2.1 8 2.5s-.14.8-.42 1.08A1.5 1.5 0 0 1 6.5 4H5v1h1v1.19L8.71 7.5H11V5h1V4h-1.5c-.41 0-.8-.14-1.08-.42A1.5 1.5 0 0 1 9 2.5c0-.41.14-.8.42-1.08A1.5 1.5 0 0 1 10.5 1h4c.41 0 .8.14 1.08.42S16 2.1 16 2.5s-.14.8-.42 1.08A1.5 1.5 0 0 1 14.5 4H13v1h1v6h-1v1h1.5c.41 0 .8.14 1.08.42s.42.67.42 1.08-.14.8-.42 1.08a1.5 1.5 0 0 1-1.08.42h-4c-.41 0-.8-.14-1.08-.42A1.5 1.5 0 0 1 9 13.5c0-.41.14-.8.42-1.08A1.5 1.5 0 0 1 10.5 12H12v-1h-1V8.5H8.71L6 9.81V11H5v1h1.5c.41 0 .8.14 1.08.42S8 13.1 8 13.5s-.14.8-.42 1.08A1.5 1.5 0 0 1 6.5 15h-4c-.41 0-.8-.14-1.08-.42A1.5 1.5 0 0 1 1 13.5c0-.41.14-.8.42-1.08A1.5 1.5 0 0 1 2.5 12H4v-1H3V5h1V4H2.5c-.41 0-.8-.14-1.08-.42A1.5 1.5 0 0 1 1 2.5c0-.41.14-.8.42-1.08M5 6H4v4h1v-.81L7.45 8 5 6.81zm8 4V6h-1v4zm-2.87-7.87q-.12.1-.13.37.01.27.13.37.1.12.37.13h4q.28-.01.37-.13.12-.1.13-.37-.01-.27-.13-.37-.1-.12-.37-.13h-4q-.28.01-.37.13m-8 11q-.12.1-.13.37.01.28.13.37.1.12.37.13h4q.27-.01.37-.13.12-.1.13-.37-.01-.28-.13-.37-.1-.12-.37-.13h-4q-.27.01-.37.13m8 0q-.12.1-.13.37.01.28.13.37.1.12.37.13h4q.28-.01.37-.13.12-.1.13-.37-.01-.28-.13-.37-.1-.12-.37-.13h-4q-.28.01-.37.13"/></svg>