<svg width="16" height="16" fill="none" xmlns="http://www.w3.org/2000/svg"><path fill="currentColor" d="M6.63 11 5.59 7.34l-.17-.69-.16.7L4.23 11H2.94L1.1 5.2h1.23L3.4 8.96q.07.28.17.83l.2-.83L4.85 5.2H6l1.1 3.74.19.83q.1-.55.17-.83L8.53 5.2h1.23L7.91 11zm8.07-.2a4 4 0 0 1-1.87.33q-.84 0-1.43-.35-.59-.36-.89-1.04-.3-.67-.3-1.66 0-.92.32-1.6.31-.69.92-1.04.6-.36 1.43-.36.53 0 .96.1a3 3 0 0 1 .79.27v.94q-.35-.16-.77-.24a5 5 0 0 0-.9-.09q-.5 0-.85.23t-.52.69-.18 1.1q0 .72.17 1.18t.52.67.89.22q.5 0 .9-.07t.8-.23z"/></svg>