<svg width="24" height="24" fill="none" xmlns="http://www.w3.org/2000/svg"><path fill="currentColor" d="M23.6 16.64q-.6.26-1.37.42a9 9 0 0 1-1.9.17q-1.46 0-2.5-.62a4 4 0 0 1-1.55-1.81 7 7 0 0 1-.53-2.9q0-1.63.56-2.82.55-1.2 1.61-1.82 1.05-.62 2.52-.62.9 0 1.67.16.78.17 1.38.48v1.66a6 6 0 0 0-1.35-.43q-.74-.15-1.58-.15-.88 0-1.48.4t-.92 1.2a5 5 0 0 0-.3 1.94q0 1.24.3 2.05t.9 1.18q.6.39 1.55.39.86 0 1.58-.13.7-.12 1.42-.41zM10.08 17l-1.8-6.4q-.13-.4-.3-1.2-.17.74-.3 1.2L5.89 17H3.63L.4 6.86h2.16l1.87 6.55q.14.5.3 1.46.18-.83.35-1.46l1.9-6.55H9l1.9 6.55q.19.67.35 1.46.15-.96.31-1.46l1.87-6.55h2.15L12.33 17z"/></svg>