<svg width="48" height="48" fill="none" xmlns="http://www.w3.org/2000/svg"><path fill="currentColor" d="m21.72 33.73-5-15.03q-.4-1.2-.6-2.17-.22 1.2-.55 2.17l-4.79 15.03H8.97L2.5 14.26h1.81l4.9 15.03q.48 1.45.72 2.43.3-1.23.69-2.43l4.8-15.03h1.62l4.9 15.03q.47 1.45.71 2.43.3-1.23.7-2.43l4.9-15.03h1.72l-6.46 19.47zm23.78-.78A14 14 0 0 1 40.36 34q-2.64 0-4.4-1.2a7 7 0 0 1-2.63-3.45 15 15 0 0 1-.85-5.33q0-3.08.89-5.33a7.4 7.4 0 0 1 2.66-3.47A7.6 7.6 0 0 1 40.42 14q1.29 0 2.62.3 1.34.3 2.2.74v1.51q-1.16-.52-2.4-.81-1.2-.3-2.46-.29-2.04 0-3.42 1.01a6 6 0 0 0-2.05 2.92q-.67 1.89-.67 4.62 0 2.66.66 4.58a6 6 0 0 0 2.05 2.94 5.6 5.6 0 0 0 3.47 1.03q1.3 0 2.62-.28 1.33-.27 2.46-.74z"/></svg>