<svg width="24" height="24" fill="none" xmlns="http://www.w3.org/2000/svg"><path fill="currentColor" d="m10.47 17-2.21-6.85a13 13 0 0 1-.33-1.21l-.08-.47a17 17 0 0 1-.41 1.68L5.23 17H3.85L.5 6.8h1.4l2.3 7.41.1.3a7 7 0 0 1 .26.93 7 7 0 0 1 .23-.92l.1-.3 2.3-7.42h1.3l2.32 7.42a9 9 0 0 1 .33 1.24 7 7 0 0 1 .37-1.24l2.3-7.42h1.38L11.85 17zm13.03-.33a6 6 0 0 1-2.86.5q-.68 0-1.26-.15t-1.07-.45-.86-.74-.64-1.03a6 6 0 0 1-.4-1.31 9 9 0 0 1 0-3.08q.13-.7.37-1.28.26-.6.62-1.05a3.7 3.7 0 0 1 1.94-1.28q.6-.17 1.31-.17a8 8 0 0 1 1.52.15 5 5 0 0 1 1.2.41v1.15a4 4 0 0 0-1.2-.39 7 7 0 0 0-1.43-.15q-.53 0-.96.13a2.6 2.6 0 0 0-1.39.95q-.26.35-.42.8-.18.45-.26 1.01a8 8 0 0 0 .02 2.51q.11.6.3 1.05.2.45.5.8a2.7 2.7 0 0 0 2.27.98 9 9 0 0 0 1.53-.13 5 5 0 0 0 1.17-.36z"/></svg>