<svg width="24" height="24" fill="none" xmlns="http://www.w3.org/2000/svg"><path fill="currentColor" d="M4 4H2V3h2zm10 0H5V3h9zM4 7H2V6h2zm10 0H5V6h9zm1.19.9h.31a4.5 4.5 0 0 1 4.5 4.5c0 .66-.29 1.53-.67 2.4-.38.88-.9 1.84-1.4 2.72a56 56 0 0 1-1.97 3.2l-.03.04-.01.02-.42-.28-.41.28-.02-.02-.03-.05-.59-.9c-.37-.59-.88-1.4-1.38-2.29a28 28 0 0 1-1.4-2.73 7 7 0 0 1-.67-2.38 4.4 4.4 0 0 1 4.18-4.5zm.31 12.6-.41.28.41.61.41-.61zm0-.9a56 56 0 0 0 1.57-2.57c.5-.87.98-1.8 1.35-2.64.37-.86.58-1.55.58-1.99 0-1.92-1.58-3.5-3.5-3.5h-.29A3.4 3.4 0 0 0 12 12.38v.02q.01.68.58 2c.37.83.86 1.76 1.35 2.63a55 55 0 0 0 1.57 2.56M4 10H2V9h2zm6 0H5V9h5zm-6 3H2v-1h2zm4 0H5v-1h3z"/></svg>