<svg width="24" height="24" fill="none" xmlns="http://www.w3.org/2000/svg"><path fill="currentColor" d="M20.29 6.51a1 1 0 0 1 .84 1.72L19.9 9.36q.93 0 1.26.06c.35.05.63.13.93.2l.18.05c.78.2 1.46.89 1.52 1.76l.2 2.65v.02q0 .65-.39 1.13-.4.47-1.03.53l-1.11.19a2.7 2.7 0 0 1-2.7 2.3h-.04a2.7 2.7 0 0 1-2.68-2.23L7.95 16a2.75 2.75 0 0 1-2.7 2.25h-.02a2.7 2.7 0 0 1-2.68-2.24L1.5 16c-.43 0-.8-.23-1.05-.5A1.6 1.6 0 0 1 0 14.46V13.3q.01-.43.13-.82c.13-.4.44-.79.83-1.11q.62-.53 1.53-.84c.75-.25 1.9-.5 3.64-.73q1.08-1.03 1.83-1.65.79-.66 1.3-.88l.51.84-1.94 1.6a669 669 0 0 1 10.61-.33v-.01l2-1.87-4.36.73-.16-.99zM6.4 10.77c-1.8.24-2.92.48-3.6.7q-.74.26-1.2.66-.47.42-.53.66-.06.16-.07.55v1.11q-.01.16.17.37.2.19.32.18l2 .03v.5c0 .95.78 1.72 1.73 1.72h.02c.97 0 1.75-.78 1.75-1.75V15l10 .02v.5c0 .96.78 1.73 1.73 1.73h.04c.96 0 1.73-.77 1.73-1.73v-.42l1.95-.34h.03q.25-.02.37-.17.13-.15.15-.48l-.2-2.6v-.01c-.02-.38-.34-.75-.77-.86l-.2-.05c-.3-.08-.52-.14-.82-.19q-.18-.04-1.25-.04-1.05 0-2.88.05-3.68.09-10.47.36"/></svg>