<svg width="16" height="16" fill="none" xmlns="http://www.w3.org/2000/svg"><path fill="currentColor" d="M12.88 1.52a1.18 1.18 0 0 1 1 2.03l-1.86 1.67q1.14.17 2.26.45c.78.2 1.46.89 1.52 1.76l.2 2.65v.02q0 .65-.38 1.13-.4.47-1.04.53l-1.11.19a2.7 2.7 0 0 1-2.7 2.3h-.04a2.7 2.7 0 0 1-2.68-2.23H0v-1h9v.5c0 .96.78 1.73 1.73 1.73h.04c.96 0 1.73-.77 1.73-1.73v-.42l1.95-.34h.03q.25-.02.37-.17.13-.15.15-.48l-.2-2.6V7.5c-.02-.38-.34-.75-.77-.86A29 29 0 0 0 7.1 5.9a111 111 0 0 0-3.87.05Q1.61 5.99 0 6V5a134 134 0 0 0 3.51-.06q1.8-.05 3.61-.04 1.8 0 3.59.17l2.49-2.25a.18.18 0 0 0-.16-.32l-5.96 1-.16-1z"/></svg>