<svg width="24" height="24" fill="none" xmlns="http://www.w3.org/2000/svg"><path fill="currentColor" d="M2.66 10.32c-.47.42-.66.82-.66 1.18q-.01.44.44.94.47.52 1.43 1c1.1.53 2.59.97 4.34 1.24l-2.2-2.88.79-.6 3.3 4.3-4.5 3.3L5 18l3.17-2.32a17 17 0 0 1-4.74-1.34q-1.07-.53-1.73-1.22A2.4 2.4 0 0 1 1 11.5c0-.74.4-1.4 1-1.92.58-.54 1.41-1 2.4-1.37C6.37 7.46 9.05 7 12 7s5.63.46 7.6 1.2c.99.38 1.82.84 2.4 1.38.6.53 1 1.18 1 1.92 0 1.08-.86 1.99-2.02 2.66a14 14 0 0 1-4.8 1.53l-.16-.98c1.86-.3 3.4-.8 4.45-1.42 1.1-.63 1.53-1.27 1.53-1.79 0-.36-.19-.76-.66-1.18a7 7 0 0 0-2.1-1.18A21 21 0 0 0 12 8c-2.85 0-5.42.44-7.25 1.14q-1.37.54-2.1 1.18"/></svg>