<svg width="48" height="48" fill="none" xmlns="http://www.w3.org/2000/svg"><path fill="currentColor" d="M10.05 20.36Q8.99 21.34 9 22.3c0 1.04.93 2.17 2.89 3.15 1.82.92 4.38 1.63 7.38 2L15.3 22.3l.8-.62 4.7 6.11-6.4 4.7-.6-.8 4.58-3.36a23 23 0 0 1-6.94-2C9.42 25.35 8 23.97 8 22.3c0-1.01.53-1.92 1.38-2.68s2.03-1.43 3.47-1.98c2.87-1.08 6.8-1.74 11.15-1.74 4.34 0 8.28.66 11.15 1.74 1.44.55 2.63 1.21 3.47 1.98.85.76 1.38 1.67 1.38 2.68 0 1.49-1.2 2.74-2.9 3.7a22 22 0 0 1-6.92 2.2l-.16-1c2.71-.44 5-1.17 6.6-2.07C38.24 24.2 39 23.2 39 22.3q.02-.97-1.05-1.94a10 10 0 0 0-3.15-1.78c-2.73-1.04-6.54-1.68-10.8-1.68s-8.07.64-10.8 1.68a10 10 0 0 0-3.15 1.78"/></svg>