<svg width="24" height="24" fill="none" xmlns="http://www.w3.org/2000/svg"><path fill="currentColor" d="M2.83 10.5c-.44.4-.58.74-.58 1q-.02.32.37.78.43.46 1.36.93c.93.46 2.18.85 3.65 1.12L5.8 11.96l1.18-.92 3.47 4.51-4.72 3.46-.88-1.22 2.68-1.96a16 16 0 0 1-4.22-1.27 6 6 0 0 1-1.8-1.27c-.46-.5-.77-1.1-.77-1.79 0-.84.45-1.55 1.07-2.11A8 8 0 0 1 4.3 7.97c2-.76 4.72-1.22 7.69-1.22s5.69.46 7.7 1.22q1.52.58 2.48 1.42a3 3 0 0 1 1.07 2.11c0 1.22-.97 2.2-2.15 2.87a15 15 0 0 1-4.88 1.57l-.24-1.48c1.84-.3 3.35-.8 4.37-1.38 1.07-.62 1.4-1.2 1.4-1.58 0-.26-.14-.6-.58-1a7 7 0 0 0-2.01-1.12A21 21 0 0 0 12 8.25c-2.83 0-5.36.44-7.16 1.13Q3.5 9.9 2.83 10.5"/></svg>