<svg width="16" height="16" fill="none" xmlns="http://www.w3.org/2000/svg"><path fill="currentColor" d="M3.35 14.35a9 9 0 0 0 0-12.73l.71-.7a10 10 0 0 1 0 14.13zM11.6 2q-.23 0-.44.06L10 2.42v11.12c0 .27.23.5.5.5h4a.5.5 0 0 0 .5-.5V2.44l-1.49-.4-.37-.04zm-.73-.9q.36-.1.73-.1h1.54q.31 0 .62.08l1.5.38a1 1 0 0 1 .52.32 1 1 0 0 1 .22.65v11.1c0 .83-.67 1.5-1.5 1.5h-4a1.5 1.5 0 0 1-1.5-1.5V2.43a1 1 0 0 1 .71-.96zM.53 11.53a5 5 0 0 0 0-7.07l.7-.71a6 6 0 0 1 0 8.49zM14.25 7h-3.5V6h3.5zm0 6h-3.5v-1h3.5z"/></svg>