<svg width="24" height="24" fill="none" xmlns="http://www.w3.org/2000/svg"><path fill="currentColor" d="M16.53 3.4c.66.24 1.45.66 2.2 1.06l.36.19q.64.35 1.2.6t.87.3c.35.06.62.13.92.21l.18.05c.79.2 1.46.88 1.53 1.75l.2 2.64c.03.49-.16.95-.49 1.27v-1.26L21.8 7.5h-2.6l-1.7 2.71V10l-2.67-2H13.5v3.09l-.41.41h-.18l-.41-.41V8h-1.33L8.5 10v2.14h-.54a2.75 2.75 0 0 1-2.7 2.25h-.03a2.7 2.7 0 0 1-2.68-2.24l-1.04-.01c-.43 0-.8-.23-1.05-.5A1.6 1.6 0 0 1 0 10.6V9.44Q.03 9 .15 8.6c.13-.39.44-.78.83-1.1.4-.34.93-.65 1.53-.85.75-.25 1.9-.49 3.64-.72a34 34 0 0 1 1.82-1.65 6 6 0 0 1 1.3-.89c.38-.16.93-.25 1.5-.31Q11.69 3 12.73 3c.72 0 1.46.02 2.12.08.64.05 1.25.15 1.7.32"/><path fill="currentColor" d="M19.75 8.5h1.5l1.25 2v2l-1 1V16h-2v-2.5l-1-1v-2zM19 17v3a1.5 1.5 0 0 0 3 0v-3zm-7.5-2-2-2v-2.5l2-1.5v2.5l1 1h1l1-1V9l2 1.5V13l-2 2v5a1.5 1.5 0 0 1-3 0z"/></svg>