<svg width="48" height="48" fill="none" xmlns="http://www.w3.org/2000/svg"><path fill="currentColor" d="M29.29 11.14a46 46 0 0 0-7.61.02c-1.1.11-1.96.28-2.49.5-.44.2-1.15.67-2.15 1.5q-1.47 1.2-3.67 3.33l-.12.1-.16.03q-5.27.7-7.3 1.39c-.98.33-1.8.82-2.42 1.35a4 4 0 0 0-1.12 1.5A7 7 0 0 0 2 23.39v.35c0 .7.56 1.26 1.26 1.26H7v.5a3.5 3.5 0 0 0 3.5 3.5h.5a3.5 3.5 0 0 0 3.5-3.5V25H23v1h-7.53A4.5 4.5 0 0 1 11 30h-.5a4.5 4.5 0 0 1-4.47-4H3.26A2.26 2.26 0 0 1 1 23.74v-.35c0-1.4.04-2.07.3-2.85a5 5 0 0 1 1.42-1.94 8 8 0 0 1 2.76-1.54q2.16-.72 7.31-1.4a67 67 0 0 1 3.62-3.28q1.5-1.24 2.4-1.64c.67-.28 1.66-.46 2.77-.57 1.13-.12 2.43-.16 3.74-.17 1.39 0 2.8.03 4.05.15 1.25.1 2.37.3 3.16.59a40 40 0 0 1 4.2 2.02l.7.37q1.26.67 2.35 1.18 1.1.49 1.8.62 1.14.2 2.28.48c1.46.37 2.14 1.77 2.47 2.87a20 20 0 0 1 .66 4.95A2.96 2.96 0 0 1 44.36 26H43v-1h1.3c.88-.07 1.64-.9 1.7-1.83.03-.53-.04-1.4-.17-2.32-.13-.9-.3-1.78-.46-2.28-.31-1.05-.86-1.96-1.75-2.19q-1.1-.28-2.2-.46c-.6-.1-1.3-.37-2.05-.7a44 44 0 0 1-3.13-1.58 39 39 0 0 0-4.06-1.97c-.65-.24-1.67-.42-2.9-.53m-3 7.86H28v3.3l.7.7h1.6l.7-.7V19h1.7l2.3 2.3v3.4l-3 3v9.8a2.5 2.5 0 0 1-5 0v-9.8l-3-3v-3.4zm.42 1L25 21.7v2.6l3 3v10.2c0 .82.68 1.5 1.5 1.5s1.5-.68 1.5-1.5V27.3l3-3v-2.6L32.3 20H32v2.7L30.7 24h-2.4L27 22.7V20zm11.48-1h2.62l1.2 2.38v3.33l-1 1V31h1v6.5a2.5 2.5 0 0 1-5 0V31h1v-5.3l-1-1v-3.32zM38 32v5.5c0 .82.68 1.5 1.5 1.5s1.5-.68 1.5-1.5V32zm2-1v-5.7l1-1v-2.68L40.2 20h-1.4l-.8 1.62v2.67l1 1V31z"/></svg>