<svg width="24" height="24" fill="none" xmlns="http://www.w3.org/2000/svg"><path fill="currentColor" d="M14.75 3.94a22 22 0 0 0-3.89 0 5 5 0 0 0-1.21.25q-.3.1-1.05.73-.75.62-1.9 1.71l-.11.12-.16.02a22 22 0 0 0-3.62.7q-.74.26-1.2.66-.47.42-.54.66-.05.16-.07.55v1.11q0 .16.18.37.2.19.32.18l2 .03v.5c0 .95.77 1.72 1.73 1.72h.02c.97 0 1.75-.78 1.75-1.75V11h1v.5a2.75 2.75 0 0 1-2.75 2.75h-.02a2.7 2.7 0 0 1-2.69-2.24L1.5 12c-.43 0-.8-.23-1.05-.5A1.6 1.6 0 0 1 0 10.46V9.3q.01-.43.13-.82c.13-.4.44-.79.83-1.11q.62-.53 1.53-.84c.75-.25 1.9-.5 3.64-.73q1.08-1.04 1.83-1.65.78-.66 1.3-.88c.38-.17.93-.26 1.5-.32a23 23 0 0 1 4.07-.01 7 7 0 0 1 1.7.32c.67.25 1.46.67 2.2 1.06l1.57.8q.56.24.87.3a10 10 0 0 1 1.1.25 2 2 0 0 1 1.53 1.76V9h-1V7.48c-.03-.37-.35-.73-.77-.84l-.2-.05c-.3-.08-.52-.14-.82-.19q-.52-.1-1.12-.38-.6-.27-1.26-.62l-.37-.2c-.76-.4-1.48-.78-2.07-1a6 6 0 0 0-1.44-.26M12 8v3.3l.7.7h.6l.7-.7V8l3 2.25v2.96l-2 2V20a2 2 0 1 1-4 0v-4.8l-2-2v-2.95zm7.47 0h2.06L23 10.36v2.35l-1 1V16h.5v4a2 2 0 1 1-4 0v-4h.5v-2.3l-1-1v-2.34zm.03 9v3a1 1 0 1 0 2 0v-3zm1.5-1v-2.7l1-1v-1.66L20.97 9h-.94L19 10.64v1.65l1 1V16zm-11-5.25v2.04l2 2V20a1 1 0 1 0 2 0v-5.2l2-2v-2.05L15 10v1.7L13.7 13h-1.4L11 11.7V10z"/></svg>