<svg width="24" height="24" fill="none" xmlns="http://www.w3.org/2000/svg"><path fill="currentColor" d="M9.4 2h4.2v2.84q.56.19 1.11.44L16.7 3.3l3 3.01-1.98 1.99q.25.55.44 1.11H21v4.3h-2.84q-.19.56-.44 1.11l2 2-3.03 2.89-1.98-1.98q-.55.25-1.11.44V21H9.4v-2.84a9 9 0 0 1-1.11-.44L6.3 19.7l-3-3.01 1.98-1.99a9 9 0 0 1-.44-1.11H2V9.4h2.84q.19-.56.44-1.11L3.3 6.3l3.01-3L8.3 5.28q.55-.25 1.11-.44zm1 1v2.56l-.34.11q-.93.29-1.6.66l-.34.2L6.3 4.71 4.7 6.3l1.83 1.82-.2.34c-.27.44-.45.99-.66 1.6l-.11.34H3v2.2h2.56l.11.34q.29.93.66 1.6l.2.34-1.82 1.82 1.59 1.6 1.82-1.83.34.2c.44.27.99.45 1.6.66l.34.11V20h2.2v-2.56l.34-.11q.93-.29 1.6-.66l.34-.2 1.83 1.83 1.57-1.5-1.81-1.82.2-.34c.27-.44.45-.99.66-1.6l.11-.34H20v-2.3h-2.56l-.11-.34a8 8 0 0 0-.66-1.6l-.2-.34 1.82-1.82-1.59-1.6-1.82 1.83-.34-.2a8 8 0 0 0-1.6-.66l-.34-.11V3zm-2.9 8.5c0-2.18 1.82-4 4-4s4 1.82 4 4-1.82 4-4 4-4-1.82-4-4m4-3c-1.62 0-3 1.38-3 3s1.38 3 3 3 3-1.38 3-3-1.38-3-3-3"/></svg>