<svg width="48" height="48" fill="none" xmlns="http://www.w3.org/2000/svg"><path fill="currentColor" d="M32 8.5a7.5 7.5 0 1 1 15 0 7.5 7.5 0 0 1-15 0M39.5 2a6.5 6.5 0 1 0 0 13 6.5 6.5 0 0 0 0-13M7.16 4H1V3h6.84l3.13 8H31v1H11.36l2.73 7h29.3l1.09-3.16.95.32L41.36 28H17.6l2.86 7.32-.94.36-6.25-16L9.87 11h.02zm10.08 23h23.4l2.4-7H14.49zM43.3 6.29l-4.38 6.18-3.26-3.26.7-.7 2.43 2.42 3.7-5.22zM19 41.5a3.5 3.5 0 1 1 7 0 3.5 3.5 0 0 1-7 0m3.5-2.5a2.5 2.5 0 1 0 0 5 2.5 2.5 0 0 0 0-5M35 41.5a3.5 3.5 0 1 1 7 0 3.5 3.5 0 0 1-7 0m3.5-2.5a2.5 2.5 0 1 0 0 5 2.5 2.5 0 0 0 0-5"/></svg>