<svg width="48" height="48" fill="none" xmlns="http://www.w3.org/2000/svg"><path fill="currentColor" d="m42.1 11.9-4.25-4.25.7-.7 5.56 5.55-5.56 5.55-.7-.7 4.44-4.45H37.8c-3.17 0-6.23 1.25-8.43 3.54a50 50 0 0 0-1.91 2.39l-1.16 1.53-.1.14-.8-.6.1-.13 1.17-1.55c.68-.9 1.5-1.94 1.96-2.45v-.01c2.4-2.5 5.74-3.86 9.17-3.86zm-24.47 4.64A11.4 11.4 0 0 0 9.11 13H4v-1h5.1c3.54-.1 6.87 1.36 9.26 3.85v.01h.01c1.52 1.73 3.55 4.49 5.57 7.22l.01.02a121 121 0 0 0 5.52 7.17A11.5 11.5 0 0 0 38 34h4.38l-4.43-4.34.7-.72 5.56 5.46-5.56 5.55-.7-.7L42.19 35H38c-3.54 0-6.87-1.46-9.27-4.06-1.52-1.73-3.55-4.49-5.57-7.22l-.01-.02a121 121 0 0 0-5.52-7.16m2.22 12.13c-.67.88-1.46 1.9-1.88 2.36v.02A12.8 12.8 0 0 1 8.8 35H4v-1h4.8c3.16 0 6.22-1.34 8.43-3.64a47 47 0 0 0 1.82-2.3l1.15-1.52.1-.14.4.3.4.3-.1.13z"/></svg>