<svg width="24" height="24" fill="none" xmlns="http://www.w3.org/2000/svg"><path fill="currentColor" d="m20.69 4.75-1.82-1.82 1.06-1.06 3.63 3.63-3.63 3.63-1.06-1.06 1.82-1.82h-1.13a4 4 0 0 0-2.09.4c-.6.31-1.15.8-1.84 1.48a24 24 0 0 0-1.54 1.79l-.15.18-.06.07-.58-.47-.58-.47.06-.07.66-.8c.38-.46.85-1.01 1.13-1.29a9 9 0 0 1 2.21-1.75 5.4 5.4 0 0 1 2.84-.57zM7.84 8.2a6 6 0 0 0-4.7-1.95H0v-1.5h3.08a7.5 7.5 0 0 1 5.87 2.44v.01l.02.01a77 77 0 0 1 3.1 4.07l.23.31a62 62 0 0 0 3.25 4.2 7 7 0 0 0 1.83 1.55c.56.3 1.2.46 2.08.41h1.22l-1.81-1.82 1.06-1.06 3.63 3.63-3.63 3.63-1.06-1.06 1.82-1.82h-1.17a5.3 5.3 0 0 1-2.85-.59 9 9 0 0 1-2.22-1.85 63 63 0 0 1-3.35-4.33l-.22-.29A77 77 0 0 0 7.84 8.2m1.7 7.42-.95 1.25-.02.02-.02.02a7.4 7.4 0 0 1-5.77 2.34H0v-1.5h2.84a6 6 0 0 0 4.6-1.84l1.37-1.8.19-.26.6.45.6.45-.2.26z"/></svg>