<svg width="24" height="24" fill="none" xmlns="http://www.w3.org/2000/svg"><path fill="currentColor" d="m21.8 5-2.25-2.25.7-.7 3.46 3.45-3.46 3.45-.7-.7L21.79 6h-1.42a6.5 6.5 0 0 0-4.92 1.95 24 24 0 0 0-1.55 1.81l-.16.19-.05.07-.29-.24-.49-.4.06-.07a77 77 0 0 1 1.78-2.06A7.5 7.5 0 0 1 20.4 5zM8.02 8.03A6.3 6.3 0 0 0 3.13 6H0V5h3.09c2.15-.1 4.18.76 5.68 2.36l.01.01c.86 1 1.98 2.53 3.1 4.06l.22.31a63 63 0 0 0 3.27 4.22 6.3 6.3 0 0 0 4.9 2.04h1.52l-2.24-2.25.7-.7 3.46 3.45-3.46 3.45-.7-.7L21.79 19h-1.48a7.3 7.3 0 0 1-5.68-2.36 63 63 0 0 1-3.33-4.3l-.22-.3C9.95 10.5 8.86 9 8.03 8.04m1.32 7.43c-.35.46-.75 1-.96 1.25l-.01.02-.01.01A7.2 7.2 0 0 1 2.79 19H0v-1h2.82a6.1 6.1 0 0 0 4.8-1.93l1.39-1.81.19-.26.8.6-.2.26z"/></svg>