<svg width="24" height="24" fill="none" xmlns="http://www.w3.org/2000/svg"><path fill="currentColor" d="M17.32 1h1.14q.35 0 .69.1l1.12.32a1 1 0 0 1 .73.96v9.16c0 .82-.67 1.5-1.5 1.5h-3a1.5 1.5 0 0 1-1.5-1.5V2.36a1 1 0 0 1 .68-.95l.85-.28q.4-.13.8-.13M16 6h4V5h-4zm0 5h4v-1h-4zM5.32 16h1.14q.35 0 .69.1l1.12.32a1 1 0 0 1 .73.96V23H3v-5.64a1 1 0 0 1 .68-.95l.85-.28q.4-.13.8-.13M4 21h4v-1H4zm8.14-10.5a8.3 8.3 0 0 0 3.62 4.58l-.78 1.28a9.8 9.8 0 0 1-4.27-5.4zm-3.07.16a11.3 11.3 0 0 0 5.32 7.1l-.75 1.3A12.8 12.8 0 0 1 7.61 11z"/></svg>