<svg width="48" height="48" fill="none" xmlns="http://www.w3.org/2000/svg"><path fill="currentColor" d="M36.43 5a20 20 0 0 0-3.86 0q-.56.07-1.59.44a1.5 1.5 0 0 0-.98 1.4V23.5c0 .83.67 1.5 1.5 1.5h6c.83 0 1.5-.67 1.5-1.5V6.86c0-.63-.4-1.2-.98-1.4A8 8 0 0 0 36.43 5m-4-1a22 22 0 0 1 4.14 0q.67.1 1.79.51A2.5 2.5 0 0 1 40 6.86V23.5a2.5 2.5 0 0 1-2.5 2.5h-6a2.5 2.5 0 0 1-2.5-2.5V6.85a2.5 2.5 0 0 1 1.64-2.35 9 9 0 0 1 1.8-.5m-1.4 7.48a1.5 1.5 0 0 1 1.5-1.48h3.92c.83 0 1.5.67 1.5 1.5V14H31zm1.5-.48a.5.5 0 0 0-.5.5l-.02 1.5h4.94v-1.5a.5.5 0 0 0-.5-.5zM31 19h6.96v2.5c0 .83-.67 1.5-1.5 1.5h-3.92a1.5 1.5 0 0 1-1.5-1.48zm1.02 1 .02 1.5c0 .28.23.5.5.5h3.92a.5.5 0 0 0 .5-.5V20zm-6.95 2.07q-.06.45-.06.93a7 7 0 0 0 5.1 6.74l-.27.96a8 8 0 0 1-5.76-8.77zm-4.02-.03q-.04.48-.04.96a11 11 0 0 0 7.35 10.38l-.34.94a12 12 0 0 1-7.97-12.36zM15.44 30c-.86-.12-2.92-.13-3.87 0q-.56.07-1.59.44a1.5 1.5 0 0 0-.98 1.4V44H8V31.85a2.5 2.5 0 0 1 1.64-2.35 9 9 0 0 1 1.8-.5 22 22 0 0 1 4.13 0 9 9 0 0 1 1.79.51A2.5 2.5 0 0 1 19 31.86V44h-1V31.86c0-.63-.4-1.2-.98-1.4a8 8 0 0 0-1.59-.46m-5.4 6.48A1.5 1.5 0 0 1 11.52 35h3.92c.83 0 1.5.67 1.5 1.5V39H10zm1.49-.48a.5.5 0 0 0-.5.5L11 38h4.94v-1.5a.5.5 0 0 0-.5-.5z"/></svg>