<svg width="24" height="24" fill="none" xmlns="http://www.w3.org/2000/svg"><path fill="currentColor" d="M17.32 2q-.24 0-.47.08l-.85.28v9.18c0 .27.22.5.5.5h3a.5.5 0 0 0 .5-.5V2.38l-1.13-.32a2 2 0 0 0-.4-.06zm-.79-.87q.4-.13.8-.13h1.13q.35 0 .69.1l1.12.32a1 1 0 0 1 .73.96v9.16c0 .82-.67 1.5-1.5 1.5h-3a1.5 1.5 0 0 1-1.5-1.5V2.36a1 1 0 0 1 .68-.95zM19.5 6h-3V5h3zm0 5h-3v-1h3zm-7.6-.42a8.5 8.5 0 0 0 3.73 4.71l-.52.86a9.5 9.5 0 0 1-4.17-5.27zm-3.08.14c.75 3.1 2.76 5.7 5.45 7.25l-.5.87a12.5 12.5 0 0 1-5.92-7.89zM5.32 17q-.24 0-.47.08l-.85.28V23H3v-5.64a1 1 0 0 1 .68-.95l.85-.28q.4-.13.8-.13h1.13q.35 0 .69.1l1.12.32a1 1 0 0 1 .73.96V23H8v-5.62l-1.13-.32a2 2 0 0 0-.4-.06zm2.18 4h-3v-1h3z"/></svg>