<svg width="24" height="24" fill="none" xmlns="http://www.w3.org/2000/svg"><path fill="currentColor" d="M10.88 0H16v4H8V2.88q0-.6.02-1 .03-.43.2-.79a2 2 0 0 1 .87-.87q.36-.17.78-.2.4-.02 1-.02M8 20h8v1.12q0 .6-.02 1-.03.43-.2.79a2 2 0 0 1-.87.87q-.36.18-.78.2-.4.02-1 .02H8zM6 9c0-1.4 0-2.1.27-2.63a2.5 2.5 0 0 1 1.1-1.1C7.9 5 8.6 5 10 5h4c1.4 0 2.1 0 2.64.27q.72.37 1.09 1.1C18 6.9 18 7.6 18 9v6c0 1.4 0 2.1-.27 2.64a2.5 2.5 0 0 1-1.1 1.09C16.1 19 15.4 19 14 19h-4c-1.4 0-2.1 0-2.63-.27a2.5 2.5 0 0 1-1.1-1.1C6 17.1 6 16.4 6 15zm13 1v4h1.5v-4z"/></svg>