<svg width="48" height="48" fill="none" xmlns="http://www.w3.org/2000/svg"><path fill="currentColor" d="M23.28 0H30v10h.5a4.5 4.5 0 0 1 4.5 4.5V20h3v8h-3v5.5a4.5 4.5 0 0 1-4.5 4.5H30v4.72q.01 1.22-.04 2a4 4 0 0 1-.34 1.37 3.5 3.5 0 0 1-1.53 1.53q-.6.29-1.38.34t-1.99.04H18V38h-.5a4.5 4.5 0 0 1-4.5-4.5v-19a4.5 4.5 0 0 1 4.5-4.5h.5V5.28q-.01-1.22.04-2 .06-.77.34-1.37A3.5 3.5 0 0 1 19.91.38q.6-.29 1.38-.34T23.28 0M19 10h10V1h-5.7c-.85 0-1.45 0-1.93.04-.47.04-.77.11-1 .23a2.5 2.5 0 0 0-1.1 1.1c-.12.23-.2.53-.23 1C19 3.85 19 4.45 19 5.3zm0 28v9h5.7c.85 0 1.45 0 1.93-.04.47-.04.77-.11 1-.23a2.5 2.5 0 0 0 1.1-1.1c.12-.23.2-.53.23-1 .04-.48.04-1.08.04-1.93V38zm16-11h2v-6h-2zm-4.5-16h-13a3.5 3.5 0 0 0-3.5 3.5v19a3.5 3.5 0 0 0 3.5 3.5h13a3.5 3.5 0 0 0 3.5-3.5v-19a3.5 3.5 0 0 0-3.5-3.5"/></svg>