<svg width="24" height="24" fill="none" xmlns="http://www.w3.org/2000/svg"><path fill="currentColor" d="M10.88 0H16v5.05a2.5 2.5 0 0 1 2 2.45v9a2.5 2.5 0 0 1-2 2.45v2.17q0 .6-.02 1-.03.43-.2.79a2 2 0 0 1-.87.87q-.36.18-.78.2-.4.02-1 .02H8v-5.05a2.5 2.5 0 0 1-2-2.45v-9c0-1.2.86-2.22 2-2.45V2.88q0-.6.02-1 .03-.43.2-.79a2 2 0 0 1 .87-.87q.36-.17.78-.2.4-.02 1-.02M9 5h6V1h-4.1q-.63 0-.94.02-.32.03-.41.09a1 1 0 0 0-.44.44q-.06.1-.1.4L9 2.9zm0 14v4h4.1q.63 0 .94-.02.32-.03.41-.09a1 1 0 0 0 .44-.44q.06-.1.1-.4l.01-.95V19zM8.5 6C7.67 6 7 6.67 7 7.5v9c0 .83.67 1.5 1.5 1.5h7c.83 0 1.5-.67 1.5-1.5v-9c0-.83-.67-1.5-1.5-1.5zM19 14v-4h1v4z"/></svg>