<svg width="16" height="16" fill="none" xmlns="http://www.w3.org/2000/svg"><path fill="currentColor" d="M7.08 0H11v3.13c.68.26 1.17.93 1.17 1.7v6.34c0 .77-.49 1.44-1.17 1.7v1.23q0 .37-.02.6c-.02.19-.07.32-.14.48a1.5 1.5 0 0 1-.66.66q-.28.14-.58.14-.29.03-.7.02H5v-3.12a1.8 1.8 0 0 1-1.17-1.71V4.83c0-.77.49-1.44 1.17-1.7V2.07q0-.4.02-.68.01-.3.14-.58.23-.43.66-.66.29-.14.58-.14zM6 3h4V1H7.1l-.62.01-.2.04a.5.5 0 0 0-.23.22l-.04.21L6 2.1zm0 10v2h2.9l.62-.01.2-.05a.5.5 0 0 0 .27-.36l.01-.51V13zM4.83 4.83v6.34c0 .46.38.83.84.83h4.66c.46 0 .84-.37.84-.83V4.83a.83.83 0 0 0-.84-.83H5.67a.83.83 0 0 0-.84.83M13 10V6h1v4z"/></svg>