<svg width="24" height="24" fill="none" xmlns="http://www.w3.org/2000/svg"><path fill="currentColor" d="M19.85 15.86c-1.63-.37-2.6-1.47-3.25-2.93q-.18-.43.23-.68.32-.2.7-.3.45-.1.82-.41c.34-.3.3-.73-.1-.97a.9.9 0 0 0-.9-.07q-.3.16-.64.18c-.17 0-.29-.02-.27-.27.04-.51.1-1.03.07-1.47v-.58c0-1.5-.7-2.62-1.92-3.42a4.7 4.7 0 0 0-2.95-.68c-.97.05-1.86.33-2.6.95a3.8 3.8 0 0 0-1.5 2.6c-.1.87-.04 1.75.02 2.62.02.2-.07.24-.22.25q-.4.02-.74-.17a.9.9 0 0 0-.83.05c-.42.23-.46.68-.1 1q.35.27.8.4.3.08.58.22c.4.21.5.45.31.86-.67 1.43-1.66 2.5-3.28 2.84-.32.07-.42.32-.25.6q.18.26.46.37.66.3 1.37.39c.28.03.36.16.41.4.17.78.22.8 1 .65.88-.17 1.72-.1 2.46.5q.25.22.54.39 1.92 1.2 3.86 0 .48-.31.95-.64.46-.3 1.03-.31.7-.03 1.38.12.45.08.56-.36l.13-.53q.02-.15.2-.2a9 9 0 0 0 .92-.18c.34-.1.69-.2.96-.46.14-.12.23-.28.17-.48s-.2-.24-.38-.28"/></svg>