<svg width="24" height="24" fill="none" xmlns="http://www.w3.org/2000/svg"><path fill="currentColor" d="M12 2V0h1v2h.5c.3 0 .54.15.7.3q.27.26.43.6c.23.45.37 1.02.37 1.6V11h2v4h-1v3h-1v2.5c0 .65-.42 1.2-1 1.41v.59c0 .83-.67 1.5-1.5 1.5H12v-1h.5a.5.5 0 0 0 .5-.5V22h-1.5a1.5 1.5 0 0 1-1.5-1.5V18H9v-3H8v-4h2V4.5c0-.58.14-1.15.37-1.6q.16-.34.42-.6c.17-.15.41-.3.71-.3zm-1 9h3V4.5c0-.42-.1-.85-.26-1.15a1 1 0 0 0-.21-.31L13.48 3h-1.96l-.05.04q-.09.08-.21.3c-.15.31-.26.74-.26 1.16zm-1 4v2h5v-2zm6-1v-2H9v2zm-5 4v2.5c0 .28.22.5.5.5h2a.5.5 0 0 0 .5-.5V18z"/></svg>