<svg width="48" height="48" fill="none" xmlns="http://www.w3.org/2000/svg"><path fill="currentColor" d="M22.82 2h2.36l5.87 5.86h9.09v9.1L46 22.81v2.36l-5.86 5.87v9.09h-9.1L25.19 46h-2.36l-5.87-5.86h-9.1v-9.1L2 25.19v-2.36l5.86-5.87v-9.1h9.1zm.41 1-5.86 5.86h-8.5v8.5L3 23.24v1.54l5.86 5.86v8.5h8.5L23.24 45h1.54l5.86-5.86h8.5v-8.5L45 24.76v-1.54l-5.86-5.86v-8.5h-8.5L24.76 3zm-4.12 13.68a2.43 2.43 0 1 0 0 4.87 2.43 2.43 0 0 0 0-4.87m-3.43 2.43a3.43 3.43 0 1 1 6.87 0 3.43 3.43 0 0 1-6.87 0m15.51-1.6L17.51 31.2l-.7-.7 13.68-13.7zm-2.3 8.94a2.43 2.43 0 1 0 0 4.87 2.43 2.43 0 0 0 0-4.87m-3.44 2.44a3.43 3.43 0 1 1 6.87 0 3.43 3.43 0 0 1-6.87 0"/></svg>