<svg width="48" height="48" fill="none" xmlns="http://www.w3.org/2000/svg"><path fill="currentColor" d="M35 41.97v-.93l2.42-2.33 1.33-1.35a8 8 0 0 0 .83-1.13q.14-.27.2-.53a2 2 0 0 0-.04-1.23q-.12-.32-.36-.53a2 2 0 0 0-.62-.34 3 3 0 0 0-.88-.12 9 9 0 0 0-1.43.13 5 5 0 0 0-1.17.4v-1.08q.24-.13.51-.23a5 5 0 0 1 1.3-.27 9 9 0 0 1 1.83.06q.45.09.82.25t.62.4a2 2 0 0 1 .68 1.2A4 4 0 0 1 41 35.9q-.1.38-.28.73t-.45.7a9 9 0 0 1-1.25 1.37l-.75.7-1.63 1.56h4.84v1z"/><path fill="currentColor" d="M23.5 6C13.88 6 6 13.88 6 23.5S13.88 41 23.5 41c3.02 0 5.84-.68 8.26-2.04l.48.88A18 18 0 0 1 23.5 42 18.55 18.55 0 0 1 5 23.5C5 13.32 13.32 5 23.5 5a18.55 18.55 0 0 1 17.26 25.19l-.92-.38A17.55 17.55 0 0 0 23.5 6M23 20.03V9h1v11.03A3.4 3.4 0 0 1 26.97 23H34v1h-7.03a3.44 3.44 0 0 1-3.47 3 3.45 3.45 0 0 1-3.5-3.5c0-1.8 1.27-3.23 3-3.47m.5.97a2.45 2.45 0 0 0-2.5 2.5c0 1.42 1.08 2.5 2.5 2.5s2.5-1.08 2.5-2.5-1.08-2.5-2.5-2.5"/></svg>