<svg width="24" height="24" fill="none" xmlns="http://www.w3.org/2000/svg"><path fill="currentColor" d="M18 23v-.73l1.17-.96.8-.7a4 4 0 0 0 .46-.59q.08-.14.11-.27a1 1 0 0 0-.02-.6 1 1 0 0 0-.18-.26 1 1 0 0 0-.31-.17 2 2 0 0 0-.46-.06 3 3 0 0 0-.79.1 4 4 0 0 0-.65.24v-.82a3 3 0 0 1 .62-.25 3 3 0 0 1 .9-.11q.36 0 .65.06t.5.16a1.5 1.5 0 0 1 .63.58q.1.18.15.38a2 2 0 0 1-.03.91q-.06.22-.2.45-.1.21-.29.41a5 5 0 0 1-.8.76l-.44.35-.4.3h2.47V23z"/><path fill="currentColor" d="M11.5 2C5.68 2 1 6.68 1 12.5S5.68 23 11.5 23q2.3 0 4.3-.86l.4.92a12 12 0 0 1-4.7.94C5.12 24 0 18.88 0 12.5S5.12 1 11.5 1a11.47 11.47 0 0 1 10.87 15.17l-.94-.34A10.47 10.47 0 0 0 11.5 2m.5 11h4v1h-5V5.5h1z"/></svg>