<svg width="24" height="24" fill="none" xmlns="http://www.w3.org/2000/svg"><path fill="currentColor" d="M6.86 6h3.64C9.12 6 7.99 7.04 7.23 8.46A12 12 0 0 0 6 14a12 12 0 0 0 1.23 5.54C7.99 20.96 9.13 22 10.5 22H6.86c-1.45 0-2.68-1.01-3.51-2.45A11 11 0 0 1 2 14c0-2.14.5-4.1 1.35-5.55C4.18 7 5.4 6 6.86 6"/><path fill="currentColor" d="M10 14c0-.64.1-1.2.26-1.58a1 1 0 0 1 .24-.4l.03.02q.1.1.21.38c.15.38.26.94.26 1.58s-.1 1.2-.26 1.58a1 1 0 0 1-.24.4l-.03-.02a1 1 0 0 1-.21-.38A4 4 0 0 1 10 14"/><path fill="currentColor" d="M12 7.7v7.47a2.8 2.8 0 0 0 1.47 2.48q-.24.79-.58 1.42c-.7 1.3-1.56 1.93-2.39 1.93s-1.7-.64-2.39-1.93A11 11 0 0 1 7 14c0-2 .43-3.8 1.11-5.07C8.81 7.63 9.67 7 10.5 7q.77 0 1.5.7m0 6.3c0-.74-.12-1.43-.33-1.95a2 2 0 0 0-.42-.7 1 1 0 0 0-.75-.35c-.32 0-.57.16-.75.35a2 2 0 0 0-.42.7A5 5 0 0 0 9 14c0 .74.12 1.43.33 1.95q.15.4.42.7c.18.19.43.35.75.35s.57-.16.75-.35q.27-.3.42-.7c.21-.52.33-1.21.33-1.95"/><path fill="currentColor" d="M22 3v12.17A1.83 1.83 0 0 1 20.17 17h-5.34A1.83 1.83 0 0 1 13 15.17V3zm-2.5-1h-4V.5h4z"/></svg>