<svg width="48" height="48" fill="none" xmlns="http://www.w3.org/2000/svg"><path fill="currentColor" d="M31 2h7v3h3v18.5a2.5 2.5 0 0 1-2.5 2.5h-8a2.5 2.5 0 0 1-2.5-2.5V5h3zm1 3h5V3h-5zm-3 1v17.5a1.5 1.5 0 0 0 1.5 1.5h8a1.5 1.5 0 0 0 1.5-1.5V6zm5 6h-3v-1h3V8h1v3h3v1h-3v3h-1zM9.6 18.3C8 21 7 24.8 7 29s1 8 2.6 10.7c1.6 2.73 3.73 4.3 6 4.3h6.8c2.27 0 4.4-1.57 6-4.3C30 37 31 33.2 31 29q0-.5-.02-.98l1-.04L32 29c0 4.35-1.03 8.32-2.73 11.21S25.17 45 22.4 45h-6.82c-2.76 0-5.17-1.9-6.86-4.79S6 33.35 6 29s1.03-8.32 2.73-11.21S12.83 13 15.6 13h6.82c1.44 0 2.8.52 4 1.43l-.61.8A5.6 5.6 0 0 0 22.4 14h-6.8c-2.27 0-4.4 1.57-6 4.3m8.36 1.63C19.16 17.61 20.92 16 23 16c1.3 0 2.48.63 3.46 1.66l-.72.7Q24.43 17 23 17c-1.51 0-3 1.19-4.15 3.4A19 19 0 0 0 17 29c0 3.39.72 6.43 1.85 8.6C19.99 39.82 21.49 41 23 41s3-1.19 4.15-3.4A19 19 0 0 0 29 29q0-.5-.02-.98l1-.04L30 29c0 3.52-.74 6.72-1.96 9.07C26.84 40.39 25.08 42 23 42s-3.83-1.6-5.04-3.93A20 20 0 0 1 16 29c0-3.52.74-6.72 1.96-9.07M37 20v1h-5v-1zm-16.57 3.42-.8-2.25.94-.34.8 2.25zm3.2-.34.8-2.25.94.34-.8 2.25zm3.12 4.66-1.6.9-.5-.88 1.6-.9zm-8.14-.7 2 .45-.22.97-2-.45zm.37 7.08 1.6-1.35.64.76-1.6 1.35zm6.8.76-1.6-1.35.64-.76 1.6 1.35zM22.37 39l.03-2.25 1 .02-.03 2.25z"/></svg>