<svg width="16" height="16" fill="none" xmlns="http://www.w3.org/2000/svg"><path fill="currentColor" d="M3.21 2.95A10 10 0 0 0 2 8c0 2 .47 3.78 1.21 5.05.75 1.28 1.7 1.95 2.65 1.95H7.3q-.6-.61-1.06-1.46A12 12 0 0 1 5 8a12 12 0 0 1 1.23-5.54Q6.69 1.61 7.29 1H5.86c-.95 0-1.9.67-2.65 1.95M9.5 1c-.83 0-1.7.64-2.39 1.93A11 11 0 0 0 6 8c0 2 .43 3.8 1.11 5.07.7 1.3 1.56 1.93 2.39 1.93s1.7-.64 2.39-1.93A11 11 0 0 0 13 8c0-2-.43-3.8-1.11-5.07C11.19 1.63 10.33 1 9.5 1m-.36 14.98V16H5.86c-1.45 0-2.68-1.01-3.51-2.45A11 11 0 0 1 1 8c0-2.14.5-4.1 1.35-5.55C3.18 1 4.4 0 5.86 0H9.5c1.38 0 2.51 1.04 3.27 2.46C13.54 3.9 14 5.86 14 8s-.46 4.1-1.23 5.54C12.01 14.96 10.87 16 9.5 16zm-.4-10.63c.19-.19.44-.35.76-.35s.57.16.75.35q.27.3.42.7c.21.52.33 1.21.33 1.95s-.12 1.43-.33 1.95q-.15.4-.42.7c-.18.19-.43.35-.75.35s-.57-.16-.75-.35a2 2 0 0 1-.42-.7A5 5 0 0 1 8 8c0-.74.12-1.43.33-1.95q.15-.4.42-.7m.52 1.07C9.1 6.8 9 7.36 9 8s.1 1.2.26 1.58a1 1 0 0 0 .24.4l.03-.02q.1-.1.21-.38C9.9 9.2 10 8.64 10 8s-.1-1.2-.26-1.58a1 1 0 0 0-.24-.4l-.03.02q-.1.1-.21.38"/></svg>