<svg width="24" height="24" fill="none" xmlns="http://www.w3.org/2000/svg"><path fill="currentColor" d="M15 1h5v2h2v12.17A1.83 1.83 0 0 1 20.17 17h-5.34A1.83 1.83 0 0 1 13 15.17V3h2zm1 2h3V2h-3zm-2 1v11.17a.83.83 0 0 0 .83.83h5.34a.83.83 0 0 0 .83-.83V4zM4.21 8.95A10 10 0 0 0 3 14c0 2 .47 3.78 1.21 5.05.75 1.28 1.7 1.95 2.65 1.95H8.3q-.6-.61-1.06-1.46A12 12 0 0 1 6 14a12 12 0 0 1 1.23-5.54Q7.69 7.61 8.29 7H6.86c-.95 0-1.9.67-2.65 1.95M10.5 7c-.83 0-1.7.64-2.39 1.93A11 11 0 0 0 7 14c0 2 .43 3.8 1.11 5.07.7 1.3 1.56 1.93 2.39 1.93q.87 0 1.68-.9c.54-.6 1.01-1.5 1.34-2.6l.96.28a8 8 0 0 1-1.55 2.98A3.3 3.3 0 0 1 10.5 22l-.36-.02V22H6.86c-1.45 0-2.68-1.01-3.51-2.45A11 11 0 0 1 2 14c0-2.14.5-4.1 1.35-5.55C4.18 7 5.4 6 6.86 6h3.64q.65 0 1.22.29l-.44.9A2 2 0 0 0 10.5 7m-.75 4.35c.18-.19.43-.35.75-.35s.57.16.75.35q.27.3.42.7c.21.52.33 1.21.33 1.95s-.12 1.43-.33 1.95q-.15.4-.42.7c-.18.19-.43.35-.75.35s-.57-.16-.75-.35a2 2 0 0 1-.42-.7A5 5 0 0 1 9 14c0-.74.12-1.43.33-1.95q.15-.4.42-.7m.5 1.07c-.14.38-.25.94-.25 1.58s.1 1.2.26 1.58a1 1 0 0 0 .24.4l.03-.02q.1-.1.21-.38c.15-.38.26-.94.26-1.58s-.1-1.2-.26-1.58a1 1 0 0 0-.24-.4l-.03.02q-.1.1-.21.38"/></svg>