<svg width="16" height="16" fill="none" xmlns="http://www.w3.org/2000/svg"><path fill="currentColor" d="m8.74.72-.4.28-.42-.29.42-.58zm4.93 9.87A5.26 5.26 0 0 1 8.64 16l-.02.01h-.3A5.4 5.4 0 0 1 3 10.6c0-.79.34-1.8.8-2.84a33 33 0 0 1 1.69-3.22A63 63 0 0 1 7.87.79L7.9.73l.01-.01.41.28.41-.28.02.02.04.06.7 1.06c.46.7 1.07 1.66 1.68 2.7a34 34 0 0 1 1.69 3.23c.45 1.02.8 2.03.8 2.8M8.33 1.9a63 63 0 0 0-1.98 3.15A32 32 0 0 0 4.7 8.16 7 7 0 0 0 4 10.6 4.4 4.4 0 0 0 8.34 15h.26a4.26 4.26 0 0 0 4.07-4.39v-.01a7 7 0 0 0-.72-2.4c-.44-1-1.03-2.1-1.63-3.13a64 64 0 0 0-1.99-3.18"/></svg>