<svg width="48" height="48" fill="none" xmlns="http://www.w3.org/2000/svg"><path fill="currentColor" d="m34.9.72-.4.28-.41-.29.41-.58zm8.6 17.15a8.87 8.87 0 0 1-8.5 9.12h-.52c-5-.12-8.99-4.1-8.99-9.11 0-1.3.57-3.03 1.37-4.84.8-1.83 1.88-3.8 2.95-5.63A110 110 0 0 1 33.99.85l.07-.1.02-.03.42.28.4-.28.03.03.08.1 1.24 1.86c.8 1.23 1.86 2.92 2.93 4.75a59 59 0 0 1 2.95 5.63c.8 1.8 1.36 3.51 1.37 4.78m-9-15.98a107 107 0 0 0-3.82 6.02 57 57 0 0 0-2.9 5.53c-.79 1.8-1.28 3.37-1.28 4.44 0 4.45 3.54 8 8 8.12h.47a7.87 7.87 0 0 0 7.53-8.11v-.01c0-1.04-.5-2.59-1.29-4.38a58 58 0 0 0-2.9-5.54 113 113 0 0 0-3.81-6.07M9.6 18.29C8 21.01 7 24.8 7 29s1 8 2.6 10.7c1.6 2.73 3.73 4.3 6 4.3h6.8c2.27 0 4.4-1.57 6-4.3C30 37 31 33.2 31 29v-.5h1v.5c0 4.35-1.03 8.32-2.73 11.21S25.17 45 22.4 45h-6.82c-2.76 0-5.17-1.9-6.86-4.79S6 33.35 6 29s1.03-8.32 2.73-11.21S12.83 13 15.6 13h6.82q1.18 0 2.28.45l-.38.93a5 5 0 0 0-1.9-.38H15.6c-2.26 0-4.4 1.57-6 4.3m8.36 1.64C19.16 17.61 20.92 16 23 16a4 4 0 0 1 1.14.17l-.28.96A3 3 0 0 0 23 17c-1.51 0-3 1.19-4.15 3.4A19 19 0 0 0 17 29c0 3.39.72 6.43 1.85 8.6C19.99 39.82 21.49 41 23 41s3-1.19 4.15-3.4A19 19 0 0 0 29 29q0-1-.08-1.96l1-.08q.08 1 .08 2.04c0 3.52-.74 6.72-1.96 9.07C26.84 40.39 25.08 42 23 42s-3.83-1.6-5.04-3.93A20 20 0 0 1 16 29c0-3.52.74-6.72 1.96-9.07m2.47 3.49-.8-2.25.94-.34.8 2.25zm3.2-.34.4-1.12.94.33-.4 1.13zm3.12 4.66-1.6.9-.5-.88 1.6-.9zm-8.14-.7 2 .45-.22.97-2-.45zm.37 7.08 1.6-1.35.64.76-1.6 1.35zm6.8.76-1.6-1.35.64-.76 1.6 1.35zM22.37 39l.03-2.25 1 .02-.03 2.25z"/></svg>