<svg width="24" height="24" fill="none" xmlns="http://www.w3.org/2000/svg"><path fill="currentColor" d="M5.74 4.83A14.4 14.4 0 0 0 4 12c0 2.83.68 5.36 1.74 7.17C6.81 21 8.22 22 9.68 22h2.55a8 8 0 0 1-1.84-2.34A16.5 16.5 0 0 1 8.67 12c0-2.97.64-5.68 1.72-7.66A8 8 0 0 1 12.23 2H9.68C8.22 2 6.81 3 5.74 4.83M14.84 2c-1.3 0-2.58.98-3.57 2.81A15.5 15.5 0 0 0 9.67 12c0 2.83.62 5.37 1.6 7.19S13.54 22 14.83 22c1.3 0 2.58-.98 3.57-2.81.98-1.82 1.6-4.36 1.6-7.19s-.62-5.37-1.6-7.19S16.13 2 14.83 2m-.52 20.96V23H9.68c-1.95 0-3.64-1.34-4.8-3.32A15.4 15.4 0 0 1 3 12c0-2.97.7-5.69 1.88-7.68C6.04 2.34 7.73 1 9.68 1h5.15c1.84 0 3.39 1.37 4.45 3.34A16.5 16.5 0 0 1 21 12c0 2.97-.65 5.68-1.72 7.66-1.06 1.97-2.61 3.34-4.45 3.34q-.26 0-.51-.04m-.4-14.53c.23-.24.54-.43.91-.43.38 0 .69.19.92.43q.33.38.55.9c.28.71.45 1.66.45 2.67s-.17 1.96-.45 2.66q-.21.54-.55.91c-.23.24-.54.43-.92.43-.37 0-.68-.19-.9-.43a3 3 0 0 1-.56-.9 7 7 0 0 1-.45-2.67c0-1.01.16-1.96.45-2.66q.2-.54.55-.91m.38 1.28a6 6 0 0 0-.38 2.29c0 .92.15 1.73.38 2.29q.16.41.34.59c.11.11.18.12.2.12 0 0 .07 0 .18-.12q.18-.17.35-.6c.23-.55.38-1.36.38-2.28s-.15-1.73-.38-2.29a2 2 0 0 0-.35-.59c-.1-.11-.17-.12-.19-.12s-.08 0-.19.12a2 2 0 0 0-.34.6"/></svg>