<svg width="24" height="24" fill="none" xmlns="http://www.w3.org/2000/svg"><path fill="currentColor" d="M12.93 9.06a18 18 0 0 1 3 0c.42.05.83.12 1.13.25q.4.18.98.66.55.46 1.3 1.18 1.88.26 2.72.53.7.25 1.15.65.46.39.63.86.17.53.16 1.36v.21c0 .64-.51 1.15-1.15 1.16l-.9.06a2 2 0 0 1-3.89.02h-6.12a2 2 0 0 1-3.89-.05l-.78-.1a1.4 1.4 0 0 1-.89-.42c-.23-.23-.4-.57-.38-.96v-.01l.22-2.01c.05-.67.52-1.23 1.17-1.4l.89-.18q.2-.04.6-.22a16 16 0 0 0 1.14-.57c.54-.29 1.13-.6 1.62-.78.34-.13.8-.2 1.29-.24M1 10.25h4v1.5H1zm-1 2.5h5v1.5H0zm1 2.5h4v1.5H1z"/></svg>