<svg width="16" height="16" fill="none" xmlns="http://www.w3.org/2000/svg"><path fill="currentColor" d="M14.23 4.07a7 7 0 0 0-1.47.25A19 19 0 0 0 10.4 5.5q-.65.34-1.23.61-.58.28-1.1.37-.54.1-1.08.23a.9.9 0 0 0-.7.83L6 10.22q0 .18.17.37c.12.13.3.2.46.22h.01l2.03.26v.44a1.5 1.5 0 0 0 3 0V11H16v1h-3.38a2.5 2.5 0 0 1-4.91-.06l-1.17-.15c-.41-.03-.8-.22-1.08-.5A1.5 1.5 0 0 1 5 10.13l.3-2.68a1.9 1.9 0 0 1 1.43-1.72q.59-.15 1.17-.24.3-.06.85-.3a21 21 0 0 0 1.52-.77c.73-.38 1.5-.8 2.14-1.03.44-.17 1.1-.26 1.74-.31C14.8 3.02 15.49 3 16 3v1c-.49 0-1.15.02-1.77.07M1 6h3v1H1zM0 8h4v1H0zm1 2h3v1H1z"/></svg>