<svg width="24" height="24" fill="none" xmlns="http://www.w3.org/2000/svg"><path fill="currentColor" d="M13.02 10.05q-.72.06-1.03.18a14 14 0 0 0-1.77.87q-.48.27-.93.47-.44.2-.85.28-.4.07-.8.17a.6.6 0 0 0-.43.5v.02l-.21 2q0 .07.09.18.12.12.26.13h.02l1.63.21v.44a1 1 0 1 0 2 0V15h8v.5a1 1 0 1 0 2 0v-.47l1.82-.1h.01q.16-.02.17-.17v-.21q0-.77-.1-1.04a1 1 0 0 0-.34-.43 2 2 0 0 0-.81-.45 17 17 0 0 0-2.7-.5l-.16-.03-.12-.11q-.82-.8-1.37-1.25t-.74-.51a3 3 0 0 0-.83-.17q-.6-.06-1.33-.06-.78 0-1.48.05m-.1-1a18 18 0 0 1 3.01.01c.42.05.83.12 1.13.25q.4.18.98.66.55.46 1.3 1.18 1.88.26 2.72.53.7.25 1.15.65.46.39.63.86.17.53.16 1.36v.21c0 .64-.51 1.15-1.15 1.16l-.9.06a2 2 0 0 1-3.89.02h-6.12a2 2 0 0 1-3.89-.05l-.78-.1a1.4 1.4 0 0 1-.89-.42c-.23-.23-.4-.57-.38-.96v-.01l.22-2.01c.05-.67.52-1.23 1.17-1.4l.89-.18q.2-.04.6-.22a16 16 0 0 0 1.14-.57c.54-.29 1.13-.6 1.62-.78.34-.13.8-.2 1.29-.24M1 11h4v1H1zm4 3H0v-1h5zm0 2H1v-1h4z"/></svg>