<svg width="24" height="24" fill="none" xmlns="http://www.w3.org/2000/svg"><path fill="currentColor" d="M14.06 4v2.66q.4.18.77.44l2.3-1.32 2 3.46-2.3 1.32q.04.45 0 .89l2.29 1.37-2 3.46-2.3-1.33q-.37.25-.76.4V18h-4v-2.66a5 5 0 0 1-.77-.44L7 16.23l-2-3.4 2.3-1.38q-.06-.45 0-.9L5 9.24l2-3.46L9.3 7.1q.36-.25.76-.43V4zm-2 5a2 2 0 1 0 0 4 2 2 0 0 0 0-4"/><path fill="currentColor" d="M11.5 1.5c-3.35 0-6.33 1.67-8.2 4.1l-1.2-.9A12 12 0 0 1 11.5 0c6.51 0 11.75 5.24 11.75 11.75S18.01 23.5 11.5 23.5c-3 0-5.35-1.16-7.25-2.96v2.71h-1.5V18H8v1.5H5.33A8.7 8.7 0 0 0 11.5 22c5.69 0 10.25-4.56 10.25-10.25S17.19 1.5 11.5 1.5"/></svg>