<svg width="48" height="48" fill="none" xmlns="http://www.w3.org/2000/svg"><path fill="currentColor" d="M13.06 3h4v2.66q.4.18.77.44l2.3-1.32 2 3.46-2.3 1.32q.05.45 0 .89l2.29 1.37-2 3.46-2.3-1.33q-.36.25-.76.4V17h-4v-2.66a5 5 0 0 1-.77-.44L10 15.23l-2-3.4 2.3-1.38q-.06-.45 0-.9L8 8.24l2-3.46 2.3 1.32q.36-.25.76-.43zm1 1v2.36l-.34.11q-.59.21-1.07.6l-.27.23-2.02-1.17-1 1.74 2.02 1.16-.06.34q-.1.63 0 1.26l.06.33-2.02 1.21 1 1.7 2.02-1.18.27.23q.48.4 1.08.6l.33.13V16h2v-2.37l.35-.1a4 4 0 0 0 1.08-.57l.26-.2 2 1.16 1.01-1.74-2.02-1.22.06-.33q.1-.63 0-1.26l-.06-.34 2.02-1.15-1-1.74-2.02 1.17-.27-.23a4 4 0 0 0-1.08-.6l-.33-.13V4zM25.5 7C35.18 7 43 14.82 43 24.5S35.18 42 25.5 42 8 34.18 8 24.5v-.8l-3.35 3.35-.7-.7 4.55-4.56 4.55 4.56-.7.7L9 23.71v.79a16.5 16.5 0 1 0 33 0A16.5 16.5 0 0 0 25.5 8zM15.06 9a1 1 0 1 0 0 2 1 1 0 0 0 0-2m-2 1a2 2 0 1 1 4 0 2 2 0 0 1-4 0m10.34 5h4.2v2.84q.56.19 1.11.44l1.99-1.99 3 3.01-1.98 1.99q.25.55.44 1.11H35v4.3h-2.84q-.19.56-.44 1.11l2 2-3.03 2.89-1.98-1.98q-.55.25-1.11.44V34h-4.3v-2.84a9 9 0 0 1-1.1-.44l-1.89 2-3.02-3.02 2-1.99a9 9 0 0 1-.45-1.11H16v-4.3h2.84q.18-.57.44-1.1l-2-1.89 3.02-3.02 1.99 2q.55-.26 1.11-.45zm1 1v2.56l-.34.11q-.93.29-1.6.66l-.34.2-1.82-1.82-1.58 1.58 1.82 1.72-.21.35c-.27.44-.45.99-.66 1.6l-.11.34H17v2.3h2.56l.11.34q.28.93.66 1.6l.2.34-1.82 1.82 1.58 1.58 1.72-1.82.35.21c.44.27.99.45 1.6.66l.34.11V33h2.3v-2.56l.34-.11q.93-.28 1.6-.66l.34-.2 1.83 1.83 1.57-1.5-1.81-1.82.2-.34c.27-.44.45-.99.66-1.6l.11-.34H34v-2.3h-2.56l-.11-.34a8 8 0 0 0-.66-1.6l-.2-.34 1.82-1.82-1.59-1.6-1.82 1.83-.34-.2a8 8 0 0 0-1.6-.66l-.34-.11V16zm1.1 6a2.5 2.5 0 1 0 0 5 2.5 2.5 0 0 0 0-5M22 24.5a3.5 3.5 0 1 1 7 0 3.5 3.5 0 0 1-7 0"/></svg>