<svg width="16" height="16" fill="none" xmlns="http://www.w3.org/2000/svg"><path fill="currentColor" d="M6.06 1h4v2.66q.4.18.77.44l2.3-1.32 2 3.46-2.3 1.32q.04.45 0 .89l2.29 1.37-2 3.46-2.3-1.33q-.37.25-.76.4v2.4l-.39.09c-.81.19-1.48.2-1.81.19a7.8 7.8 0 0 1-4.8-1.84q-.62-.51-1.06-.98V15H1v-4.69h4.5v1H2.53q.45.51 1.16 1.1a6.8 6.8 0 0 0 4.18 1.62h.02c.21 0 .63 0 1.17-.09v-2.3l.35-.12q.58-.18 1.08-.56l.26-.2 2 1.16 1.01-1.74-2.02-1.22.06-.33q.1-.63 0-1.26l-.06-.34 2.02-1.15-1-1.74-2.02 1.16-.26-.21q-.5-.4-1.09-.62l-.33-.12V2h-2v2.35l-.33.12q-.6.21-1.09.6l-.26.22-2.02-1.16-1 1.74 2.02 1.16-.06.34q-.1.63 0 1.26l-.98.16q-.1-.6-.05-1.23L1 6.23l2-3.46 2.3 1.32q.37-.24.77-.43zm0 7a2 2 0 1 1 4 0 2 2 0 0 1-4 0m2-1a1 1 0 1 0 0 2 1 1 0 1 0 0-2"/></svg>