<svg width="24" height="24" fill="none" xmlns="http://www.w3.org/2000/svg"><path fill="currentColor" d="M11.5 1C8.07 1 5.01 2.72 3.1 5.2l-.8-.6A11.7 11.7 0 0 1 11.5 0C17.88 0 23 5.12 23 11.5S17.88 23 11.5 23A10 10 0 0 1 4 19.7V23H3v-5h5v1H4.72a9 9 0 0 0 6.78 3C17.32 22 22 17.32 22 11.5S17.32 1 11.5 1m-1.44 3h4v2.66q.4.18.77.44l2.3-1.32 2 3.46-2.3 1.32q.05.45 0 .89l2.29 1.37-2 3.46-2.3-1.33q-.37.25-.76.4V18h-4v-2.66a5 5 0 0 1-.77-.44L7 16.23l-2-3.4 2.3-1.38q-.06-.45 0-.9L5 9.24l2-3.46L9.3 7.1q.36-.25.76-.43zm1 1v2.36l-.34.11q-.59.21-1.07.6l-.27.23-2.02-1.17-1 1.74 2.02 1.16-.06.34q-.1.63 0 1.26l.06.33-2.02 1.21 1 1.7 2.02-1.18.27.23q.48.4 1.08.6l.33.13V17h2v-2.37l.35-.1a4 4 0 0 0 1.08-.57l.26-.2 2 1.16 1.01-1.74-2.02-1.22.06-.33q.1-.63 0-1.26l-.06-.34 2.02-1.15-1-1.74-2.02 1.17-.27-.23a4 4 0 0 0-1.08-.6l-.33-.13V5zm1 5a1 1 0 1 0 0 2 1 1 0 0 0 0-2m-2 1a2 2 0 1 1 4 0 2 2 0 0 1-4 0"/></svg>