<svg width="16" height="16" fill="none" xmlns="http://www.w3.org/2000/svg"><path fill="currentColor" d="M2.4 1C1.6 1 1 1.64 1 2.5q0 .24.27.89c.18.4.42.85.66 1.27q.3.53.57.93.26-.4.57-.93c.24-.42.48-.87.66-1.27q.28-.65.27-.89C4 1.68 3.32 1 2.5 1zm.1 5.5-.41.28-.03-.03-.3-.45-.7-1.14a14 14 0 0 1-.7-1.37A4 4 0 0 1 0 2.5C0 1.16 1 0 2.4 0h.1A2.5 2.5 0 0 1 5 2.5c0 .39-.17.86-.35 1.29q-.31.7-.72 1.37a27 27 0 0 1-1 1.59l-.01.02v.01zm0 0 .41.28-.41.6-.41-.6zM11.29 2h.21A4.5 4.5 0 0 1 16 6.5c0 .66-.3 1.52-.67 2.38-.38.88-.9 1.83-1.4 2.7a54 54 0 0 1-1.97 3.14l-.04.05v.01l-.42-.28-.41.28-.01-.01-.04-.05a50 50 0 0 1-1.97-3.14c-.5-.87-1.02-1.82-1.4-2.7A7 7 0 0 1 7 6.5 4.34 4.34 0 0 1 11.28 2zm.21 12.5-.41.28.41.6.41-.6zm0-.9a53 53 0 0 0 1.57-2.53c.5-.85.98-1.76 1.35-2.6S15 6.95 15 6.5C15 4.58 13.42 3 11.5 3h-.19C9.37 3.1 7.91 4.58 8 6.48v.02c0 .44.2 1.13.58 1.98.37.83.86 1.74 1.35 2.6a53 53 0 0 0 1.57 2.52M4.63 9H2V8h4.37l-3.5 6H9v1H1.13z"/></svg>