<svg width="24" height="24" fill="none" xmlns="http://www.w3.org/2000/svg"><path fill="currentColor" d="m3.09 8.78.41.6.41-.6.03-.03.3-.45.7-1.14q.39-.68.7-1.37c.2-.43.36-.9.36-1.29A2.5 2.5 0 0 0 3.5 2h-.1C2 2 1 3.16 1 4.5c0 .39.17.86.35 1.29q.31.7.72 1.37a27 27 0 0 0 1 1.59zm9.41.6.41-.6.03-.03.3-.45.7-1.14q.39-.68.7-1.37c.2-.43.36-.9.36-1.29A2.5 2.5 0 0 0 12.5 2h-.1C11 2 10 3.16 10 4.5c0 .39.17.86.35 1.29q.31.7.72 1.37a27 27 0 0 0 1 1.59l.01.02v.01zm6-1.38a4.5 4.5 0 0 1 4.5 4.5c0 .66-.3 1.52-.67 2.38-.38.88-.9 1.83-1.4 2.7a54 54 0 0 1-1.84 2.95l-.59.85-.59-.85a53 53 0 0 1-1.84-2.95 28 28 0 0 1-1.4-2.7A7 7 0 0 1 14 12.5 4.34 4.34 0 0 1 18.28 8z"/><path fill="currentColor" d="M3 11.5h6.16l-6.08 4.34 15.07 8.07.7-1.32-12.93-6.93L13.84 10H3z"/></svg>