<svg width="48" height="48" fill="none" xmlns="http://www.w3.org/2000/svg"><path fill="currentColor" d="M7.69 5H8a4.5 4.5 0 0 1 4.5 4.5 7 7 0 0 1-.67 2.4c-.38.9-.89 1.88-1.4 2.77a58 58 0 0 1-1.97 3.24l-.03.05-.01.01L8 17.7l-.42.27-.01-.01-.03-.06-.59-.92c-.38-.61-.88-1.45-1.39-2.35s-1.01-1.87-1.4-2.76A7 7 0 0 1 3.5 9.5 4.4 4.4 0 0 1 7.68 5zM8 17.7l-.42.27.42.64.42-.63zm0-.92a61 61 0 0 0 1.56-2.6c.5-.88.99-1.82 1.36-2.67.37-.87.58-1.57.58-2.01C11.5 7.58 9.92 6 8 6h-.29A3.4 3.4 0 0 0 4.5 9.48v.02c0 .41.2 1.1.58 1.97.37.84.86 1.79 1.36 2.67A61 61 0 0 0 8 16.78M25.7 5h.3a4.5 4.5 0 0 1 4.5 4.5 7 7 0 0 1-.67 2.4c-.38.9-.89 1.88-1.4 2.77a58 58 0 0 1-1.97 3.24l-.03.05-.01.01-.42-.27-.42.27-.01-.01-.03-.06-.59-.92c-.38-.61-.88-1.45-1.39-2.35s-1-1.87-1.4-2.76a7 7 0 0 1-.66-2.36 4.4 4.4 0 0 1 4.18-4.5zm.3 12.7-.42.27.42.64.42-.63zm0-.92a66 66 0 0 0 1.56-2.6c.5-.88 1-1.82 1.36-2.67.37-.87.58-1.57.58-2.01C29.5 7.58 27.92 6 26 6h-.29a3.4 3.4 0 0 0-3.21 3.48v.02c0 .41.2 1.1.58 1.97.37.84.86 1.79 1.36 2.67A61 61 0 0 0 26 16.78M38 20h.41a7.6 7.6 0 0 1 7.6 7.49v.01c0 1.09-.48 2.53-1.14 4.03a49 49 0 0 1-2.43 4.68A92 92 0 0 1 39 41.67l-.06.08-.01.03-.42-.28-.41.28-.02-.03-.06-.08L37 40.13a92 92 0 0 1-2.42-3.92 49 49 0 0 1-2.43-4.68C31.48 30.04 31 28.6 31 27.51a7.15 7.15 0 0 1 6.97-7.5zm.51 21.5-.41.28.41.6.41-.6zm0-.89a91 91 0 0 0 3.07-4.9c.87-1.5 1.73-3.1 2.38-4.58A10 10 0 0 0 45 27.51 6.6 6.6 0 0 0 38.4 21h-.39c-3.54.2-6.2 2.97-6.01 6.47v.03c0 .86.4 2.14 1.05 3.63a48 48 0 0 0 2.38 4.58 91 91 0 0 0 3.07 4.9M22.5 22H8v-1h17.5L10.95 31.92l27.27 13.73-.45.9L9.05 32.08zm16 3a2.45 2.45 0 0 0-2.5 2.5c0 1.42 1.08 2.5 2.5 2.5s2.5-1.08 2.5-2.5-1.08-2.5-2.5-2.5M35 27.5c0-1.98 1.52-3.5 3.5-3.5s3.5 1.52 3.5 3.5-1.52 3.5-3.5 3.5a3.45 3.45 0 0 1-3.5-3.5"/></svg>