<svg width="24" height="24" fill="none" xmlns="http://www.w3.org/2000/svg"><path fill="currentColor" d="M3.4 3C2.6 3 2 3.64 2 4.5q0 .24.27.89.29.62.66 1.27.3.53.57.93.26-.4.57-.93.38-.65.66-1.27.28-.65.27-.89C5 3.68 4.32 3 3.5 3zm.1 5.5-.41.28-.03-.03-.3-.45-.7-1.14a14 14 0 0 1-.7-1.37A4 4 0 0 1 1 4.5C1 3.16 2 2 3.4 2h.1A2.5 2.5 0 0 1 6 4.5c0 .39-.17.86-.35 1.29q-.31.7-.72 1.37a27 27 0 0 1-1 1.59l-.01.02v.01zm0 0 .41.28-.41.6-.41-.6zM12.4 3c-.8 0-1.4.64-1.4 1.5q0 .24.27.89.29.62.66 1.27.3.53.57.93.26-.4.57-.93.38-.65.66-1.27.28-.65.27-.89c0-.82-.68-1.5-1.5-1.5zm.1 5.5-.41.28-.03-.03-.3-.45-.7-1.14q-.39-.68-.7-1.37A4 4 0 0 1 10 4.5C10 3.16 11 2 12.4 2h.1A2.5 2.5 0 0 1 15 4.5c0 .39-.17.86-.35 1.29q-.31.7-.72 1.37a27 27 0 0 1-1 1.59l-.01.02v.01zm0 0 .41.28-.41.6-.41-.6zm5.79-.5h.21a4.5 4.5 0 0 1 4.5 4.5c0 .66-.3 1.52-.67 2.38-.38.88-.9 1.83-1.4 2.7a54 54 0 0 1-1.97 3.14l-.04.05v.01l-.42-.28-.41.28-.01-.01-.04-.05-.58-.89c-.38-.58-.89-1.38-1.4-2.25s-1-1.82-1.4-2.7A7 7 0 0 1 14 12.5 4.34 4.34 0 0 1 18.28 8zm.21 12.5-.41.28.41.6.41-.6zm0-.9a53 53 0 0 0 1.57-2.53c.5-.85.98-1.76 1.35-2.6s.58-1.53.58-1.97c0-1.92-1.58-3.5-3.5-3.5h-.19c-1.94.1-3.4 1.58-3.31 3.48v.02c0 .44.2 1.13.58 1.98.37.83.86 1.74 1.35 2.6a53 53 0 0 0 1.57 2.52M9.94 11H3v-1h10.06l-7.61 5.44 13.29 7.12-.48.88-14.7-7.88z"/></svg>