<svg width="48" height="48" fill="none" xmlns="http://www.w3.org/2000/svg"><path fill="currentColor" d="M9.29 12q2.36-.23 4.82-.25 2.46.01 4.8.25l.2.02.14.16c.52.61.85 1.04 1.17 1.55l-.84.54a11 11 0 0 0-.96-1.3 48 48 0 0 0-4.51-.22q-2.29.02-4.53.23l-.11.14c-.4.48-.71.84-.94 1.21L7.48 16h6.02v1H6.63l-.63.7v.3h2.9v1H6v4.5q0 .12.17.33.21.18.33.17h2q.12 0 .33-.17.18-.21.17-.33V23h2v1H9.9q-.15.31-.37.53A1.5 1.5 0 0 1 8.5 25h-2a1.5 1.5 0 0 1-1.03-.47A1.5 1.5 0 0 1 5 23.5v-6.2l1.55-1.7 1.13-1.8q.42-.63 1.03-1.34l.24-.28.13-.16zm7.67 3.98a63 63 0 0 1 11.09.02l.2.02.13.16q.91 1.06 1.46 1.94l-.84.53a16 16 0 0 0-1.25-1.67 62 62 0 0 0-10.5-.02 17 17 0 0 0-1.25 1.7L15.16 20H22v1h-7.52L13 22.69V23h3.5v1H13v5.5c0 .28.22.5.5.5h2a.5.5 0 0 0 .5-.5V28h3v1h-2v.5c0 .83-.67 1.5-1.5 1.5h-2a1.5 1.5 0 0 1-1.5-1.5v-7.19l1.85-2.11 1.3-2.08q.56-.87 1.47-1.96l.13-.16zm8.5 4.07a80 80 0 0 1 13.08 0l.24.02.14.2q.81 1.23 1.41 2.2.6.94 1.57 2.73l2.1 2.1v8.2c0 .83-.67 1.5-1.5 1.5h-2a1.5 1.5 0 0 1-1.5-1.5V35H25v.5c0 .83-.67 1.5-1.5 1.5h-2a1.5 1.5 0 0 1-1.5-1.5v-8.2l2.1-2.1a55 55 0 0 1 2.98-4.93l.14-.2zM22.7 26 21 27.7v.3h4v1h-4v6.5c0 .28.22.5.5.5h2a.5.5 0 0 0 .5-.5V34h16v1.5c0 .28.22.5.5.5h2a.5.5 0 0 0 .5-.5V29h-4v-1h4v-.3L41.3 26zm17.94-1a45 45 0 0 0-2.43-3.98 78 78 0 0 0-12.44 0L24.51 23q-.46.74-1.16 2.01z"/></svg>