<svg width="48" height="48" fill="none" xmlns="http://www.w3.org/2000/svg"><path fill="currentColor" d="M23.5 3.47 45.35 43H1.65zM3.35 42h40.3L23.5 5.53zm13.8-19.05a61 61 0 0 1 10.27 0l.22.02.14.19c.32.44.52.77.7 1.09l.24.38-.84.54-.27-.44c-.15-.26-.3-.5-.51-.8a60 60 0 0 0-9.63 0q-.56.79-.96 1.41-.45.73-1.2 1.84l-.02.02L14 28.75V36h-1v-7.61l1.49-1.79q.73-1.08 1.18-1.79.46-.74 1.12-1.65l.14-.2zm2.3 3.02a66 66 0 0 1 11.1 0l.22.02.14.18q.71.99 1.21 1.8l1.28 1.93.08.1h.02v.02l1.5 1.8v6.71c0 .83-.67 1.5-1.5 1.5h-2a1.5 1.5 0 0 1-1.5-1.5V38H20v.53c0 .83-.67 1.5-1.5 1.5h-2a1.5 1.5 0 0 1-1.5-1.5v-6.71l1.5-1.8V30h.02l.08-.1q.8-1.18 1.28-1.94.5-.8 1.21-1.79l.14-.18zM16.99 31 16 32.18V33h3v1h-3v4.53c0 .28.22.5.5.5h2a.5.5 0 0 0 .5-.5V37h12v1.53c0 .28.22.5.5.5h2a.5.5 0 0 0 .5-.5V34h-3v-1h3v-.82L33.02 31zm15.28-1q-.6-.88-.98-1.5-.44-.7-1.05-1.55a65 65 0 0 0-10.46 0q-.6.85-1.05 1.54L17.75 30z"/></svg>