<svg width="24" height="24" fill="none" xmlns="http://www.w3.org/2000/svg"><path fill="currentColor" d="M14.26 3.25q.38 0 .68.08t.52.23.38.36.24.46.14.54a4 4 0 0 1 0 1.2q-.05.29-.15.54t-.25.46-.38.35q-.22.15-.52.23t-.66.09a3 3 0 0 1-.7-.09q-.3-.08-.51-.23-.23-.14-.38-.35t-.24-.46-.14-.54a4 4 0 0 1 0-1.2q.04-.3.15-.54t.25-.46.38-.36q.23-.15.51-.23.3-.08.68-.08m5.73.1v.7h-1.87v1.19h1.67v.7h-1.67v1.75h-.87V3.35zm4 0v.7h-1.87v1.19h1.67v.7h-1.67v1.75h-.87V3.35zm-9.73.62q-.2 0-.36.05a1 1 0 0 0-.5.37l-.14.3-.08.38a3 3 0 0 0 .08 1.27q.06.17.15.3a1 1 0 0 0 .49.37q.15.05.36.05.19 0 .35-.05a1 1 0 0 0 .5-.36l.14-.31.08-.38a3 3 0 0 0-.08-1.26 1 1 0 0 0-.15-.31 1 1 0 0 0-.49-.37 1 1 0 0 0-.35-.05M.05 6.7a5.75 5.75 0 1 1 11.4 1.6A5.75 5.75 0 0 1 .05 6.7m1.7-.64h2.1q.13-.15.3-.25a2 2 0 0 1 .78-.26 6 6 0 0 1 1.64 0 2 2 0 0 1 .78.26q.17.11.3.25h2.1a4.25 4.25 0 0 0-8 0M10 7.56H8.16v.49q0 .57-.18 1.08l1.06 1.06A4.2 4.2 0 0 0 10 7.56m-2.1 3.6-.9-.88q-.55.3-1.25.31-.7 0-1.26-.31l-.89.89a4.2 4.2 0 0 0 4.3 0m-5.44-.97 1.06-1.06A3 3 0 0 1 3.33 8l.01-.44H1.5c.01 1 .37 1.91.96 2.63m2.5-3.11-.03.04q-.11.25-.1.93c0 .4.12.65.25.8.12.13.32.24.67.24q.5-.02.67-.25c.13-.14.25-.39.25-.79q.01-.46-.05-.76l-.07-.21-.2-.04a4 4 0 0 0-1.2 0zM23.24 9v9.5c0 .97-.78 1.75-1.75 1.75h-1.36l-2-2.5H9.86l-2 2.5H1v-1.5h2.75V14.5h1.5v4.25h1.89l2-2.5h9.72l2 2.5h.64q.23-.02.25-.25V9zM8.75 20.88a2.37 2.37 0 1 1 4.75 0 2.37 2.37 0 0 1-4.75 0m2.38-.88a.88.88 0 1 0 0 1.75.88.88 0 0 0 0-1.75m3.37.88a2.37 2.37 0 1 1 4.75 0 2.37 2.37 0 0 1-4.75 0m2.38-.88a.88.88 0 1 0 0 1.75.88.88 0 0 0 0-1.75"/></svg>