<svg width="24" height="24" fill="none" xmlns="http://www.w3.org/2000/svg"><path fill="currentColor" d="M11 1H8V0h7v1h-3v1h3.5C17.38 2 19 3.62 19 5.5v9.8c0 1.41-.73 2.34-1.7 3.1l-.01.01L13.14 21H9.86l-4.13-2.58A3.8 3.8 0 0 1 4 15.3V5.5c0-.97.48-1.85 1.16-2.47A3.8 3.8 0 0 1 7.7 2H11zM5.38 4.3A2 2 0 0 0 5 5.5v9.8c0 .91.5 1.76 1.27 2.28L10.14 20h2.72l3.85-2.41c.82-.64 1.29-1.31 1.29-2.29V5.5q0-.62-.31-1.17L13.8 12H9.19zm.74-.76L9.82 11h3.37l3.79-7.48A2.4 2.4 0 0 0 15.5 3H7.7c-.54 0-1.1.2-1.58.54m1.72 10.3c-.23.23-.34.49-.34.66s.11.43.34.66.49.34.66.34.43-.11.66-.34.34-.49.34-.66q0-.32-.31-.67a1 1 0 0 0-.69-.33c-.17 0-.43.11-.66.34m-.7-.7c.34-.35.83-.64 1.36-.64.57 0 1.07.28 1.41.64s.59.85.59 1.36c0 .53-.29 1.02-.63 1.37-.35.34-.84.63-1.37.63s-1.02-.29-1.37-.63a2 2 0 0 1-.63-1.37c0-.53.29-1.02.63-1.37m6.7.7c-.23.23-.34.49-.34.66s.11.43.34.66.49.34.66.34.43-.11.66-.34.34-.49.34-.66q0-.32-.31-.67a1 1 0 0 0-.69-.33c-.17 0-.43.11-.66.34m-.7-.7c.34-.35.83-.64 1.36-.64.57 0 1.07.28 1.41.64s.59.85.59 1.36c0 .53-.29 1.02-.63 1.37-.35.34-.84.63-1.37.63s-1.02-.29-1.37-.63a2 2 0 0 1-.63-1.37c0-.53.29-1.02.63-1.37m-6.79 8.21-2.5 2.5-.7-.7 2.5-2.5zm12.8 2.5-2.5-2.5.7-.7 2.5 2.5z"/></svg>