<svg width="16" height="16" fill="none" xmlns="http://www.w3.org/2000/svg"><path fill="currentColor" d="M1 8.5a7.5 7.5 0 0 1 11.31-6.46l-.5.86a6.5 6.5 0 0 0-9.64 4.14h3.66q.2-.4.61-.68c.2-.13.46-.2.7-.25q.37-.07.83-.1l.06 1q-.41.03-.7.09-.31.07-.34.1-.43.29-.48 1.33l-1-.06q0-.2.04-.42H2.02a6.6 6.6 0 0 0 .88 3.75l-.86.51A7.5 7.5 0 0 1 1 8.5m14.35-6.15-13 13-.7-.7 13-13zm-.39 2.34A7.5 7.5 0 0 1 4.68 14.96l.52-.86a6.5 6.5 0 0 0 7.18-.38l-1.96-1.96a3 3 0 0 1-1.92.63q-.5 0-.94-.13l.27-.96q.3.08.67.09a2 2 0 0 0 1.47-.58q.51-.54.53-1.6l-.01-.68 1-.06.01.73a3.6 3.6 0 0 1-.43 1.8l2.06 2.06a6.5 6.5 0 0 0 1.85-5.01H12v-1h2.84a7 7 0 0 0-.74-1.85z"/></svg>