<svg width="24" height="24" fill="none" xmlns="http://www.w3.org/2000/svg"><path fill="currentColor" d="M14.26 3.25q.38 0 .68.08t.52.23.38.36.24.46.14.54a4 4 0 0 1 0 1.2q-.05.29-.15.54t-.25.46-.38.35q-.22.15-.52.23t-.66.09a3 3 0 0 1-.7-.09q-.3-.08-.51-.23-.23-.14-.38-.35t-.24-.46-.14-.54a4 4 0 0 1 0-1.2q.04-.3.15-.54t.25-.46.38-.36q.23-.15.51-.23.3-.08.68-.08m5.73.1v.7h-1.87v1.19h1.67v.7h-1.67v1.75h-.87V3.35zm4 0v.7h-1.87v1.19h1.67v.7h-1.67v1.75h-.87V3.35zm-9.73.62q-.2 0-.36.05a1 1 0 0 0-.5.37l-.14.3-.08.38a3 3 0 0 0 .08 1.27q.06.17.15.3a1 1 0 0 0 .49.37q.15.05.36.05.19 0 .35-.05a1 1 0 0 0 .5-.36l.14-.31.08-.38a3 3 0 0 0-.08-1.26 1 1 0 0 0-.15-.31 1 1 0 0 0-.49-.37 1 1 0 0 0-.35-.05M0 7.5a5.5 5.5 0 1 1 11 0 5.5 5.5 0 0 1-11 0m1-.19a4.6 4.6 0 0 0 1.2 3.24l1.37-1.37a3 3 0 0 1-.24-1.13v-.02q0-.31.03-.72zm.16-1h2.56q.12-.15.32-.3c.2-.12.46-.18.68-.2a6 6 0 0 1 1.56 0c.22.02.49.08.68.2q.2.15.32.3h2.56a4.5 4.5 0 0 0-8.68 0m8.84 1H7.64q.04.4.03.72v.02q0 .63-.24 1.13l1.37 1.38A4.5 4.5 0 0 0 10 7.3m-1.96 3.9L6.8 9.96q-.55.38-1.29.38-.75 0-1.3-.38L2.96 11.2a4.5 4.5 0 0 0 5.1 0M4.58 6.85c-.08.06-.15.16-.2.39q-.05.34-.05.81.02.67.31.96.26.31.86.33.6-.02.86-.33.28-.3.3-.96.01-.46-.04-.81c-.05-.23-.12-.33-.2-.38q-.02-.02-.28-.07a5 5 0 0 0-1.56.06M23 9v9.5c0 .83-.67 1.5-1.5 1.5h-1.2l-2-2H9.7l-2 2H1v-1h3v-5h1v5h2.3l2-2h9.4l2 2h.8a.5.5 0 0 0 .5-.5V9zM9 20.88a2.13 2.13 0 1 1 4.25 0 2.13 2.13 0 0 1-4.25 0m2.13-1.13a1.13 1.13 0 1 0 0 2.25 1.13 1.13 0 0 0 0-2.25m3.62 1.13a2.13 2.13 0 1 1 4.25 0 2.13 2.13 0 0 1-4.25 0m2.13-1.13a1.13 1.13 0 1 0 0 2.25 1.13 1.13 0 0 0 0-2.25"/></svg>