<svg width="48" height="48" fill="none" xmlns="http://www.w3.org/2000/svg"><path fill="currentColor" d="M30.09 8.8q.55 0 1 .13.45.12.79.36.34.22.59.57.24.33.4.75.15.4.23.9a7 7 0 0 1-.24 2.95q-.16.42-.4.75a2.4 2.4 0 0 1-1.39.94q-.45.13-1 .13t-1-.13-.78-.36a2 2 0 0 1-.59-.57q-.25-.33-.4-.74-.15-.42-.23-.9a7 7 0 0 1 .24-2.96q.15-.42.4-.75a2.4 2.4 0 0 1 1.38-.94q.45-.13 1-.13m0 .79q-.39 0-.69.1a1.7 1.7 0 0 0-.94.74q-.16.26-.28.59a4 4 0 0 0-.15.71 6 6 0 0 0 .15 2.33q.12.33.28.6a1.8 1.8 0 0 0 1.63.83q.38 0 .69-.1a1.7 1.7 0 0 0 .93-.73q.16-.27.28-.6.1-.32.16-.71a6 6 0 0 0-.16-2.33 3 3 0 0 0-.28-.6 1.7 1.7 0 0 0-.94-.74 2 2 0 0 0-.68-.1M35 16.24V9h4.33v.78h-3.39v2.54h3.12v.78h-3.12v3.14zm6 0V9h4.33v.78h-3.39v2.54h3.12v.78h-3.12v3.14zM4 14.5a8 8 0 1 1 16 0 8 8 0 0 1-16 0m1.02-.53L5 14.5c0 1.93.78 3.67 2.04 4.94l2.37-2.37Q9 16.3 9 15.33v-.02c0-.4 0-.89.08-1.34zm.15-1h4.28q.19-.28.5-.49c.23-.15.59-.23.91-.28a8 8 0 0 1 2.28 0c.32.05.68.13.92.28q.3.2.49.49h4.28a7 7 0 0 0-13.66 0m13.81 1h-4.06c.08.45.08.94.08 1.34v.02q0 .98-.4 1.74l2.36 2.37a7 7 0 0 0 2.02-5.47M16.2 20.1l-2.24-2.25q-.8.65-1.96.66-1.17 0-1.96-.66L7.8 20.1a7 7 0 0 0 8.4 0M11 13.19q-.45.08-.51.13-.3.18-.41.74-.1.58-.08 1.27.02 1.07.53 1.6.47.56 1.47.58a2 2 0 0 0 1.47-.57q.51-.54.53-1.6.02-.7-.08-1.28c-.08-.38-.21-.6-.4-.74q-.06-.06-.53-.13a7 7 0 0 0-1.98 0M24.99 15H22v-1h2.98zM42 19v13.5a2.5 2.5 0 0 1-2.5 2.5h-2.2l-3-3H19.7l-3 3H5v-1h6v-9h1v9h4.3l3-3h15.4l3 3h1.8c.83 0 1.5-.67 1.5-1.5V19zM19 36.5a3.5 3.5 0 1 1 7 0 3.5 3.5 0 0 1-7 0m3.5-2.5a2.5 2.5 0 1 0 0 5 2.5 2.5 0 0 0 0-5m5.5 2.5a3.5 3.5 0 1 1 7 0 3.5 3.5 0 0 1-7 0m3.5-2.5a2.5 2.5 0 1 0 0 5 2.5 2.5 0 0 0 0-5"/></svg>