<svg width="24" height="24" fill="none" xmlns="http://www.w3.org/2000/svg"><path fill="currentColor" d="M20.36 5.4q-.57.48-1.4 1.43l-.47.52-.02.06-.02-.01-.03.02-.06-.06-.83-.32.1-.22.06-.07.52-.58a13 13 0 0 1 1.52-1.54c.42-.35.89-.63 1.36-.63q.68-.02 1.13.1c.35.12.56.33.77.57l-.75.66c-.17-.2-.24-.24-.33-.27A3 3 0 0 0 21.1 5c-.1 0-.33.08-.73.4m-5.61 2.54a22 22 0 0 0-3.88 0q-.86.1-1.22.25-.3.1-1.05.73-.75.62-1.89 1.71l-.11.12-.17.02c-1.8.24-2.93.48-3.61.7q-.74.26-1.2.66-.47.42-.53.66-.06.16-.07.55l-.01.64v.47q0 .16.18.37.2.19.32.18l2 .03v.5c0 .95.77 1.72 1.73 1.72h.02c.96 0 1.74-.78 1.74-1.75V15l10 .02v.5c0 .96.77 1.73 1.72 1.73h.04c.96 0 1.73-.77 1.73-1.73v-.42l1.95-.34h.03c.26-.02.51-.3.52-.64l-.2-2.62c-.03-.38-.35-.75-.78-.86l-.19-.05c-.3-.08-.53-.14-.82-.19q-.52-.1-1.12-.38-.6-.27-1.26-.62l-.37-.2c-.75-.4-1.48-.78-2.07-1q-.47-.18-1.43-.26m.09-1c.64.06 1.25.15 1.7.32.65.25 1.44.67 2.19 1.06l1.56.8q.56.24.87.3c.35.05.62.13.92.2l.18.05c.79.2 1.47.89 1.53 1.76l.2 2.65v.01c0 .74-.52 1.59-1.43 1.67l-1.1.19a2.7 2.7 0 0 1-2.7 2.3h-.04a2.7 2.7 0 0 1-2.68-2.23L7.96 16a2.75 2.75 0 0 1-2.7 2.25h-.02a2.7 2.7 0 0 1-2.69-2.24L1.51 16c-.43 0-.8-.23-1.05-.5A1.6 1.6 0 0 1 0 14.46V13.3q.01-.43.13-.82c.13-.4.44-.79.83-1.11q.62-.53 1.53-.84c.75-.25 1.9-.5 3.64-.73a34 34 0 0 1 1.82-1.65 6 6 0 0 1 1.3-.88c.38-.17.93-.26 1.5-.32q.92-.08 1.96-.09c.72 0 1.46.02 2.12.08"/></svg>