<svg width="24" height="24" fill="none" xmlns="http://www.w3.org/2000/svg"><path fill="currentColor" d="M20.52 5.6q.27-.22.43-.3l.14-.05a2 2 0 0 1 1.04.32l.49-.57.5-.56h-.01v-.01l-.02-.01-.15-.12q-.15-.1-.4-.23a3.4 3.4 0 0 0-1.45-.32c-.57 0-1.1.33-1.52.69q-.7.58-1.55 1.57l-.52.57 1.1 1.01.55-.6q.82-.95 1.37-1.4m-3.99 1.67a7 7 0 0 0-1.7-.32 23 23 0 0 0-4.06.01c-.58.06-1.13.15-1.51.32a6 6 0 0 0-1.3.88q-.74.62-1.82 1.65c-1.74.24-2.89.48-3.64.73q-.91.31-1.53.84c-.39.32-.7.71-.83 1.1q-.12.4-.12.83v1.16c0 .4.19.78.44 1.05.25.26.62.49 1.05.49l1.04.01a2.7 2.7 0 0 0 2.68 2.24h.03c1.34 0 2.46-.97 2.7-2.25l8.08.02a2.7 2.7 0 0 0 2.68 2.23h.04c1.36 0 2.5-1 2.7-2.3l1.1-.2c.88-.07 1.43-.84 1.43-1.69l-.2-2.63a2 2 0 0 0-1.53-1.76l-.18-.05c-.3-.07-.57-.15-.92-.2q-.3-.06-.87-.3-.55-.26-1.2-.6l-.36-.2c-.75-.4-1.54-.81-2.2-1.06"/></svg>