<svg width="48" height="48" fill="none" xmlns="http://www.w3.org/2000/svg"><path fill="currentColor" d="M11 15.4a8.77 8.77 0 0 0 8.6 8.6h.59c4.51-.2 8-4.05 7.81-8.58v-.02c0-4.62-3.78-8.4-8.4-8.4a8.53 8.53 0 0 0-8.6 8.4m-1-.01A9.53 9.53 0 0 1 19.6 6c5.17 0 9.4 4.22 9.4 9.39a9.3 9.3 0 0 1-5.13 8.68l7.29 16.43-.92.4-7.3-16.44q-1.28.47-2.72.54h-.63A9.77 9.77 0 0 1 10 15.41zm15.32.61H26v1h-1.03c-1.23.02-2.41.07-3.43.18a9 9 0 0 0-2.34.48q-.73.3-2.43 1.73-.5.42-1.1.96L15 19.6l1.13-.98q1.72-1.45 2.68-1.88a10 10 0 0 1 2.62-.56 38 38 0 0 1 3.9-.18m5.82.38a10 10 0 0 1 1.4.36 40 40 0 0 1 4.18 2.02l.7.37q1.27.67 2.36 1.18 1.1.49 1.8.62 1.14.2 2.28.48c1.46.37 2.14 1.77 2.47 2.87a19 19 0 0 1 .66 4.75 2.96 2.96 0 0 1-2.63 2.77l-2.38.17A4.5 4.5 0 0 1 37.5 36H37a4.5 4.5 0 0 1-4.47-4H30v-1h3.49v.5A3.5 3.5 0 0 0 37 35h.5a3.5 3.5 0 0 0 3.5-3.5v-.47l3.3-.23c.87-.06 1.64-.89 1.7-1.83a18 18 0 0 0-.63-4.4c-.31-1.05-.86-1.96-1.75-2.19q-1.1-.28-2.2-.46c-.6-.1-1.3-.37-2.05-.7q-1.14-.53-2.41-1.2l-.72-.38a39 39 0 0 0-4.36-2.07 9 9 0 0 0-.92-.21zM8.91 22.25l1.52-.26.16 1q-.81.12-1.5.25-2.16.39-3.3.77c-.98.33-1.8.82-2.42 1.35a4 4 0 0 0-1.12 1.5A7 7 0 0 0 2 29.39v.35c0 .7.56 1.26 1.26 1.26H7v.5a3.5 3.5 0 0 0 3.5 3.5h.5a3.5 3.5 0 0 0 3.5-3.5V31H23v1h-7.53A4.5 4.5 0 0 1 11 36h-.5a4.5 4.5 0 0 1-4.47-4H3.26A2.26 2.26 0 0 1 1 29.74v-.35c0-1.4.04-2.07.3-2.85a5 5 0 0 1 1.42-1.94 8 8 0 0 1 2.76-1.54q1.24-.42 3.43-.8"/></svg>