<svg width="24" height="24" fill="none" xmlns="http://www.w3.org/2000/svg"><path fill="currentColor" d="M12.36 8.3c.5.18 1.08.5 1.62.78l1.14.57q.4.18.6.22.45.07.89.18c.65.17 1.12.73 1.17 1.4l.19 1.71-.81-.1a19 19 0 0 0-3.2.01 5 5 0 0 0-1.41.32c-.41.17-.84.5-1.22.8q-.41.35-.91.81H5.94a2 2 0 0 1-3.88-.02l-.91-.06C.5 14.92 0 14.4 0 13.76v-.21q-.01-.83.16-1.36c.1-.3.34-.61.63-.86q.45-.4 1.15-.65.84-.27 2.71-.53.77-.73 1.31-1.18.58-.48.98-.66c.3-.13.71-.2 1.13-.25Q8.73 8 9.5 8q.81 0 1.57.06c.48.04.95.11 1.3.24"/><path fill="currentColor" d="M17.07 14.06c.48.04.95.11 1.3.24.48.18 1.07.5 1.61.78l1.14.57q.4.18.6.22.45.07.89.18c.65.17 1.12.73 1.17 1.4l.22 2v.02q-.02.6-.38.96t-.89.42l-.78.1a2 2 0 0 1-3.89.05h-6.12a2 2 0 0 1-3.88-.02l-.91-.06C6.5 20.92 6 20.4 6 19.76v-.21q-.01-.83.16-1.36c.1-.3.34-.61.63-.86q.45-.4 1.15-.65.84-.27 2.71-.53.77-.73 1.31-1.18.58-.48.98-.66c.3-.13.71-.2 1.13-.25q.66-.06 1.43-.06.81 0 1.57.06M18.36 2.3c.5.18 1.08.5 1.62.78l1.14.57q.4.19.6.22.45.07.89.18c.65.17 1.12.73 1.17 1.4l.22 2v.02q-.02.6-.38.96t-.89.42l-.78.1a2 2 0 0 1-3.89.05H16.5q-.3-.07-.61-.12l-.09-.03-.27-.1-.82-.42-.26-.13-.03-.02c-.52-.28-1.16-.61-1.7-.82a6 6 0 0 0-1.56-.3 19 19 0 0 0-3.2.01A3.5 3.5 0 0 0 6 7.69l.01-.14q-.01-.83.16-1.36c.1-.3.34-.61.63-.86q.45-.4 1.15-.65.84-.27 2.71-.53.77-.73 1.31-1.18.58-.48.98-.66c.3-.13.71-.2 1.13-.25Q14.73 2 15.5 2q.81 0 1.57.06c.48.04.95.11 1.3.24"/></svg>