<svg width="24" height="24" fill="none" xmlns="http://www.w3.org/2000/svg"><path fill="currentColor" d="M9.6 4a4.5 4.5 0 0 0-4.5 4.5c0 2.43 1.98 4.5 4.5 4.5h.3A4.3 4.3 0 0 0 14 8.52V8.5C14 5.97 12.02 4 9.6 4M4.1 8.5a5.44 5.44 0 1 1 10.9 0 5.3 5.3 0 0 1-2.91 4.94l3.77 8.97-.92.38-3.78-8.99q-.6.18-1.24.2H9.6a5.5 5.5 0 0 1-5.5-5.5m6.56.46q.84-.09 1.81-.1l.02 1q-.95.01-1.72.1-.79.08-1.12.23-.35.13-1.34.97l-.65-.76q1-.86 1.6-1.13a5 5 0 0 1 1.4-.3m5.54.2q.18.04.34.1a21 21 0 0 1 2.56 1.25q.65.35 1.2.6.56.25.87.3c.35.06.63.14.93.21l.18.05c.78.2 1.46.89 1.52 1.76l.2 2.65v.02c0 .79-.52 1.58-1.42 1.66l-1.11.19a2.7 2.7 0 0 1-2.7 2.3h-.04a2.7 2.7 0 0 1-2.68-2.23h-.56v-1H17v.5c0 .96.78 1.73 1.73 1.73h.04c.96 0 1.73-.77 1.73-1.73v-.42l1.95-.34h.03c.27-.02.51-.26.52-.65l-.2-2.6v-.01c-.02-.38-.34-.75-.77-.86l-.2-.05c-.3-.08-.52-.14-.82-.19q-.52-.1-1.12-.38a23 23 0 0 1-1.63-.82c-.75-.4-1.48-.78-2.07-1l-.24-.08zM2.5 12.52q.65-.23 1.78-.44l.18.99q-1.08.2-1.65.4-.74.26-1.2.65-.47.42-.53.66-.06.16-.07.55v1.11q-.01.16.17.37.2.19.32.18l2 .03v.5c0 .95.78 1.72 1.73 1.72h.02c.97 0 1.75-.78 1.75-1.75V17h4.41v1H7.96a2.75 2.75 0 0 1-2.7 2.25h-.03a2.7 2.7 0 0 1-2.68-2.24L1.5 18c-.43 0-.8-.23-1.05-.5A1.6 1.6 0 0 1 0 16.46V15.3q.01-.43.13-.82c.13-.4.44-.79.83-1.11q.62-.53 1.53-.84"/></svg>