<svg width="48" height="48" fill="none" xmlns="http://www.w3.org/2000/svg"><path fill="currentColor" d="M33.39 6.1c.88.08 1.7.22 2.28.43.9.34 1.97.9 3 1.45l.5.27q.9.47 1.66.83.78.35 1.25.43.81.13 1.64.34a2.5 2.5 0 0 1 1.87 2.24l.4 3.62v.01a2 2 0 0 1-.58 1.48c-.37.37-.88.62-1.42.66l-1.52.1a3.5 3.5 0 0 1-6.94.04h-3.4v-1h4.37v.5a2.5 2.5 0 0 0 5 0v-.46l2.42-.18c.28-.02.57-.16.78-.37q.3-.32.3-.69l-.4-3.62a1.5 1.5 0 0 0-1.13-1.36q-.78-.2-1.56-.33a7 7 0 0 1-1.49-.5q-.8-.38-1.72-.86l-.5-.27a30 30 0 0 0-2.88-1.4 8 8 0 0 0-2.02-.36 31 31 0 0 0-5.38.01q-1.19.12-1.73.35-.44.18-1.5 1.04-1.03.86-2.6 2.36l-.12.11-.16.03q-3.73.5-5.16.97a5 5 0 0 0-1.67.94c-.43.37-.67.74-.76 1q-.12.38-.19 1.05l-1-.08q.07-.76.24-1.29c.16-.48.54-1 1.05-1.44q.79-.7 2.02-1.12 1.54-.52 5.18-1 1.5-1.44 2.54-2.3 1.07-.9 1.74-1.19c.5-.21 1.23-.34 2.02-.42a32 32 0 0 1 5.57-.01m-11 10c.89.08 1.7.22 2.28.43.9.34 1.97.9 3 1.45l.5.27q.9.47 1.66.83.78.35 1.25.43.81.13 1.64.34a2.5 2.5 0 0 1 1.87 2.24l.24 2.14-1 .11-.24-2.16a1.5 1.5 0 0 0-1.12-1.36q-.78-.2-1.56-.33a7 7 0 0 1-1.49-.5 31 31 0 0 1-2.23-1.13 27 27 0 0 0-2.87-1.4 8 8 0 0 0-2.02-.36 31 31 0 0 0-5.38.01q-1.19.12-1.73.35-.44.18-1.5 1.04-1.03.86-2.6 2.36l-.12.11-.16.03q-3.74.5-5.16.97a5 5 0 0 0-1.67.94c-.43.37-.67.74-.76 1Q3.01 24.53 3 26v.25c0 .41.33.75.75.75H6.5v.5a2.5 2.5 0 0 0 5 0V27H18v1h-5.54a3.5 3.5 0 0 1-6.93 0H3.75C2.78 28 2 27.22 2 26.25V26q0-1.53.27-2.4c.16-.5.54-1 1.05-1.45a6 6 0 0 1 2.02-1.12q1.54-.52 5.18-1 1.5-1.44 2.54-2.3 1.07-.9 1.74-1.19c.5-.21 1.23-.34 2.02-.42a32 32 0 0 1 5.57-.01m9 10c.88.08 1.7.22 2.28.43a28 28 0 0 1 3.5 1.72q.9.47 1.66.83.78.35 1.25.43.81.13 1.64.34a2.5 2.5 0 0 1 1.87 2.24l.4 3.62v.01a2 2 0 0 1-.58 1.48c-.37.37-.88.62-1.42.66l-1.52.1a3.5 3.5 0 0 1-6.94.04H21.46a3.5 3.5 0 0 1-6.93 0h-1.78c-.97 0-1.75-.78-1.75-1.75V36q0-1.53.27-2.4c.16-.5.54-1 1.05-1.45a6 6 0 0 1 2.02-1.12q1.54-.52 5.18-1 1.5-1.44 2.54-2.3 1.07-.9 1.74-1.19c.5-.21 1.23-.34 2.02-.42a32 32 0 0 1 5.57-.01m-.1 1a31 31 0 0 0-5.37.01q-1.19.12-1.73.35-.44.18-1.5 1.04-1.03.86-2.6 2.36l-.12.11-.16.03q-3.73.5-5.16.97a5 5 0 0 0-1.67.94c-.43.37-.67.74-.76 1Q12 34.53 12 36v.24c0 .41.33.75.75.75h2.75v.5a2.5 2.5 0 0 0 5 0V37h14v.5a2.5 2.5 0 0 0 5 0v-.46l2.42-.18c.28-.02.57-.16.78-.37q.3-.32.3-.69l-.4-3.62a1.5 1.5 0 0 0-1.13-1.36q-.78-.2-1.56-.33a7 7 0 0 1-1.49-.5 32 32 0 0 1-2.23-1.13 27 27 0 0 0-2.87-1.4 8 8 0 0 0-2.02-.36"/></svg>