<svg width="24" height="24" fill="none" xmlns="http://www.w3.org/2000/svg"><path fill="currentColor" d="M10.13 1.13q-.12.1-.13.37v2q.01.27.13.37.1.12.37.13h2q.28-.01.37-.13.12-.1.13-.37v-2q-.01-.27-.13-.37-.1-.12-.37-.13h-2q-.28.01-.37.13m-.7-.7A1.5 1.5 0 0 1 10.5 0h2c.41 0 .8.14 1.08.42S14 1.1 14 1.5v2c0 .41-.14.8-.42 1.08A1.5 1.5 0 0 1 12.5 5h-2c-.41 0-.8-.14-1.08-.42A1.5 1.5 0 0 1 9 3.5v-2c0-.41.14-.8.42-1.08M7.13 7.13A.6.6 0 0 0 7 7.5V14h1.3L8 10.04l1-.08L9.96 23h3.08L14 9.96l1 .08-.3 3.96H16V7.4q0-.12-.14-.26A.6.6 0 0 0 15.5 7H7.4q-.12 0-.26.14m7.5 7.86-.68 9H9.04l-.67-9H6V7.5q.02-.59.38-1.01C6.62 6.2 6.98 6 7.4 6h8.1q.59.02 1.02.38c.27.24.48.6.48 1.02V15z"/></svg>