<svg width="16" height="16" fill="none" xmlns="http://www.w3.org/2000/svg"><path fill="currentColor" d="M7.06 1.06q-.05.03-.06.19v1.5q0 .16.06.19.03.05.19.06h1.5q.16 0 .19-.06.05-.03.06-.19v-1.5q0-.16-.06-.19-.03-.05-.19-.06h-1.5q-.16 0-.19.06m-.7-.7Q6.71 0 7.24 0h1.5q.53 0 .9.35.35.38.35.9v1.5q0 .52-.35.9-.37.35-.9.35h-1.5q-.52 0-.9-.35a1.3 1.3 0 0 1-.35-.9v-1.5q0-.53.35-.9M5.08 6.02a.2.2 0 0 0-.05.12V10H6V7.5h1V15h2V7.5h1V10h1.02V6.09l-.03-.04a.2.2 0 0 0-.12-.05H5.13l-.04.03M10 11v5H6v-5H4.04V6.15q.01-.45.3-.77c.18-.21.45-.38.79-.38h5.74q.46 0 .78.3c.2.17.37.45.37.79V11z"/></svg>