<svg width="48" height="48" fill="none" xmlns="http://www.w3.org/2000/svg"><path fill="currentColor" d="M35.79 6C33.76 6 32 7.94 32 10.5V13h11v-2.5C43 7.94 41.24 6 39.21 6zM44 13h2v11H29V13h2v-2.5C31 7.54 33.07 5 35.79 5h3.42C41.93 5 44 7.54 44 10.5zm-14 1v9h15v-9zm7 6v-4h1v4zm-11.68 1H27v1h-1.67c-1.3 0-2.56.05-3.65.16-1.1.11-1.96.28-2.49.5-.44.2-1.15.67-2.15 1.5q-1.47 1.2-3.67 3.33l-.12.1-.16.03q-5.27.7-7.3 1.39c-.98.33-1.8.82-2.42 1.35a4 4 0 0 0-1.12 1.5A7 7 0 0 0 2 34.39v.35c0 .7.56 1.26 1.26 1.26H7v.5a3.5 3.5 0 0 0 3.5 3.5h.5a3.5 3.5 0 0 0 3.5-3.5V36h19v.5A3.5 3.5 0 0 0 37 40h.5a3.5 3.5 0 0 0 3.5-3.5v-.47l3.3-.23c.87-.06 1.64-.89 1.7-1.83a18 18 0 0 0-.63-4.4c-.31-1.05-.86-1.96-1.75-2.19a15 15 0 0 0-1.53-.28l-.68-.1.17-1 .6.1q.83.11 1.68.31c1.46.37 2.14 1.77 2.47 2.87a19 19 0 0 1 .66 4.75 2.96 2.96 0 0 1-2.63 2.77l-2.38.17A4.5 4.5 0 0 1 37.5 41H37a4.5 4.5 0 0 1-4.47-4H15.47A4.5 4.5 0 0 1 11 41h-.5a4.5 4.5 0 0 1-4.47-4H3.26A2.26 2.26 0 0 1 1 34.74v-.35c0-1.4.04-2.07.3-2.85a5 5 0 0 1 1.42-1.94 8 8 0 0 1 2.76-1.54q2.16-.72 7.31-1.4a67 67 0 0 1 3.62-3.28q1.5-1.24 2.4-1.64c.67-.28 1.66-.46 2.77-.57 1.13-.12 2.43-.16 3.74-.17"/></svg>