<svg width="24" height="24" fill="none" xmlns="http://www.w3.org/2000/svg"><path fill="currentColor" d="M17.5 3A2.5 2.5 0 0 0 15 5.5V7h7V5.5A2.5 2.5 0 0 0 19.5 3zM23 7h1v7H13V7h1V5.5A3.5 3.5 0 0 1 17.5 2h2A3.5 3.5 0 0 1 23 5.5zm0 1h-9v5h9zm-5 3.5V9h1v2.5zm-7.56-.51q.7-.1 1.52-.11l.03 1q-.79.02-1.42.1t-.92.2q-.3.13-1.05.74-.75.62-1.89 1.71l-.12.12-.16.02a22 22 0 0 0-3.62.7q-.74.26-1.2.66-.47.42-.53.66-.06.16-.07.55v1.11q-.01.16.17.37.2.19.32.18l2 .03v.5c0 .95.78 1.72 1.73 1.72h.02c.97 0 1.75-.78 1.75-1.75V19l10 .02v.5c0 .96.78 1.73 1.73 1.73h.04c.96 0 1.73-.77 1.73-1.73v-.42l1.95-.34h.03c.27-.02.51-.26.52-.64l-.25-2.93 1-.08.25 2.97v.02c0 .79-.52 1.58-1.42 1.66l-1.11.19a2.7 2.7 0 0 1-2.7 2.3h-.04a2.7 2.7 0 0 1-2.68-2.23L7.95 20a2.75 2.75 0 0 1-2.7 2.25h-.02a2.7 2.7 0 0 1-2.68-2.24L1.5 20c-.43 0-.8-.23-1.05-.5A1.6 1.6 0 0 1 0 18.46V17.3q.01-.43.13-.82c.13-.4.44-.79.83-1.11q.62-.53 1.53-.84c.75-.25 1.9-.5 3.64-.73a34 34 0 0 1 1.83-1.65 6 6 0 0 1 1.3-.88q.49-.2 1.18-.28"/></svg>