<svg width="48" height="48" fill="none" xmlns="http://www.w3.org/2000/svg"><path fill="currentColor" d="M18.63 23.06C19.96 21.63 22.01 21 24 21s4.04.74 5.35 2.05l-.7.7A6.7 6.7 0 0 0 24 22c-1.81 0-3.56.57-4.63 1.74zm-1.17 3.99a80 80 0 0 1 13.08 0l.24.02.14.2q.81 1.23 1.41 2.2.6.94 1.57 2.73l2.1 2.1v8.2c0 .83-.67 1.5-1.5 1.5h-2a1.5 1.5 0 0 1-1.5-1.5V42l-14-.04v.54c0 .83-.67 1.5-1.5 1.5h-2a1.5 1.5 0 0 1-1.5-1.5v-8.2l2.1-2.1a55 55 0 0 1 2.98-4.93l.14-.2zM14.7 33 13 34.7v.3h4v1h-4v6.5c0 .28.22.5.5.5h2a.5.5 0 0 0 .5-.5v-1.55L32 41v1.5c0 .28.22.5.5.5h2a.5.5 0 0 0 .5-.5V36h-4v-1h4v-.3L33.3 33zm17.94-1a45 45 0 0 0-2.43-3.98 78 78 0 0 0-12.44 0L16.51 30q-.46.74-1.16 2.01zM19.3 35h9.42l1.36 1.36-.1.3q-.46 1.5-.88 2.31-.2.41-.41.67c-.13.15-.36.36-.68.36h-8a1 1 0 0 1-.68-.36q-.21-.26-.41-.67-.4-.8-.89-2.32l-.09-.29zm.42 1-.64.64q.42 1.26.73 1.89a2 2 0 0 0 .3.47h7.8l.02-.01q.1-.12.28-.46.31-.63.73-1.9L28.3 36z"/></svg>