<svg width="24" height="24" fill="none" xmlns="http://www.w3.org/2000/svg"><path fill="currentColor" d="M5.5 13v-.64l3-3.86h7l3 3.86V13h-3v1h3v2.75c0 .41-.34.75-.75.75H16a.75.75 0 0 1-.75-.75v-.25h-6.5v.25c0 .41-.34.75-.75.75H6.25a.75.75 0 0 1-.75-.75V14h3v-1zm15.15-6.6c3.33 2.44 4.17 7.03 2.55 10.7l-1.38-.6c1.38-3.13.62-6.94-2.05-8.9zM.75 17.09C-.74 13.43-.01 8.95 3.3 6.4l.9 1.2C1.54 9.65.86 13.37 2.16 16.5zm2.06-5.05a5 5 0 0 1 2.05-2.68l.79 1.28a3.5 3.5 0 0 0-1.4 1.87 2.5 2.5 0 0 0 .14 2.1l-1.27.79a4 4 0 0 1-.3-3.36m18.34 0a4 4 0 0 1-.3 3.36l-1.28-.8c.36-.56.4-1.32.15-2.1a3.5 3.5 0 0 0-1.4-1.86l.79-1.28c.96.6 1.69 1.61 2.04 2.68"/></svg>