<svg width="48" height="48" fill="none" xmlns="http://www.w3.org/2000/svg"><path fill="currentColor" d="M16 1h15v4h-5v2.17a18.4 18.4 0 0 1 8.77 3.66l2.93-2.94 3.5 3.51-2.94 2.95a18.5 18.5 0 1 1-29.44-.11L5.9 11.3l3.5-3.5 2.95 2.94A18.4 18.4 0 0 1 21 7.17V5h-5zm6 4v2.06a19 19 0 0 1 3 0V5zM9.81 14.6a17.5 17.5 0 1 0 27.37 0l-2.77-2.79a17.5 17.5 0 0 0-21.81 0zm1.75-3.23L9.4 9.2l-2.1 2.1 2.16 2.15q.97-1.12 2.1-2.08m26.07 2.2 2.16-2.17-2.09-2.1-2.15 2.16q1.12.97 2.08 2.1M17 2v2h13V2zm3 23.5a3.5 3.5 0 1 1 6.93.7l8.04 2.93-.34.94-8.04-2.93A3.5 3.5 0 0 1 20 25.5m3.5-2.5a2.5 2.5 0 1 0 0 5 2.5 2.5 0 0 0 0-5"/></svg>