<svg width="24" height="24" fill="none" xmlns="http://www.w3.org/2000/svg"><path fill="currentColor" d="M17.5 0 24 13H10.78zm-5.08 12h9.96L17.5 2.21zM5 1h9v3h-4v1q.75.04 1.5.21l-.21.98a8.4 8.4 0 0 0-10.1 6.51A8.47 8.47 0 0 0 7.7 22.81 8.47 8.47 0 0 0 18 14.5h1c0 .64-.1 1.38-.2 1.98v.01l-.01.01A9.47 9.47 0 0 1 7.5 23.79 9.47 9.47 0 0 1 .21 12.5a9 9 0 0 1 1.64-3.7L0 6.65l3.04-2.66L4.9 6.14A9.4 9.4 0 0 1 9 4.99V4H5zm-.97 5.67L2.95 5.41 1.4 6.75l1.1 1.27q.7-.76 1.54-1.35M6 2v1h7V2zm11 6V5h1v3zm0 3V9h1v2zm-2.17 5.97-5.5-2 .34-.94 5.5 2z"/></svg>