<svg width="16" height="16" fill="none" xmlns="http://www.w3.org/2000/svg"><path fill="currentColor" d="M0 4.9a6 6 0 0 0 1.75.3q.4 0 .69-.08.3-.09.46-.25.17-.15.17-.36a.5.5 0 0 0-.17-.38 1 1 0 0 0-.48-.26q-.3-.1-.71-.1h-.62v-.76h.62q.36 0 .61-.07t.39-.21.13-.33a.4.4 0 0 0-.14-.3 1 1 0 0 0-.4-.2 2 2 0 0 0-.57-.08 4 4 0 0 0-1.6.33v-.8Q.44 1.2.9 1.1a4 4 0 0 1 2.05.06q.49.16.75.46a1 1 0 0 1 .27.68q0 .36-.24.63-.24.28-.68.44.57.16.87.46t.3.7q0 .44-.3.77-.3.34-.83.52Q2.55 6 1.8 6a6 6 0 0 1-.97-.07Q.39 5.85 0 5.7zm9.76-2.84a5 5 0 0 0-1.46-.24q-.51 0-.87.13-.37.15-.59.4-.23.27-.3.67.3-.17.62-.24.34-.09.7-.09.7 0 1.2.2.51.19.79.56.26.36.26.86t-.3.88q-.28.39-.82.6T7.75 6q-.77 0-1.3-.26a2 2 0 0 1-.82-.78 3 3 0 0 1-.27-1.26q0-.88.33-1.49.32-.6.98-.9T8.27 1a5 5 0 0 1 1.49.25zm-3.3 1.71q0 .47.16.8.15.32.45.5.3.15.71.16.36 0 .62-.11a1 1 0 0 0 .42-.33.8.8 0 0 0 .07-.82 1 1 0 0 0-.24-.26 1 1 0 0 0-.37-.16 4 4 0 0 0-1.2.01q-.33.08-.62.21M13.53 6q-.8 0-1.34-.29a2 2 0 0 1-.83-.84 3 3 0 0 1-.28-1.34q0-.8.3-1.36.29-.59.84-.87.56-.3 1.34-.3.79 0 1.34.28.54.29.82.85.28.55.28 1.34a3 3 0 0 1-.29 1.36q-.3.57-.84.87-.56.3-1.34.3m.01-.8q.46 0 .76-.2.3-.18.44-.56.15-.37.15-.94t-.14-.94A1 1 0 0 0 14.3 2a1.4 1.4 0 0 0-.76-.19q-.45 0-.75.19-.3.17-.45.56-.14.37-.14.94t.14.94.45.57.75.18m-7.16 6.7L4 8.8l.8-.6 3.3 4.3-4.5 3.3L3 15l2.96-2.16a10 10 0 0 1-3.77-1.39C.9 10.6 0 9.4 0 8h1c0 .94.6 1.87 1.74 2.62.94.61 2.2 1.07 3.64 1.27m7.53-1.77A3 3 0 0 0 15 8h1c0 1.1-.55 2.09-1.42 2.87a8 8 0 0 1-3.45 1.74l-.26-.97a7 7 0 0 0 3.04-1.52"/></svg>