<svg width="24" height="24" fill="none" xmlns="http://www.w3.org/2000/svg"><path fill="currentColor" d="M2.5 9.64a7 7 0 0 0 2.08.35q.46 0 .82-.1t.55-.3q.2-.18.2-.42a.6.6 0 0 0-.21-.45 1.3 1.3 0 0 0-.57-.31q-.36-.12-.84-.11h-.74v-.91h.74q.43 0 .73-.09t.45-.25.16-.39a.5.5 0 0 0-.17-.35q-.17-.16-.47-.25t-.68-.09a5 5 0 0 0-1.9.4v-.95q.4-.2.92-.3A5 5 0 0 1 6 5.18a2 2 0 0 1 .9.54q.3.35.31.82 0 .42-.28.75-.3.33-.81.51.68.2 1.04.55.35.36.35.84 0 .52-.35.91-.34.4-1 .61-.63.22-1.51.22-.62 0-1.16-.1a5 5 0 0 1-.99-.26zm11.59-3.38a6 6 0 0 0-1.73-.29q-.6 0-1.04.16-.43.16-.7.48-.26.3-.35.78.34-.19.73-.28.4-.1.84-.1a4 4 0 0 1 1.43.23q.6.23.92.66.32.45.32 1.03t-.35 1.05-.98.7a4 4 0 0 1-1.48.26q-.9 0-1.55-.32a2 2 0 0 1-.96-.92q-.33-.6-.33-1.49 0-1.05.4-1.77.38-.72 1.15-1.08a5.4 5.4 0 0 1 3.67-.06zm-3.92 2.03q0 .56.19.95.18.38.54.58t.84.2q.43 0 .74-.13.32-.13.5-.39a1 1 0 0 0 .07-.98 1 1 0 0 0-.27-.3 1 1 0 0 0-.44-.19 4 4 0 0 0-1.43.02q-.4.08-.74.24m6.8 2.31a2.3 2.3 0 0 1-.98-1 3.5 3.5 0 0 1-.33-1.6q0-.93.34-1.62.36-.68 1-1.03.67-.35 1.6-.35t1.59.34.98 1 .33 1.59-.34 1.62-1 1.03q-.66.36-1.6.36-.93 0-1.59-.34m2.5-.84q.36-.23.54-.67t.18-1.12q0-.67-.18-1.12-.18-.44-.53-.66a2 2 0 0 0-.9-.22q-.54 0-.9.22-.34.21-.52.66t-.18 1.12.18 1.12.53.67.9.22.89-.22M2.25 15.55c0 .44.4 1.08 1.68 1.72.89.45 2.09.83 3.5 1.1l-1.14-1.58 1.22-.88 2.75 3.83-4.04 2.73-.84-1.24 1.99-1.35c-1.6-.28-3.02-.72-4.12-1.27-1.36-.69-2.5-1.7-2.5-3.06 0-.85.46-1.56 1.11-2.12a8 8 0 0 1 2.6-1.39l.49 1.42q-1.43.51-2.11 1.1c-.45.4-.59.74-.59.99m16.89-2.1.52-1.4c1 .36 1.87.83 2.5 1.39s1.09 1.27 1.09 2.11c0 .8-.4 1.48-.97 2.02q-.87.82-2.26 1.37c-1.82.75-4.29 1.2-7 1.26l-.03-1.5a19 19 0 0 0 6.46-1.14q1.2-.5 1.8-1.07c.38-.37.5-.68.5-.94s-.14-.6-.58-.99a7 7 0 0 0-2.03-1.1"/></svg>