<svg width="24" height="24" fill="none" xmlns="http://www.w3.org/2000/svg"><path fill="currentColor" d="M23 11c0-5.33-4.58-10-10-10V0c5.98 0 11 5.13 11 11zM5.42 2.9q.22.05.43.25l3 3c.14.13.2.3.24.43a1.6 1.6 0 0 1 0 .84q-.04.22-.24.43l-1 1q0 .07.06.21c.2.53.9 1.64 3.04 3.79l.5.5c2.1 2.09 3.25 2.8 3.84 3q.32.1.37.08l1.5-1.3a1 1 0 0 1 .41-.22 1.6 1.6 0 0 1 .85 0q.22.04.43.24l3 3c.14.13.2.3.24.43a1.6 1.6 0 0 1 0 .84q-.04.22-.24.43v.01l-4.27 4.06-.33-.18A50 50 0 0 1 4.6 13.4 50 50 0 0 1 .3 7.79l-.02-.02v-.01L.7 7.5l-.43.26-.2-.33 4.08-4.28q.21-.2.43-.24a1.6 1.6 0 0 1 .84 0M1.33 7.57a24 24 0 0 0 .85 1.25c.71.98 1.77 2.36 3.17 3.93 2.74 3.09 6.8 6.9 12.07 9.94l3.7-3.52.01-.01.02-.15-.02-.17-2.96-2.96h-.02l-.15-.02-.17.02-1.47 1.28-.09.08a1 1 0 0 1-.3.16q-.4.12-1.01-.1c-.81-.28-2.1-1.13-4.21-3.24l-.5-.5c-2.16-2.15-3-3.39-3.28-4.14q-.22-.56-.05-.98a1 1 0 0 1 .27-.33l.94-.93v-.02L8.15 7l-.02-.17-2.96-2.96h-.02L5 3.85l-.16.02zm15.15-.01A5 5 0 0 0 13 6V5c1.6 0 3.1.75 4.2 1.85A6 6 0 0 1 19 11h-1c0-1.25-.58-2.5-1.52-3.45"/></svg>