<svg width="48" height="48" fill="none" xmlns="http://www.w3.org/2000/svg"><path fill="currentColor" d="M46 22c0-11.02-8.98-20-20-20V1c11.58 0 21 9.42 21 21zM11.5 6.63c.47 0 .99.15 1.35.52l4 4c.37.36.53.88.53 1.35 0 .45-.15.94-.48 1.3l-2.05 3.6c0 .12.05.36.26.8.57 1.15 2.2 3.4 6.44 7.65l1 1c4.24 4.24 6.63 5.75 7.91 6.22.63.23.95.2 1.07.16l.07-.03.02-.03 2.55-2.04c.36-.35.87-.5 1.33-.5s.99.15 1.35.52l5 5c.37.36.53.88.53 1.35s-.16.98-.52 1.35l-7.26 7.78-.35-.2A88.5 88.5 0 0 1 2.54 15.6l-.45-.8-.02-.05-.01-.01.44-.24-.44.23-.19-.35 8.29-7.25c.36-.35.87-.5 1.34-.5M3.13 14.6q.1.2.28.48.45.82 1.42 2.32A87.5 87.5 0 0 0 34.4 45.37l6.73-7.22a1 1 0 0 0 .24-.65q-.02-.43-.23-.65l-5-5a1 1 0 0 0-.65-.23q-.43.02-.65.23l-.02.02-2.47 1.98-.11.11q-.15.14-.45.23c-.39.11-.93.1-1.69-.18-1.49-.56-4-2.2-8.26-6.46l-1-1c-4.26-4.25-5.98-6.6-6.64-7.92q-.46-.96-.35-1.48a1 1 0 0 1 .26-.49l1.98-3.47.05-.04a1 1 0 0 0 .23-.65q-.02-.43-.23-.65l-4-4a1 1 0 0 0-.65-.22q-.43.01-.65.22v.02zM36 22a10 10 0 0 0-10-10v-1a11 11 0 0 1 11 11z"/></svg>