<svg width="24" height="24" fill="none" xmlns="http://www.w3.org/2000/svg"><path fill="currentColor" d="M13 1.5a9.7 9.7 0 0 1 9.5 9.5H24c0-5.88-5.02-11-11-11zm0 4.61c1.25 0 2.48.59 3.4 1.52A5 5 0 0 1 17.89 11h1.5a6.4 6.4 0 0 0-1.92-4.42A6.4 6.4 0 0 0 13 4.6zM5.85 3.15a1 1 0 0 0-.43-.24 1.6 1.6 0 0 0-.84 0q-.22.04-.43.24L.07 7.43l.2.34v-.01l.02.03.26.4q.28.44.82 1.2c.73 1 1.8 2.42 3.23 4.02a50 50 0 0 0 12.65 10.33l.33.18 4.26-4.06h.01q.2-.22.24-.43a1.6 1.6 0 0 0 0-.85 1 1 0 0 0-.24-.43l-3-3a1 1 0 0 0-.43-.24 1.6 1.6 0 0 0-.85 0 1 1 0 0 0-.4.22l-1.5 1.3q-.06.02-.38-.08c-.59-.2-1.75-.91-3.84-3l-.5-.5C8.81 10.7 8.1 9.59 7.91 9.06l-.06-.2 1-1q.2-.22.24-.44a1.6 1.6 0 0 0 0-.84 1 1 0 0 0-.24-.43z"/></svg>