<svg width="16" height="16" fill="none" xmlns="http://www.w3.org/2000/svg"><path fill="currentColor" d="M4.07.55c.1.03.25.08.36.2l2.08 2.08q.17.2.21.37a1.2 1.2 0 0 1 0 .67 1 1 0 0 1-.2.36l-.64.64.01.04c.13.33.6 1.08 2.08 2.57l.35.35c1.44 1.44 2.23 1.91 2.6 2.05l.16.04.99-.86q.18-.15.34-.19a1.2 1.2 0 0 1 .68 0q.17.04.36.2l2.08 2.09q.17.18.2.36a1.2 1.2 0 0 1 0 .67 1 1 0 0 1-.2.37l-3.05 2.9-.32-.18A35 35 0 0 1 .34 4.16l-.01-.02.42-.26-.43.26-.2-.33L3.03.75a1 1 0 0 1 .37-.2 1.2 1.2 0 0 1 .67 0M1.38 3.94l.52.76c.5.67 1.22 1.63 2.19 2.71a34 34 0 0 0 8.24 6.81l2.45-2.33v-.07l-2-2h-.07l-1 .87-.06.06a1 1 0 0 1-.27.13 1.3 1.3 0 0 1-.8-.06C10 10.6 9.09 10 7.62 8.53l-.35-.34c-1.49-1.5-2.1-2.38-2.3-2.93q-.18-.43-.04-.8a1 1 0 0 1 .24-.28l.6-.61v-.08l-2-1.99H3.7z"/></svg>