<svg width="24" height="24" fill="none" xmlns="http://www.w3.org/2000/svg"><path fill="currentColor" d="M12.13 1.13q-.12.1-.13.37v1q0 .15.17.33t.33.17h1q.27-.01.37-.13.12-.1.13-.37v-1a.5.5 0 0 0-.17-.33.5.5 0 0 0-.33-.17h-1q-.27.01-.37.13m-.7-.7A1.5 1.5 0 0 1 12.5 0h1c.41 0 .78.2 1.04.46s.46.63.46 1.04v1c0 .41-.14.8-.42 1.08A1.5 1.5 0 0 1 13.5 4h-1c-.41 0-.78-.2-1.04-.46A1.5 1.5 0 0 1 11 2.5v-1c0-.41.14-.8.42-1.08M9.66 6.13 7.94 8.25 6.21 13h1.43l1.39-4.16.94.32-1.42 4.27L14.77 23h1.84l-5.85-9.52 1.51-5.54 3 3.6 1.73.35v-1.03l-1.3-.43L12.26 6H10l-.16.04zM7.73 14H4.79l2.27-6.25 1.87-2.29.02-.01c.3-.3.73-.45 1.05-.45h2.74l3.56 4.57 1.7.57v2.97l-3.27-.65-2-2.4-.9 3.26L18.4 24h-4.16l-3.4-5.22L8.31 24h-4.1l4.24-8.9zm1.35 2.09L5.8 23h1.9l2.5-5.2z"/></svg>