<svg width="16" height="16" fill="none" xmlns="http://www.w3.org/2000/svg"><path fill="currentColor" d="M8.13 1.13Q8 1.23 8 1.5v1q0 .15.17.33T8.5 3h1q.28-.01.37-.13.12-.1.13-.37v-1a.5.5 0 0 0-.17-.33A.5.5 0 0 0 9.5 1h-1q-.28.01-.37.13m-.7-.7A1.5 1.5 0 0 1 8.5 0h1c.41 0 .78.2 1.04.46s.46.63.46 1.04v1c0 .41-.14.8-.42 1.08A1.5 1.5 0 0 1 9.5 4h-1c-.41 0-.78-.2-1.04-.46A1.5 1.5 0 0 1 7 2.5v-1c0-.41.14-.8.42-1.08M7.41 5h1.46c.57 0 1.09.32 1.34.83l.6 1.17H13v1h-2.8l-.87-1.72A.5.5 0 0 0 8.88 6h-1l-2.86 9.99-.96-.28 2.7-9.44L5 6.86V10H4V6.14zM10 12.68l-2.12-2.52.76-.65 2.36 2.8V16h-1z"/></svg>