<svg width="48" height="48" fill="none" xmlns="http://www.w3.org/2000/svg"><path fill="currentColor" d="M9.5 4A3.5 3.5 0 0 0 6 7.5v20A3.5 3.5 0 0 0 9.5 31h13a3.5 3.5 0 0 0 3.5-3.5v-20A3.5 3.5 0 0 0 22.5 4zM5 7.5A4.5 4.5 0 0 1 9.5 3h13A4.5 4.5 0 0 1 27 7.5v20a4.5 4.5 0 0 1-4.5 4.5h-6v1.5A4.5 4.5 0 0 1 12 38H8a3 3 0 1 0 0 6h28.5a3.5 3.5 0 0 0 3.5-3.5V21.98a6.5 6.5 0 0 1-6-6.48V9h3V4.5h1V9h5V4.5h1V9h3v6.5a6.5 6.5 0 0 1-6 6.48V40.5a4.5 4.5 0 0 1-4.5 4.5H8a4 4 0 0 1 0-8h4a3.5 3.5 0 0 0 3.5-3.5V32h-6A4.5 4.5 0 0 1 5 27.5zM8 9h16v1H8zm27 1v5.5a5.5 5.5 0 1 0 11 0V10zM7.6 20a3 3 0 0 1 4.8-2.4 3 3 0 0 1 3.6 0 3 3 0 0 1 3.6 0q.77-.58 1.8-.6a3 3 0 1 1-1.8 5.4 3 3 0 0 1-3.6 0 3 3 0 0 1-3.6 0q-.76.58-1.8.6a3 3 0 0 1-3-3m5.5 1.67a2 2 0 0 0 2.2 0 3 3 0 0 1 0-3.34 2 2 0 0 0-2.2 0 3 3 0 0 1 0 3.34m-.7-2.54a2 2 0 0 0 0 1.74 2 2 0 0 0 0-1.74m-.7-.8q-.48-.31-1.1-.33a2 2 0 1 0 1.1 3.67 3 3 0 0 1 0-3.34m4.3.8a2 2 0 0 0 0 1.74 2 2 0 0 0 0-1.74m.7 2.54a2 2 0 0 0 2.2 0 3 3 0 0 1 0-3.34 2 2 0 0 0-2.2 0 3 3 0 0 1 0 3.34m2.9-2.54a2 2 0 0 0 0 1.74 2 2 0 0 0 0-1.74m.7 2.54a2 2 0 1 0 0-3.33 3 3 0 0 1 0 3.33"/></svg>