<svg width="16" height="16" fill="none" xmlns="http://www.w3.org/2000/svg"><path fill="currentColor" d="M8.77 1.5q-.36.15-.77.17-.43-.02-.76-.17-.28-.1-.51-.22l-.12-.06q-.3-.15-.5-.2-.2-.04-.27 0-.07.01-.22.17a3 3 0 0 0-.35.57Q5.15 2 5 2.24q-.18.32-.51.58-.36.23-.71.31l-.54.12-.14.02q-.31.05-.52.14-.19.07-.23.15-.05.05-.07.27a3 3 0 0 0 .04.7q.04.25.06.53.03.36-.08.76c-.08.26-.24.48-.39.66l-.35.39-.1.1q-.24.25-.35.43t-.1.27q-.01.09.1.27a3 3 0 0 0 .43.51q.2.18.37.4.24.27.4.67.11.42.07.77-.01.29-.05.55l-.02.14a3 3 0 0 0-.03.54q.01.2.07.26.04.07.23.15a3 3 0 0 0 .67.16l.53.12q.36.08.71.3.32.27.51.58l.28.48.07.12q.15.3.3.46.13.16.2.18.06.03.26-.02a3 3 0 0 0 .5-.2q.06-.01.12-.05l.51-.23c.23-.08.5-.16.77-.16q.42.02.76.17.28.1.51.22l.12.06q.3.14.5.2.2.04.27 0 .07-.01.22-.17a3 3 0 0 0 .35-.57q.13-.25.28-.48c.12-.2.29-.42.51-.58q.36-.23.71-.31l.54-.12.14-.02q.31-.05.52-.14.19-.08.23-.15.05-.05.07-.27t-.03-.54l-.01-.15q-.05-.26-.06-.54-.03-.36.08-.76c.08-.26.24-.48.39-.66l.46-.5q.22-.24.34-.42.11-.17.1-.27a.5.5 0 0 0-.1-.27 3 3 0 0 0-.43-.51l-.37-.4q-.24-.27-.4-.67-.11-.41-.07-.78.01-.27.05-.55l.02-.13a3 3 0 0 0 .03-.54q-.01-.2-.07-.26-.04-.07-.23-.15a3 3 0 0 0-.67-.16l-.53-.12a2 2 0 0 1-.71-.3 2 2 0 0 1-.51-.58l-.28-.48-.07-.12q-.15-.3-.3-.46-.13-.16-.2-.18-.06-.03-.26.02a3 3 0 0 0-.5.2q-.06.01-.12.05-.25.12-.51.22M9.65.06c.24-.07.53-.1.83 0s.5.3.66.5q.24.28.4.6l.08.14.23.4q.15.24.26.31.1.08.37.15l.45.1.16.03q.35.06.7.19c.24.1.5.24.68.5q.25.38.26.77a4 4 0 0 1-.06.9q-.04.23-.04.45-.01.28.03.4.04.14.21.35l.3.33.12.12q.25.25.46.57.23.33.25.8-.02.47-.25.8-.2.33-.46.58l-.13.14-.3.31q-.17.22-.2.33-.04.11-.03.4.01.2.05.44l.02.18q.04.34.03.73a1.5 1.5 0 0 1-.26.79q-.3.37-.67.49-.36.14-.7.19l-.17.03-.45.1q-.27.07-.37.15a1 1 0 0 0-.26.3l-.23.4-.08.15q-.15.31-.4.6c-.15.2-.37.4-.67.5s-.58.07-.83 0a4 4 0 0 1-.67-.26l-.15-.06-.42-.2q-.25-.09-.4-.09t-.4.1l-.44.19-.14.06q-.3.16-.67.26c-.24.06-.53.1-.83 0s-.5-.3-.66-.5a4 4 0 0 1-.4-.6l-.08-.14-.23-.4q-.15-.24-.26-.31-.1-.08-.37-.15l-.61-.13q-.35-.05-.7-.2c-.24-.08-.5-.23-.68-.48a1.5 1.5 0 0 1-.26-.79 4 4 0 0 1 .06-.88q.04-.25.04-.46.01-.28-.03-.4a1 1 0 0 0-.21-.35l-.3-.33-.12-.12a4 4 0 0 1-.46-.57 1.5 1.5 0 0 1-.25-.8c0-.31.11-.58.25-.8q.22-.33.46-.58l.13-.14.3-.31q.17-.22.2-.33.05-.11.03-.4L1.3 4.5a4 4 0 0 1-.03-.73c.02-.25.08-.54.26-.79.19-.25.44-.4.67-.49a4 4 0 0 1 .87-.22l.45-.1q.27-.07.37-.15.11-.07.26-.3l.23-.4.08-.15q.15-.31.4-.6c.15-.2.37-.4.67-.5s.58-.07.83 0a4 4 0 0 1 .82.32l.42.2q.25.09.4.09t.4-.1l.58-.26c.2-.09.43-.2.67-.25m1.38 5.75L7.27 10.6l-2.3-2.25.7-.72 1.5 1.48 3.08-3.9z"/></svg>