<svg width="48" height="48" fill="none" xmlns="http://www.w3.org/2000/svg"><path fill="currentColor" d="M23.9 2h.1c12.08 0 21.9 9.82 22 21.9 0 12.18-9.82 22-21.9 22.1h-.17A22.1 22.1 0 0 1 2 24.1C2 11.92 11.82 2.1 23.9 2m.13 43q1.48 0 2.91-1.54a14 14 0 0 0 2.6-4.48q.72-1.8 1.24-3.98H17.2q.53 2.22 1.24 4.03c.76 1.9 1.64 3.42 2.6 4.44q1.42 1.5 2.9 1.53zm2.99-.23A21.1 21.1 0 0 0 41.85 35H31.81a32 32 0 0 1-1.33 4.35 15 15 0 0 1-2.8 4.79q-.33.34-.66.63m5-10.77h10.41a21 21 0 0 0 2.54-9H33c-.06 3.23-.4 6.28-.97 9M33 24h12v-.1c-.03-3.18-.76-6.2-2.05-8.9H32.24c.49 2.72.76 5.74.76 8.9zm-1.78-9H16.78a50 50 0 0 0-.78 9h16v-.1c0-3.18-.28-6.2-.78-8.9m.83-1h10.39A21 21 0 0 0 27.02 3.22q.33.29.66.62a15 15 0 0 1 2.8 4.75A33 33 0 0 1 32.05 14M24 3q-1.5 0-2.95 1.53a14 14 0 0 0-2.6 4.44A31 31 0 0 0 16.98 14h14.05q-.6-2.82-1.48-5.04a14 14 0 0 0-2.6-4.43Q25.5 2.99 24 3m-3.03.23A21.1 21.1 0 0 0 5.57 14h10.39q.62-3 1.56-5.4a15 15 0 0 1 2.8-4.76q.32-.33.65-.61M15.77 15H5.06A21 21 0 0 0 3 24h12c0-3.2.27-6.25.77-9M15 25H3.03c.16 3.24 1.06 6.3 2.54 9h10.39c-.56-2.72-.9-5.77-.95-9m1.97 9H31c.57-2.7.92-5.75.99-9H16c.06 3.25.4 6.3.97 9m-.8 1H6.15a21.1 21.1 0 0 0 14.82 9.77q-.33-.29-.65-.61a15 15 0 0 1-2.8-4.76 31 31 0 0 1-1.34-4.4"/></svg>