<svg width="16" height="16" fill="none" xmlns="http://www.w3.org/2000/svg"><path fill="currentColor" d="M1.29 6a7 7 0 0 0 0 4h2.92a17 17 0 0 1 0-4zm.38-1h2.7q.27-1.42.76-2.51.28-.62.65-1.13A7 7 0 0 0 1.68 5M8 0a8 8 0 1 1 0 16A8 8 0 0 1 8 0m0 1c-.62 0-1.35.58-1.96 1.9A10 10 0 0 0 5.38 5h5.24a10 10 0 0 0-.66-2.1C9.36 1.58 8.62 1 8 1m3.63 4h2.7a7 7 0 0 0-4.1-3.64q.35.51.64 1.13.5 1.09.76 2.51m-.85 1H5.22a16 16 0 0 0 0 4h5.56a16 16 0 0 0 0-4m1.01 4h2.92a7 7 0 0 0 0-4h-2.92a17 17 0 0 1 0 4m-1.17 1H5.38q.26 1.2.66 2.1C6.64 14.42 7.38 15 8 15s1.35-.58 1.96-1.9q.41-.9.66-2.1m-.4 3.64a7 7 0 0 0 4.1-3.64h-2.69a11 11 0 0 1-.76 2.51q-.28.62-.65 1.13m-4.44 0a7 7 0 0 1-.65-1.13A11 11 0 0 1 4.37 11h-2.7a7 7 0 0 0 4.1 3.64"/></svg>