<svg width="24" height="24" fill="none" xmlns="http://www.w3.org/2000/svg"><path fill="currentColor" d="M8.43 3.2Q7.92 4.44 7.57 6h7.86a17 17 0 0 0-.86-2.8A8 8 0 0 0 13.1.8q-.81-.81-1.59-.8-.78-.01-1.59.8a8 8 0 0 0-1.48 2.4M9.03.26A9 9 0 0 0 7.5 2.82Q6.93 4.22 6.54 6H1.4A11.5 11.5 0 0 1 9.03.26m4.94 0A11.5 11.5 0 0 1 21.6 6h-5.14a18 18 0 0 0-.96-3.18A9 9 0 0 0 13.97.26M22.09 7q.8 1.87.9 4h-6a28 28 0 0 0-.35-4zm.9 5a12 12 0 0 1-.9 4h-5.45q.31-1.89.36-4zm-1.39 5a11.5 11.5 0 0 1-7.63 5.74 9 9 0 0 0 1.53-2.56q.57-1.4.96-3.18zm-10.1 6q-.78.01-1.59-.8a8 8 0 0 1-1.48-2.4q-.51-1.23-.86-2.8h7.86a17 17 0 0 1-.86 2.8 8 8 0 0 1-1.48 2.4q-.81.81-1.59.8m-2.47-.26A11.5 11.5 0 0 1 1.4 17h5.14q.38 1.78.96 3.18.65 1.56 1.53 2.56M.91 16a12 12 0 0 1-.9-4h6q.03 2.11.35 4zm-.9-5q.1-2.13.9-4h5.45A28 28 0 0 0 6 11zM7 11q.05-2.13.37-4h8.26q.32 1.87.37 4zm.37 5A26 26 0 0 1 7 12h9a26 26 0 0 1-.37 4z"/></svg>