<svg width="24" height="24" fill="none" xmlns="http://www.w3.org/2000/svg"><path fill="currentColor" fill-rule="evenodd" d="M6.5 4V3h1v1zm2 0V3h1v1zm6 0V3h1v1zm2 0V3h1v1zm-12 1V4h1v1zm6 0V4h1v1zm2 0V4h1v1zm6 0V4h1v1zm-15 2V6h1v1zm8 0V6h1v1zm8 0V6h1v1zM.74 11.12A22 22 0 0 1 12 8c4.12 0 7.97 1.14 11.26 3.12l.47.28-7.7 10.27-.4-.35a5.6 5.6 0 0 0-7.26 0l-.4.35L.27 11.4zm1 .57 6.4 8.54a6.6 6.6 0 0 1 3.36-1.22V18h1v1.01c1.25.1 2.4.53 3.36 1.22l6.4-8.54A21 21 0 0 0 12 9c-3.73 0-7.23.98-10.26 2.7m9.76-.7v-1h1v1zm0 2v-1h1v1zm0 2v-1h1v1zm0 2v-1h1v1z" clip-rule="evenodd"/></svg>