<svg width="24" height="24" fill="none" xmlns="http://www.w3.org/2000/svg"><path fill="currentColor" d="m7.81 11.51 3.11 1.52a.71.71 0 0 1-.14 1.33l-3.36.84a.72.72 0 0 1-.88-.61q-.14-1.4.28-2.67c.14-.4.6-.6 1-.41m1.25 6.4 2.31-2.56a.71.71 0 0 1 1.25.5l-.12 3.46a.7.7 0 0 1-.83.68 6 6 0 0 1-2.49-1 .7.7 0 0 1-.12-1.07m5.5-3.42 3.29 1.07c.4.14.6.6.42 1a6 6 0 0 1-1.65 2.1.72.72 0 0 1-1.06-.17l-1.83-2.94a.71.71 0 0 1 .82-1.06m3.34-2.1-3.33.96a.71.71 0 0 1-.79-1.09l1.94-2.87a.7.7 0 0 1 1.06-.14q1.02.89 1.58 2.17c.17.4-.04.85-.46.97m-7.78-8.08q-.9.24-1.71.63a.7.7 0 0 0-.3 1l3.25 5.64c.36.63 1.33.37 1.33-.36v-6.5a.7.7 0 0 0-.77-.72q-.9.07-1.8.31"/></svg>