<svg width="48" height="48" fill="none" xmlns="http://www.w3.org/2000/svg"><path fill="currentColor" d="m41.85 6.85-34 34-.7-.7 34-34 .7.7ZM9.72 7.9a2.5 2.5 0 0 1 3.53 0l2.06 2.05 9.9 4.25 3.24 3.24-.7.7-2.83-2.82-10.6 10.61 2.8 2.81-.7.7-3.24-3.22-4.24-9.9-3.82-3.82 4.6-4.6Zm.24 8.25 3.82 8.9 10.26-10.26-8.9-3.82-5.18 5.18Zm4.35-5.78L12.55 8.6a1.5 1.5 0 0 0-2.13 0l-3.88 3.89 2.82 2.82 4.95-4.95ZM32.7 23.1l-2.82-2.82.7-.7 4.46 4.45-.7.7-.93-.92L22.8 34.4l.88.88-.71.71-4.43-4.43.71-.7 2.84 2.84 10.6-10.6Zm3.3 3.4v-1h1v1h-1Zm2 2v-1h1v1h-1Zm2 2v-1h1v1h-1ZM36.5 34v-1h1v1h-1Zm3.5 0v-1h1v1h-1Zm-2.5 3v-1h1v1h-1ZM25 38v-1h1v1h-1Zm7.5 0v-1h1v1h-1Zm11 0v-1h1v1h-1ZM27 40v-1h1v1h-1Zm11.5 1v-1h1v1h-1ZM29 42v-1h1v1h-1Zm2.5 0v-1h1v1h-1Z"/></svg>