<svg width="24" height="24" fill="none" xmlns="http://www.w3.org/2000/svg"><path fill="currentColor" d="M21.35 3.35 3.85 20.98l-.7-.7 17.5-17.63.7.7ZM6.02 2.73 8.07 4.8l4.95 2.12.98.98-.7.7-.85-.84L7.9 5.8 5.55 8.15 7.5 12.7l.85.85-.7.71-1-.99-2.11-4.95-2.06-2.05 3.54-3.54Zm-1.06 4.6 2.12-2.12-1.06-1.06L3.9 6.27l1.06 1.06Zm12.69 5.62-2.22-2.22.7-.7 2.22 2.21-.7.7ZM19 14.5v-1h1v1h-1Zm1.5 1.5v-1h1v1h-1Zm-9.98-.28 2.17 2.17-.7.7-2.18-2.17.7-.7ZM17.5 17v-1h1v1h-1ZM13 20v-1h1v1h-1Zm3.5 0v-1h1v1h-1Zm3 0v-1h1v1h-1Zm-5 1.5v-1h1v1h-1Z"/></svg>