<svg width="48" height="48" fill="none" xmlns="http://www.w3.org/2000/svg"><path fill="currentColor" d="m41.85 6.85-34 34-.7-.7 34-34zM9.72 7.9a2.5 2.5 0 0 1 3.53 0l2.06 2.05 9.9 4.25 3.24 3.24-.7.7-2.83-2.82-10.6 10.61 2.8 2.81-.7.7-3.24-3.22-4.24-9.9-3.82-3.82zm.24 8.25 3.82 8.9 10.26-10.26-8.9-3.82zm4.35-5.78L12.55 8.6a1.5 1.5 0 0 0-2.13 0l-3.88 3.89 2.82 2.82zM32.7 23.1l-2.82-2.82.7-.7 4.46 4.45-.7.7-.93-.92L22.8 34.4l.88.88-.71.71-4.43-4.43.71-.7 2.84 2.84zm3.3 3.4v-1h1v1zm2 2v-1h1v1zm2 2v-1h1v1zM36.5 34v-1h1v1zm3.5 0v-1h1v1zm-2.5 3v-1h1v1zM25 38v-1h1v1zm7.5 0v-1h1v1zm11 0v-1h1v1zM27 40v-1h1v1zm11.5 1v-1h1v1zM29 42v-1h1v1zm2.5 0v-1h1v1z"/></svg>