<svg width="24" height="24" fill="none" xmlns="http://www.w3.org/2000/svg"><path fill="currentColor" d="m13.66 7.55-6.34 6.39-.66-.67-1.87-4.35 3.88-3.88 4.35 1.87.64.64Zm-9.41.49L2.48 6.27l3.54-3.54L7.79 4.5 4.25 8.04Zm17.28-4.51L4.03 21.15 2.97 20.1l17.5-17.63 1.06 1.06Zm-4.06 9.6-1.7-1.7 1.06-1.07 1.7 1.7-1.06 1.06Zm2.03.37V12H21v1.5h-1.5Zm-3.5 3V15h1.5v1.5H16Zm5 .5v-1.5h1.5V17H21Zm-9.76-.92 1.63 1.64-1.06 1.06-1.63-1.63 1.06-1.07Zm5.26 3.42V18H18v1.5h-1.5Zm3 1V19H21v1.5h-1.5Zm-8 1.5v-1.5H13V22h-1.5Zm3.5.5V21h1.5v1.5H15Z"/></svg>